<?xml version="1.0" standalone="no"?>
<!DOCTYPE svg PUBLIC "-//W3C//DTD SVG 1.1//EN" "http://www.w3.org/Graphics/SVG/1.1/DTD/svg11.dtd" >
<svg xmlns="http://www.w3.org/2000/svg" xmlns:xlink="http://www.w3.org/1999/xlink" version="1.1">
<metadata>
Created by FontForge 20180905 at Mon Apr 24 18:02:49 2017
 By convertio
Copyright \(c\) 2015 by Luzi Type. All rights reserved.
</metadata>
<defs>
<font id="Faro-DisplayLucky" horiz-adv-x="723" >
  <font-face 
    font-family="Faro Display Lucky"
    font-weight="400"
    font-stretch="normal"
    units-per-em="1000"
    panose-1="0 0 9 0 0 0 0 0 0 0"
    ascent="800"
    descent="-200"
    x-height="515"
    cap-height="700"
    bbox="-91 -465 1687 985"
    underline-thickness="50"
    underline-position="-100"
    stemh="130"
    stemv="180"
    unicode-range="U+000D-221E"
  />
<missing-glyph horiz-adv-x="467" 
 />
    <glyph glyph-name="T_h" unicode="Th" horiz-adv-x="1202" 
d="M978 522c88 0 179 -58 179 -176v-346h-180v272c0 60 -34 86 -69 86c-37 0 -76 -31 -76 -86v-272h-180v535l-219 1v-536h-186v536c-103 0 -163 5 -237 28l43 161c72 -22 148 -25 228 -25h551v-261c27 55 85 83 146 83z" />
    <glyph glyph-name="f_f" unicode="ff" horiz-adv-x="800" 
d="M800 410c-45 -15 -87 -21 -150 -23v-387h-180v385h-184v-385h-180v385h-96v130h96v7c0 120 59 189 223 189h73v-131h-32c-56 0 -84 -15 -84 -56v-9h184v7c0 120 59 189 223 189h73v-131h-32c-56 0 -84 -15 -84 -56v-5c39 3 76 8 113 17z" />
    <glyph glyph-name="f_f_f" unicode="fff" horiz-adv-x="1164" 
d="M1164 410c-45 -15 -88 -21 -150 -23v-387h-180v385h-184v-385h-180v385h-184v-385h-180v385h-96v130h96v7c0 120 59 189 223 189h73v-131h-32c-56 0 -84 -15 -84 -56v-9h184v7c0 120 59 189 223 189h73v-131h-33c-55 0 -83 -15 -83 -56v-9h184v7c0 120 59 189 223 189h73
v-131h-33c-55 0 -83 -15 -83 -56v-6c38 3 76 9 113 18z" />
    <glyph glyph-name="f_f_t" unicode="fft" horiz-adv-x="1174" 
d="M1015 210c0 -50 28 -69 84 -69h32v-141h-73c-164 0 -223 69 -223 189v196h-185v-385h-180v385h-184v-385h-180v385h-96v130h96v7c0 120 59 189 223 189h73v-131h-32c-56 0 -84 -15 -84 -56v-9h184v7c0 120 59 189 223 189h73v-131h-33c-55 0 -83 -15 -83 -56v-9h185v133
h180v-130c38 3 76 9 113 18l36 -126c-45 -15 -88 -21 -149 -23v-177z" />
    <glyph glyph-name="f_t" unicode="ft" horiz-adv-x="811" 
d="M651 210c0 -50 29 -69 84 -69h32v-141h-73c-164 0 -223 69 -223 189v196h-185v-385h-180v385h-96v130h96v7c0 120 59 189 223 189h73v-131h-32c-56 0 -84 -15 -84 -56v-9h185v133h180v-129c39 3 76 8 113 17l37 -126c-45 -15 -87 -21 -150 -23v-177z" />
    <glyph glyph-name="t_f" unicode="tf" horiz-adv-x="801" 
d="M801 410c-45 -15 -88 -21 -150 -23v-387h-180v385h-185v-175c0 -50 29 -69 84 -69h32v-141h-73c-164 0 -223 69 -223 189v196h-96v130h96v133h180v-133h185v7c0 120 59 189 223 189h73v-131h-33c-55 0 -83 -15 -83 -56v-6c38 3 76 9 113 18z" />
    <glyph glyph-name="t_f_f" unicode="tff" horiz-adv-x="1164" 
d="M1164 410c-44 -15 -86 -21 -149 -23v-387h-180v385h-184v-385h-180v385h-185v-175c0 -50 29 -69 84 -69h32v-141h-73c-164 0 -223 69 -223 189v196h-96v130h96v133h180v-133h185v7c0 120 59 189 223 189h73v-131h-33c-55 0 -83 -15 -83 -56v-9h184v7
c0 120 59 189 223 189h73v-131h-33c-55 0 -83 -15 -83 -56v-5c38 3 76 8 113 17z" />
    <glyph glyph-name="t_t" unicode="tt" horiz-adv-x="811" 
d="M651 210c0 -50 29 -69 84 -69h32v-141h-73c-164 0 -223 69 -223 189v196h-185v-175c0 -50 29 -69 84 -69h32v-141h-73c-164 0 -223 69 -223 189v196h-96v130h96v133h180v-133h185v133h180v-129c39 3 76 8 113 17l37 -126c-45 -15 -87 -21 -150 -23v-177z" />
    <glyph glyph-name="t_t_f" unicode="ttf" horiz-adv-x="1165" 
d="M1165 410c-44 -15 -86 -21 -149 -23v-387h-180v385h-185v-175c0 -50 29 -69 84 -69h32v-141h-73c-164 0 -223 69 -223 189v196h-185v-175c0 -50 29 -69 84 -69h32v-141h-73c-164 0 -223 69 -223 189v196h-96v130h96v133h180v-133h185v133h180v-133h185v7
c0 120 59 189 223 189h73v-131h-33c-55 0 -83 -15 -83 -56v-5c38 3 76 8 113 17z" />
    <glyph glyph-name=".notdef" horiz-adv-x="467" 
 />
    <glyph glyph-name="space" unicode=" " horiz-adv-x="250" 
 />
    <glyph glyph-name="A" unicode="A" horiz-adv-x="731" 
d="M494 111h-257l-39 -111h-198l274 700h182l275 -700h-197zM438 269l-72 200l-73 -200h145z" />
    <glyph glyph-name="B" unicode="B" horiz-adv-x="670" 
d="M485 379c106 -24 155 -102 155 -182c0 -98 -76 -197 -225 -197h-355v700h327c155 0 223 -87 223 -170c0 -68 -45 -133 -125 -151zM243 429h85c54 0 81 25 81 60c0 33 -25 61 -75 61h-91v-121zM353 153c63 0 96 35 96 77c0 39 -31 69 -89 69h-117v-146h110z" />
    <glyph glyph-name="C" unicode="C" horiz-adv-x="749" 
d="M739 332h-185c0 -112 -69 -168 -154 -168c-114 0 -182 77 -182 195c0 124 81 187 168 187c63 0 118 -31 149 -87l145 107c-65 98 -179 145 -291 145c-185 0 -359 -128 -359 -359c0 -244 181 -363 365 -363c172 0 344 115 344 343z" />
    <glyph glyph-name="D" unicode="D" horiz-adv-x="726" 
d="M320 0h-260v700h274c245 0 362 -165 362 -348c0 -198 -137 -352 -376 -352zM245 165h73c124 0 191 86 191 190c0 101 -61 181 -189 181h-75v-371z" />
    <glyph glyph-name="E" unicode="E" horiz-adv-x="605" 
d="M60 0v700h255c80 0 156 3 227 25l43 -161c-80 -25 -143 -28 -265 -28h-75v-107h260v-157h-260v-107h312v-165h-497z" />
    <glyph glyph-name="F" unicode="F" horiz-adv-x="595" 
d="M505 272h-260v-272h-185v700h255c80 0 156 3 227 25l43 -161c-80 -25 -143 -28 -265 -28h-75v-107h260v-157z" />
    <glyph glyph-name="G" unicode="G" horiz-adv-x="766" 
d="M365 -11c-163 0 -335 125 -335 362c0 232 174 360 361 360c114 0 225 -48 289 -146l-145 -107c-31 57 -86 88 -148 88c-88 0 -169 -63 -169 -191c0 -138 93 -200 182 -200c63 0 117 30 144 81c-99 1 -155 6 -214 25l37 127c78 -20 160 -21 244 -21h105v-367h-101l-35 78
c-56 -59 -135 -89 -215 -89z" />
    <glyph glyph-name="H" unicode="H" horiz-adv-x="742" 
d="M682 700v-700h-184v272h-254v-272h-184v700h184v-272h254v272h184z" />
    <glyph glyph-name="I" unicode="I" horiz-adv-x="284" 
d="M234 0h-184v700h184v-700z" />
    <glyph glyph-name="J" unicode="J" horiz-adv-x="602" 
d="M269 -11c-168 0 -269 102 -269 259h185c0 -64 42 -88 86 -88c45 0 86 27 86 89v287h-7c-122 0 -186 2 -266 28l43 161c72 -23 147 -25 228 -25h187v-469c0 -140 -96 -242 -273 -242z" />
    <glyph glyph-name="K" unicode="K" horiz-adv-x="677" 
d="M424 362l263 -362h-234l-208 289v-289h-185v700h185v-286l204 286h222z" />
    <glyph glyph-name="L" unicode="L" horiz-adv-x="557" 
d="M245 165h292v-165h-477v700h185v-535z" />
    <glyph glyph-name="M" unicode="M" horiz-adv-x="913" 
d="M597 700h256v-700h-183v418l-140 -418h-147l-140 418v-418h-183v700h256l141 -450z" />
    <glyph glyph-name="N" unicode="N" 
d="M663 700v-700h-181l-237 369v-369h-185v700h181l237 -390v390h185z" />
    <glyph glyph-name="O" unicode="O" horiz-adv-x="774" 
d="M744 350c0 -210 -151 -361 -358 -361c-205 0 -356 151 -356 361s151 361 356 361c207 0 358 -151 358 -361zM556 350c0 109 -68 186 -170 186c-100 0 -168 -77 -168 -186s68 -186 168 -186c102 0 170 77 170 186z" />
    <glyph glyph-name="P" unicode="P" horiz-adv-x="667" 
d="M385 700c190 0 272 -115 272 -247c0 -152 -92 -254 -283 -254h-129v-199h-185v700h325zM370 358c59 0 101 30 101 94c0 54 -38 89 -101 89h-125v-183h125z" />
    <glyph glyph-name="Q" unicode="Q" horiz-adv-x="774" 
d="M644 92c23 -24 48 -46 75 -66l-71 -103c-38 23 -69 51 -110 97c-45 -20 -97 -31 -152 -31c-205 0 -356 151 -356 361s151 361 356 361c207 0 358 -151 358 -361c0 -104 -37 -194 -100 -258zM218 350c0 -109 68 -186 168 -186c10 0 19 1 28 2l-66 79l95 80l79 -93
c22 31 34 72 34 118c0 109 -68 186 -170 186c-100 0 -168 -77 -168 -186z" />
    <glyph glyph-name="R" unicode="R" horiz-adv-x="695" 
d="M475 0l-148 251h-82v-251h-185v700h331c173 0 250 -106 250 -214c0 -83 -45 -169 -127 -204l181 -282h-220zM245 396h121c63 0 88 37 88 74c0 38 -23 75 -86 75h-123v-149z" />
    <glyph glyph-name="S" unicode="S" horiz-adv-x="631" 
d="M20 269h184c0 -93 65 -128 136 -128c54 0 90 20 90 59c0 45 -50 60 -155 95c-92 31 -211 72 -211 208c0 141 126 208 253 208c109 0 217 -50 258 -153l-149 -74c-20 48 -65 74 -109 74c-34 0 -69 -17 -69 -52c0 -46 61 -60 136 -82c125 -38 227 -81 227 -208
c0 -149 -137 -227 -280 -227c-153 0 -311 90 -311 280z" />
    <glyph glyph-name="T" unicode="T" horiz-adv-x="610" 
d="M610 564c-68 -22 -124 -28 -216 -28v-536h-185v536h-199v164h330c80 0 156 3 228 25z" />
    <glyph glyph-name="U" unicode="U" 
d="M60 700h185v-413c0 -91 58 -123 116 -123c59 0 116 32 116 123v413h186v-431c0 -183 -131 -280 -303 -280c-170 0 -300 96 -300 280v431z" />
    <glyph glyph-name="V" unicode="V" horiz-adv-x="676" 
d="M0 700h201l137 -470l138 470h200l-242 -700h-191z" />
    <glyph glyph-name="W" unicode="W" horiz-adv-x="1011" 
d="M804 700h197l-204 -700h-191l-100 339l-100 -339h-191l-205 700h197l107 -454l105 454h174l104 -454z" />
    <glyph glyph-name="X" unicode="X" horiz-adv-x="728" 
d="M473 351l255 -351h-234l-130 188l-129 -188h-235l255 351l-255 349h236l128 -186l128 186h236z" />
    <glyph glyph-name="Y" unicode="Y" horiz-adv-x="706" 
d="M500 700h216l-271 -448v-252h-185v252l-270 448h215l148 -276z" />
    <glyph glyph-name="Z" unicode="Z" horiz-adv-x="663" 
d="M643 165v-165h-613v145l351 391h-82c-123 0 -186 3 -266 28l43 161c72 -22 147 -25 227 -25h331v-143l-349 -392h358z" />
    <glyph glyph-name="a" unicode="a" horiz-adv-x="587" 
d="M199 -11c-100 0 -179 60 -179 166c0 102 70 153 175 153c59 0 127 -15 169 -34v43c0 38 -33 59 -66 59c-39 0 -63 -17 -77 -47l-161 58c35 80 110 137 243 137c139 0 239 -66 239 -204v-320h-175v58c-50 -44 -104 -69 -168 -69zM245 124c43 0 81 18 113 70h-192
c0 -46 26 -70 79 -70z" />
    <glyph glyph-name="b" unicode="b" horiz-adv-x="636" 
d="M616 261c0 -141 -76 -272 -232 -272c-80 0 -129 33 -160 69v-58h-174v700h180v-247c33 43 86 71 152 71c119 0 234 -89 234 -263zM331 364c-70 0 -102 -52 -102 -109c0 -74 54 -115 104 -115c51 0 101 38 101 113c0 62 -34 111 -103 111z" />
    <glyph glyph-name="c" unicode="c" horiz-adv-x="574" 
d="M297 -11c-143 0 -277 90 -277 271c0 175 120 264 266 264c94 0 179 -36 227 -98l-124 -100c-20 32 -58 47 -92 47c-52 0 -97 -35 -97 -108c0 -75 50 -115 105 -115c52 0 89 31 89 91h170c0 -165 -127 -252 -267 -252z" />
    <glyph glyph-name="d" unicode="d" horiz-adv-x="636" 
d="M254 524c66 0 118 -28 152 -71v247h180v-700h-174v58c-31 -36 -81 -69 -160 -69c-157 0 -232 131 -232 272c0 174 114 263 234 263zM202 253c0 -75 50 -113 100 -113c51 0 105 41 105 115c0 57 -33 109 -103 109c-68 0 -102 -49 -102 -111z" />
    <glyph glyph-name="e" unicode="e" horiz-adv-x="564" 
d="M370 215c-85 0 -158 15 -186 29c0 -73 45 -112 110 -112c45 0 79 18 91 50h154c-12 -90 -90 -193 -251 -193c-174 0 -268 121 -268 271c0 167 115 264 269 264c143 0 255 -82 255 -260c0 -16 -1 -37 -3 -49h-171zM283 398c-32 0 -65 -15 -82 -57c48 -28 115 -33 169 -33
c3 56 -40 90 -87 90z" />
    <glyph glyph-name="f" unicode="f" horiz-adv-x="436" 
d="M436 410c-45 -15 -88 -21 -150 -23v-387h-180v385h-96v130h96v7c0 120 59 189 223 189h73v-131h-32c-56 0 -84 -15 -84 -56v-6c38 3 76 9 113 18z" />
    <glyph glyph-name="g" unicode="g" horiz-adv-x="591" 
d="M424 119c112 0 167 -71 167 -146c0 -78 -55 -171 -233 -171h-147c-168 0 -211 71 -211 121c0 43 30 89 111 102c-54 17 -81 56 -81 95c0 40 27 80 78 95c-43 34 -65 80 -65 131c0 99 85 178 238 178c46 0 86 -7 120 -20c23 42 21 98 2 145h175c3 -9 7 -27 7 -49
c0 -56 -32 -119 -105 -150c25 -29 38 -65 38 -104c0 -99 -84 -183 -237 -183c-45 0 -84 7 -117 20c-8 -6 -14 -17 -14 -28c0 -18 13 -36 45 -36h229zM281 413c-43 0 -67 -30 -67 -74c0 -45 24 -74 67 -74c41 0 66 28 66 74c0 45 -25 74 -66 74zM299 -100c65 0 121 32 123 81
h-250c1 -49 60 -81 127 -81z" />
    <glyph glyph-name="h" unicode="h" horiz-adv-x="599" 
d="M375 524c88 0 179 -57 179 -175v-349h-180v275c0 60 -33 86 -69 86c-37 0 -75 -32 -75 -86v-275h-180v700h180v-258c27 55 85 82 145 82z" />
    <glyph glyph-name="i" unicode="i" horiz-adv-x="294" 
d="M148 553c-64 0 -108 44 -108 108c0 62 44 106 108 106c62 0 106 -44 106 -106c0 -64 -44 -108 -106 -108zM237 0h-180v515h180v-515z" />
    <glyph glyph-name="j" unicode="j" horiz-adv-x="301" 
d="M155 553c-64 0 -107 44 -107 108c0 62 43 106 107 106c62 0 106 -44 106 -106c0 -64 -44 -108 -106 -108zM-20 -55c56 0 84 19 84 70v500h179v-510c0 -121 -57 -190 -223 -190h-40v130z" />
    <glyph glyph-name="k" unicode="k" horiz-adv-x="609" 
d="M391 275l198 -275h-219l-140 202v-202h-180v700h180v-359l137 174h242z" />
    <glyph glyph-name="l" unicode="l" horiz-adv-x="280" 
d="M230 0h-180v700h180v-700z" />
    <glyph glyph-name="m" unicode="m" horiz-adv-x="907" 
d="M862 348v-348h-180v278c0 53 -32 79 -68 79c-37 0 -68 -29 -68 -79v-278h-180v278c0 54 -31 79 -69 79c-37 0 -67 -27 -67 -79v-278h-180v515h174v-85c21 61 88 94 154 94c68 0 125 -34 144 -97c25 59 104 97 173 97c81 0 167 -51 167 -176z" />
    <glyph glyph-name="n" unicode="n" horiz-adv-x="599" 
d="M554 349v-349h-180v275c0 60 -33 86 -69 86c-37 0 -75 -32 -75 -86v-275h-180v515h174v-85c24 63 87 94 151 94c88 0 179 -57 179 -175z" />
    <glyph glyph-name="o" unicode="o" horiz-adv-x="591" 
d="M295 524c162 0 276 -107 276 -268c0 -160 -114 -267 -276 -267s-275 107 -275 267c0 161 113 268 275 268zM295 141c51 0 95 35 95 115c0 81 -44 116 -95 116c-50 0 -94 -35 -94 -116c0 -80 44 -115 94 -115z" />
    <glyph glyph-name="p" unicode="p" horiz-adv-x="636" 
d="M616 267c0 -144 -85 -274 -242 -274c-74 0 -122 29 -144 52v-230h-180v700h174v-65c35 44 81 74 153 74c122 0 239 -89 239 -257zM331 365c-70 0 -102 -52 -102 -107c0 -72 54 -114 105 -114s100 38 100 111c0 61 -34 110 -103 110z" />
    <glyph glyph-name="q" unicode="q" horiz-adv-x="636" 
d="M259 524c71 0 118 -30 153 -74v65h174v-700h-180v230c-22 -23 -70 -52 -145 -52c-156 0 -241 130 -241 274c0 168 116 257 239 257zM201 255c0 -73 49 -111 100 -111c52 0 106 42 106 114c0 55 -33 107 -103 107c-69 0 -103 -49 -103 -110z" />
    <glyph glyph-name="r" unicode="r" horiz-adv-x="403" 
d="M403 522v-172h-57c-87 0 -116 -53 -116 -116v-234h-180v515h174v-90c23 62 68 97 140 97h39z" />
    <glyph glyph-name="s" unicode="s" horiz-adv-x="548" 
d="M182 182c0 -51 48 -73 105 -73c40 0 79 10 79 36c0 24 -32 29 -87 40c-94 17 -231 38 -231 170c0 122 114 169 231 169c91 0 175 -30 220 -77l-90 -106c-38 37 -81 53 -122 53s-67 -13 -67 -37c0 -22 22 -33 70 -44c85 -17 248 -24 248 -159c0 -111 -112 -165 -248 -165
c-143 0 -280 60 -280 193h172z" />
    <glyph glyph-name="t" unicode="t" horiz-adv-x="446" 
d="M286 210c0 -50 28 -69 84 -69h32v-141h-73c-164 0 -223 69 -223 189v196h-96v130h96v133h180v-129c39 3 76 8 113 17l37 -126c-45 -15 -87 -21 -150 -23v-177z" />
    <glyph glyph-name="u" unicode="u" horiz-adv-x="595" 
d="M40 191v324h180v-253c0 -73 15 -110 66 -110c56 0 79 47 79 110v253h180v-515h-175v78c-24 -49 -79 -89 -157 -89c-88 0 -173 56 -173 202z" />
    <glyph glyph-name="v" unicode="v" horiz-adv-x="554" 
d="M554 515l-191 -515h-172l-191 515h189l89 -313l87 313h189z" />
    <glyph glyph-name="w" unicode="w" horiz-adv-x="828" 
d="M637 515h191l-167 -515h-169l-78 262l-78 -262h-170l-166 515h190l67 -296l70 296h174l70 -296z" />
    <glyph glyph-name="x" unicode="x" horiz-adv-x="632" 
d="M420 258l212 -258h-226l-90 124l-90 -124h-226l210 258l-210 257h226l90 -125l90 125h226z" />
    <glyph glyph-name="y" unicode="y" horiz-adv-x="575" 
d="M89 -175l112 244l-211 446h199l96 -258l102 258h188l-307 -690h-179z" />
    <glyph glyph-name="z" unicode="z" horiz-adv-x="527" 
d="M507 141v-141h-478v119l239 256c-122 0 -183 4 -248 25l36 136c69 -19 142 -21 216 -21h217v-118l-232 -256h250z" />
    <glyph glyph-name="Aacute" unicode="&#xc1;" horiz-adv-x="731" 
d="M272 759c124 15 213 37 326 86l-37 101c-101 -42 -204 -73 -307 -93zM494 111h-257l-39 -111h-198l274 700h182l275 -700h-197zM438 269l-72 200l-73 -200h145z" />
    <glyph glyph-name="Abreve" unicode="&#x102;" horiz-adv-x="731" 
d="M537 920c-11 -101 -83 -161 -171 -161c-89 0 -161 60 -172 161l82 23c10 -46 42 -76 90 -76c47 0 79 30 89 76zM494 111h-257l-39 -111h-198l274 700h182l275 -700h-197zM438 269l-72 200l-73 -200h145z" />
    <glyph glyph-name="Acircumflex" unicode="&#xc2;" horiz-adv-x="731" 
d="M571 831l-46 -82l-160 78l-159 -78l-46 82l205 118zM494 111h-257l-39 -111h-198l274 700h182l275 -700h-197zM438 269l-72 200l-73 -200h145z" />
    <glyph glyph-name="Adieresis" unicode="&#xc4;" horiz-adv-x="731" 
d="M245 759c-51 0 -88 37 -88 88c0 49 37 85 88 85c49 0 87 -36 87 -85c0 -51 -38 -88 -87 -88zM487 759c-49 0 -87 37 -87 88c0 49 38 85 87 85c51 0 88 -36 88 -85c0 -51 -37 -88 -88 -88zM494 111h-257l-39 -111h-198l274 700h182l275 -700h-197zM438 269l-72 200
l-73 -200h145z" />
    <glyph glyph-name="Agrave" unicode="&#xc0;" horiz-adv-x="731" 
d="M465 759l17 94c-102 20 -206 51 -307 93l-37 -101c114 -49 202 -71 327 -86zM494 111h-257l-39 -111h-198l274 700h182l275 -700h-197zM438 269l-72 200l-73 -200h145z" />
    <glyph glyph-name="Amacron" unicode="&#x100;" horiz-adv-x="731" 
d="M216 868h299v-109h-299v109zM494 111h-257l-39 -111h-198l274 700h182l275 -700h-197zM438 269l-72 200l-73 -200h145z" />
    <glyph glyph-name="Aogonek" unicode="&#x104;" horiz-adv-x="732" 
d="M494 111h-257l-39 -111h-198l274 700h182l275 -700h-197zM438 269l-72 200l-73 -200h145zM649 -94v66c-122 0 -169 -50 -169 -116c0 -77 66 -118 139 -118c39 0 81 11 113 35l-42 72c-17 -14 -45 -21 -71 -21c-30 0 -55 11 -55 37c0 35 48 45 85 45z" />
    <glyph glyph-name="Aring" unicode="&#xc5;" horiz-adv-x="731" 
d="M260 847c0 62 46 103 104 103c61 0 108 -41 108 -103c0 -61 -47 -105 -108 -105c-58 0 -104 44 -104 105zM409 847c0 24 -19 43 -44 43s-42 -19 -42 -43c0 -25 17 -45 42 -45s44 20 44 45zM494 111h-257l-39 -111h-198l274 700h182l275 -700h-197zM438 269l-72 200
l-73 -200h145z" />
    <glyph glyph-name="Atilde" unicode="&#xc3;" horiz-adv-x="731" 
d="M446 759c-65 0 -95 54 -142 54c-32 0 -45 -22 -74 -59l-70 48c35 68 73 127 132 127c63 0 109 -53 145 -53c20 0 40 16 62 60l75 -45c-31 -65 -63 -132 -128 -132zM494 111h-257l-39 -111h-198l274 700h182l275 -700h-197zM438 269l-72 200l-73 -200h145z" />
    <glyph glyph-name="AE" unicode="&#xc6;" horiz-adv-x="1068" 
d="M708 272v-107h312v-165h-497v141h-254l-64 -141h-205l350 700h428c80 0 156 3 227 25l43 -161c-80 -25 -143 -28 -265 -28h-75v-107h260v-157h-260zM332 279h191v283h-63z" />
    <glyph glyph-name="uni1E02" unicode="&#x1e02;" horiz-adv-x="670" 
d="M216 847c0 50 38 91 89 91c49 0 89 -41 89 -91s-40 -88 -89 -88c-51 0 -89 38 -89 88zM485 379c106 -24 155 -102 155 -182c0 -98 -76 -197 -225 -197h-355v700h327c155 0 223 -87 223 -170c0 -68 -45 -133 -125 -151zM243 429h85c54 0 81 25 81 60c0 33 -25 61 -75 61
h-91v-121zM353 153c63 0 96 35 96 77c0 39 -31 69 -89 69h-117v-146h110z" />
    <glyph glyph-name="Cacute" unicode="&#x106;" horiz-adv-x="749" 
d="M300 759c124 15 213 37 326 86l-37 101c-101 -42 -204 -73 -307 -93zM739 332h-185c0 -112 -69 -168 -154 -168c-114 0 -182 77 -182 195c0 124 81 187 168 187c63 0 118 -31 149 -87l145 107c-65 98 -179 145 -291 145c-185 0 -359 -128 -359 -359
c0 -244 181 -363 365 -363c172 0 344 115 344 343z" />
    <glyph glyph-name="Ccaron" unicode="&#x10c;" horiz-adv-x="749" 
d="M606 867l-205 -118l-205 118l46 82l159 -77l159 77zM739 332h-185c0 -112 -69 -168 -154 -168c-114 0 -182 77 -182 195c0 124 81 187 168 187c63 0 118 -31 149 -87l145 107c-65 98 -179 145 -291 145c-185 0 -359 -128 -359 -359c0 -244 181 -363 365 -363
c172 0 344 115 344 343z" />
    <glyph glyph-name="Ccedilla" unicode="&#xc7;" horiz-adv-x="749" 
d="M739 332h-185c0 -112 -69 -168 -154 -168c-114 0 -182 77 -182 195c0 124 81 187 168 187c63 0 118 -31 149 -87l145 107c-65 98 -179 145 -291 145c-185 0 -359 -128 -359 -359c0 -244 181 -363 365 -363c172 0 344 115 344 343zM354 -113c36 0 85 -10 85 -45
c0 -26 -25 -37 -55 -37c-26 0 -54 7 -71 21l-42 -72c32 -24 74 -35 113 -35c73 0 139 41 139 118c0 66 -47 116 -169 116v-66z" />
    <glyph glyph-name="Ccircumflex" unicode="&#x108;" horiz-adv-x="749" 
d="M599 831l-46 -82l-160 78l-159 -78l-46 82l205 118zM739 332h-185c0 -112 -69 -168 -154 -168c-114 0 -182 77 -182 195c0 124 81 187 168 187c63 0 118 -31 149 -87l145 107c-65 98 -179 145 -291 145c-185 0 -359 -128 -359 -359c0 -244 181 -363 365 -363
c172 0 344 115 344 343z" />
    <glyph glyph-name="Cdotaccent" unicode="&#x10a;" horiz-adv-x="749" 
d="M313 847c0 50 38 91 89 91c49 0 89 -41 89 -91s-40 -88 -89 -88c-51 0 -89 38 -89 88zM739 332h-185c0 -112 -69 -168 -154 -168c-114 0 -182 77 -182 195c0 124 81 187 168 187c63 0 118 -31 149 -87l145 107c-65 98 -179 145 -291 145c-185 0 -359 -128 -359 -359
c0 -244 181 -363 365 -363c172 0 344 115 344 343z" />
    <glyph glyph-name="Eth" unicode="&#xd0;" horiz-adv-x="721" 
d="M329 700c245 0 362 -165 362 -348c0 -198 -137 -352 -376 -352h-260v319h-55v63h55v318h274zM313 165c124 0 191 86 191 190c0 101 -61 181 -189 181h-75v-154h128v-62h-128v-155h73z" />
    <glyph glyph-name="Dcaron" unicode="&#x10e;" horiz-adv-x="726" 
d="M502 867l-205 -118l-205 118l46 82l159 -77l159 77zM320 0h-260v700h274c245 0 362 -165 362 -348c0 -198 -137 -352 -376 -352zM245 165h73c124 0 191 86 191 190c0 101 -61 181 -189 181h-75v-371z" />
    <glyph glyph-name="Dcroat" unicode="&#x110;" horiz-adv-x="721" 
d="M329 700c245 0 362 -165 362 -348c0 -198 -137 -352 -376 -352h-260v319h-55v63h55v318h274zM313 165c124 0 191 86 191 190c0 101 -61 181 -189 181h-75v-154h128v-62h-128v-155h73z" />
    <glyph glyph-name="uni1E0A" unicode="&#x1e0a;" horiz-adv-x="726" 
d="M197 847c0 50 38 91 89 91c49 0 89 -41 89 -91s-40 -88 -89 -88c-51 0 -89 38 -89 88zM320 0h-260v700h274c245 0 362 -165 362 -348c0 -198 -137 -352 -376 -352zM245 165h73c124 0 191 86 191 190c0 101 -61 181 -189 181h-75v-371z" />
    <glyph glyph-name="Eacute" unicode="&#xc9;" horiz-adv-x="605" 
d="M206 759c124 15 213 37 326 86l-37 101c-101 -42 -204 -73 -307 -93zM60 0v700h255c80 0 156 3 227 25l43 -161c-80 -25 -143 -28 -265 -28h-75v-107h260v-157h-260v-107h312v-165h-497z" />
    <glyph glyph-name="Ebreve" unicode="&#x114;" horiz-adv-x="605" 
d="M488 920c-11 -101 -83 -161 -171 -161c-89 0 -161 60 -172 161l82 23c10 -46 42 -76 90 -76c47 0 79 30 89 76zM60 0v700h255c80 0 156 3 227 25l43 -161c-80 -25 -143 -28 -265 -28h-75v-107h260v-157h-260v-107h312v-165h-497z" />
    <glyph glyph-name="Ecaron" unicode="&#x11a;" horiz-adv-x="605" 
d="M504 867l-205 -118l-205 118l46 82l159 -77l159 77zM60 0v700h255c80 0 156 3 227 25l43 -161c-80 -25 -143 -28 -265 -28h-75v-107h260v-157h-260v-107h312v-165h-497z" />
    <glyph glyph-name="Ecircumflex" unicode="&#xca;" horiz-adv-x="605" 
d="M504 831l-46 -82l-160 78l-159 -78l-46 82l205 118zM60 0v700h255c80 0 156 3 227 25l43 -161c-80 -25 -143 -28 -265 -28h-75v-107h260v-157h-260v-107h312v-165h-497z" />
    <glyph glyph-name="Edieresis" unicode="&#xcb;" horiz-adv-x="605" 
d="M182 759c-51 0 -88 37 -88 88c0 49 37 85 88 85c49 0 87 -36 87 -85c0 -51 -38 -88 -87 -88zM424 759c-49 0 -87 37 -87 88c0 49 38 85 87 85c51 0 88 -36 88 -85c0 -51 -37 -88 -88 -88zM60 0v700h255c80 0 156 3 227 25l43 -161c-80 -25 -143 -28 -265 -28h-75v-107
h260v-157h-260v-107h312v-165h-497z" />
    <glyph glyph-name="Edotaccent" unicode="&#x116;" horiz-adv-x="605" 
d="M222 847c0 50 38 91 89 91c49 0 89 -41 89 -91s-40 -88 -89 -88c-51 0 -89 38 -89 88zM60 0v700h255c80 0 156 3 227 25l43 -161c-80 -25 -143 -28 -265 -28h-75v-107h260v-157h-260v-107h312v-165h-497z" />
    <glyph glyph-name="Egrave" unicode="&#xc8;" horiz-adv-x="605" 
d="M424 759l17 94c-102 20 -206 51 -307 93l-37 -101c114 -49 202 -71 327 -86zM60 0v700h255c80 0 156 3 227 25l43 -161c-80 -25 -143 -28 -265 -28h-75v-107h260v-157h-260v-107h312v-165h-497z" />
    <glyph glyph-name="Emacron" unicode="&#x112;" horiz-adv-x="605" 
d="M147 868h299v-109h-299v109zM60 0v700h255c80 0 156 3 227 25l43 -161c-80 -25 -143 -28 -265 -28h-75v-107h260v-157h-260v-107h312v-165h-497z" />
    <glyph glyph-name="Eogonek" unicode="&#x118;" horiz-adv-x="605" 
d="M60 0v700h255c80 0 156 3 227 25l43 -161c-80 -25 -143 -28 -265 -28h-75v-107h260v-157h-260v-107h312v-165h-497zM497 -94v66c-122 0 -169 -50 -169 -116c0 -77 66 -118 139 -118c39 0 81 11 113 35l-42 72c-17 -14 -45 -21 -71 -21c-30 0 -55 11 -55 37
c0 35 48 45 85 45z" />
    <glyph glyph-name="uni1E1E" unicode="&#x1e1e;" horiz-adv-x="595" 
d="M235 847c0 50 38 91 89 91c49 0 89 -41 89 -91s-40 -88 -89 -88c-51 0 -89 38 -89 88zM505 272h-260v-272h-185v700h255c80 0 156 3 227 25l43 -161c-80 -25 -143 -28 -265 -28h-75v-107h260v-157z" />
    <glyph glyph-name="Gbreve" unicode="&#x11e;" horiz-adv-x="766" 
d="M566 920c-11 -101 -83 -161 -171 -161c-89 0 -161 60 -172 161l82 23c10 -46 42 -76 90 -76c47 0 79 30 89 76zM365 -11c-163 0 -335 125 -335 362c0 232 174 360 361 360c114 0 225 -48 289 -146l-145 -107c-31 57 -86 88 -148 88c-88 0 -169 -63 -169 -191
c0 -138 93 -200 182 -200c63 0 117 30 144 81c-99 1 -155 6 -214 25l37 127c78 -20 160 -21 244 -21h105v-367h-101l-35 78c-56 -59 -135 -89 -215 -89z" />
    <glyph glyph-name="Gcircumflex" unicode="&#x11c;" horiz-adv-x="766" 
d="M599 831l-46 -82l-160 78l-159 -78l-46 82l205 118zM365 -11c-163 0 -335 125 -335 362c0 232 174 360 361 360c114 0 225 -48 289 -146l-145 -107c-31 57 -86 88 -148 88c-88 0 -169 -63 -169 -191c0 -138 93 -200 182 -200c63 0 117 30 144 81c-99 1 -155 6 -214 25
l37 127c78 -20 160 -21 244 -21h105v-367h-101l-35 78c-56 -59 -135 -89 -215 -89z" />
    <glyph glyph-name="Gcommaaccent" unicode="&#x122;" horiz-adv-x="766" 
d="M365 -11c-163 0 -335 125 -335 362c0 232 174 360 361 360c114 0 225 -48 289 -146l-145 -107c-31 57 -86 88 -148 88c-88 0 -169 -63 -169 -191c0 -138 93 -200 182 -200c63 0 117 30 144 81c-99 1 -155 6 -214 25l37 127c78 -20 160 -21 244 -21h105v-367h-101l-35 78
c-56 -59 -135 -89 -215 -89zM256 -178c0 59 46 104 110 104c80 0 124 -68 124 -151c0 -97 -59 -203 -186 -239l-29 68c69 20 118 70 118 128c-7 -4 -21 -6 -34 -6c-47 0 -103 29 -103 96z" />
    <glyph glyph-name="Gdotaccent" unicode="&#x120;" horiz-adv-x="766" 
d="M306 847c0 50 38 91 89 91c49 0 89 -41 89 -91s-40 -88 -89 -88c-51 0 -89 38 -89 88zM365 -11c-163 0 -335 125 -335 362c0 232 174 360 361 360c114 0 225 -48 289 -146l-145 -107c-31 57 -86 88 -148 88c-88 0 -169 -63 -169 -191c0 -138 93 -200 182 -200
c63 0 117 30 144 81c-99 1 -155 6 -214 25l37 127c78 -20 160 -21 244 -21h105v-367h-101l-35 78c-56 -59 -135 -89 -215 -89z" />
    <glyph glyph-name="Hbar" unicode="&#x126;" horiz-adv-x="790" 
d="M790 570v-50h-80v-520h-184v272h-254v-272h-184v520h-88v50h88v130h184v-130h254v130h184v-130h80zM526 428v92h-254v-92h254z" />
    <glyph glyph-name="Hcircumflex" unicode="&#x124;" horiz-adv-x="742" 
d="M573 831l-46 -82l-160 78l-159 -78l-46 82l205 118zM682 700v-700h-184v272h-254v-272h-184v700h184v-272h254v272h184z" />
    <glyph glyph-name="IJ" unicode="&#x132;" horiz-adv-x="886" 
d="M553 -11c-168 0 -269 102 -269 259h185c0 -64 42 -88 86 -88c45 0 86 27 86 89v287h-7c-122 0 -186 2 -266 28l43 161c72 -23 147 -25 228 -25h187v-469c0 -140 -96 -242 -273 -242zM234 0h-184v700h184v-700z" />
    <glyph glyph-name="Iacute" unicode="&#xcd;" horiz-adv-x="270" 
d="M34 759c124 15 213 37 326 86l-37 101c-101 -42 -204 -73 -307 -93zM235 0h-184v700h184v-700z" />
    <glyph glyph-name="Icircumflex" unicode="&#xce;" horiz-adv-x="331" 
d="M371 831l-46 -82l-160 78l-159 -78l-46 82l205 118zM260 0h-184v700h184v-700z" />
    <glyph glyph-name="Idieresis" unicode="&#xcf;" horiz-adv-x="298" 
d="M28 759c-51 0 -88 37 -88 88c0 49 37 85 88 85c49 0 87 -36 87 -85c0 -51 -38 -88 -87 -88zM270 759c-49 0 -87 37 -87 88c0 49 38 85 87 85c51 0 88 -36 88 -85c0 -51 -37 -88 -88 -88zM244 0h-184v700h184v-700z" />
    <glyph glyph-name="Idotaccent" unicode="&#x130;" horiz-adv-x="284" 
d="M50 847c0 50 38 91 89 91c49 0 89 -41 89 -91s-40 -88 -89 -88c-51 0 -89 38 -89 88zM234 0h-184v700h184v-700z" />
    <glyph glyph-name="Igrave" unicode="&#xcc;" horiz-adv-x="263" 
d="M240 759l17 94c-102 20 -206 51 -307 93l-37 -101c114 -49 202 -71 327 -86zM220 0h-184v700h184v-700z" />
    <glyph glyph-name="Imacron" unicode="&#x12a;" horiz-adv-x="259" 
d="M-20 868h299v-109h-299v109zM225 0h-184v700h184v-700z" />
    <glyph glyph-name="Iogonek" unicode="&#x12e;" horiz-adv-x="285" 
d="M235 0h-184v700h184v-700zM149 -94v66c-122 0 -169 -50 -169 -116c0 -77 66 -118 139 -118c39 0 81 11 113 35l-42 72c-17 -14 -45 -21 -71 -21c-30 0 -55 11 -55 37c0 35 48 45 85 45z" />
    <glyph glyph-name="Itilde" unicode="&#x128;" horiz-adv-x="254" 
d="M206 759c-65 0 -95 54 -142 54c-32 0 -45 -22 -74 -59l-70 48c35 68 73 127 132 127c63 0 109 -53 145 -53c20 0 40 16 62 60l75 -45c-31 -65 -63 -132 -128 -132zM222 0h-184v700h184v-700z" />
    <glyph glyph-name="Jcircumflex" unicode="&#x134;" horiz-adv-x="607" 
d="M547 831l-46 -82l-160 78l-159 -78l-46 82l205 118zM269 -11c-168 0 -269 102 -269 259h185c0 -64 42 -88 86 -88c45 0 86 27 86 89v287h-7c-122 0 -186 2 -266 28l43 161c72 -23 147 -25 228 -25h187v-469c0 -140 -96 -242 -273 -242z" />
    <glyph glyph-name="Kcommaaccent" unicode="&#x136;" horiz-adv-x="677" 
d="M424 362l263 -362h-234l-208 289v-289h-185v700h185v-286l204 286h222zM217 -178c0 59 46 104 110 104c80 0 124 -68 124 -151c0 -97 -59 -203 -186 -239l-29 68c69 20 118 70 118 128c-7 -4 -21 -6 -34 -6c-47 0 -103 29 -103 96z" />
    <glyph glyph-name="Lacute" unicode="&#x139;" horiz-adv-x="557" 
d="M89 759c124 15 213 37 326 86l-37 101c-101 -42 -204 -73 -307 -93zM245 165h292v-165h-477v700h185v-535z" />
    <glyph glyph-name="Lcaron" unicode="&#x13d;" horiz-adv-x="717" 
d="M463 637c0 59 46 104 110 104c80 0 124 -68 124 -151c0 -97 -59 -203 -186 -239l-29 68c69 20 118 70 118 128c-7 -4 -21 -6 -34 -6c-47 0 -103 29 -103 96zM245 165h292v-165h-477v700h185v-535z" />
    <glyph glyph-name="Lcommaaccent" unicode="&#x13b;" horiz-adv-x="557" 
d="M245 165h292v-165h-477v700h185v-535zM176 -178c0 59 46 104 110 104c80 0 124 -68 124 -151c0 -97 -59 -203 -186 -239l-29 68c69 20 118 70 118 128c-7 -4 -21 -6 -34 -6c-47 0 -103 29 -103 96z" />
    <glyph glyph-name="Ldot" unicode="&#x13f;" horiz-adv-x="572" 
d="M245 165h292v-165h-477v700h185v-535zM374 452c0 49 38 90 89 90c49 0 89 -41 89 -90c0 -50 -40 -89 -89 -89c-51 0 -89 39 -89 89z" />
    <glyph glyph-name="Lslash" unicode="&#x141;" horiz-adv-x="645" 
d="M333 165h292v-165h-477v241l-54 -35l-34 52l88 57v385h185v-265l67 43l33 -52l-100 -65v-196z" />
    <glyph glyph-name="uni1E40" unicode="&#x1e40;" horiz-adv-x="913" 
d="M368 847c0 50 38 91 89 91c49 0 89 -41 89 -91s-40 -88 -89 -88c-51 0 -89 38 -89 88zM597 700h256v-700h-183v418l-140 -418h-147l-140 418v-418h-183v700h256l141 -450z" />
    <glyph glyph-name="Nacute" unicode="&#x143;" 
d="M233 759c124 15 213 37 326 86l-37 101c-101 -42 -204 -73 -307 -93zM663 700v-700h-181l-237 369v-369h-185v700h181l237 -390v390h185z" />
    <glyph glyph-name="Ncaron" unicode="&#x147;" 
d="M563 867l-205 -118l-205 118l46 82l159 -77l159 77zM663 700v-700h-181l-237 369v-369h-185v700h181l237 -390v390h185z" />
    <glyph glyph-name="Ncommaaccent" unicode="&#x145;" 
d="M663 700v-700h-181l-237 369v-369h-185v700h181l237 -390v390h185zM252 -177c0 59 46 104 110 104c80 0 124 -68 124 -151c0 -97 -59 -203 -186 -239l-29 68c69 20 118 70 118 128c-7 -4 -21 -6 -34 -6c-47 0 -103 29 -103 96z" />
    <glyph glyph-name="Eng" unicode="&#x14a;" 
d="M477 700h186v-695c0 -121 -59 -190 -224 -190h-40v130c56 0 84 9 84 69l-238 355v-369h-185v700h181l236 -390v390z" />
    <glyph glyph-name="Ntilde" unicode="&#xd1;" 
d="M438 759c-65 0 -95 54 -142 54c-32 0 -45 -22 -74 -59l-70 48c35 68 73 127 132 127c63 0 109 -53 145 -53c20 0 40 16 62 60l75 -45c-31 -65 -63 -132 -128 -132zM663 700v-700h-181l-237 369v-369h-185v700h181l237 -390v390h185z" />
    <glyph glyph-name="Oacute" unicode="&#xd3;" horiz-adv-x="774" 
d="M314 759c124 15 213 37 326 86l-37 101c-101 -42 -204 -73 -307 -93zM744 350c0 -210 -151 -361 -358 -361c-205 0 -356 151 -356 361s151 361 356 361c207 0 358 -151 358 -361zM556 350c0 109 -68 186 -170 186c-100 0 -168 -77 -168 -186s68 -186 168 -186
c102 0 170 77 170 186z" />
    <glyph glyph-name="Obreve" unicode="&#x14e;" horiz-adv-x="774" 
d="M557 920c-11 -101 -83 -161 -171 -161c-89 0 -161 60 -172 161l82 23c10 -46 42 -76 90 -76c47 0 79 30 89 76zM744 350c0 -210 -151 -361 -358 -361c-205 0 -356 151 -356 361s151 361 356 361c207 0 358 -151 358 -361zM556 350c0 109 -68 186 -170 186
c-100 0 -168 -77 -168 -186s68 -186 168 -186c102 0 170 77 170 186z" />
    <glyph glyph-name="Ocircumflex" unicode="&#xd4;" horiz-adv-x="774" 
d="M591 831l-46 -82l-160 78l-159 -78l-46 82l205 118zM744 350c0 -210 -151 -361 -358 -361c-205 0 -356 151 -356 361s151 361 356 361c207 0 358 -151 358 -361zM556 350c0 109 -68 186 -170 186c-100 0 -168 -77 -168 -186s68 -186 168 -186c102 0 170 77 170 186z" />
    <glyph glyph-name="Odieresis" unicode="&#xd6;" horiz-adv-x="774" 
d="M264 759c-51 0 -88 37 -88 88c0 49 37 85 88 85c49 0 87 -36 87 -85c0 -51 -38 -88 -87 -88zM506 759c-49 0 -87 37 -87 88c0 49 38 85 87 85c51 0 88 -36 88 -85c0 -51 -37 -88 -88 -88zM744 350c0 -210 -151 -361 -358 -361c-205 0 -356 151 -356 361s151 361 356 361
c207 0 358 -151 358 -361zM556 350c0 109 -68 186 -170 186c-100 0 -168 -77 -168 -186s68 -186 168 -186c102 0 170 77 170 186z" />
    <glyph glyph-name="Ograve" unicode="&#xd2;" horiz-adv-x="774" 
d="M473 759l17 94c-102 20 -206 51 -307 93l-37 -101c114 -49 202 -71 327 -86zM744 350c0 -210 -151 -361 -358 -361c-205 0 -356 151 -356 361s151 361 356 361c207 0 358 -151 358 -361zM556 350c0 109 -68 186 -170 186c-100 0 -168 -77 -168 -186s68 -186 168 -186
c102 0 170 77 170 186z" />
    <glyph glyph-name="Ohungarumlaut" unicode="&#x150;" horiz-adv-x="774" 
d="M467 920l-98 -161h-123l69 161h152zM675 920l-125 -161h-123l96 161h152zM744 350c0 -210 -151 -361 -358 -361c-205 0 -356 151 -356 361s151 361 356 361c207 0 358 -151 358 -361zM556 350c0 109 -68 186 -170 186c-100 0 -168 -77 -168 -186s68 -186 168 -186
c102 0 170 77 170 186z" />
    <glyph glyph-name="Omacron" unicode="&#x14c;" horiz-adv-x="774" 
d="M236 868h299v-109h-299v109zM744 350c0 -210 -151 -361 -358 -361c-205 0 -356 151 -356 361s151 361 356 361c207 0 358 -151 358 -361zM556 350c0 109 -68 186 -170 186c-100 0 -168 -77 -168 -186s68 -186 168 -186c102 0 170 77 170 186z" />
    <glyph glyph-name="Oslash" unicode="&#xd8;" horiz-adv-x="774" 
d="M542 680c123 -55 202 -177 202 -329c0 -210 -151 -361 -358 -361c-38 0 -74 5 -107 15l-28 -72l-49 22l27 69c-121 55 -199 176 -199 327c0 210 151 361 356 361c37 0 72 -5 104 -14l28 72l50 -23zM218 351c0 -71 29 -128 76 -159l132 341c-13 3 -26 4 -40 4
c-100 0 -168 -77 -168 -186zM386 165c102 0 170 77 170 186c0 72 -30 130 -79 161l-134 -342c14 -3 28 -5 43 -5z" />
    <glyph glyph-name="Otilde" unicode="&#xd5;" horiz-adv-x="774" 
d="M464 759c-65 0 -95 54 -142 54c-32 0 -45 -22 -74 -59l-70 48c35 68 73 127 132 127c63 0 109 -53 145 -53c20 0 40 16 62 60l75 -45c-31 -65 -63 -132 -128 -132zM744 350c0 -210 -151 -361 -358 -361c-205 0 -356 151 -356 361s151 361 356 361
c207 0 358 -151 358 -361zM556 350c0 109 -68 186 -170 186c-100 0 -168 -77 -168 -186s68 -186 168 -186c102 0 170 77 170 186z" />
    <glyph glyph-name="OE" unicode="&#x152;" horiz-adv-x="1106" 
d="M746 272v-107h312v-165h-497v31c-51 -27 -110 -42 -175 -42c-205 0 -356 151 -356 361s151 361 356 361c65 0 124 -15 175 -42v31h255c80 0 156 3 227 25l43 -161c-80 -25 -143 -28 -265 -28h-75v-107h260v-157h-260zM386 164c102 0 170 77 170 186s-68 186 -170 186
c-100 0 -168 -77 -168 -186s68 -186 168 -186z" />
    <glyph glyph-name="uni1E56" unicode="&#x1e56;" horiz-adv-x="667" 
d="M216 847c0 50 38 91 89 91c49 0 89 -41 89 -91s-40 -88 -89 -88c-51 0 -89 38 -89 88zM385 700c190 0 272 -115 272 -247c0 -152 -92 -254 -283 -254h-129v-199h-185v700h325zM370 358c59 0 101 30 101 94c0 54 -38 89 -101 89h-125v-183h125z" />
    <glyph glyph-name="Thorn" unicode="&#xde;" horiz-adv-x="667" 
d="M385 606c190 0 272 -114 272 -247c0 -151 -92 -254 -283 -254h-129v-105h-185v700h185v-94h140zM370 265c58 0 101 30 101 93c0 54 -40 90 -101 90h-125v-183h125z" />
    <glyph glyph-name="Racute" unicode="&#x154;" horiz-adv-x="695" 
d="M180 759c124 15 213 37 326 86l-37 101c-101 -42 -204 -73 -307 -93zM475 0l-148 251h-82v-251h-185v700h331c173 0 250 -106 250 -214c0 -83 -45 -169 -127 -204l181 -282h-220zM245 396h121c63 0 88 37 88 74c0 38 -23 75 -86 75h-123v-149z" />
    <glyph glyph-name="Rcaron" unicode="&#x158;" horiz-adv-x="695" 
d="M518 867l-205 -118l-205 118l46 82l159 -77l159 77zM475 0l-148 251h-82v-251h-185v700h331c173 0 250 -106 250 -214c0 -83 -45 -169 -127 -204l181 -282h-220zM245 396h121c63 0 88 37 88 74c0 38 -23 75 -86 75h-123v-149z" />
    <glyph glyph-name="Rcommaaccent" unicode="&#x156;" horiz-adv-x="695" 
d="M475 0l-148 251h-82v-251h-185v700h331c173 0 250 -106 250 -214c0 -83 -45 -169 -127 -204l181 -282h-220zM245 396h121c63 0 88 37 88 74c0 38 -23 75 -86 75h-123v-149zM232 -178c0 59 46 104 110 104c80 0 124 -68 124 -151c0 -97 -59 -203 -186 -239l-29 68
c69 20 118 70 118 128c-7 -4 -21 -6 -34 -6c-47 0 -103 29 -103 96z" />
    <glyph glyph-name="Sacute" unicode="&#x15a;" horiz-adv-x="631" 
d="M217 759c124 15 213 37 326 86l-37 101c-101 -42 -204 -73 -307 -93zM20 269h184c0 -93 65 -128 136 -128c54 0 90 20 90 59c0 45 -50 60 -155 95c-92 31 -211 72 -211 208c0 141 126 208 253 208c109 0 217 -50 258 -153l-149 -74c-20 48 -65 74 -109 74
c-34 0 -69 -17 -69 -52c0 -46 61 -60 136 -82c125 -38 227 -81 227 -208c0 -149 -137 -227 -280 -227c-153 0 -311 90 -311 280z" />
    <glyph glyph-name="Scaron" unicode="&#x160;" horiz-adv-x="631" 
d="M525 867l-205 -118l-205 118l46 82l159 -77l159 77zM20 269h184c0 -93 65 -128 136 -128c54 0 90 20 90 59c0 45 -50 60 -155 95c-92 31 -211 72 -211 208c0 141 126 208 253 208c109 0 217 -50 258 -153l-149 -74c-20 48 -65 74 -109 74c-34 0 -69 -17 -69 -52
c0 -46 61 -60 136 -82c125 -38 227 -81 227 -208c0 -149 -137 -227 -280 -227c-153 0 -311 90 -311 280z" />
    <glyph glyph-name="Scedilla" unicode="&#x15e;" horiz-adv-x="631" 
d="M20 269h184c0 -93 65 -128 136 -128c54 0 90 20 90 59c0 45 -50 60 -155 95c-92 31 -211 72 -211 208c0 141 126 208 253 208c109 0 217 -50 258 -153l-149 -74c-20 48 -65 74 -109 74c-34 0 -69 -17 -69 -52c0 -46 61 -60 136 -82c125 -38 227 -81 227 -208
c0 -149 -137 -227 -280 -227c-153 0 -311 90 -311 280zM294 -94c36 0 85 -10 85 -45c0 -26 -25 -37 -55 -37c-26 0 -54 7 -71 21l-42 -72c32 -24 74 -35 113 -35c73 0 139 41 139 118c0 66 -47 116 -169 116v-66z" />
    <glyph glyph-name="Scircumflex" unicode="&#x15c;" horiz-adv-x="631" 
d="M530 831l-46 -82l-160 78l-159 -78l-46 82l205 118zM20 269h184c0 -93 65 -128 136 -128c54 0 90 20 90 59c0 45 -50 60 -155 95c-92 31 -211 72 -211 208c0 141 126 208 253 208c109 0 217 -50 258 -153l-149 -74c-20 48 -65 74 -109 74c-34 0 -69 -17 -69 -52
c0 -46 61 -60 136 -82c125 -38 227 -81 227 -208c0 -149 -137 -227 -280 -227c-153 0 -311 90 -311 280z" />
    <glyph glyph-name="Scommaaccent" unicode="&#x218;" horiz-adv-x="631" 
d="M20 269h184c0 -93 65 -128 136 -128c54 0 90 20 90 59c0 45 -50 60 -155 95c-92 31 -211 72 -211 208c0 141 126 208 253 208c109 0 217 -50 258 -153l-149 -74c-20 48 -65 74 -109 74c-34 0 -69 -17 -69 -52c0 -46 61 -60 136 -82c125 -38 227 -81 227 -208
c0 -149 -137 -227 -280 -227c-153 0 -311 90 -311 280zM223 -179c0 59 46 104 110 104c80 0 124 -68 124 -151c0 -97 -59 -203 -186 -239l-29 68c69 20 118 70 118 128c-7 -4 -21 -6 -34 -6c-47 0 -103 29 -103 96z" />
    <glyph glyph-name="uni1E60" unicode="&#x1e60;" horiz-adv-x="631" 
d="M222 847c0 50 38 91 89 91c49 0 89 -41 89 -91s-40 -88 -89 -88c-51 0 -89 38 -89 88zM20 269h184c0 -93 65 -128 136 -128c54 0 90 20 90 59c0 45 -50 60 -155 95c-92 31 -211 72 -211 208c0 141 126 208 253 208c109 0 217 -50 258 -153l-149 -74
c-20 48 -65 74 -109 74c-34 0 -69 -17 -69 -52c0 -46 61 -60 136 -82c125 -38 227 -81 227 -208c0 -149 -137 -227 -280 -227c-153 0 -311 90 -311 280z" />
    <glyph glyph-name="Tbar" unicode="&#x166;" horiz-adv-x="610" 
d="M394 536v-125h114v-50h-114v-361h-185v361h-125v50h125v125h-199v164h330c80 0 156 3 228 25l42 -161c-68 -22 -124 -28 -216 -28z" />
    <glyph glyph-name="Tcaron" unicode="&#x164;" horiz-adv-x="610" 
d="M514 867l-205 -118l-205 118l46 82l159 -77l159 77zM610 564c-68 -22 -124 -28 -216 -28v-536h-185v536h-199v164h330c80 0 156 3 228 25z" />
    <glyph glyph-name="uni0162" unicode="&#x162;" horiz-adv-x="610" 
d="M610 564c-68 -22 -124 -28 -216 -28v-536h-185v536h-199v164h330c80 0 156 3 228 25zM360 -94v66c-122 0 -169 -50 -169 -116c0 -77 66 -118 139 -118c39 0 81 11 113 35l-42 72c-17 -14 -45 -21 -71 -21c-30 0 -55 11 -55 37c0 35 48 45 85 45z" />
    <glyph glyph-name="uni021A" unicode="&#x21a;" horiz-adv-x="610" 
d="M610 564c-68 -22 -124 -28 -216 -28v-536h-185v536h-199v164h330c80 0 156 3 228 25zM190 -178c0 59 46 104 110 104c80 0 124 -68 124 -151c0 -97 -59 -203 -186 -239l-29 68c69 20 118 70 118 128c-7 -4 -21 -6 -34 -6c-47 0 -103 29 -103 96z" />
    <glyph glyph-name="uni1E6A" unicode="&#x1e6a;" horiz-adv-x="610" 
d="M215 847c0 50 38 91 89 91c49 0 89 -41 89 -91s-40 -88 -89 -88c-51 0 -89 38 -89 88zM610 564c-68 -22 -124 -28 -216 -28v-536h-185v536h-199v164h330c80 0 156 3 228 25z" />
    <glyph glyph-name="Uacute" unicode="&#xda;" 
d="M232 759c124 15 213 37 326 86l-37 101c-101 -42 -204 -73 -307 -93zM60 700h185v-413c0 -91 58 -123 116 -123c59 0 116 32 116 123v413h186v-431c0 -183 -131 -280 -303 -280c-170 0 -300 96 -300 280v431z" />
    <glyph glyph-name="Ubreve" unicode="&#x16c;" 
d="M529 920c-11 -101 -83 -161 -171 -161c-89 0 -161 60 -172 161l82 23c10 -46 42 -76 90 -76c47 0 79 30 89 76zM60 700h185v-413c0 -91 58 -123 116 -123c59 0 116 32 116 123v413h186v-431c0 -183 -131 -280 -303 -280c-170 0 -300 96 -300 280v431z" />
    <glyph glyph-name="Ucircumflex" unicode="&#xdb;" 
d="M563 831l-46 -82l-160 78l-159 -78l-46 82l205 118zM60 700h185v-413c0 -91 58 -123 116 -123c59 0 116 32 116 123v413h186v-431c0 -183 -131 -280 -303 -280c-170 0 -300 96 -300 280v431z" />
    <glyph glyph-name="Udieresis" unicode="&#xdc;" 
d="M241 759c-51 0 -88 37 -88 88c0 49 37 85 88 85c49 0 87 -36 87 -85c0 -51 -38 -88 -87 -88zM483 759c-49 0 -87 37 -87 88c0 49 38 85 87 85c51 0 88 -36 88 -85c0 -51 -37 -88 -88 -88zM60 700h185v-413c0 -91 58 -123 116 -123c59 0 116 32 116 123v413h186v-431
c0 -183 -131 -280 -303 -280c-170 0 -300 96 -300 280v431z" />
    <glyph glyph-name="Ugrave" unicode="&#xd9;" 
d="M464 759l17 94c-102 20 -206 51 -307 93l-37 -101c114 -49 202 -71 327 -86zM60 700h185v-413c0 -91 58 -123 116 -123c59 0 116 32 116 123v413h186v-431c0 -183 -131 -280 -303 -280c-170 0 -300 96 -300 280v431z" />
    <glyph glyph-name="Uhungarumlaut" unicode="&#x170;" 
d="M402 920l-98 -161h-123l69 161h152zM610 920l-125 -161h-123l96 161h152zM60 700h185v-413c0 -91 58 -123 116 -123c59 0 116 32 116 123v413h186v-431c0 -183 -131 -280 -303 -280c-170 0 -300 96 -300 280v431z" />
    <glyph glyph-name="Umacron" unicode="&#x16a;" 
d="M208 868h299v-109h-299v109zM60 700h185v-413c0 -91 58 -123 116 -123c59 0 116 32 116 123v413h186v-431c0 -183 -131 -280 -303 -280c-170 0 -300 96 -300 280v431z" />
    <glyph glyph-name="Uogonek" unicode="&#x172;" 
d="M60 700h185v-413c0 -91 58 -123 116 -123c59 0 116 32 116 123v413h186v-431c0 -183 -131 -280 -303 -280c-170 0 -300 96 -300 280v431zM408 -94v66c-122 0 -169 -50 -169 -116c0 -77 66 -118 139 -118c39 0 81 11 113 35l-42 72c-17 -14 -45 -21 -71 -21
c-30 0 -55 11 -55 37c0 35 48 45 85 45z" />
    <glyph glyph-name="Uring" unicode="&#x16e;" 
d="M256 847c0 62 46 103 104 103c61 0 108 -41 108 -103c0 -61 -47 -105 -108 -105c-58 0 -104 44 -104 105zM405 847c0 24 -19 43 -44 43s-42 -19 -42 -43c0 -25 17 -45 42 -45s44 20 44 45zM60 700h185v-413c0 -91 58 -123 116 -123c59 0 116 32 116 123v413h186v-431
c0 -183 -131 -280 -303 -280c-170 0 -300 96 -300 280v431z" />
    <glyph glyph-name="Utilde" unicode="&#x168;" 
d="M441 759c-65 0 -95 54 -142 54c-32 0 -45 -22 -74 -59l-70 48c35 68 73 127 132 127c63 0 109 -53 145 -53c20 0 40 16 62 60l75 -45c-31 -65 -63 -132 -128 -132zM60 700h185v-413c0 -91 58 -123 116 -123c59 0 116 32 116 123v413h186v-431c0 -183 -131 -280 -303 -280
c-170 0 -300 96 -300 280v431z" />
    <glyph glyph-name="Wacute" unicode="&#x1e82;" horiz-adv-x="1011" 
d="M400 759c124 15 213 37 326 86l-37 101c-101 -42 -204 -73 -307 -93zM804 700h197l-204 -700h-191l-100 339l-100 -339h-191l-205 700h197l107 -454l105 454h174l104 -454z" />
    <glyph glyph-name="Wcircumflex" unicode="&#x174;" horiz-adv-x="1011" 
d="M710 831l-46 -82l-160 78l-159 -78l-46 82l205 118zM804 700h197l-204 -700h-191l-100 339l-100 -339h-191l-205 700h197l107 -454l105 454h174l104 -454z" />
    <glyph glyph-name="Wdieresis" unicode="&#x1e84;" horiz-adv-x="1011" 
d="M384 759c-51 0 -88 37 -88 88c0 49 37 85 88 85c49 0 87 -36 87 -85c0 -51 -38 -88 -87 -88zM626 759c-49 0 -87 37 -87 88c0 49 38 85 87 85c51 0 88 -36 88 -85c0 -51 -37 -88 -88 -88zM804 700h197l-204 -700h-191l-100 339l-100 -339h-191l-205 700h197l107 -454
l105 454h174l104 -454z" />
    <glyph glyph-name="Wgrave" unicode="&#x1e80;" horiz-adv-x="1011" 
d="M606 759l17 94c-102 20 -206 51 -307 93l-37 -101c114 -49 202 -71 327 -86zM804 700h197l-204 -700h-191l-100 339l-100 -339h-191l-205 700h197l107 -454l105 454h174l104 -454z" />
    <glyph glyph-name="Yacute" unicode="&#xdd;" horiz-adv-x="706" 
d="M240 759c124 15 213 37 326 86l-37 101c-101 -42 -204 -73 -307 -93zM500 700h216l-271 -448v-252h-185v252l-270 448h215l148 -276z" />
    <glyph glyph-name="Ycircumflex" unicode="&#x176;" horiz-adv-x="706" 
d="M559 831l-46 -82l-160 78l-159 -78l-46 82l205 118zM500 700h216l-271 -448v-252h-185v252l-270 448h215l148 -276z" />
    <glyph glyph-name="Ydieresis" unicode="&#x178;" horiz-adv-x="706" 
d="M233 759c-51 0 -88 37 -88 88c0 49 37 85 88 85c49 0 87 -36 87 -85c0 -51 -38 -88 -87 -88zM475 759c-49 0 -87 37 -87 88c0 49 38 85 87 85c51 0 88 -36 88 -85c0 -51 -37 -88 -88 -88zM500 700h216l-271 -448v-252h-185v252l-270 448h215l148 -276z" />
    <glyph glyph-name="Ygrave" unicode="&#x1ef2;" horiz-adv-x="706" 
d="M456 759l17 94c-102 20 -206 51 -307 93l-37 -101c114 -49 202 -71 327 -86zM500 700h216l-271 -448v-252h-185v252l-270 448h215l148 -276z" />
    <glyph glyph-name="Zacute" unicode="&#x179;" horiz-adv-x="663" 
d="M220 759c124 15 213 37 326 86l-37 101c-101 -42 -204 -73 -307 -93zM643 165v-165h-613v145l351 391h-82c-123 0 -186 3 -266 28l43 161c72 -22 147 -25 227 -25h331v-143l-349 -392h358z" />
    <glyph glyph-name="Zcaron" unicode="&#x17d;" horiz-adv-x="663" 
d="M565 867l-205 -118l-205 118l46 82l159 -77l159 77zM643 165v-165h-613v145l351 391h-82c-123 0 -186 3 -266 28l43 161c72 -22 147 -25 227 -25h331v-143l-349 -392h358z" />
    <glyph glyph-name="Zdotaccent" unicode="&#x17b;" horiz-adv-x="663" 
d="M278 847c0 50 38 91 89 91c49 0 89 -41 89 -91s-40 -88 -89 -88c-51 0 -89 38 -89 88zM643 165v-165h-613v145l351 391h-82c-123 0 -186 3 -266 28l43 161c72 -22 147 -25 227 -25h331v-143l-349 -392h358z" />
    <glyph glyph-name="aacute" unicode="&#xe1;" horiz-adv-x="587" 
d="M177 594c124 16 213 38 326 87l-37 101c-101 -42 -204 -73 -307 -93zM199 -11c-100 0 -179 60 -179 166c0 102 70 153 175 153c59 0 127 -15 169 -34v43c0 38 -33 59 -66 59c-39 0 -63 -17 -77 -47l-161 58c35 80 110 137 243 137c139 0 239 -66 239 -204v-320h-175v58
c-50 -44 -104 -69 -168 -69zM245 124c43 0 81 18 113 70h-192c0 -46 26 -70 79 -70z" />
    <glyph glyph-name="abreve" unicode="&#x103;" horiz-adv-x="587" 
d="M489 756c-11 -101 -83 -162 -171 -162c-89 0 -161 61 -172 162l82 23c10 -47 42 -76 90 -76c47 0 79 29 89 76zM199 -11c-100 0 -179 60 -179 166c0 102 70 153 175 153c59 0 127 -15 169 -34v43c0 38 -33 59 -66 59c-39 0 -63 -17 -77 -47l-161 58
c35 80 110 137 243 137c139 0 239 -66 239 -204v-320h-175v58c-50 -44 -104 -69 -168 -69zM245 124c43 0 81 18 113 70h-192c0 -46 26 -70 79 -70z" />
    <glyph glyph-name="acircumflex" unicode="&#xe2;" horiz-adv-x="587" 
d="M521 676l-46 -82l-160 79l-159 -79l-46 82l205 119zM199 -11c-100 0 -179 60 -179 166c0 102 70 153 175 153c59 0 127 -15 169 -34v43c0 38 -33 59 -66 59c-39 0 -63 -17 -77 -47l-161 58c35 80 110 137 243 137c139 0 239 -66 239 -204v-320h-175v58
c-50 -44 -104 -69 -168 -69zM245 124c43 0 81 18 113 70h-192c0 -46 26 -70 79 -70z" />
    <glyph glyph-name="adieresis" unicode="&#xe4;" horiz-adv-x="587" 
d="M209 594c-51 0 -88 38 -88 89c0 48 37 85 88 85c49 0 87 -37 87 -85c0 -51 -38 -89 -87 -89zM423 594c-49 0 -87 38 -87 89c0 48 38 85 87 85c51 0 88 -37 88 -85c0 -51 -37 -89 -88 -89zM199 -11c-100 0 -179 60 -179 166c0 102 70 153 175 153c59 0 127 -15 169 -34v43
c0 38 -33 59 -66 59c-39 0 -63 -17 -77 -47l-161 58c35 80 110 137 243 137c139 0 239 -66 239 -204v-320h-175v58c-50 -44 -104 -69 -168 -69zM245 124c43 0 81 18 113 70h-192c0 -46 26 -70 79 -70z" />
    <glyph glyph-name="agrave" unicode="&#xe0;" horiz-adv-x="587" 
d="M435 594l17 95c-102 20 -206 51 -307 93l-37 -101c114 -49 202 -71 327 -87zM199 -11c-100 0 -179 60 -179 166c0 102 70 153 175 153c59 0 127 -15 169 -34v43c0 38 -33 59 -66 59c-39 0 -63 -17 -77 -47l-161 58c35 80 110 137 243 137c139 0 239 -66 239 -204v-320
h-175v58c-50 -44 -104 -69 -168 -69zM245 124c43 0 81 18 113 70h-192c0 -46 26 -70 79 -70z" />
    <glyph glyph-name="amacron" unicode="&#x101;" horiz-adv-x="587" 
d="M165 703h299v-109h-299v109zM199 -11c-100 0 -179 60 -179 166c0 102 70 153 175 153c59 0 127 -15 169 -34v43c0 38 -33 59 -66 59c-39 0 -63 -17 -77 -47l-161 58c35 80 110 137 243 137c139 0 239 -66 239 -204v-320h-175v58c-50 -44 -104 -69 -168 -69zM245 124
c43 0 81 18 113 70h-192c0 -46 26 -70 79 -70z" />
    <glyph glyph-name="aogonek" unicode="&#x105;" horiz-adv-x="587" 
d="M199 -11c-100 0 -179 60 -179 166c0 102 70 153 175 153c59 0 127 -15 169 -34v43c0 38 -33 59 -66 59c-39 0 -63 -17 -77 -47l-161 58c35 80 110 137 243 137c139 0 239 -66 239 -204v-320h-175v58c-50 -44 -104 -69 -168 -69zM245 124c43 0 81 18 113 70h-192
c0 -46 26 -70 79 -70zM458 -94v66c-122 0 -169 -50 -169 -116c0 -77 66 -118 139 -118c39 0 81 11 113 35l-42 72c-17 -14 -45 -21 -71 -21c-30 0 -55 11 -55 37c0 35 48 45 85 45z" />
    <glyph glyph-name="aring" unicode="&#xe5;" horiz-adv-x="587" 
d="M322 892c85 0 150 -64 150 -148c0 -85 -65 -150 -150 -150c-84 0 -148 65 -148 150c0 84 64 148 148 148zM322 678c39 0 66 29 66 66c0 36 -27 64 -66 64c-37 0 -64 -28 -64 -64c0 -37 27 -66 64 -66zM199 -11c-100 0 -179 60 -179 166c0 102 70 153 175 153
c59 0 127 -15 169 -34v43c0 38 -33 59 -66 59c-39 0 -63 -17 -77 -47l-161 58c35 80 110 137 243 137c139 0 239 -66 239 -204v-320h-175v58c-50 -44 -104 -69 -168 -69zM245 124c43 0 81 18 113 70h-192c0 -46 26 -70 79 -70z" />
    <glyph glyph-name="atilde" unicode="&#xe3;" horiz-adv-x="587" 
d="M390 594c-65 0 -95 54 -142 54c-32 0 -45 -21 -74 -58l-70 48c35 68 73 127 132 127c63 0 109 -53 145 -53c20 0 40 16 62 60l75 -45c-31 -66 -63 -133 -128 -133zM199 -11c-100 0 -179 60 -179 166c0 102 70 153 175 153c59 0 127 -15 169 -34v43c0 38 -33 59 -66 59
c-39 0 -63 -17 -77 -47l-161 58c35 80 110 137 243 137c139 0 239 -66 239 -204v-320h-175v58c-50 -44 -104 -69 -168 -69zM245 124c43 0 81 18 113 70h-192c0 -46 26 -70 79 -70z" />
    <glyph glyph-name="ae" unicode="&#xe6;" horiz-adv-x="919" 
d="M897 215h-172c-85 0 -158 15 -186 29c0 -73 45 -112 110 -112c45 0 80 18 92 50h154c-12 -90 -91 -193 -251 -193c-104 0 -179 42 -223 108c-64 -86 -151 -108 -222 -108c-100 0 -179 60 -179 166c0 102 70 153 175 153c59 0 127 -15 169 -34v43c0 38 -33 59 -66 59
c-39 0 -63 -17 -77 -47l-161 58c35 80 110 137 243 137c70 0 130 -17 172 -51c46 33 104 51 170 51c143 0 254 -82 254 -260c0 -16 0 -37 -2 -49zM716 308c3 56 -40 90 -87 90c-32 0 -64 -15 -82 -57c48 -28 115 -33 169 -33zM245 124c43 0 81 18 113 70h-192
c0 -46 26 -70 79 -70z" />
    <glyph glyph-name="uni1E03" unicode="&#x1e03;" horiz-adv-x="636" 
d="M301 674c0 49 38 90 89 90c49 0 89 -41 89 -90c0 -50 -40 -89 -89 -89c-51 0 -89 39 -89 89zM616 261c0 -141 -76 -272 -232 -272c-80 0 -129 33 -160 69v-58h-174v700h180v-247c33 43 86 71 152 71c119 0 234 -89 234 -263zM331 364c-70 0 -102 -52 -102 -109
c0 -74 54 -115 104 -115c51 0 101 38 101 113c0 62 -34 111 -103 111z" />
    <glyph glyph-name="cacute" unicode="&#x107;" horiz-adv-x="574" 
d="M196 594c124 16 213 38 326 87l-37 101c-101 -42 -204 -73 -307 -93zM297 -11c-143 0 -277 90 -277 271c0 175 120 264 266 264c94 0 179 -36 227 -98l-124 -100c-20 32 -58 47 -92 47c-52 0 -97 -35 -97 -108c0 -75 50 -115 105 -115c52 0 89 31 89 91h170
c0 -165 -127 -252 -267 -252z" />
    <glyph glyph-name="ccaron" unicode="&#x10d;" horiz-adv-x="574" 
d="M510 713l-205 -119l-205 119l46 82l159 -78l159 78zM297 -11c-143 0 -277 90 -277 271c0 175 120 264 266 264c94 0 179 -36 227 -98l-124 -100c-20 32 -58 47 -92 47c-52 0 -97 -35 -97 -108c0 -75 50 -115 105 -115c52 0 89 31 89 91h170c0 -165 -127 -252 -267 -252z
" />
    <glyph glyph-name="ccedilla" unicode="&#xe7;" horiz-adv-x="574" 
d="M297 -11c-143 0 -277 90 -277 271c0 175 120 264 266 264c94 0 179 -36 227 -98l-124 -100c-20 32 -58 47 -92 47c-52 0 -97 -35 -97 -108c0 -75 50 -115 105 -115c52 0 89 31 89 91h170c0 -165 -127 -252 -267 -252zM242 -113c36 0 85 -10 85 -45c0 -26 -25 -37 -55 -37
c-26 0 -54 7 -71 21l-42 -72c32 -24 74 -35 113 -35c73 0 139 41 139 118c0 66 -47 116 -169 116v-66z" />
    <glyph glyph-name="ccircumflex" unicode="&#x109;" horiz-adv-x="574" 
d="M507 676l-46 -82l-160 79l-159 -79l-46 82l205 119zM297 -11c-143 0 -277 90 -277 271c0 175 120 264 266 264c94 0 179 -36 227 -98l-124 -100c-20 32 -58 47 -92 47c-52 0 -97 -35 -97 -108c0 -75 50 -115 105 -115c52 0 89 31 89 91h170c0 -165 -127 -252 -267 -252z
" />
    <glyph glyph-name="cdotaccent" unicode="&#x10b;" horiz-adv-x="574" 
d="M216 683c0 49 38 90 89 90c49 0 89 -41 89 -90c0 -50 -40 -89 -89 -89c-51 0 -89 39 -89 89zM297 -11c-143 0 -277 90 -277 271c0 175 120 264 266 264c94 0 179 -36 227 -98l-124 -100c-20 32 -58 47 -92 47c-52 0 -97 -35 -97 -108c0 -75 50 -115 105 -115
c52 0 89 31 89 91h170c0 -165 -127 -252 -267 -252z" />
    <glyph glyph-name="eth" unicode="&#xf0;" horiz-adv-x="664" 
d="M544 612c55 -58 90 -142 90 -256c0 -259 -165 -367 -325 -367c-147 0 -289 94 -289 246c0 147 123 223 244 223c77 0 153 -36 197 -104c0 8 1 15 1 23c0 53 -13 93 -33 120l-39 -38l-44 44l35 34c-25 13 -53 18 -83 18c-45 0 -93 -9 -135 -35l-78 143
c66 33 140 48 210 48c73 0 144 -19 202 -58l35 35l44 -44zM314 137c47 0 100 27 100 93c0 64 -51 96 -96 97c-50 0 -102 -31 -102 -96c0 -60 46 -94 98 -94z" />
    <glyph glyph-name="dcaron" unicode="&#x10f;" horiz-adv-x="941" 
d="M677 636c0 59 46 104 110 104c80 0 124 -68 124 -151c0 -97 -59 -203 -186 -239l-29 68c69 20 118 70 118 128c-7 -4 -21 -6 -34 -6c-47 0 -103 29 -103 96zM254 524c66 0 118 -28 152 -71v247h180v-700h-174v58c-31 -36 -81 -69 -160 -69c-157 0 -232 131 -232 272
c0 174 114 263 234 263zM202 253c0 -75 50 -113 100 -113c51 0 105 41 105 115c0 57 -33 109 -103 109c-68 0 -102 -49 -102 -111z" />
    <glyph glyph-name="dcroat" unicode="&#x111;" horiz-adv-x="639" 
d="M619 618v-44h-33v-574h-174v58c-31 -36 -81 -69 -160 -69c-157 0 -232 131 -232 272c0 174 114 263 234 263c66 0 118 -28 152 -71v121h-85v44h85v82h180v-82h33zM302 140c51 0 105 41 105 115c0 57 -33 109 -103 109c-68 0 -102 -49 -102 -111c0 -75 50 -113 100 -113z
" />
    <glyph glyph-name="uni1E0B" unicode="&#x1e0b;" horiz-adv-x="636" 
d="M165 683c0 49 38 90 89 90c49 0 89 -41 89 -90c0 -50 -40 -89 -89 -89c-51 0 -89 39 -89 89zM254 524c66 0 118 -28 152 -71v247h180v-700h-174v58c-31 -36 -81 -69 -160 -69c-157 0 -232 131 -232 272c0 174 114 263 234 263zM202 253c0 -75 50 -113 100 -113
c51 0 105 41 105 115c0 57 -33 109 -103 109c-68 0 -102 -49 -102 -111z" />
    <glyph glyph-name="eacute" unicode="&#xe9;" horiz-adv-x="564" 
d="M197 594c124 16 213 38 326 87l-37 101c-101 -42 -204 -73 -307 -93zM370 215c-85 0 -158 15 -186 29c0 -73 45 -112 110 -112c45 0 79 18 91 50h154c-12 -90 -90 -193 -251 -193c-174 0 -268 121 -268 271c0 167 115 264 269 264c143 0 255 -82 255 -260
c0 -16 -1 -37 -3 -49h-171zM283 398c-32 0 -65 -15 -82 -57c48 -28 115 -33 169 -33c3 56 -40 90 -87 90z" />
    <glyph glyph-name="ebreve" unicode="&#x115;" horiz-adv-x="564" 
d="M475 756c-11 -101 -83 -162 -171 -162c-89 0 -161 61 -172 162l82 23c10 -47 42 -76 90 -76c47 0 79 29 89 76zM370 215c-85 0 -158 15 -186 29c0 -73 45 -112 110 -112c45 0 79 18 91 50h154c-12 -90 -90 -193 -251 -193c-174 0 -268 121 -268 271
c0 167 115 264 269 264c143 0 255 -82 255 -260c0 -16 -1 -37 -3 -49h-171zM283 398c-32 0 -65 -15 -82 -57c48 -28 115 -33 169 -33c3 56 -40 90 -87 90z" />
    <glyph glyph-name="ecaron" unicode="&#x11b;" horiz-adv-x="564" 
d="M503 713l-205 -119l-205 119l46 82l159 -78l159 78zM370 215c-85 0 -158 15 -186 29c0 -73 45 -112 110 -112c45 0 79 18 91 50h154c-12 -90 -90 -193 -251 -193c-174 0 -268 121 -268 271c0 167 115 264 269 264c143 0 255 -82 255 -260c0 -16 -1 -37 -3 -49h-171z
M283 398c-32 0 -65 -15 -82 -57c48 -28 115 -33 169 -33c3 56 -40 90 -87 90z" />
    <glyph glyph-name="ecircumflex" unicode="&#xea;" horiz-adv-x="564" 
d="M502 676l-46 -82l-160 79l-159 -79l-46 82l205 119zM370 215c-85 0 -158 15 -186 29c0 -73 45 -112 110 -112c45 0 79 18 91 50h154c-12 -90 -90 -193 -251 -193c-174 0 -268 121 -268 271c0 167 115 264 269 264c143 0 255 -82 255 -260c0 -16 -1 -37 -3 -49h-171z
M283 398c-32 0 -65 -15 -82 -57c48 -28 115 -33 169 -33c3 56 -40 90 -87 90z" />
    <glyph glyph-name="edieresis" unicode="&#xeb;" horiz-adv-x="564" 
d="M193 594c-51 0 -88 38 -88 89c0 48 37 85 88 85c49 0 87 -37 87 -85c0 -51 -38 -89 -87 -89zM407 594c-49 0 -87 38 -87 89c0 48 38 85 87 85c51 0 88 -37 88 -85c0 -51 -37 -89 -88 -89zM370 215c-85 0 -158 15 -186 29c0 -73 45 -112 110 -112c45 0 79 18 91 50h154
c-12 -90 -90 -193 -251 -193c-174 0 -268 121 -268 271c0 167 115 264 269 264c143 0 255 -82 255 -260c0 -16 -1 -37 -3 -49h-171zM283 398c-32 0 -65 -15 -82 -57c48 -28 115 -33 169 -33c3 56 -40 90 -87 90z" />
    <glyph glyph-name="edotaccent" unicode="&#x117;" horiz-adv-x="564" 
d="M200 683c0 49 38 90 89 90c49 0 89 -41 89 -90c0 -50 -40 -89 -89 -89c-51 0 -89 39 -89 89zM370 215c-85 0 -158 15 -186 29c0 -73 45 -112 110 -112c45 0 79 18 91 50h154c-12 -90 -90 -193 -251 -193c-174 0 -268 121 -268 271c0 167 115 264 269 264
c143 0 255 -82 255 -260c0 -16 -1 -37 -3 -49h-171zM283 398c-32 0 -65 -15 -82 -57c48 -28 115 -33 169 -33c3 56 -40 90 -87 90z" />
    <glyph glyph-name="egrave" unicode="&#xe8;" horiz-adv-x="564" 
d="M423 594l17 95c-102 20 -206 51 -307 93l-37 -101c114 -49 202 -71 327 -87zM370 215c-85 0 -158 15 -186 29c0 -73 45 -112 110 -112c45 0 79 18 91 50h154c-12 -90 -90 -193 -251 -193c-174 0 -268 121 -268 271c0 167 115 264 269 264c143 0 255 -82 255 -260
c0 -16 -1 -37 -3 -49h-171zM283 398c-32 0 -65 -15 -82 -57c48 -28 115 -33 169 -33c3 56 -40 90 -87 90z" />
    <glyph glyph-name="emacron" unicode="&#x113;" horiz-adv-x="564" 
d="M143 703h299v-109h-299v109zM370 215c-85 0 -158 15 -186 29c0 -73 45 -112 110 -112c45 0 79 18 91 50h154c-12 -90 -90 -193 -251 -193c-174 0 -268 121 -268 271c0 167 115 264 269 264c143 0 255 -82 255 -260c0 -16 -1 -37 -3 -49h-171zM283 398
c-32 0 -65 -15 -82 -57c48 -28 115 -33 169 -33c3 56 -40 90 -87 90z" />
    <glyph glyph-name="eogonek" unicode="&#x119;" horiz-adv-x="564" 
d="M370 215c-85 0 -158 15 -186 29c0 -73 45 -112 110 -112c45 0 79 18 91 50h154c-12 -90 -90 -193 -251 -193c-174 0 -268 121 -268 271c0 167 115 264 269 264c143 0 255 -82 255 -260c0 -16 -1 -37 -3 -49h-171zM283 398c-32 0 -65 -15 -82 -57c48 -28 115 -33 169 -33
c3 56 -40 90 -87 90zM346 -94v66c-122 0 -169 -50 -169 -116c0 -77 66 -118 139 -118c39 0 81 11 113 35l-42 72c-17 -14 -45 -21 -71 -21c-30 0 -55 11 -55 37c0 35 48 45 85 45z" />
    <glyph glyph-name="uni1E1F" unicode="&#x1e1f;" horiz-adv-x="436" 
d="M299 759c-51 0 -89 38 -89 88s38 91 89 91c49 0 89 -41 89 -91s-40 -88 -89 -88zM436 410c-45 -15 -88 -21 -150 -23v-387h-180v385h-96v130h96v7c0 120 59 189 223 189h73v-131h-32c-56 0 -84 -15 -84 -56v-6c38 3 76 9 113 18z" />
    <glyph glyph-name="gbreve" unicode="&#x11f;" horiz-adv-x="591" 
d="M256 595c-71 0 -129 49 -138 130l66 19c8 -38 34 -62 72 -62s64 24 72 62l66 -19c-9 -81 -67 -130 -138 -130zM424 119c112 0 167 -71 167 -146c0 -78 -55 -171 -233 -171h-147c-168 0 -211 71 -211 121c0 43 30 89 111 102c-54 17 -81 56 -81 95c0 40 27 80 78 95
c-43 34 -65 80 -65 131c0 99 85 178 238 178c46 0 86 -7 120 -20c23 42 21 98 2 145h175c3 -9 7 -27 7 -49c0 -56 -32 -119 -105 -150c25 -29 38 -65 38 -104c0 -99 -84 -183 -237 -183c-45 0 -84 7 -117 20c-8 -6 -14 -17 -14 -28c0 -18 13 -36 45 -36h229zM281 413
c-43 0 -67 -30 -67 -74c0 -45 24 -74 67 -74c41 0 66 28 66 74c0 45 -25 74 -66 74zM299 -100c65 0 121 32 123 81h-250c1 -49 60 -81 127 -81z" />
    <glyph glyph-name="gcircumflex" unicode="&#x11d;" horiz-adv-x="591" 
d="M246 704l-128 -63l-37 66l165 95l166 -95l-37 -66zM424 119c112 0 167 -71 167 -146c0 -78 -55 -171 -233 -171h-147c-168 0 -211 71 -211 121c0 43 30 89 111 102c-54 17 -81 56 -81 95c0 40 27 80 78 95c-43 34 -65 80 -65 131c0 99 85 178 238 178c46 0 86 -7 120 -20
c23 42 21 98 2 145h175c3 -9 7 -27 7 -49c0 -56 -32 -119 -105 -150c25 -29 38 -65 38 -104c0 -99 -84 -183 -237 -183c-45 0 -84 7 -117 20c-8 -6 -14 -17 -14 -28c0 -18 13 -36 45 -36h229zM281 413c-43 0 -67 -30 -67 -74c0 -45 24 -74 67 -74c41 0 66 28 66 74
c0 45 -25 74 -66 74zM299 -100c65 0 121 32 123 81h-250c1 -49 60 -81 127 -81z" />
    <glyph glyph-name="gcommaaccent" unicode="&#x123;" horiz-adv-x="591" 
d="M272 595c-80 0 -124 68 -124 151c0 97 59 203 186 239l29 -68c-69 -20 -118 -70 -118 -128c7 4 21 6 34 6c47 0 103 -29 103 -96c0 -59 -46 -104 -110 -104zM424 119c112 0 167 -71 167 -146c0 -78 -55 -171 -233 -171h-147c-168 0 -211 71 -211 121c0 43 30 89 111 102
c-54 17 -81 56 -81 95c0 40 27 80 78 95c-43 34 -65 80 -65 131c0 99 85 178 238 178c46 0 86 -7 120 -20c23 42 21 98 2 145h175c3 -9 7 -27 7 -49c0 -56 -32 -119 -105 -150c25 -29 38 -65 38 -104c0 -99 -84 -183 -237 -183c-45 0 -84 7 -117 20c-8 -6 -14 -17 -14 -28
c0 -18 13 -36 45 -36h229zM281 413c-43 0 -67 -30 -67 -74c0 -45 24 -74 67 -74c41 0 66 28 66 74c0 45 -25 74 -66 74zM299 -100c65 0 121 32 123 81h-250c1 -49 60 -81 127 -81z" />
    <glyph glyph-name="gdotaccent" unicode="&#x121;" horiz-adv-x="591" 
d="M284 594c-51 0 -89 39 -89 89c0 49 38 90 89 90c49 0 89 -41 89 -90c0 -50 -40 -89 -89 -89zM424 119c112 0 167 -71 167 -146c0 -78 -55 -171 -233 -171h-147c-168 0 -211 71 -211 121c0 43 30 89 111 102c-54 17 -81 56 -81 95c0 40 27 80 78 95c-43 34 -65 80 -65 131
c0 99 85 178 238 178c46 0 86 -7 120 -20c23 42 21 98 2 145h175c3 -9 7 -27 7 -49c0 -56 -32 -119 -105 -150c25 -29 38 -65 38 -104c0 -99 -84 -183 -237 -183c-45 0 -84 7 -117 20c-8 -6 -14 -17 -14 -28c0 -18 13 -36 45 -36h229zM281 413c-43 0 -67 -30 -67 -74
c0 -45 24 -74 67 -74c41 0 66 28 66 74c0 45 -25 74 -66 74zM299 -100c65 0 121 32 123 81h-250c1 -49 60 -81 127 -81z" />
    <glyph glyph-name="hbar" unicode="&#x127;" horiz-adv-x="615" 
d="M391 524c88 0 179 -57 179 -175v-349h-180v275c0 60 -33 86 -69 86c-37 0 -75 -32 -75 -86v-275h-180v583h-46v44h46v73h180v-73h71v-44h-71v-141c27 55 85 82 145 82z" />
    <glyph glyph-name="hcircumflex" unicode="&#x125;" horiz-adv-x="599" 
d="M536 654l-33 -59l-115 57l-115 -57l-33 59l148 86zM375 524c88 0 179 -57 179 -175v-349h-180v275c0 60 -33 86 -69 86c-37 0 -75 -32 -75 -86v-275h-180v700h180v-258c27 55 85 82 145 82z" />
    <glyph glyph-name="dotlessi" unicode="&#x131;" horiz-adv-x="260" 
d="M220 0h-180v515h180v-515z" />
    <glyph glyph-name="iacute" unicode="&#xed;" horiz-adv-x="248" 
d="M32 594c124 16 213 38 326 87l-37 101c-101 -42 -204 -73 -307 -93zM221 0h-180v515h180v-515z" />
    <glyph glyph-name="icircumflex" unicode="&#xee;" horiz-adv-x="311" 
d="M361 676l-46 -82l-160 79l-159 -79l-46 82l205 119zM249 0h-180v515h180v-515z" />
    <glyph glyph-name="idieresis" unicode="&#xef;" horiz-adv-x="290" 
d="M38 594c-51 0 -88 38 -88 89c0 48 37 85 88 85c49 0 87 -37 87 -85c0 -51 -38 -89 -87 -89zM252 594c-49 0 -87 38 -87 89c0 48 38 85 87 85c51 0 88 -37 88 -85c0 -51 -37 -89 -88 -89zM238 0h-180v515h180v-515z" />
    <glyph glyph-name="igrave" unicode="&#xec;" horiz-adv-x="248" 
d="M236 594l17 95c-102 20 -206 51 -307 93l-37 -101c114 -49 202 -71 327 -87zM214 0h-180v515h180v-515z" />
    <glyph glyph-name="ij" unicode="&#x133;" horiz-adv-x="595" 
d="M148 553c-64 0 -108 44 -108 108c0 62 44 106 108 106c62 0 106 -44 106 -106c0 -64 -44 -108 -106 -108zM449 553c-64 0 -107 44 -107 108c0 62 43 106 107 106c62 0 106 -44 106 -106c0 -64 -44 -108 -106 -108zM237 0h-180v515h180v-515zM274 -55c56 0 84 19 84 70
v500h179v-510c0 -121 -57 -190 -223 -190h-40v130z" />
    <glyph glyph-name="imacron" unicode="&#x12b;" horiz-adv-x="279" 
d="M-10 703h299v-109h-299v109zM232 0h-180v515h180v-515z" />
    <glyph glyph-name="iogonek" unicode="&#x12f;" horiz-adv-x="339" 
d="M148 553c-64 0 -108 44 -108 108c0 62 44 106 108 106c62 0 106 -44 106 -106c0 -64 -44 -108 -106 -108zM237 0h-180v515h180v-515zM216 -94v66c-122 0 -169 -50 -169 -116c0 -77 66 -118 139 -118c39 0 81 11 113 35l-42 72c-17 -14 -45 -21 -71 -21
c-30 0 -55 11 -55 37c0 35 48 45 85 45z" />
    <glyph glyph-name="itilde" unicode="&#x129;" horiz-adv-x="334" 
d="M246 594c-65 0 -95 54 -142 54c-32 0 -45 -21 -74 -58l-70 48c35 68 73 127 132 127c63 0 109 -53 145 -53c20 0 40 16 62 60l75 -45c-31 -66 -63 -133 -128 -133zM260 0h-180v515h180v-515z" />
    <glyph glyph-name="jcircumflex" unicode="&#x135;" horiz-adv-x="281" 
d="M361 676l-46 -82l-160 79l-159 -79l-46 82l205 119zM-22 -46c56 0 84 19 84 70v491h180v-501c0 -120 -58 -189 -224 -189h-40v129z" />
    <glyph glyph-name="kcommaaccent" unicode="&#x137;" horiz-adv-x="609" 
d="M391 275l198 -275h-219l-140 202v-202h-180v700h180v-359l137 174h242zM181 -179c0 59 46 104 110 104c80 0 124 -68 124 -151c0 -97 -59 -203 -186 -239l-29 68c69 20 118 70 118 128c-7 -4 -21 -6 -34 -6c-47 0 -103 29 -103 96z" />
    <glyph glyph-name="kgreenlandic" unicode="&#x138;" horiz-adv-x="609" 
d="M391 275l198 -275h-219l-140 202v-202h-180v515h180v-174l137 174h242z" />
    <glyph glyph-name="lacute" unicode="&#x13a;" horiz-adv-x="268" 
d="M28 759c124 15 213 37 326 86l-37 101c-101 -42 -204 -73 -307 -93zM231 0h-180v700h180v-700z" />
    <glyph glyph-name="lcaron" unicode="&#x13e;" horiz-adv-x="546" 
d="M314 637c0 59 46 104 110 104c80 0 124 -68 124 -151c0 -97 -59 -203 -186 -239l-29 68c69 20 118 70 118 128c-7 -4 -21 -6 -34 -6c-47 0 -103 29 -103 96zM230 0h-180v700h180v-700z" />
    <glyph glyph-name="lcommaaccent" unicode="&#x13c;" horiz-adv-x="276" 
d="M231 0h-180v700h180v-700zM21 -178c0 59 46 104 110 104c80 0 124 -68 124 -151c0 -97 -59 -203 -186 -239l-29 68c69 20 118 70 118 128c-7 -4 -21 -6 -34 -6c-47 0 -103 29 -103 96z" />
    <glyph glyph-name="ldot" unicode="&#x140;" horiz-adv-x="481" 
d="M230 0h-180v700h180v-700zM293 425c0 49 38 90 89 90c49 0 89 -41 89 -90c0 -50 -40 -89 -89 -89c-51 0 -89 39 -89 89z" />
    <glyph glyph-name="lslash" unicode="&#x142;" horiz-adv-x="353" 
d="M363 426l-99 -64v-362h-180v245l-61 -39l-33 52l94 61v381h180v-264l65 42z" />
    <glyph glyph-name="uni1E41" unicode="&#x1e41;" horiz-adv-x="907" 
d="M364 683c0 49 38 90 89 90c49 0 89 -41 89 -90c0 -50 -40 -89 -89 -89c-51 0 -89 39 -89 89zM862 348v-348h-180v278c0 53 -32 79 -68 79c-37 0 -68 -29 -68 -79v-278h-180v278c0 54 -31 79 -69 79c-37 0 -67 -27 -67 -79v-278h-180v515h174v-85c21 61 88 94 154 94
c68 0 125 -34 144 -97c25 59 104 97 173 97c81 0 167 -51 167 -176z" />
    <glyph glyph-name="nacute" unicode="&#x144;" horiz-adv-x="599" 
d="M204 594c124 16 213 38 326 87l-37 101c-101 -42 -204 -73 -307 -93zM554 349v-349h-180v275c0 60 -33 86 -69 86c-37 0 -75 -32 -75 -86v-275h-180v515h174v-85c24 63 87 94 151 94c88 0 179 -57 179 -175z" />
    <glyph glyph-name="napostrophe" unicode="&#x149;" horiz-adv-x="849" 
d="M22 607c0 59 46 104 110 104c80 0 124 -68 124 -151c0 -97 -59 -203 -186 -239l-29 68c69 20 118 70 118 128c-7 -4 -21 -6 -34 -6c-47 0 -103 29 -103 96zM804 349v-349h-180v275c0 60 -33 86 -69 86c-37 0 -75 -32 -75 -86v-275h-180v515h174v-85c24 63 87 94 151 94
c88 0 179 -57 179 -175z" />
    <glyph glyph-name="ncaron" unicode="&#x148;" horiz-adv-x="599" 
d="M526 713l-205 -119l-205 119l46 82l159 -78l159 78zM554 349v-349h-180v275c0 60 -33 86 -69 86c-37 0 -75 -32 -75 -86v-275h-180v515h174v-85c24 63 87 94 151 94c88 0 179 -57 179 -175z" />
    <glyph glyph-name="ncommaaccent" unicode="&#x146;" horiz-adv-x="599" 
d="M554 349v-349h-180v275c0 60 -33 86 -69 86c-37 0 -75 -32 -75 -86v-275h-180v515h174v-85c24 63 87 94 151 94c88 0 179 -57 179 -175zM185 -179c0 59 46 104 110 104c80 0 124 -68 124 -151c0 -97 -59 -203 -186 -239l-29 68c69 20 118 70 118 128c-7 -4 -21 -6 -34 -6
c-47 0 -103 29 -103 96z" />
    <glyph glyph-name="eng" unicode="&#x14b;" horiz-adv-x="594" 
d="M375 524c88 0 179 -57 179 -175v-344c0 -121 -58 -190 -224 -190h-40v130c56 0 84 19 84 70v260c0 60 -33 86 -69 86c-37 0 -75 -32 -75 -86v-275h-180v515h174v-85c24 63 87 94 151 94z" />
    <glyph glyph-name="ntilde" unicode="&#xf1;" horiz-adv-x="599" 
d="M401 594c-65 0 -95 54 -142 54c-32 0 -45 -21 -74 -58l-70 48c35 68 73 127 132 127c63 0 109 -53 145 -53c20 0 40 16 62 60l75 -45c-31 -66 -63 -133 -128 -133zM554 349v-349h-180v275c0 60 -33 86 -69 86c-37 0 -75 -32 -75 -86v-275h-180v515h174v-85
c24 63 87 94 151 94c88 0 179 -57 179 -175z" />
    <glyph glyph-name="oacute" unicode="&#xf3;" horiz-adv-x="591" 
d="M173 594c124 16 213 38 326 87l-37 101c-101 -42 -204 -73 -307 -93zM295 524c162 0 276 -107 276 -268c0 -160 -114 -267 -276 -267s-275 107 -275 267c0 161 113 268 275 268zM295 141c51 0 95 35 95 115c0 81 -44 116 -95 116c-50 0 -94 -35 -94 -116
c0 -80 44 -115 94 -115z" />
    <glyph glyph-name="obreve" unicode="&#x14f;" horiz-adv-x="591" 
d="M466 756c-11 -101 -83 -162 -171 -162c-89 0 -161 61 -172 162l82 23c10 -47 42 -76 90 -76c47 0 79 29 89 76zM295 524c162 0 276 -107 276 -268c0 -160 -114 -267 -276 -267s-275 107 -275 267c0 161 113 268 275 268zM295 141c51 0 95 35 95 115c0 81 -44 116 -95 116
c-50 0 -94 -35 -94 -116c0 -80 44 -115 94 -115z" />
    <glyph glyph-name="ocircumflex" unicode="&#xf4;" horiz-adv-x="591" 
d="M501 676l-46 -82l-160 79l-159 -79l-46 82l205 119zM295 524c162 0 276 -107 276 -268c0 -160 -114 -267 -276 -267s-275 107 -275 267c0 161 113 268 275 268zM295 141c51 0 95 35 95 115c0 81 -44 116 -95 116c-50 0 -94 -35 -94 -116c0 -80 44 -115 94 -115z" />
    <glyph glyph-name="odieresis" unicode="&#xf6;" horiz-adv-x="591" 
d="M188 594c-51 0 -88 38 -88 89c0 48 37 85 88 85c49 0 87 -37 87 -85c0 -51 -38 -89 -87 -89zM402 594c-49 0 -87 38 -87 89c0 48 38 85 87 85c51 0 88 -37 88 -85c0 -51 -37 -89 -88 -89zM295 524c162 0 276 -107 276 -268c0 -160 -114 -267 -276 -267s-275 107 -275 267
c0 161 113 268 275 268zM295 141c51 0 95 35 95 115c0 81 -44 116 -95 116c-50 0 -94 -35 -94 -116c0 -80 44 -115 94 -115z" />
    <glyph glyph-name="ograve" unicode="&#xf2;" horiz-adv-x="591" 
d="M421 594l17 95c-102 20 -206 51 -307 93l-37 -101c114 -49 202 -71 327 -87zM295 524c162 0 276 -107 276 -268c0 -160 -114 -267 -276 -267s-275 107 -275 267c0 161 113 268 275 268zM295 141c51 0 95 35 95 115c0 81 -44 116 -95 116c-50 0 -94 -35 -94 -116
c0 -80 44 -115 94 -115z" />
    <glyph glyph-name="ohungarumlaut" unicode="&#x151;" horiz-adv-x="591" 
d="M357 756l-98 -162h-123l69 162h152zM565 756l-125 -162h-123l96 162h152zM295 524c162 0 276 -107 276 -268c0 -160 -114 -267 -276 -267s-275 107 -275 267c0 161 113 268 275 268zM295 141c51 0 95 35 95 115c0 81 -44 116 -95 116c-50 0 -94 -35 -94 -116
c0 -80 44 -115 94 -115z" />
    <glyph glyph-name="omacron" unicode="&#x14d;" horiz-adv-x="591" 
d="M146 703h299v-109h-299v109zM295 524c162 0 276 -107 276 -268c0 -160 -114 -267 -276 -267s-275 107 -275 267c0 161 113 268 275 268zM295 141c51 0 95 35 95 115c0 81 -44 116 -95 116c-50 0 -94 -35 -94 -116c0 -80 44 -115 94 -115z" />
    <glyph glyph-name="oslash" unicode="&#xf8;" horiz-adv-x="591" 
d="M419 500c93 -41 152 -128 152 -244c0 -160 -114 -267 -276 -267c-25 0 -49 3 -72 8l-34 -87l-49 23l31 80c-93 41 -151 128 -151 243c0 161 113 268 275 268c25 0 49 -3 71 -7l33 85l51 -23zM201 256c0 -41 12 -70 30 -89l79 204c-5 1 -10 1 -15 1
c-50 0 -94 -35 -94 -116zM295 141c51 0 95 35 95 115c0 42 -12 72 -31 91l-79 -205c5 -1 10 -1 15 -1z" />
    <glyph glyph-name="otilde" unicode="&#xf5;" horiz-adv-x="591" 
d="M379 594c-65 0 -95 54 -142 54c-32 0 -45 -21 -74 -58l-70 48c35 68 73 127 132 127c63 0 109 -53 145 -53c20 0 40 16 62 60l75 -45c-31 -66 -63 -133 -128 -133zM295 524c162 0 276 -107 276 -268c0 -160 -114 -267 -276 -267s-275 107 -275 267c0 161 113 268 275 268
zM295 141c51 0 95 35 95 115c0 81 -44 116 -95 116c-50 0 -94 -35 -94 -116c0 -80 44 -115 94 -115z" />
    <glyph glyph-name="oe" unicode="&#x153;" horiz-adv-x="936" 
d="M913 215h-171c-85 0 -158 15 -186 29c0 -73 45 -112 110 -112c45 0 79 18 91 50h154c-12 -90 -90 -193 -251 -193c-79 0 -141 25 -185 65c-38 -41 -104 -65 -180 -65c-162 0 -275 107 -275 267c0 161 113 268 275 268c75 0 140 -23 180 -64c47 42 112 64 186 64
c143 0 255 -82 255 -260c0 -16 -1 -37 -3 -49zM655 398c-32 0 -65 -15 -82 -57c48 -28 115 -33 169 -33c3 56 -40 90 -87 90zM295 141c51 0 96 35 96 115c0 81 -45 116 -96 116c-50 0 -95 -35 -95 -116c0 -80 45 -115 95 -115z" />
    <glyph glyph-name="uni1E57" unicode="&#x1e57;" horiz-adv-x="636" 
d="M272 683c0 49 38 90 89 90c49 0 89 -41 89 -90c0 -50 -40 -89 -89 -89c-51 0 -89 39 -89 89zM616 267c0 -144 -85 -274 -242 -274c-74 0 -122 29 -144 52v-230h-180v700h174v-65c35 44 81 74 153 74c122 0 239 -89 239 -257zM331 365c-70 0 -102 -52 -102 -107
c0 -72 54 -114 105 -114s100 38 100 111c0 61 -34 110 -103 110z" />
    <glyph glyph-name="thorn" unicode="&#xfe;" horiz-adv-x="636" 
d="M616 267c0 -144 -85 -274 -242 -274c-74 0 -122 29 -144 52v-230h-180v885h174v-249c39 43 93 73 161 73c115 0 231 -89 231 -257zM331 365c-70 0 -102 -52 -102 -107c0 -72 54 -114 104 -114c51 0 100 38 100 111c0 61 -34 110 -102 110z" />
    <glyph glyph-name="racute" unicode="&#x155;" horiz-adv-x="435" 
d="M109 594c124 16 213 38 326 87l-37 101c-101 -42 -204 -73 -307 -93zM403 522v-172h-57c-87 0 -116 -53 -116 -116v-234h-180v515h174v-90c23 62 68 97 140 97h39z" />
    <glyph glyph-name="rcaron" unicode="&#x159;" horiz-adv-x="400" 
d="M440 713l-205 -119l-205 119l46 82l159 -78l159 78zM405 522v-172h-57c-87 0 -116 -53 -116 -116v-234h-180v515h174v-90c23 62 68 97 140 97h39z" />
    <glyph glyph-name="rcommaaccent" unicode="&#x157;" horiz-adv-x="425" 
d="M425 522v-172h-57c-87 0 -116 -53 -116 -116v-234h-180v515h174v-90c23 62 68 97 140 97h39zM52 -179c0 59 46 104 110 104c80 0 124 -68 124 -151c0 -97 -59 -203 -186 -239l-29 68c69 20 118 70 118 128c-7 -4 -21 -6 -34 -6c-47 0 -103 29 -103 96z" />
    <glyph glyph-name="sacute" unicode="&#x15b;" horiz-adv-x="548" 
d="M160 594c124 16 213 38 326 87l-37 101c-101 -42 -204 -73 -307 -93zM182 182c0 -51 48 -73 105 -73c40 0 79 10 79 36c0 24 -32 29 -87 40c-94 17 -231 38 -231 170c0 122 114 169 231 169c91 0 175 -30 220 -77l-90 -106c-38 37 -81 53 -122 53s-67 -13 -67 -37
c0 -22 22 -33 70 -44c85 -17 248 -24 248 -159c0 -111 -112 -165 -248 -165c-143 0 -280 60 -280 193h172z" />
    <glyph glyph-name="scaron" unicode="&#x161;" horiz-adv-x="548" 
d="M484 713l-205 -119l-205 119l46 82l159 -78l159 78zM182 182c0 -51 48 -73 105 -73c40 0 79 10 79 36c0 24 -32 29 -87 40c-94 17 -231 38 -231 170c0 122 114 169 231 169c91 0 175 -30 220 -77l-90 -106c-38 37 -81 53 -122 53s-67 -13 -67 -37c0 -22 22 -33 70 -44
c85 -17 248 -24 248 -159c0 -111 -112 -165 -248 -165c-143 0 -280 60 -280 193h172z" />
    <glyph glyph-name="scedilla" unicode="&#x15f;" horiz-adv-x="548" 
d="M182 182c0 -51 48 -73 105 -73c40 0 79 10 79 36c0 24 -32 29 -87 40c-94 17 -231 38 -231 170c0 122 114 169 231 169c91 0 175 -30 220 -77l-90 -106c-38 37 -81 53 -122 53s-67 -13 -67 -37c0 -22 22 -33 70 -44c85 -17 248 -24 248 -159c0 -111 -112 -165 -248 -165
c-143 0 -280 60 -280 193h172zM234 -94c36 0 85 -10 85 -45c0 -26 -25 -37 -55 -37c-26 0 -54 7 -71 21l-42 -72c32 -24 74 -35 113 -35c73 0 139 41 139 118c0 66 -47 116 -169 116v-66z" />
    <glyph glyph-name="scircumflex" unicode="&#x15d;" horiz-adv-x="548" 
d="M492 676l-46 -82l-160 79l-159 -79l-46 82l205 119zM182 182c0 -51 48 -73 105 -73c40 0 79 10 79 36c0 24 -32 29 -87 40c-94 17 -231 38 -231 170c0 122 114 169 231 169c91 0 175 -30 220 -77l-90 -106c-38 37 -81 53 -122 53s-67 -13 -67 -37c0 -22 22 -33 70 -44
c85 -17 248 -24 248 -159c0 -111 -112 -165 -248 -165c-143 0 -280 60 -280 193h172z" />
    <glyph glyph-name="scommaaccent" unicode="&#x219;" horiz-adv-x="548" 
d="M182 182c0 -51 48 -73 105 -73c40 0 79 10 79 36c0 24 -32 29 -87 40c-94 17 -231 38 -231 170c0 122 114 169 231 169c91 0 175 -30 220 -77l-90 -106c-38 37 -81 53 -122 53s-67 -13 -67 -37c0 -22 22 -33 70 -44c85 -17 248 -24 248 -159c0 -111 -112 -165 -248 -165
c-143 0 -280 60 -280 193h172zM169 -178c0 59 46 104 110 104c80 0 124 -68 124 -151c0 -97 -59 -203 -186 -239l-29 68c69 20 118 70 118 128c-7 -4 -21 -6 -34 -6c-47 0 -103 29 -103 96z" />
    <glyph glyph-name="uni1E61" unicode="&#x1e61;" horiz-adv-x="548" 
d="M188 683c0 49 38 90 89 90c49 0 89 -41 89 -90c0 -50 -40 -89 -89 -89c-51 0 -89 39 -89 89zM182 182c0 -51 48 -73 105 -73c40 0 79 10 79 36c0 24 -32 29 -87 40c-94 17 -231 38 -231 170c0 122 114 169 231 169c91 0 175 -30 220 -77l-90 -106c-38 37 -81 53 -122 53
s-67 -13 -67 -37c0 -22 22 -33 70 -44c85 -17 248 -24 248 -159c0 -111 -112 -165 -248 -165c-143 0 -280 60 -280 193h172z" />
    <glyph glyph-name="germandbls" unicode="&#xdf;" horiz-adv-x="641" 
d="M453 356c65 -5 168 -38 168 -171c0 -131 -101 -185 -224 -185h-101v141h12c73 0 138 3 138 77c0 78 -68 78 -138 78h-12v109h22c48 0 90 24 90 86c0 55 -35 85 -88 85c-65 0 -90 -46 -90 -124v-452h-180v442c0 158 55 269 270 269c186 0 270 -83 270 -196
c0 -90 -53 -142 -137 -159z" />
    <glyph glyph-name="longs" unicode="&#x17f;" horiz-adv-x="402" 
d="M329 711h73v-131h-32c-56 0 -84 -18 -84 -69v-511h-180v376h-96v130h96v16c0 120 59 189 223 189z" />
    <glyph glyph-name="tbar" unicode="&#x167;" horiz-adv-x="456" 
d="M296 210c0 -50 28 -69 84 -69h32v-141h-73c-164 0 -223 69 -223 189v27h-106v122h106v47h-96v130h96v133h180v-129c39 3 76 8 113 17l37 -126c-45 -15 -87 -21 -150 -23v-49h106v-122h-106v-6z" />
    <glyph glyph-name="tcaron" unicode="&#x165;" horiz-adv-x="686" 
d="M454 607c0 59 46 104 110 104c80 0 124 -68 124 -151c0 -97 -59 -203 -186 -239l-29 68c69 20 118 70 118 128c-7 -4 -21 -6 -34 -6c-47 0 -103 29 -103 96zM286 210c0 -50 28 -69 84 -69h32v-141h-73c-164 0 -223 69 -223 189v196h-96v130h96v133h180v-129
c39 3 76 8 113 17l37 -126c-45 -15 -87 -21 -150 -23v-177z" />
    <glyph glyph-name="uni0163" unicode="&#x163;" horiz-adv-x="446" 
d="M286 210c0 -50 28 -69 84 -69h32v-141h-73c-164 0 -223 69 -223 189v196h-96v130h96v133h180v-129c39 3 76 8 113 17l37 -126c-45 -15 -87 -21 -150 -23v-177zM257 -94c36 0 85 -10 85 -45c0 -26 -25 -37 -55 -37c-26 0 -54 7 -71 21l-42 -72c32 -24 74 -35 113 -35
c73 0 139 41 139 118c0 66 -47 116 -169 116v-66z" />
    <glyph glyph-name="uni021B" unicode="&#x21b;" horiz-adv-x="446" 
d="M286 210c0 -50 28 -69 84 -69h32v-141h-73c-164 0 -223 69 -223 189v196h-96v130h96v133h180v-129c39 3 76 8 113 17l37 -126c-45 -15 -87 -21 -150 -23v-177zM156 -178c0 59 46 104 110 104c80 0 124 -68 124 -151c0 -97 -59 -203 -186 -239l-29 68
c69 20 118 70 118 128c-7 -4 -21 -6 -34 -6c-47 0 -103 29 -103 96z" />
    <glyph glyph-name="uni1E6B" unicode="&#x1e6b;" horiz-adv-x="446" 
d="M195 699c-65 0 -116 51 -116 115s51 115 116 115c63 0 114 -51 114 -115s-51 -115 -114 -115zM286 210c0 -50 28 -69 84 -69h32v-141h-73c-164 0 -223 69 -223 189v196h-96v130h96v133h180v-129c39 3 76 8 113 17l37 -126c-45 -15 -87 -21 -150 -23v-177z" />
    <glyph glyph-name="uacute" unicode="&#xfa;" horiz-adv-x="595" 
d="M169 594c124 16 213 38 326 87l-37 101c-101 -42 -204 -73 -307 -93zM40 191v324h180v-253c0 -73 15 -110 66 -110c56 0 79 47 79 110v253h180v-515h-175v78c-24 -49 -79 -89 -157 -89c-88 0 -173 56 -173 202z" />
    <glyph glyph-name="ubreve" unicode="&#x16d;" horiz-adv-x="595" 
d="M458 756c-11 -101 -83 -162 -171 -162c-89 0 -161 61 -172 162l82 23c10 -47 42 -76 90 -76c47 0 79 29 89 76zM40 191v324h180v-253c0 -73 15 -110 66 -110c56 0 79 47 79 110v253h180v-515h-175v78c-24 -49 -79 -89 -157 -89c-88 0 -173 56 -173 202z" />
    <glyph glyph-name="ucircumflex" unicode="&#xfb;" horiz-adv-x="595" 
d="M494 676l-46 -82l-160 79l-159 -79l-46 82l205 119zM40 191v324h180v-253c0 -73 15 -110 66 -110c56 0 79 47 79 110v253h180v-515h-175v78c-24 -49 -79 -89 -157 -89c-88 0 -173 56 -173 202z" />
    <glyph glyph-name="udieresis" unicode="&#xfc;" horiz-adv-x="595" 
d="M183 594c-51 0 -88 38 -88 89c0 48 37 85 88 85c49 0 87 -37 87 -85c0 -51 -38 -89 -87 -89zM397 594c-49 0 -87 38 -87 89c0 48 38 85 87 85c51 0 88 -37 88 -85c0 -51 -37 -89 -88 -89zM40 191v324h180v-253c0 -73 15 -110 66 -110c56 0 79 47 79 110v253h180v-515
h-175v78c-24 -49 -79 -89 -157 -89c-88 0 -173 56 -173 202z" />
    <glyph glyph-name="ugrave" unicode="&#xf9;" horiz-adv-x="595" 
d="M423 594l17 95c-102 20 -206 51 -307 93l-37 -101c114 -49 202 -71 327 -87zM40 191v324h180v-253c0 -73 15 -110 66 -110c56 0 79 47 79 110v253h180v-515h-175v78c-24 -49 -79 -89 -157 -89c-88 0 -173 56 -173 202z" />
    <glyph glyph-name="uhungarumlaut" unicode="&#x171;" horiz-adv-x="621" 
d="M363 756l-98 -162h-123l69 162h152zM571 756l-125 -162h-123l96 162h152zM40 191v324h180v-253c0 -73 15 -110 66 -110c56 0 79 47 79 110v253h180v-515h-175v78c-24 -49 -79 -89 -157 -89c-88 0 -173 56 -173 202z" />
    <glyph glyph-name="umacron" unicode="&#x16b;" horiz-adv-x="595" 
d="M141 703h299v-109h-299v109zM40 191v324h180v-253c0 -73 15 -110 66 -110c56 0 79 47 79 110v253h180v-515h-175v78c-24 -49 -79 -89 -157 -89c-88 0 -173 56 -173 202z" />
    <glyph glyph-name="uogonek" unicode="&#x173;" horiz-adv-x="595" 
d="M40 191v324h180v-253c0 -73 15 -110 66 -110c56 0 79 47 79 110v253h180v-515h-175v78c-24 -49 -79 -89 -157 -89c-88 0 -173 56 -173 202zM459 -94v66c-122 0 -169 -50 -169 -116c0 -77 66 -118 139 -118c39 0 81 11 113 35l-42 72c-17 -14 -45 -21 -71 -21
c-30 0 -55 11 -55 37c0 35 48 45 85 45z" />
    <glyph glyph-name="uring" unicode="&#x16f;" horiz-adv-x="595" 
d="M283 892c85 0 150 -64 150 -148c0 -85 -65 -150 -150 -150c-84 0 -148 65 -148 150c0 84 64 148 148 148zM283 678c39 0 66 29 66 66c0 36 -27 64 -66 64c-37 0 -64 -28 -64 -64c0 -37 27 -66 64 -66zM40 191v324h180v-253c0 -73 15 -110 66 -110c56 0 79 47 79 110v253
h180v-515h-175v78c-24 -49 -79 -89 -157 -89c-88 0 -173 56 -173 202z" />
    <glyph glyph-name="utilde" unicode="&#x169;" horiz-adv-x="595" 
d="M377 594c-65 0 -95 54 -142 54c-32 0 -45 -21 -74 -58l-70 48c35 68 73 127 132 127c63 0 109 -53 145 -53c20 0 40 16 62 60l75 -45c-31 -66 -63 -133 -128 -133zM40 191v324h180v-253c0 -73 15 -110 66 -110c56 0 79 47 79 110v253h180v-515h-175v78
c-24 -49 -79 -89 -157 -89c-88 0 -173 56 -173 202z" />
    <glyph glyph-name="wacute" unicode="&#x1e83;" horiz-adv-x="828" 
d="M301 594c124 16 213 38 326 87l-37 101c-101 -42 -204 -73 -307 -93zM637 515h191l-167 -515h-169l-78 262l-78 -262h-170l-166 515h190l67 -296l70 296h174l70 -296z" />
    <glyph glyph-name="wcircumflex" unicode="&#x175;" horiz-adv-x="828" 
d="M620 676l-46 -82l-160 79l-159 -79l-46 82l205 119zM637 515h191l-167 -515h-169l-78 262l-78 -262h-170l-166 515h190l67 -296l70 296h174l70 -296z" />
    <glyph glyph-name="wdieresis" unicode="&#x1e85;" horiz-adv-x="828" 
d="M307 594c-51 0 -88 38 -88 89c0 48 37 85 88 85c49 0 87 -37 87 -85c0 -51 -38 -89 -87 -89zM521 594c-49 0 -87 38 -87 89c0 48 38 85 87 85c51 0 88 -37 88 -85c0 -51 -37 -89 -88 -89zM637 515h191l-167 -515h-169l-78 262l-78 -262h-170l-166 515h190l67 -296l70 296
h174l70 -296z" />
    <glyph glyph-name="wgrave" unicode="&#x1e81;" horiz-adv-x="828" 
d="M519 594l17 95c-102 20 -206 51 -307 93l-37 -101c114 -49 202 -71 327 -87zM637 515h191l-167 -515h-169l-78 262l-78 -262h-170l-166 515h190l67 -296l70 296h174l70 -296z" />
    <glyph glyph-name="yacute" unicode="&#xfd;" horiz-adv-x="575" 
d="M166 594c124 16 213 38 326 87l-37 101c-101 -42 -204 -73 -307 -93zM89 -175l112 244l-211 446h199l96 -258l102 258h188l-307 -690h-179z" />
    <glyph glyph-name="ycircumflex" unicode="&#x177;" horiz-adv-x="575" 
d="M494 676l-46 -82l-160 79l-159 -79l-46 82l205 119zM89 -175l112 244l-211 446h199l96 -258l102 258h188l-307 -690h-179z" />
    <glyph glyph-name="ydieresis" unicode="&#xff;" horiz-adv-x="575" 
d="M191 594c-51 0 -88 38 -88 89c0 48 37 85 88 85c49 0 87 -37 87 -85c0 -51 -38 -89 -87 -89zM405 594c-49 0 -87 38 -87 89c0 48 38 85 87 85c51 0 88 -37 88 -85c0 -51 -37 -89 -88 -89zM89 -175l112 244l-211 446h199l96 -258l102 258h188l-307 -690h-179z" />
    <glyph glyph-name="ygrave" unicode="&#x1ef3;" horiz-adv-x="575" 
d="M407 594l17 95c-102 20 -206 51 -307 93l-37 -101c114 -49 202 -71 327 -87zM89 -175l112 244l-211 446h199l96 -258l102 258h188l-307 -690h-179z" />
    <glyph glyph-name="zacute" unicode="&#x17a;" horiz-adv-x="527" 
d="M142 594c124 16 213 38 326 87l-37 101c-101 -42 -204 -73 -307 -93zM507 141v-141h-478v119l239 256c-122 0 -183 4 -248 25l36 136c69 -19 142 -21 216 -21h217v-118l-232 -256h250z" />
    <glyph glyph-name="zcaron" unicode="&#x17e;" horiz-adv-x="527" 
d="M476 713l-205 -119l-205 119l46 82l159 -78l159 78zM507 141v-141h-478v119l239 256c-122 0 -183 4 -248 25l36 136c69 -19 142 -21 216 -21h217v-118l-232 -256h250z" />
    <glyph glyph-name="zdotaccent" unicode="&#x17c;" horiz-adv-x="527" 
d="M186 683c0 49 38 90 89 90c49 0 89 -41 89 -90c0 -50 -40 -89 -89 -89c-51 0 -89 39 -89 89zM507 141v-141h-478v119l239 256c-122 0 -183 4 -248 25l36 136c69 -19 142 -21 216 -21h217v-118l-232 -256h250z" />
    <glyph glyph-name="uni0394" unicode="&#x394;" horiz-adv-x="666" 
d="M666 156v-156h-666v156l250 544h166zM195 165h274l-137 298z" />
    <glyph glyph-name="uni03A9" unicode="&#x3a9;" horiz-adv-x="760" 
d="M730 421c0 -145 -88 -225 -207 -258v-31h124v-132h-234v280c76 20 117 67 117 134c0 87 -70 134 -150 134s-150 -47 -150 -134c0 -67 41 -114 116 -134v-280h-233v132h124v31c-119 33 -207 113 -207 258c0 149 101 290 350 290s350 -141 350 -290z" />
    <glyph glyph-name="uni03BC" unicode="&#x3bc;" horiz-adv-x="552" 
d="M502 453v-453h-157v79c-21 -44 -73 -79 -134 -79v-166h-161v619h161v-219c0 -65 13 -99 59 -99c50 0 71 42 71 99v219h161z" />
    <glyph glyph-name="pi" unicode="&#x3c0;" horiz-adv-x="733" 
d="M537 210c0 -50 29 -69 85 -69h32v-141h-73c-164 0 -223 69 -223 189v162h-73v-351h-180v351h-85v164h422c81 0 156 2 228 25l43 -161c-58 -18 -107 -25 -176 -27v-142z" />
    <glyph glyph-name="zero" unicode="0" horiz-adv-x="669" 
d="M335 711c214 0 304 -154 304 -362c0 -207 -90 -360 -304 -360c-204 0 -305 153 -305 360c0 208 101 362 305 362zM335 132c102 0 123 110 123 217c0 108 -21 218 -123 218c-91 0 -124 -110 -124 -218c0 -107 33 -217 124 -217z" />
    <glyph glyph-name="one" unicode="1" horiz-adv-x="455" 
d="M0 607c78 13 152 34 220 79l22 14h133v-700h-180v484c-49 -25 -90 -36 -151 -49z" />
    <glyph glyph-name="two" unicode="2" horiz-adv-x="586" 
d="M294 154h276v-154h-529v118l227 207c75 69 112 105 112 153c0 44 -25 72 -88 72c-47 0 -93 -30 -126 -77l-129 91c68 102 164 147 267 147c138 0 248 -70 248 -211c0 -121 -79 -191 -184 -283z" />
    <glyph glyph-name="three" unicode="3" horiz-adv-x="610" 
d="M360 405c153 0 220 -96 220 -195c0 -106 -93 -221 -278 -221c-140 0 -282 77 -282 233h171c7 -58 56 -85 102 -85c50 0 98 20 98 83c0 82 -106 81 -212 81v101l151 144h-23c-122 0 -186 3 -266 28l40 151c72 -23 137 -25 218 -25h254v-116z" />
    <glyph glyph-name="four" unicode="4" horiz-adv-x="696" 
d="M686 286v-140h-149v-146h-181v146h-346v140l293 414h234v-414h149zM356 286v268l-191 -268h191z" />
    <glyph glyph-name="five" unicode="5" horiz-adv-x="627" 
d="M364 464c120 0 233 -82 233 -223c0 -127 -89 -252 -280 -252c-145 0 -287 74 -287 231h172c5 -50 49 -77 101 -77c71 0 103 50 103 101c0 60 -48 93 -103 93c-38 0 -84 -16 -112 -50h-152l54 413h187c79 0 156 2 228 25l39 -151c-80 -25 -144 -28 -265 -28h-78l-19 -140
c46 37 118 58 179 58z" />
    <glyph glyph-name="six" unicode="6" horiz-adv-x="664" 
d="M644 235c0 -152 -142 -246 -289 -246c-160 0 -325 108 -325 367c0 247 164 355 339 355c70 0 144 -15 210 -48l-78 -143c-42 26 -90 35 -135 35c-88 0 -164 -47 -164 -178c0 -8 1 -15 1 -23c44 68 120 104 197 104c121 0 244 -76 244 -223zM448 231c0 65 -52 96 -102 96
c-45 -1 -96 -33 -96 -97c0 -66 53 -93 100 -93c52 0 98 34 98 94z" />
    <glyph glyph-name="seven" unicode="7" horiz-adv-x="572" 
d="M572 700v-143c-204 -142 -261 -348 -261 -557h-184c0 197 64 397 251 546h-123c-122 0 -185 4 -265 28l40 151c72 -22 148 -25 228 -25h314z" />
    <glyph glyph-name="eight" unicode="8" horiz-adv-x="661" 
d="M494 359c89 -32 137 -102 137 -173c0 -100 -94 -197 -301 -197c-206 0 -300 97 -300 197c0 71 48 141 137 173c-73 26 -116 90 -116 155c0 99 82 197 279 197c198 0 279 -98 279 -197c0 -65 -43 -129 -115 -155zM330 573c-57 0 -95 -26 -95 -72s39 -77 95 -77
s97 31 97 77s-38 72 -97 72zM330 128c63 0 110 38 110 85c0 42 -34 80 -110 80c-74 0 -109 -38 -109 -80c0 -47 47 -85 109 -85z" />
    <glyph glyph-name="nine" unicode="9" horiz-adv-x="674" 
d="M30 467c0 154 143 244 288 244c161 0 326 -106 326 -361s-171 -359 -323 -361c-143 -2 -280 82 -284 231h171c9 -56 58 -83 115 -83c72 0 147 53 147 167c0 13 0 27 -2 41c-47 -70 -127 -101 -201 -101c-120 0 -237 81 -237 223zM226 470c0 -64 51 -96 102 -95
c45 1 95 33 95 96c0 66 -52 91 -100 91c-51 0 -97 -31 -97 -92z" />
    <glyph glyph-name="zero.dnom" horiz-adv-x="474" 
d="M238 424c117 0 183 -79 183 -216s-66 -215 -183 -215c-115 0 -184 81 -184 215c0 135 69 216 184 216zM238 93c51 0 61 55 61 115c0 61 -10 116 -61 116c-38 0 -61 -43 -61 -116s23 -115 61 -115z" />
    <glyph glyph-name="one.dnom" horiz-adv-x="475" 
d="M298 107h107v-107h-336v107h109v158c-27 -12 -51 -18 -84 -24l-30 116c56 8 96 23 131 45l15 10h88v-305z" />
    <glyph glyph-name="two.dnom" horiz-adv-x="477" 
d="M86 0v80l127 117c46 42 61 66 61 87c0 19 -11 31 -40 31c-28 0 -53 -18 -62 -48l-99 62c30 60 92 96 162 96c98 0 155 -50 155 -126c0 -74 -61 -121 -121 -175l-20 -17h153v-107h-316z" />
    <glyph glyph-name="three.dnom" horiz-adv-x="475" 
d="M294 246c69 -8 112 -54 112 -118c0 -77 -71 -135 -167 -135c-102 0 -172 63 -172 151h117c0 -28 20 -49 50 -49c31 0 47 14 47 39c0 40 -57 38 -121 38v60l77 74h-14c-56 0 -93 2 -144 19l28 103c43 -15 81 -16 130 -16h154v-80z" />
    <glyph glyph-name="four.dnom" horiz-adv-x="471" 
d="M437 181v-98h-85v-83h-121v83h-197v93l170 236h148v-231h85zM231 181v121l-86 -121h86z" />
    <glyph glyph-name="five.dnom" horiz-adv-x="475" 
d="M266 276c82 0 142 -58 142 -130c0 -91 -68 -153 -169 -153c-105 0 -178 61 -172 150h115c-2 -26 18 -44 49 -44s50 20 50 49c0 21 -19 38 -50 38c-24 0 -47 -11 -59 -23h-102l33 249h116c47 0 93 1 136 16l27 -103c-51 -17 -90 -19 -162 -19h-38l-6 -53
c25 14 58 23 90 23z" />
    <glyph glyph-name="six.dnom" horiz-adv-x="473" 
d="M272 279c86 0 149 -58 149 -137c0 -85 -77 -149 -174 -149c-117 0 -195 86 -195 219c0 128 81 212 202 212c47 0 94 -11 132 -32l-53 -99c-20 16 -48 24 -81 24c-49 0 -79 -29 -83 -81c26 26 64 43 103 43zM244 93c29 0 49 19 49 47s-22 49 -51 48
c-28 -1 -48 -21 -48 -49c0 -27 20 -46 50 -46z" />
    <glyph glyph-name="seven.dnom" horiz-adv-x="475" 
d="M410 412v-96c-103 -70 -150 -169 -150 -316h-123c0 126 42 228 129 306h-41c-74 0 -112 2 -162 19l28 103c42 -15 87 -16 136 -16h183z" />
    <glyph glyph-name="eight.dnom" horiz-adv-x="474" 
d="M352 215c41 -22 66 -60 66 -101c0 -73 -73 -121 -181 -121s-181 48 -181 121c0 41 25 79 66 101c-32 17 -53 51 -53 87c0 74 66 122 168 122c103 0 168 -48 168 -122c0 -36 -20 -70 -53 -87zM237 330c-31 0 -49 -13 -49 -35s19 -37 49 -37s50 15 50 37s-18 35 -50 35z
M237 86c34 0 59 20 59 44s-22 40 -59 40c-36 0 -59 -16 -59 -40s26 -44 59 -44z" />
    <glyph glyph-name="nine.dnom" horiz-adv-x="474" 
d="M54 278c0 93 85 146 172 146c95 0 194 -64 194 -215c0 -152 -102 -214 -192 -215c-85 -1 -167 49 -170 138h103c4 -34 34 -50 68 -50c43 0 88 32 88 99c0 9 0 17 -2 25c-27 -42 -76 -60 -120 -60c-71 0 -141 48 -141 132zM171 280c0 -38 31 -56 61 -56c27 0 57 20 57 57
c0 39 -32 54 -60 54c-31 0 -58 -19 -58 -55z" />
    <glyph glyph-name="zero.numr" horiz-adv-x="474" 
d="M238 700c117 0 183 -79 183 -216s-66 -215 -183 -215c-115 0 -184 81 -184 215c0 135 69 216 184 216zM238 369c51 0 61 55 61 115c0 61 -10 116 -61 116c-38 0 -61 -43 -61 -116s23 -115 61 -115z" />
    <glyph glyph-name="one.numr" horiz-adv-x="475" 
d="M298 383h107v-107h-336v107h109v158c-27 -12 -51 -18 -84 -24l-30 116c56 8 96 23 131 45l15 10h88v-305z" />
    <glyph glyph-name="two.numr" horiz-adv-x="477" 
d="M86 275v80l127 117c46 42 61 66 61 87c0 19 -11 31 -40 31c-28 0 -53 -18 -62 -48l-99 62c30 60 92 96 162 96c98 0 155 -50 155 -126c0 -74 -61 -121 -121 -175l-20 -17h153v-107h-316z" />
    <glyph glyph-name="three.numr" horiz-adv-x="475" 
d="M294 522c69 -8 112 -54 112 -118c0 -77 -71 -135 -167 -135c-102 0 -172 63 -172 151h117c0 -28 20 -49 50 -49c31 0 47 14 47 39c0 40 -57 38 -121 38v60l77 74h-14c-56 0 -93 2 -144 19l28 103c43 -15 81 -16 130 -16h154v-80z" />
    <glyph glyph-name="four.numr" horiz-adv-x="471" 
d="M437 457v-98h-85v-83h-121v83h-197v93l170 236h148v-231h85zM231 457v121l-86 -121h86z" />
    <glyph glyph-name="five.numr" horiz-adv-x="475" 
d="M266 552c82 0 142 -58 142 -130c0 -91 -68 -153 -169 -153c-105 0 -178 61 -172 150h115c-2 -26 18 -44 49 -44s50 20 50 49c0 21 -19 38 -50 38c-24 0 -47 -11 -59 -23h-102l33 249h116c47 0 93 1 136 16l27 -103c-51 -17 -90 -19 -162 -19h-38l-6 -53
c25 14 58 23 90 23z" />
    <glyph glyph-name="six.numr" horiz-adv-x="473" 
d="M272 555c86 0 149 -58 149 -137c0 -85 -77 -149 -174 -149c-117 0 -195 86 -195 219c0 128 81 212 202 212c47 0 94 -11 132 -32l-53 -99c-20 16 -48 24 -81 24c-49 0 -79 -29 -83 -81c26 26 64 43 103 43zM244 369c29 0 49 19 49 47s-22 49 -51 48
c-28 -1 -48 -21 -48 -49c0 -27 20 -46 50 -46z" />
    <glyph glyph-name="seven.numr" horiz-adv-x="475" 
d="M410 688v-96c-103 -70 -150 -169 -150 -316h-123c0 126 42 228 129 306h-41c-74 0 -112 2 -162 19l28 103c42 -15 87 -16 136 -16h183z" />
    <glyph glyph-name="eight.numr" horiz-adv-x="474" 
d="M352 491c41 -22 66 -60 66 -101c0 -73 -73 -121 -181 -121s-181 48 -181 121c0 41 25 79 66 101c-32 17 -53 51 -53 87c0 74 66 122 168 122c103 0 168 -48 168 -122c0 -36 -20 -70 -53 -87zM237 606c-31 0 -49 -13 -49 -35s19 -37 49 -37s50 15 50 37s-18 35 -50 35z
M237 362c34 0 59 20 59 44s-22 40 -59 40c-36 0 -59 -16 -59 -40s26 -44 59 -44z" />
    <glyph glyph-name="nine.numr" horiz-adv-x="474" 
d="M54 554c0 93 85 146 172 146c95 0 194 -64 194 -215c0 -152 -102 -214 -192 -215c-85 -1 -167 49 -170 138h103c4 -34 34 -50 68 -50c43 0 88 32 88 99c0 9 0 17 -2 25c-27 -42 -76 -60 -120 -60c-71 0 -141 48 -141 132zM171 556c0 -38 31 -56 61 -56c27 0 57 20 57 57
c0 39 -32 54 -60 54c-31 0 -58 -19 -58 -55z" />
    <glyph glyph-name="fraction" unicode="&#x2044;" horiz-adv-x="494" 
d="M94 -11l-94 58l399 653l95 -58z" />
    <glyph glyph-name="onehalf" unicode="&#xbd;" horiz-adv-x="1000" 
d="M364 -11l-94 58l399 653l95 -58zM272 382h107v-107h-336v107h109v158c-27 -12 -51 -18 -84 -24l-30 116c56 8 96 23 131 45l15 10h88v-305zM635 0v80l127 117c46 42 61 66 61 87c0 19 -11 31 -40 31c-28 0 -53 -18 -62 -48l-99 62c30 60 92 96 162 96
c98 0 155 -50 155 -126c0 -74 -61 -121 -121 -175l-20 -17h153v-107h-316z" />
    <glyph glyph-name="uni2153" unicode="&#x2153;" horiz-adv-x="996" 
d="M350 -11l-94 58l399 653l95 -58zM259 382h107v-107h-336v107h109v158c-27 -12 -51 -18 -84 -24l-30 116c56 8 96 23 131 45l15 10h88v-305zM849 246c69 -8 112 -54 112 -118c0 -77 -71 -135 -167 -135c-102 0 -172 63 -172 151h117c0 -28 20 -49 50 -49c31 0 47 14 47 39
c0 40 -57 38 -121 38v60l77 74h-14c-56 0 -93 2 -144 19l28 103c43 -15 81 -16 130 -16h154v-80z" />
    <glyph glyph-name="uni2154" unicode="&#x2154;" horiz-adv-x="994" 
d="M32 275v80l127 117c46 42 61 66 61 87c0 19 -11 31 -40 31c-28 0 -53 -18 -62 -48l-99 62c30 60 92 96 162 96c98 0 155 -50 155 -126c0 -74 -61 -121 -121 -175l-20 -17h153v-107h-316zM351 -11l-94 58l399 653l95 -58zM857 246c69 -8 112 -54 112 -118
c0 -77 -71 -135 -167 -135c-102 0 -172 63 -172 151h117c0 -28 20 -49 50 -49c31 0 47 14 47 39c0 40 -57 38 -121 38v60l77 74h-14c-56 0 -93 2 -144 19l28 103c43 -15 81 -16 130 -16h154v-80z" />
    <glyph glyph-name="onequarter" unicode="&#xbc;" horiz-adv-x="992" 
d="M341 -11l-94 58l399 653l95 -58zM249 382h107v-107h-336v107h109v158c-27 -12 -51 -18 -84 -24l-30 116c56 8 96 23 131 45l15 10h88v-305zM967 181v-98h-85v-83h-121v83h-197v93l170 236h148v-231h85zM761 181v121l-86 -121h86z" />
    <glyph glyph-name="threequarters" unicode="&#xbe;" horiz-adv-x="994" 
d="M267 522c69 -8 112 -54 112 -118c0 -77 -71 -135 -167 -135c-102 0 -172 63 -172 151h117c0 -28 20 -49 50 -49c31 0 47 14 47 39c0 40 -57 38 -121 38v60l77 74h-14c-56 0 -93 2 -144 19l28 103c43 -15 81 -16 130 -16h154v-80zM340 -11l-94 58l399 653l95 -58zM948 181
v-98h-85v-83h-121v83h-197v93l170 236h148v-231h85zM742 181v121l-86 -121h86z" />
    <glyph glyph-name="uni2155" unicode="&#x2155;" horiz-adv-x="996" 
d="M348 -11l-94 58l399 653l95 -58zM257 382h107v-107h-336v107h109v158c-27 -12 -51 -18 -84 -24l-30 116c56 8 96 23 131 45l15 10h88v-305zM819 276c82 0 142 -58 142 -130c0 -91 -68 -153 -169 -153c-105 0 -178 61 -172 150h115c-2 -26 18 -44 49 -44s50 20 50 49
c0 21 -19 38 -50 38c-24 0 -47 -11 -59 -23h-102l33 249h116c47 0 93 1 136 16l27 -103c-51 -17 -90 -19 -162 -19h-38l-6 -53c25 14 58 23 90 23z" />
    <glyph glyph-name="uni2156" unicode="&#x2156;" horiz-adv-x="996" 
d="M45 275v80l127 117c46 42 61 66 61 87c0 19 -11 31 -40 31c-28 0 -53 -18 -62 -48l-99 62c30 60 92 96 162 96c98 0 155 -50 155 -126c0 -74 -61 -121 -121 -175l-20 -17h153v-107h-316zM346 -11l-94 58l399 653l95 -58zM814 276c82 0 142 -58 142 -130
c0 -91 -68 -153 -169 -153c-105 0 -178 61 -172 150h115c-2 -26 18 -44 49 -44s50 20 50 49c0 21 -19 38 -50 38c-24 0 -47 -11 -59 -23h-102l33 249h116c47 0 93 1 136 16l27 -103c-51 -17 -90 -19 -162 -19h-38l-6 -53c25 14 58 23 90 23z" />
    <glyph glyph-name="uni2157" unicode="&#x2157;" horiz-adv-x="998" 
d="M269 522c69 -8 112 -54 112 -118c0 -77 -71 -135 -167 -135c-102 0 -172 63 -172 151h117c0 -28 20 -49 50 -49c31 0 47 14 47 39c0 40 -57 38 -121 38v60l77 74h-14c-56 0 -93 2 -144 19l28 103c43 -15 81 -16 130 -16h154v-80zM335 -11l-94 58l399 653l95 -58zM807 276
c82 0 142 -58 142 -130c0 -91 -68 -153 -169 -153c-105 0 -178 61 -172 150h115c-2 -26 18 -44 49 -44s50 20 50 49c0 21 -19 38 -50 38c-24 0 -47 -11 -59 -23h-102l33 249h116c47 0 93 1 136 16l27 -103c-51 -17 -90 -19 -162 -19h-38l-6 -53c25 14 58 23 90 23z" />
    <glyph glyph-name="uni2158" unicode="&#x2158;" horiz-adv-x="997" 
d="M353 -11l-94 58l399 653l95 -58zM417 457v-98h-85v-83h-121v83h-197v93l170 236h148v-231h85zM211 457v121l-86 -121h86zM836 276c82 0 142 -58 142 -130c0 -91 -68 -153 -169 -153c-105 0 -178 61 -172 150h115c-2 -26 18 -44 49 -44s50 20 50 49c0 21 -19 38 -50 38
c-24 0 -47 -11 -59 -23h-102l33 249h116c47 0 93 1 136 16l27 -103c-51 -17 -90 -19 -162 -19h-38l-6 -53c25 14 58 23 90 23z" />
    <glyph glyph-name="uni2159" unicode="&#x2159;" horiz-adv-x="994" 
d="M345 -11l-94 58l399 653l95 -58zM255 382h107v-107h-336v107h109v158c-27 -12 -51 -18 -84 -24l-30 116c56 8 96 23 131 45l15 10h88v-305zM814 279c86 0 149 -58 149 -137c0 -85 -77 -149 -174 -149c-117 0 -195 86 -195 219c0 128 81 212 202 212c47 0 94 -11 132 -32
l-53 -99c-20 16 -48 24 -81 24c-49 0 -79 -29 -83 -81c26 26 64 43 103 43zM786 93c29 0 49 19 49 47s-22 49 -51 48c-28 -1 -48 -21 -48 -49c0 -27 20 -46 50 -46z" />
    <glyph glyph-name="uni215A" unicode="&#x215a;" horiz-adv-x="996" 
d="M242 552c82 0 142 -58 142 -130c0 -91 -68 -153 -169 -153c-105 0 -178 61 -172 150h115c-2 -26 18 -44 49 -44s50 20 50 49c0 21 -19 38 -50 38c-24 0 -47 -11 -59 -23h-102l33 249h116c47 0 93 1 136 16l27 -103c-51 -17 -90 -19 -162 -19h-38l-6 -53
c25 14 58 23 90 23zM331 -11l-94 58l399 653l95 -58zM801 279c86 0 149 -58 149 -137c0 -85 -77 -149 -174 -149c-117 0 -195 86 -195 219c0 128 81 212 202 212c47 0 94 -11 132 -32l-53 -99c-20 16 -48 24 -81 24c-49 0 -79 -29 -83 -81c26 26 64 43 103 43zM773 93
c29 0 49 19 49 47s-22 49 -51 48c-28 -1 -48 -21 -48 -49c0 -27 20 -46 50 -46z" />
    <glyph glyph-name="oneeighth" unicode="&#x215b;" horiz-adv-x="999" 
d="M338 -11l-94 58l399 653l95 -58zM248 382h107v-107h-336v107h109v158c-27 -12 -51 -18 -84 -24l-30 116c56 8 96 23 131 45l15 10h88v-305zM900 215c41 -22 66 -60 66 -101c0 -73 -73 -121 -181 -121s-181 48 -181 121c0 41 25 79 66 101c-32 17 -53 51 -53 87
c0 74 66 122 168 122c103 0 168 -48 168 -122c0 -36 -20 -70 -53 -87zM785 330c-31 0 -49 -13 -49 -35s19 -37 49 -37s50 15 50 37s-18 35 -50 35zM785 86c34 0 59 20 59 44s-22 40 -59 40c-36 0 -59 -16 -59 -40s26 -44 59 -44z" />
    <glyph glyph-name="threeeighths" unicode="&#x215c;" horiz-adv-x="997" 
d="M258 522c69 -8 112 -54 112 -118c0 -77 -71 -135 -167 -135c-102 0 -172 63 -172 151h117c0 -28 20 -49 50 -49c31 0 47 14 47 39c0 40 -57 38 -121 38v60l77 74h-14c-56 0 -93 2 -144 19l28 103c43 -15 81 -16 130 -16h154v-80zM326 -11l-94 58l399 653l95 -58zM892 215
c41 -22 66 -60 66 -101c0 -73 -73 -121 -181 -121s-181 48 -181 121c0 41 25 79 66 101c-32 17 -53 51 -53 87c0 74 66 122 168 122c103 0 168 -48 168 -122c0 -36 -20 -70 -53 -87zM777 330c-31 0 -49 -13 -49 -35s19 -37 49 -37s50 15 50 37s-18 35 -50 35zM777 86
c34 0 59 20 59 44s-22 40 -59 40c-36 0 -59 -16 -59 -40s26 -44 59 -44z" />
    <glyph glyph-name="fiveeighths" unicode="&#x215d;" horiz-adv-x="997" 
d="M233 552c82 0 142 -58 142 -130c0 -91 -68 -153 -169 -153c-105 0 -178 61 -172 150h115c-2 -26 18 -44 49 -44s50 20 50 49c0 21 -19 38 -50 38c-24 0 -47 -11 -59 -23h-102l33 249h116c47 0 93 1 136 16l27 -103c-51 -17 -90 -19 -162 -19h-38l-6 -53
c25 14 58 23 90 23zM328 -11l-94 58l399 653l95 -58zM893 215c41 -22 66 -60 66 -101c0 -73 -73 -121 -181 -121s-181 48 -181 121c0 41 25 79 66 101c-32 17 -53 51 -53 87c0 74 66 122 168 122c103 0 168 -48 168 -122c0 -36 -20 -70 -53 -87zM778 330
c-31 0 -49 -13 -49 -35s19 -37 49 -37s50 15 50 37s-18 35 -50 35zM778 86c34 0 59 20 59 44s-22 40 -59 40c-36 0 -59 -16 -59 -40s26 -44 59 -44z" />
    <glyph glyph-name="seveneighths" unicode="&#x215e;" horiz-adv-x="1000" 
d="M400 688v-96c-103 -70 -150 -169 -150 -316h-123c0 126 42 228 129 306h-41c-74 0 -112 2 -162 19l28 103c42 -15 87 -16 136 -16h183zM308 -11l-94 58l399 653l95 -58zM873 215c41 -22 66 -60 66 -101c0 -73 -73 -121 -181 -121s-181 48 -181 121c0 41 25 79 66 101
c-32 17 -53 51 -53 87c0 74 66 122 168 122c103 0 168 -48 168 -122c0 -36 -20 -70 -53 -87zM758 330c-31 0 -49 -13 -49 -35s19 -37 49 -37s50 15 50 37s-18 35 -50 35zM758 86c34 0 59 20 59 44s-22 40 -59 40c-36 0 -59 -16 -59 -40s26 -44 59 -44z" />
    <glyph glyph-name="asterisk" unicode="*" horiz-adv-x="461" 
d="M176 578l-111 42l-35 -110l113 -34l-73 -94l95 -68l66 99l65 -96l95 67l-76 92l116 37l-37 104l-110 -39l7 122h-121z" />
    <glyph glyph-name="backslash" unicode="\" horiz-adv-x="406" 
d="M282 -113l-282 872l124 42l282 -874z" />
    <glyph glyph-name="periodcentered" unicode="&#xb7;" horiz-adv-x="335" 
d="M170 188c-73 0 -130 57 -130 128s57 128 130 128c70 0 127 -57 127 -128s-57 -128 -127 -128z" />
    <glyph glyph-name="bullet" unicode="&#x2022;" horiz-adv-x="310" 
d="M158 160c-65 0 -116 51 -116 115s51 115 116 115c63 0 114 -51 114 -115s-51 -115 -114 -115z" />
    <glyph glyph-name="colon" unicode=":" horiz-adv-x="330" 
d="M168 295c-65 0 -116 51 -116 115s51 115 116 115c63 0 114 -51 114 -115s-51 -115 -114 -115zM168 -11c-65 0 -116 51 -116 115s51 115 116 115c63 0 114 -51 114 -115s-51 -115 -114 -115z" />
    <glyph glyph-name="comma" unicode="," horiz-adv-x="294" 
d="M30 102c0 59 46 104 110 104c80 0 124 -68 124 -151c0 -97 -59 -203 -186 -239l-29 68c69 20 118 70 118 128c-7 -4 -21 -6 -34 -6c-47 0 -103 29 -103 96z" />
    <glyph glyph-name="ellipsis" unicode="&#x2026;" horiz-adv-x="926" 
d="M159 -11c-65 0 -116 51 -116 115s51 115 116 115c63 0 114 -51 114 -115s-51 -115 -114 -115zM466 -11c-65 0 -116 51 -116 115s51 115 116 115c63 0 114 -51 114 -115s-51 -115 -114 -115zM773 -11c-65 0 -116 51 -116 115s51 115 116 115c63 0 114 -51 114 -115
s-51 -115 -114 -115z" />
    <glyph glyph-name="exclam" unicode="!" horiz-adv-x="370" 
d="M137 294l-64 430h225l-64 -430h-97zM188 -11c-65 0 -116 51 -116 115s51 115 116 115c63 0 114 -51 114 -115s-51 -115 -114 -115z" />
    <glyph glyph-name="exclamdown" unicode="&#xa1;" horiz-adv-x="370" 
d="M188 578c63 0 114 -51 114 -115s-51 -115 -114 -115c-65 0 -116 51 -116 115s51 115 116 115zM137 273h97l64 -430h-225z" />
    <glyph glyph-name="numbersign" unicode="#" horiz-adv-x="717" 
d="M669 373h-112l-17 -117h111l-18 -123h-111l-20 -133h-127l20 133h-128l-20 -133h-127l19 133h-109l18 123h109l17 117h-109l19 122h108l20 137h128l-20 -137h128l20 137h128l-20 -137h111zM413 256l17 117h-128l-17 -117h128z" />
    <glyph glyph-name="period" unicode="." horiz-adv-x="290" 
d="M146 -11c-65 0 -116 51 -116 115s51 115 116 115c63 0 114 -51 114 -115s-51 -115 -114 -115z" />
    <glyph glyph-name="question" unicode="?" horiz-adv-x="601" 
d="M30 516c18 156 134 224 281 224c150 0 260 -71 260 -201c0 -96 -60 -143 -117 -176c-55 -31 -107 -51 -107 -101h-145c0 116 60 151 112 181c34 20 71 43 71 87c0 42 -33 64 -83 64c-55 0 -97 -29 -102 -103zM287 -11c-65 0 -116 51 -116 115s51 115 116 115
c63 0 114 -51 114 -115s-51 -115 -114 -115z" />
    <glyph glyph-name="questiondown" unicode="&#xbf;" horiz-adv-x="601" 
d="M314 553c65 0 116 -51 116 -115s-51 -115 -116 -115c-63 0 -114 51 -114 115s51 115 114 115zM571 26c-18 -156 -134 -224 -281 -224c-150 0 -260 71 -260 201c0 96 60 143 117 176c55 31 107 51 107 101h145c0 -116 -60 -151 -112 -181c-34 -20 -71 -43 -71 -87
c0 -42 33 -64 83 -64c55 0 97 29 102 103z" />
    <glyph glyph-name="quotedbl" unicode="&#x22;" horiz-adv-x="403" 
d="M176 700l10 -275h-104l-52 275h146zM363 700l10 -275h-104l-51 275h145z" />
    <glyph glyph-name="quotesingle" unicode="'" horiz-adv-x="217" 
d="M176 700l11 -275h-105l-52 275h146z" />
    <glyph glyph-name="semicolon" unicode=";" horiz-adv-x="334" 
d="M169 295c-65 0 -116 51 -116 115s51 115 116 115c63 0 114 -51 114 -115s-51 -115 -114 -115zM50 102c0 59 46 104 110 104c80 0 124 -68 124 -151c0 -97 -59 -203 -186 -239l-29 68c69 20 118 70 118 128c-7 -4 -21 -6 -34 -6c-47 0 -103 29 -103 96z" />
    <glyph glyph-name="slash" unicode="/" horiz-adv-x="446" 
d="M145 -113l-125 40l281 874l125 -42z" />
    <glyph glyph-name="underscore" unicode="_" horiz-adv-x="454" 
d="M40 -28h374v-111h-374v111z" />
    <glyph glyph-name="braceleft" unicode="{" horiz-adv-x="341" 
d="M222 427c0 -80 -47 -109 -105 -119c58 -10 105 -39 105 -120v-157c0 -66 24 -79 69 -79v-75c-101 0 -182 16 -182 143v178c0 52 -34 64 -89 64v92c55 0 89 12 89 64v179c0 127 81 143 182 143v-76c-45 0 -69 -12 -69 -78v-159z" />
    <glyph glyph-name="braceright" unicode="}" horiz-adv-x="311" 
d="M89 427v159c0 66 -24 78 -69 78v76c101 0 182 -16 182 -143v-179c0 -52 34 -64 89 -64v-92c-55 0 -89 -12 -89 -64v-178c0 -127 -81 -143 -182 -143v75c45 0 69 13 69 79v157c0 81 47 110 105 120c-58 10 -105 39 -105 119z" />
    <glyph glyph-name="bracketleft" unicode="[" horiz-adv-x="326" 
d="M296 -149h-226v915h226v-102h-112v-712h112v-101z" />
    <glyph glyph-name="bracketright" unicode="]" horiz-adv-x="296" 
d="M0 -149v101h112v712h-112v102h226v-915h-226z" />
    <glyph glyph-name="parenleft" unicode="(" horiz-adv-x="360" 
d="M360 726c-156 -103 -233 -240 -233 -411c0 -170 77 -308 233 -410l-60 -73c-173 107 -270 284 -270 483c0 200 97 376 270 484z" />
    <glyph glyph-name="parenright" unicode=")" horiz-adv-x="352" 
d="M-8 726l60 73c173 -108 270 -284 270 -484c0 -199 -97 -376 -270 -483l-60 73c156 102 233 240 233 410c0 171 -77 308 -233 411z" />
    <glyph glyph-name="emdash" unicode="&#x2014;" horiz-adv-x="637" 
d="M40 326h557v-111h-557v111z" />
    <glyph glyph-name="endash" unicode="&#x2013;" horiz-adv-x="450" 
d="M40 326h370v-111h-370v111z" />
    <glyph glyph-name="hyphen" unicode="-" horiz-adv-x="369" 
d="M40 326h289v-111h-289v111z" />
    <glyph glyph-name="guillemotleft" unicode="&#xab;" horiz-adv-x="486" 
d="M131 234l111 -146l-85 -62l-157 208l157 207l85 -61zM355 234l111 -146l-85 -62l-157 208l157 207l85 -61z" />
    <glyph glyph-name="guillemotright" unicode="&#xbb;" horiz-adv-x="486" 
d="M131 234l-111 146l85 61l157 -207l-157 -208l-85 62zM355 234l-111 146l85 61l157 -207l-157 -208l-85 62z" />
    <glyph glyph-name="guilsinglleft" unicode="&#x2039;" horiz-adv-x="262" 
d="M131 234l111 -146l-85 -62l-157 208l157 207l85 -61z" />
    <glyph glyph-name="guilsinglright" unicode="&#x203a;" horiz-adv-x="254" 
d="M123 234l-111 146l85 61l157 -207l-157 -208l-85 62z" />
    <glyph glyph-name="quotedblbase" unicode="&#x201e;" horiz-adv-x="565" 
d="M30 102c0 59 46 104 110 104c80 0 124 -68 124 -151c0 -97 -59 -203 -186 -239l-29 68c69 20 118 70 118 128c-7 -4 -21 -6 -34 -6c-47 0 -103 29 -103 96zM301 102c0 59 46 104 110 104c80 0 124 -68 124 -151c0 -97 -59 -203 -186 -239l-29 68c69 20 118 70 118 128
c-7 -4 -21 -6 -34 -6c-47 0 -103 29 -103 96z" />
    <glyph glyph-name="quotedblleft" unicode="&#x201c;" horiz-adv-x="565" 
d="M264 532c0 -59 -46 -104 -110 -104c-80 0 -124 68 -124 151c0 97 59 203 186 239l29 -68c-69 -20 -118 -70 -118 -128c7 4 21 6 34 6c47 0 103 -29 103 -96zM535 532c0 -59 -46 -104 -110 -104c-80 0 -124 68 -124 151c0 97 59 203 186 239l29 -68
c-69 -20 -118 -70 -118 -128c7 4 21 6 34 6c47 0 103 -29 103 -96z" />
    <glyph glyph-name="quotedblright" unicode="&#x201d;" horiz-adv-x="565" 
d="M30 658c0 59 46 104 110 104c80 0 124 -68 124 -151c0 -97 -59 -203 -186 -239l-29 68c69 20 118 70 118 128c-7 -4 -21 -6 -34 -6c-47 0 -103 29 -103 96zM301 658c0 59 46 104 110 104c80 0 124 -68 124 -151c0 -97 -59 -203 -186 -239l-29 68c69 20 118 70 118 128
c-7 -4 -21 -6 -34 -6c-47 0 -103 29 -103 96z" />
    <glyph glyph-name="quoteleft" unicode="&#x2018;" horiz-adv-x="294" 
d="M264 509c0 -59 -46 -104 -110 -104c-80 0 -124 68 -124 151c0 97 59 203 186 239l29 -68c-69 -20 -118 -70 -118 -128c7 4 21 6 34 6c47 0 103 -29 103 -96z" />
    <glyph glyph-name="quoteright" unicode="&#x2019;" horiz-adv-x="294" 
d="M30 658c0 59 46 104 110 104c80 0 124 -68 124 -151c0 -97 -59 -203 -186 -239l-29 68c69 20 118 70 118 128c-7 -4 -21 -6 -34 -6c-47 0 -103 29 -103 96z" />
    <glyph glyph-name="quotesinglbase" unicode="&#x201a;" horiz-adv-x="294" 
d="M30 102c0 59 46 104 110 104c80 0 124 -68 124 -151c0 -97 -59 -203 -186 -239l-29 68c69 20 118 70 118 128c-7 -4 -21 -6 -34 -6c-47 0 -103 29 -103 96z" />
    <glyph glyph-name="CR" unicode="&#xd;" horiz-adv-x="233" 
 />
    <glyph glyph-name="cent" unicode="&#xa2;" horiz-adv-x="574" 
d="M564 241c0 -154 -111 -240 -239 -251v-101h-62v102c-130 13 -243 102 -243 269c0 166 108 254 243 263v110h62v-111c78 -9 147 -43 188 -96l-124 -100c-15 23 -39 38 -64 44v-218c41 7 69 37 69 89h170zM200 265c0 -55 27 -91 63 -107v210c-36 -13 -63 -47 -63 -103z" />
    <glyph glyph-name="currency" unicode="&#xa4;" horiz-adv-x="627" 
d="M584 258c0 -65 -20 -123 -56 -168l79 -78l-53 -53l-79 80c-45 -32 -102 -50 -165 -50c-61 0 -116 17 -160 47l-77 -77l-53 53l75 74c-37 46 -59 105 -59 172c0 64 20 121 55 165l-71 71l53 53l72 -72c45 31 102 49 165 49c65 0 123 -19 169 -52l75 75l53 -53l-75 -75
c33 -43 52 -99 52 -161zM191 258c0 -84 58 -126 119 -126c60 0 117 42 117 126c0 83 -57 125 -117 125c-61 0 -119 -42 -119 -125z" />
    <glyph glyph-name="dollar" unicode="$" horiz-adv-x="621" 
d="M601 213c0 -141 -124 -218 -258 -224v-115h-48v116c-140 12 -275 101 -275 275h181c0 -74 41 -110 94 -122v139c-8 3 -16 5 -24 8c-91 31 -208 71 -208 205c0 133 113 199 232 205v117h48v-118c96 -9 186 -59 223 -150l-147 -73c-14 36 -44 59 -76 69v-118
c11 -3 23 -6 35 -10c123 -37 223 -79 223 -204zM244 498c0 -26 20 -42 51 -54v104c-27 -5 -51 -22 -51 -50zM343 139c48 2 80 21 80 58c0 32 -26 49 -80 69v-127z" />
    <glyph glyph-name="Euro" unicode="&#x20ac;" horiz-adv-x="806" 
d="M614 327h182c0 -225 -169 -338 -338 -338c-158 0 -313 89 -350 270h-78v52h70c-1 11 -1 23 -1 35s0 24 1 35h-70v51h78c37 173 186 268 344 268c110 0 222 -47 286 -143l-143 -105c-30 55 -84 85 -146 85c-65 0 -126 -35 -152 -105h192v-51h-204c0 -9 -1 -18 -1 -28
c0 -15 1 -29 3 -42h202v-52h-187c27 -61 82 -98 161 -98c83 0 151 55 151 166z" />
    <glyph glyph-name="florin" unicode="&#x192;" horiz-adv-x="406" 
d="M406 410c-45 -15 -88 -21 -150 -23v-373c0 -120 -58 -189 -223 -189h-41v129c56 0 84 19 84 70v361h-96v130h96v7c0 120 59 189 223 189h73v-131h-32c-56 0 -84 -15 -84 -56v-6c38 3 76 9 113 18z" />
    <glyph glyph-name="sterling" unicode="&#xa3;" horiz-adv-x="641" 
d="M472 191h139c0 -111 -86 -191 -186 -191h-395v120h50c47 0 74 28 74 101v144h-117v120h117v25c0 122 49 190 213 190h73v-130h-32c-56 0 -95 -19 -95 -70v-13c46 3 90 8 134 20l36 -117c-49 -16 -97 -22 -170 -24v-115c0 -59 -21 -109 -60 -131h150c43 0 69 27 69 71z
" />
    <glyph glyph-name="yen" unicode="&#xa5;" horiz-adv-x="665" 
d="M675 700l-255 -395h201v-70h-214v-75h214v-70h-214v-90h-149v90h-214v70h214v75h-214v70h201l-255 395h179l164 -284l163 284h179z" />
    <glyph glyph-name="plus" unicode="+" horiz-adv-x="566" 
d="M341 334h165v-112h-165v-165h-113v165h-168v112h168v166h113v-166z" />
    <glyph glyph-name="minus" unicode="&#x2212;" horiz-adv-x="566" 
d="M506 334v-112h-446v112h446z" />
    <glyph glyph-name="multiply" unicode="&#xd7;" horiz-adv-x="536" 
d="M496 442l-143 -142l143 -143l-85 -85l-143 143l-143 -143l-85 85l143 143l-143 142l85 85l143 -143l143 143z" />
    <glyph glyph-name="divide" unicode="&#xf7;" horiz-adv-x="566" 
d="M282 428c-65 0 -116 51 -116 115s51 115 116 115c63 0 114 -51 114 -115s-51 -115 -114 -115zM506 391v-112h-446v112h446zM282 11c-65 0 -116 51 -116 115s51 115 116 115c63 0 114 -51 114 -115s-51 -115 -114 -115z" />
    <glyph glyph-name="equal" unicode="=" horiz-adv-x="520" 
d="M460 411v-112h-400v112h400zM460 212v-112h-400v112h400z" />
    <glyph glyph-name="greater" unicode="&#x3e;" horiz-adv-x="402" 
d="M237 292l-198 196l77 75l265 -273l-265 -273l-77 74z" />
    <glyph glyph-name="less" unicode="&#x3c;" horiz-adv-x="402" 
d="M164 292l198 -201l-77 -74l-265 273l265 273l77 -75z" />
    <glyph glyph-name="plusminus" unicode="&#xb1;" horiz-adv-x="566" 
d="M341 539h165v-112h-165v-165h-113v165h-168v112h168v166h113v-166zM506 166v-112h-446v112h446z" />
    <glyph glyph-name="asciitilde" unicode="~" horiz-adv-x="607" 
d="M40 319c35 79 94 134 177 134c82 0 136 -52 186 -52c27 0 54 15 68 47l96 -63c-16 -61 -66 -138 -159 -138c-82 0 -127 60 -185 60c-25 0 -50 -10 -74 -50z" />
    <glyph glyph-name="logicalnot" unicode="&#xac;" horiz-adv-x="472" 
d="M432 515v-253h-113v141h-279v112h392z" />
    <glyph glyph-name="infinity" unicode="&#x221e;" horiz-adv-x="794" 
d="M556 562c108 0 208 -82 208 -255c0 -174 -100 -255 -208 -255c-65 0 -133 43 -158 116c-27 -73 -95 -116 -160 -116c-108 0 -208 81 -208 255c0 173 100 255 208 255c65 0 133 -42 160 -115c25 73 93 115 158 115zM254 212c46 0 78 39 78 95s-32 96 -78 96
c-56 0 -86 -37 -86 -96c0 -58 30 -95 86 -95zM540 212c57 0 86 37 86 95c0 59 -29 96 -86 96c-45 0 -78 -40 -78 -96s33 -95 78 -95z" />
    <glyph glyph-name="percent" unicode="%" horiz-adv-x="1212" 
d="M259 255c-129 0 -228 101 -228 228c0 126 99 228 228 228c127 0 227 -102 227 -228c0 -127 -100 -228 -227 -228zM444 -11l-94 58l399 653l95 -58zM259 388c52 0 92 42 92 96c0 52 -40 93 -92 93c-53 0 -93 -41 -93 -93c0 -54 40 -96 93 -96zM956 -11
c-129 0 -228 101 -228 228c0 126 99 228 228 228c127 0 227 -102 227 -228c0 -127 -100 -228 -227 -228zM956 122c52 0 92 42 92 96c0 52 -40 93 -92 93c-53 0 -93 -41 -93 -93c0 -54 40 -96 93 -96z" />
    <glyph glyph-name="perthousand" unicode="&#x2030;" horiz-adv-x="1716" 
d="M259 255c-129 0 -228 101 -228 228c0 126 99 228 228 228c127 0 227 -102 227 -228c0 -127 -100 -228 -227 -228zM444 -11l-94 58l399 653l95 -58zM259 388c52 0 92 42 92 96c0 52 -40 93 -92 93c-53 0 -93 -41 -93 -93c0 -54 40 -96 93 -96zM956 -11
c-129 0 -228 101 -228 228c0 126 99 228 228 228c127 0 227 -102 227 -228c0 -127 -100 -228 -227 -228zM1460 -11c-129 0 -228 101 -228 228c0 126 99 228 228 228c127 0 227 -102 227 -228c0 -127 -100 -228 -227 -228zM956 122c52 0 92 42 92 96c0 52 -40 93 -92 93
c-53 0 -93 -41 -93 -93c0 -54 40 -96 93 -96zM1460 122c52 0 92 42 92 96c0 52 -40 93 -92 93c-53 0 -93 -41 -93 -93c0 -54 40 -96 93 -96z" />
    <glyph glyph-name="at" unicode="@" horiz-adv-x="966" 
d="M936 367c0 -155 -97 -304 -245 -304c-89 0 -119 62 -125 115c-58 -74 -120 -104 -185 -104c-110 0 -159 81 -159 174c0 150 126 247 237 247c61 0 99 -28 121 -71l13 58h153l-52 -241c-13 -64 9 -73 29 -73c64 0 112 89 112 188c0 126 -81 270 -296 270
c-191 0 -410 -134 -410 -390c0 -181 113 -266 239 -266c67 0 136 21 197 64l32 -88c-75 -50 -156 -75 -232 -75c-180 0 -335 126 -335 354c0 325 270 490 515 490c205 0 391 -116 391 -348zM446 223c54 0 71 52 82 104h-122c-6 -15 -10 -31 -10 -49c0 -30 13 -55 50 -55z
" />
    <glyph glyph-name="ampersand" unicode="&#x26;" horiz-adv-x="776" 
d="M756 0h-191l-73 112c-50 -77 -123 -123 -222 -123c-151 0 -230 113 -230 226c0 112 80 224 237 224l-93 143v118h227c73 0 146 3 215 21l37 -135c-66 -22 -128 -25 -252 -25h-27l107 -160l28 58h168l-104 -200zM297 149c31 0 72 13 103 71l9 18l-17 26
c-28 43 -60 60 -91 60c-44 0 -82 -36 -82 -91c0 -52 33 -84 78 -84z" />
    <glyph glyph-name="paragraph" unicode="&#xb6;" horiz-adv-x="686" 
d="M656 700v-700h-174v199h-69v-199h-80v199h-22c-191 0 -281 114 -281 251c0 135 92 250 271 250h355zM333 358v183h-18c-69 0 -102 -38 -102 -94c0 -52 35 -89 102 -89h18zM482 541h-69v-183h69v183z" />
    <glyph glyph-name="section" unicode="&#xa7;" horiz-adv-x="580" 
d="M440 266c56 -13 110 -49 110 -123c0 -108 -118 -154 -245 -154c-174 0 -258 89 -275 193h186c0 -37 42 -57 83 -57c32 0 66 7 66 35c0 79 -301 34 -301 178c0 47 33 84 103 92c-69 23 -102 64 -102 124c0 114 125 157 236 157c110 0 184 -45 223 -84l-125 -94
c-19 29 -52 44 -84 44c-35 0 -63 -18 -63 -41c0 -78 291 -16 291 -172c0 -65 -49 -92 -103 -98zM249 399c0 -61 18 -98 67 -98c37 0 55 19 64 54z" />
    <glyph glyph-name="copyright" unicode="&#xa9;" horiz-adv-x="776" 
d="M387 711c205 0 359 -153 359 -361s-154 -361 -359 -361c-203 0 -357 153 -357 361s154 361 357 361zM387 623c-146 0 -263 -114 -263 -273c0 -160 117 -273 263 -273c148 0 264 113 264 273c0 159 -116 273 -264 273zM574 341h-117c0 -42 -29 -61 -58 -61
c-35 0 -71 26 -71 78c0 46 32 73 67 73c23 0 46 -9 61 -33l82 69c-39 46 -93 68 -145 68c-98 0 -185 -65 -185 -182c0 -120 93 -180 186 -180c88 0 180 57 180 168z" />
    <glyph glyph-name="registered" unicode="&#xae;" horiz-adv-x="657" 
d="M329 597c173 0 298 -125 298 -298c0 -174 -125 -299 -298 -299c-174 0 -299 125 -299 299c0 173 125 298 299 298zM329 71c134 0 227 93 227 228c0 134 -93 227 -227 227c-135 0 -228 -93 -228 -227c0 -135 93 -228 228 -228zM461 351c0 -42 -17 -70 -49 -85l53 -102h-79
l-44 89h-53v-89h-71v286h119c83 0 124 -31 124 -99zM289 382v-64h54c28 0 47 8 47 33c0 24 -19 31 -47 31h-54z" />
    <glyph glyph-name="trademark" unicode="&#x2122;" horiz-adv-x="713" 
d="M36 711c30 -6 61 -11 104 -11h167v-92h-91v-192h-94v192c-43 0 -72 5 -102 12zM552 700h121v-284h-90v137l-44 -137h-68l-44 137v-137h-89v284h120l48 -147z" />
    <glyph glyph-name="degree" unicode="&#xb0;" horiz-adv-x="495" 
d="M248 255c-129 0 -228 101 -228 228c0 126 99 228 228 228c127 0 227 -102 227 -228c0 -127 -100 -228 -227 -228zM248 388c52 0 92 42 92 96c0 52 -40 93 -92 93c-53 0 -93 -41 -93 -93c0 -54 40 -96 93 -96z" />
    <glyph glyph-name="bar" unicode="|" horiz-adv-x="284" 
d="M204 -160h-124v926h124v-926z" />
    <glyph glyph-name="brokenbar" unicode="&#xa6;" horiz-adv-x="284" 
d="M204 382h-124v384h124v-384zM204 -160h-124v385h124v-385z" />
    <glyph glyph-name="dagger" unicode="&#x2020;" horiz-adv-x="635" 
d="M595 506v-149h-197v-357h-160v357h-198v149h198v195h160v-195h197z" />
    <glyph glyph-name="daggerdbl" unicode="&#x2021;" horiz-adv-x="635" 
d="M595 408h-197v-111h197v-149h-197v-149h-160v149h-198v149h198v111h-198v149h198v143h160v-143h197v-149z" />
    <glyph glyph-name="uni2116" unicode="&#x2116;" horiz-adv-x="1228" 
d="M981 255c-129 0 -228 101 -228 228c0 126 99 228 228 228c127 0 227 -102 227 -228c0 -127 -100 -228 -227 -228zM663 700v-700h-181l-237 369v-369h-185v700h181l237 -390v390h185zM981 388c52 0 92 42 92 96c0 52 -40 93 -92 93c-53 0 -93 -41 -93 -93
c0 -54 40 -96 93 -96z" />
    <glyph glyph-name="asciicircum" unicode="^" horiz-adv-x="518" 
d="M508 489l-107 -110l-142 132l-142 -132l-107 110l249 222z" />
    <glyph glyph-name="acute" unicode="&#xb4;" horiz-adv-x="344" 
d="M18 594c124 16 213 38 326 87l-37 101c-101 -42 -204 -73 -307 -93z" />
    <glyph glyph-name="breve" unicode="&#x2d8;" horiz-adv-x="343" 
d="M343 756c-11 -101 -83 -162 -171 -162c-89 0 -161 61 -172 162l82 23c10 -47 42 -76 90 -76c47 0 79 29 89 76z" />
    <glyph glyph-name="caron" unicode="&#x2c7;" horiz-adv-x="410" 
d="M410 713l-205 -119l-205 119l46 82l159 -78l159 78z" />
    <glyph glyph-name="cedilla" unicode="&#xb8;" horiz-adv-x="252" 
d="M83 -94c36 0 85 -10 85 -45c0 -26 -25 -37 -55 -37c-26 0 -54 7 -71 21l-42 -72c32 -24 74 -35 113 -35c73 0 139 41 139 118c0 66 -47 116 -169 116v-66z" />
    <glyph glyph-name="circumflex" unicode="&#x2c6;" horiz-adv-x="411" 
d="M411 676l-46 -82l-160 79l-159 -79l-46 82l205 119z" />
    <glyph glyph-name="dieresis" unicode="&#xa8;" horiz-adv-x="390" 
d="M88 594c-51 0 -88 38 -88 89c0 48 37 85 88 85c49 0 87 -37 87 -85c0 -51 -38 -89 -87 -89zM302 594c-49 0 -87 38 -87 89c0 48 38 85 87 85c51 0 88 -37 88 -85c0 -51 -37 -89 -88 -89z" />
    <glyph glyph-name="dotaccent" unicode="&#x2d9;" horiz-adv-x="178" 
d="M0 683c0 49 38 90 89 90c49 0 89 -41 89 -90c0 -50 -40 -89 -89 -89c-51 0 -89 39 -89 89z" />
    <glyph glyph-name="grave" unicode="`" horiz-adv-x="344" 
d="M327 594l17 95c-102 20 -206 51 -307 93l-37 -101c114 -49 202 -71 327 -87z" />
    <glyph glyph-name="hungarumlaut" unicode="&#x2dd;" horiz-adv-x="429" 
d="M221 756l-98 -162h-123l69 162h152zM429 756l-125 -162h-123l96 162h152z" />
    <glyph glyph-name="macron" unicode="&#xaf;" horiz-adv-x="299" 
d="M0 703h299v-109h-299v109z" />
    <glyph glyph-name="ogonek" unicode="&#x2db;" horiz-adv-x="252" 
d="M169 -94v66c-122 0 -169 -50 -169 -116c0 -77 66 -118 139 -118c39 0 81 11 113 35l-42 72c-17 -14 -45 -21 -71 -21c-30 0 -55 11 -55 37c0 35 48 45 85 45z" />
    <glyph glyph-name="ring" unicode="&#x2da;" horiz-adv-x="298" 
d="M148 892c85 0 150 -64 150 -148c0 -85 -65 -150 -150 -150c-84 0 -148 65 -148 150c0 84 64 148 148 148zM148 678c39 0 66 29 66 66c0 36 -27 64 -66 64c-37 0 -64 -28 -64 -64c0 -37 27 -66 64 -66z" />
    <glyph glyph-name="tilde" unicode="&#x2dc;" horiz-adv-x="414" 
d="M286 594c-65 0 -95 54 -142 54c-32 0 -45 -21 -74 -58l-70 48c35 68 73 127 132 127c63 0 109 -53 145 -53c20 0 40 16 62 60l75 -45c-31 -66 -63 -133 -128 -133z" />
    <glyph glyph-name="acute.cap" horiz-adv-x="344" 
d="M18 759c124 15 213 37 326 86l-37 101c-101 -42 -204 -73 -307 -93z" />
    <glyph glyph-name="breve.cap" horiz-adv-x="343" 
d="M343 920c-11 -101 -83 -161 -171 -161c-89 0 -161 60 -172 161l82 23c10 -46 42 -76 90 -76c47 0 79 30 89 76z" />
    <glyph glyph-name="caron.cap" horiz-adv-x="410" 
d="M410 867l-205 -118l-205 118l46 82l159 -77l159 77z" />
    <glyph glyph-name="cedilla.cap" horiz-adv-x="252" 
d="M83 -94c36 0 85 -10 85 -45c0 -26 -25 -37 -55 -37c-26 0 -54 7 -71 21l-42 -72c32 -24 74 -35 113 -35c73 0 139 41 139 118c0 66 -47 116 -169 116v-66z" />
    <glyph glyph-name="circumflex.cap" horiz-adv-x="411" 
d="M411 831l-46 -82l-160 78l-159 -78l-46 82l205 118z" />
    <glyph glyph-name="dieresis.cap" horiz-adv-x="418" 
d="M88 759c-51 0 -88 37 -88 88c0 49 37 85 88 85c49 0 87 -36 87 -85c0 -51 -38 -88 -87 -88zM330 759c-49 0 -87 37 -87 88c0 49 38 85 87 85c51 0 88 -36 88 -85c0 -51 -37 -88 -88 -88z" />
    <glyph glyph-name="dotaccent.cap" horiz-adv-x="178" 
d="M0 847c0 50 38 91 89 91c49 0 89 -41 89 -91s-40 -88 -89 -88c-51 0 -89 38 -89 88z" />
    <glyph glyph-name="grave.cap" horiz-adv-x="344" 
d="M327 759l17 94c-102 20 -206 51 -307 93l-37 -101c114 -49 202 -71 327 -86z" />
    <glyph glyph-name="hungarumlaut.cap" horiz-adv-x="429" 
d="M221 920l-98 -161h-123l69 161h152zM429 920l-125 -161h-123l96 161h152z" />
    <glyph glyph-name="macron.cap" horiz-adv-x="299" 
d="M0 868h299v-109h-299v109z" />
    <glyph glyph-name="ring.cap" horiz-adv-x="212" 
d="M0 847c0 62 46 103 104 103c61 0 108 -41 108 -103c0 -61 -47 -105 -108 -105c-58 0 -104 44 -104 105zM149 847c0 24 -19 43 -44 43s-42 -19 -42 -43c0 -25 17 -45 42 -45s44 20 44 45z" />
    <glyph glyph-name="tilde.cap" horiz-adv-x="414" 
d="M286 759c-65 0 -95 54 -142 54c-32 0 -45 -22 -74 -59l-70 48c35 68 73 127 132 127c63 0 109 -53 145 -53c20 0 40 16 62 60l75 -45c-31 -65 -63 -132 -128 -132z" />
    </font>
</defs>
</svg>
