<?xml version="1.0" encoding="UTF-8"?>
<svg width="16px" height="16px" viewBox="0 0 16 16" version="1.1" xmlns="http://www.w3.org/2000/svg" xmlns:xlink="http://www.w3.org/1999/xlink">
    <!-- Generator: Sketch 44.1 (41455) - http://www.bohemiancoding.com/sketch -->
    <title>Facebook-black</title>
    <desc>Created with Sketch.</desc>
    <defs></defs>
    <g id="Desktop" stroke="none" stroke-width="1" fill="none" fill-rule="evenodd">
        <g id="03-Brand-Page" transform="translate(-69.000000, -1147.000000)" fill="#232323">
            <g id="Share" transform="translate(32.000000, 1115.000000)">
                <path d="M45.5461184,48 L37.8830772,48 C37.3952242,48 37,47.6045305 37,47.1168676 L37,32.8830703 C37,32.3952832 37.3952863,32 37.8830772,32 L52.1169849,32 C52.6046516,32 53,32.3952832 53,32.8830703 L53,47.1168676 C53,47.6045926 52.6045895,48 52.1169849,48 L48.0397684,48 L48.0397684,41.8039182 L50.1195071,41.8039182 L50.4309184,39.3891952 L48.0397684,39.3891952 L48.0397684,37.8475471 C48.0397684,37.1484291 48.2339039,36.6720032 49.2364299,36.6720032 L50.5151038,36.6714445 L50.5151038,34.5116968 C50.293962,34.4822694 49.5349278,34.4165234 48.6518507,34.4165234 C46.8082781,34.4165234 45.5461184,35.5418421 45.5461184,37.608403 L45.5461184,39.3891952 L43.4610406,39.3891952 L43.4610406,41.8039182 L45.5461184,41.8039182 L45.5461184,48 L45.5461184,48 Z" id="Facebook"></path>
            </g>
        </g>
    </g>
</svg>