<?xml version="1.0" encoding="utf-8"?>
<!-- Generator: Adobe Illustrator 21.1.0, SVG Export Plug-In . SVG Version: 6.00 Build 0)  -->
<svg version="1.1" id="Layer_1" xmlns="http://www.w3.org/2000/svg" xmlns:xlink="http://www.w3.org/1999/xlink" x="0px" y="0px"
	 viewBox="0 0 16 16" style="enable-background:new 0 0 16 16;" xml:space="preserve">
<title>Instagram-black</title>
<desc>Created with Sketch.</desc>
<g id="Symbols">
	<g id="Footer" transform="translate(-1216.000000, -117.000000)">
		<path id="Instagram" d="M1224,117c2.2,0,2.4,0,3.3,0c0.9,0,1.4,0.2,1.9,0.4c0.5,0.2,1,0.5,1.4,0.9c0.4,0.4,0.7,0.9,0.9,1.4
			c0.2,0.5,0.3,1.1,0.4,1.9c0,0.9,0,1.1,0,3.3c0,2.2,0,2.4,0,3.3c0,0.9-0.2,1.4-0.4,1.9c-0.2,0.5-0.5,1-0.9,1.4
			c-0.4,0.4-0.9,0.7-1.4,0.9c-0.5,0.2-1.1,0.3-1.9,0.4c-0.9,0-1.1,0-3.3,0s-2.4,0-3.3,0c-0.9,0-1.4-0.2-1.9-0.4
			c-0.5-0.2-1-0.5-1.4-0.9c-0.4-0.4-0.7-0.9-0.9-1.4c-0.2-0.5-0.3-1.1-0.4-1.9c0-0.9,0-1.1,0-3.3c0-2.2,0-2.4,0-3.3
			c0-0.9,0.2-1.4,0.4-1.9c0.2-0.5,0.5-1,0.9-1.4c0.4-0.4,0.9-0.7,1.4-0.9c0.5-0.2,1.1-0.3,1.9-0.4C1221.6,117,1221.8,117,1224,117z
			 M1224,118.4c-2.1,0-2.4,0-3.2,0c-0.8,0-1.2,0.2-1.5,0.3c-0.4,0.1-0.6,0.3-0.9,0.6c-0.3,0.3-0.5,0.5-0.6,0.9
			c-0.1,0.3-0.2,0.7-0.3,1.5c0,0.8,0,1.1,0,3.2c0,2.1,0,2.4,0,3.2c0,0.8,0.2,1.2,0.3,1.5c0.1,0.4,0.3,0.6,0.6,0.9
			c0.3,0.3,0.5,0.5,0.9,0.6c0.3,0.1,0.7,0.2,1.5,0.3c0.8,0,1.1,0,3.2,0s2.4,0,3.2,0c0.8,0,1.2-0.2,1.5-0.3c0.4-0.1,0.6-0.3,0.9-0.6
			c0.3-0.3,0.5-0.5,0.6-0.9c0.1-0.3,0.2-0.7,0.3-1.5c0-0.8,0-1.1,0-3.2c0-2.1,0-2.4,0-3.2c0-0.8-0.2-1.2-0.3-1.5
			c-0.1-0.4-0.3-0.6-0.6-0.9c-0.3-0.3-0.5-0.5-0.9-0.6c-0.3-0.1-0.7-0.2-1.5-0.3C1226.4,118.4,1226.1,118.4,1224,118.4z M1224,120.9
			c2.3,0,4.1,1.8,4.1,4.1c0,2.3-1.8,4.1-4.1,4.1s-4.1-1.8-4.1-4.1C1219.9,122.7,1221.7,120.9,1224,120.9z M1224,127.7
			c1.5,0,2.7-1.2,2.7-2.7c0-1.5-1.2-2.7-2.7-2.7s-2.7,1.2-2.7,2.7C1221.3,126.5,1222.5,127.7,1224,127.7z M1229.2,120.7
			c0,0.5-0.4,1-1,1c-0.5,0-1-0.4-1-1c0-0.5,0.4-1,1-1C1228.8,119.8,1229.2,120.2,1229.2,120.7z"/>
	</g>
</g>
</svg>
