<?xml version="1.0" encoding="utf-8"?>
<!-- Generator: Adobe Illustrator 21.1.0, SVG Export Plug-In . SVG Version: 6.00 Build 0)  -->
<svg version="1.1" id="Layer_1" xmlns="http://www.w3.org/2000/svg" xmlns:xlink="http://www.w3.org/1999/xlink" x="0px" y="0px"
	 viewBox="0 0 8 11" style="enable-background:new 0 0 8 11;" xml:space="preserve">
<title>ic_lock_black_24px</title>
<desc>Created with Sketch.</desc>
<title>ic_lock_black_24px</title>
<desc>Created with Sketch.</desc>
<path id="Shape_1_" d="M7,4H6.5V3c0-1.4-1.1-2.5-2.5-2.5S1.5,1.6,1.5,3v1H1C0.5,4,0,4.4,0,5v5c0,0.6,0.5,1,1,1h6c0.6,0,1-0.4,1-1V5
	C8,4.4,7.6,4,7,4z M4,8.5c-0.6,0-1-0.4-1-1s0.4-1,1-1s1,0.4,1,1S4.6,8.5,4,8.5z M5.6,4H2.4V3c0-0.9,0.7-1.5,1.6-1.5S5.6,2.1,5.6,3V4
	z"/>
</svg>
