<?xml version="1.0" encoding="UTF-8"?>
<svg width="20px" height="20px" viewBox="0 0 20 20" version="1.1" xmlns="http://www.w3.org/2000/svg" xmlns:xlink="http://www.w3.org/1999/xlink">
    <!-- Generator: Sketch 44.1 (41455) - http://www.bohemiancoding.com/sketch -->
    <title>Fill 199</title>
    <desc>Created with Sketch.</desc>
    <defs></defs>
    <g id="Symbols" stroke="none" stroke-width="1" fill="none" fill-rule="evenodd">
        <g id="Header" transform="translate(-1249.000000, -32.000000)" fill="#232323">
            <g id="Fill-199" transform="translate(1249.000000, 32.000000)">
                <path d="M7.50003812,1.66667514 C10.7158878,1.66667514 13.3334011,4.28335511 13.3334011,7.50003812 C13.3334011,10.7158878 10.7158878,13.3334011 7.50003812,13.3334011 C4.28335511,13.3334011 1.66667514,10.7158878 1.66667514,7.50003812 C1.66667514,4.28335511 4.28335511,1.66667514 7.50003812,1.66667514 M7.50003812,15.0000762 C9.27588049,15.0000762 10.9075554,14.3759064 12.1942287,13.3400678 L18.5759278,19.7551004 C18.9000961,20.0809354 19.4267654,20.0826021 19.7542671,19.7567671 C20.0809354,19.4325988 20.0817687,18.9050961 19.7576004,18.5784278 L13.367568,12.1567285 C14.3867398,10.876722 15.0000762,9.25921373 15.0000762,7.50003812 C15.0000762,3.36418377 11.6358925,0 7.50003812,0 C3.36418377,0 0,3.36418377 0,7.50003812 C0,11.6350591 3.36418377,15.0000762 7.50003812,15.0000762"></path>
            </g>
        </g>
    </g>
</svg>