<?xml version="1.0" encoding="UTF-8"?>
<svg width="16px" height="16px" viewBox="0 0 16 16" version="1.1" xmlns="http://www.w3.org/2000/svg" xmlns:xlink="http://www.w3.org/1999/xlink">
    <!-- Generator: Sketch 44.1 (41455) - http://www.bohemiancoding.com/sketch -->
    <title>Pinterest-black</title>
    <desc>Created with Sketch.</desc>
    <defs></defs>
    <g id="Desktop" stroke="none" stroke-width="1" fill="none" fill-rule="evenodd">
        <g id="03-Brand-Page" transform="translate(-141.000000, -1147.000000)" fill="#232323">
            <g id="Share" transform="translate(32.000000, 1115.000000)">
                <path d="M117.00047,32 C112.582525,32 109,35.5815841 109,40.0004704 C109,43.2753572 110.970012,46.0901982 113.789557,47.3273358 C113.766978,46.7694479 113.785794,46.0977245 113.927853,45.4899747 C114.082143,44.8408302 114.957076,41.1312989 114.957076,41.1312989 C114.957076,41.1312989 114.702123,40.6204504 114.702123,39.8649968 C114.702123,38.6796025 115.389839,37.79432 116.245017,37.79432 C116.972247,37.79432 117.324102,38.3409184 117.324102,38.9957076 C117.324102,39.7267008 116.85747,40.8208385 116.617569,41.8340683 C116.417181,42.6836009 117.042806,43.3750808 117.880108,43.3750808 C119.395719,43.3750808 120.416476,41.4285882 120.416476,39.1217734 C120.416476,37.3690833 119.235785,36.0566825 117.087964,36.0566825 C114.661669,36.0566825 113.149821,37.86582 113.149821,39.8866349 C113.149821,40.5847004 113.354913,41.0757923 113.676663,41.4558711 C113.825307,41.6317987 113.845064,41.7014171 113.791439,41.9027459 C113.753807,42.0485682 113.665373,42.4041865 113.628682,42.5443641 C113.575057,42.7466337 113.41136,42.8200153 113.228847,42.7447522 C112.110249,42.2884695 111.589992,41.0645029 111.589992,39.6881284 C111.589992,37.4161228 113.50638,34.689716 117.307168,34.689716 C120.36191,34.689716 122.372376,36.9015111 122.372376,39.2732404 C122.372376,42.4117128 120.628153,44.7561592 118.055095,44.7561592 C117.192391,44.7561592 116.37955,44.2895278 116.101076,43.7598636 C116.101076,43.7598636 115.636326,45.6028694 115.538484,45.9584877 C115.369142,46.5747045 115.037044,47.1918622 114.733169,47.6716646 C115.452872,47.8842829 116.21303,48 117.00047,48 C121.418416,48 125,44.4184159 125,40.0004704 C125,35.5815841 121.418416,32 117.00047,32" id="Pinterest"></path>
            </g>
        </g>
    </g>
</svg>