<?xml version="1.0" encoding="UTF-8"?>
<svg width="16px" height="14px" viewBox="0 0 16 14" version="1.1" xmlns="http://www.w3.org/2000/svg" xmlns:xlink="http://www.w3.org/1999/xlink">
    <!-- Generator: Sketch 44.1 (41455) - http://www.bohemiancoding.com/sketch -->
    <title>Twitter-black</title>
    <desc>Created with Sketch.</desc>
    <defs></defs>
    <g id="Desktop" stroke="none" stroke-width="1" fill="none" fill-rule="evenodd">
        <g id="03-Brand-Page" transform="translate(-105.000000, -1149.000000)" fill="#232323">
            <g id="Share" transform="translate(32.000000, 1115.000000)">
                <path d="M89,35.5784278 C88.4121031,35.8461538 87.7791278,36.027206 87.1151611,36.1081016 C87.7932148,35.6920669 88.3134942,35.0323823 88.5586077,34.2465391 C87.9237542,34.6317564 87.2222222,34.9120019 86.4727945,35.0622367 C85.8755063,34.4083303 85.0218348,34 84.0770676,34 C82.265481,34 80.7957387,35.5071626 80.7957387,37.365836 C80.7957387,37.6297099 80.8239127,37.8858794 80.8802606,38.1324184 C78.1520808,37.9918141 75.7338146,36.6531841 74.1138111,34.6144216 C73.8311322,35.113278 73.6696015,35.6920669 73.6696015,36.3084146 C73.6696015,37.475623 74.2490462,38.5060792 75.1299525,39.1099073 C74.5927687,39.0935356 74.0856371,38.9404117 73.6423666,38.6900205 L73.6423666,38.7314313 C73.6423666,40.3628265 74.7740212,41.7236066 76.2766332,42.0317804 C76.0014674,42.11075 75.7112755,42.1502347 75.4116922,42.1502347 C75.2003874,42.1502347 74.9937782,42.1300108 74.793743,42.0905261 C75.211657,43.42723 76.4231379,44.4008667 77.8600106,44.4268689 C76.7368081,45.3302034 75.3205963,45.8685446 73.7832365,45.8685446 C73.5184011,45.8685446 73.2563832,45.8531359 73,45.8223185 C74.4528379,46.7757313 76.1789634,47.3333333 78.0318718,47.3333333 C84.0704936,47.3333333 87.3715443,42.2051282 87.3715443,37.7568316 C87.3715443,37.610449 87.3687269,37.4640664 87.3630921,37.320573 C88.0045196,36.8457927 88.5614251,36.2535211 89,35.5784278" id="Twitter"></path>
            </g>
        </g>
    </g>
</svg>