<?xml version="1.0" encoding="UTF-8"?>
<svg width="53px" height="17px" viewBox="0 0 53 17" version="1.1" xmlns="http://www.w3.org/2000/svg" xmlns:xlink="http://www.w3.org/1999/xlink">
    <!-- Generator: Sketch 45.2 (43514) - http://www.bohemiancoding.com/sketch -->
    <title>Group</title>
    <desc>Created with Sketch.</desc>
    <defs></defs>
    <g id="Mobile" stroke="none" stroke-width="1" fill="none" fill-rule="evenodd">
        <g id="Mobile-12-My-account-Settings-My-payments" transform="translate(-261.000000, -442.000000)">
            <g id="Visa-Card" transform="translate(24.000000, 412.000000)">
                <g id="logo" transform="translate(237.000000, 30.000000)">
                    <g id="Group">
                        <path d="M48.2925398,16.6498392 L47.7967926,14.2345656 L42.4181431,14.2345656 L41.5364312,16.6498392 L37.1271814,16.6498392 L43.4358747,1.59774326 C43.4358747,1.59774326 43.8190776,0.386305571 45.3898642,0.386305571 L48.7903583,0.386305571 L52.1770433,16.6498392 L48.2925398,16.6498392 Z M43.6374877,10.8974107 L47.1111701,10.8974107 L45.8600645,4.80981534 L43.6374877,10.8974107 Z" id="a" fill="#1F7DC3"></path>
                        <path d="M38.0613679,0.804400152 C38.0613679,0.804400152 36.1978281,0.0953670284 34.2562668,0.0953670284 C32.1565911,0.0953670284 27.1708109,1.01379298 27.1708109,5.47945774 C27.1708109,9.68182658 33.023113,9.73434755 33.023113,11.9395373 C33.023113,14.1461092 27.7742691,13.7522019 26.0412254,12.3603962 L25.4129108,16.0112948 C25.4129108,16.0112948 27.301307,16.9304118 30.1887925,16.9304118 C33.0748972,16.9304118 37.4316723,15.4335641 37.4316723,11.3624977 C37.4316723,7.13386836 31.5268956,6.73927001 31.5268956,4.90103598 C31.5268956,3.06211089 35.6475349,3.29845526 37.4572192,4.2970448 L38.0613679,0.804400152 Z" id="s" fill="#1F7DC3"></path>
                        <polyline id="i" fill="#1F7DC3" points="22.8057502 16.6498392 18.5753284 16.6498392 21.2190831 0.386305571 25.4508858 0.386305571 22.8057502 16.6498392"></polyline>
                        <path d="M0.331968461,0.66189458 C0.414162735,0.679254431 2.41810839,1.11520847 4.75585854,2.5203156 L8.43046353,16.6498392 L12.8383324,16.6498392 L19.5695846,0.386305571 L15.0160295,0.386305571 L10.9830781,11.5725816 L10.5052828,9.16352751 L10.5052828,9.16421858 L9.08156321,1.8506732 C9.08156321,1.8506732 8.9103302,0.386305571 7.07509908,0.386305571 L3.74123396,0.386305571 L7.07509908,0.386305571 C8.9103302,0.386305571 9.08156321,1.8506732 9.08156321,1.8506732 L10.5052828,9.16421858 C10.5052828,9.16421858 9.54831123,6.19747471 6.60904151,3.81606327 C3.58570389,1.36711772 0.435460664,0.683717898 0.331968461,0.66189458 Z" id="v" fill="#1F7DC3"></path>
                        <path d="M10.5052828,9.16421858 L9.08156321,1.8506732 C9.08156321,1.8506732 8.9103302,0.386305571 7.07509908,0.386305571 L0.407368835,0.386305571 L0.329347347,0.66134961 C0.330037802,0.66134961 3.53513294,1.32615455 6.60904151,3.81606327 C9.54831123,6.19747471 10.5052828,9.16421858 10.5052828,9.16421858" id="shape" fill="#F9A533"></path>
                    </g>
                </g>
            </g>
        </g>
    </g>
</svg>