<?xml version="1.0" encoding="UTF-8"?>
<svg width="37px" height="12px" viewBox="0 0 37 12" version="1.1" xmlns="http://www.w3.org/2000/svg" xmlns:xlink="http://www.w3.org/1999/xlink">
    <!-- Generator: Sketch 45.2 (43514) - http://www.bohemiancoding.com/sketch -->
    <title>Group 6</title>
    <desc>Created with Sketch.</desc>
    <defs></defs>
    <g id="Desktop" stroke="none" stroke-width="1" fill="none" fill-rule="evenodd">
        <g id="14-Checkout" transform="translate(-604.000000, -2280.000000)">
            <g id="Group-3" transform="translate(475.000000, 2268.000000)">
                <g id="Visa-light" transform="translate(117.000000, 0.000000)">
                    <g id="Group-6" transform="translate(12.000000, 12.000000)">
                        <polyline id="Fill-1" fill="#26337A" points="12.8939945 11.7280563 14.7388369 0.283605634 17.6877512 0.283605634 15.8430774 11.7280563 12.8939945 11.7280563"></polyline>
                        <path d="M26.5397226,0.564507042 C25.9566525,0.334816901 25.0396286,0.0843380282 23.89727,0.0843380282 C20.9817512,0.0843380282 18.9294525,1.63740845 18.9124175,3.86129577 C18.8938645,5.50630986 20.3769235,6.42371831 21.4949945,6.97047887 C22.6440995,7.53092958 23.0301705,7.88957746 23.0256166,8.39070423 C23.0176894,9.1571831 22.108424,9.50839437 21.2605521,9.50839437 C20.0799069,9.50839437 19.452647,9.33549296 18.4828313,8.90822535 L18.1035069,8.72602817 L17.6911244,11.2877746 C18.3787659,11.6065352 19.6535253,11.8832113 20.9765226,11.8977465 C24.0750415,11.8977465 26.0883788,10.3634366 26.1119917,7.98861972 C26.1226175,6.68416901 25.3368138,5.69543662 23.6349982,4.87909859 C22.6044636,4.34839437 21.9719751,3.99684507 21.9792276,3.45971831 C21.9799023,2.98411268 22.5135539,2.47487324 23.6685622,2.47487324 C24.6331493,2.45932394 25.3314166,2.68208451 25.8755253,2.91464789 L26.1403272,3.04546479 L26.5397226,0.564507042" id="Fill-2" fill="#26337A"></path>
                        <path d="M30.4663797,7.67053521 C30.7107733,7.01273239 31.6411217,4.47160563 31.6411217,4.47160563 C31.623918,4.50185915 31.8841659,3.80873239 32.0330959,3.37977465 L32.2321189,4.3668169 C32.2321189,4.3668169 32.7979853,7.09842254 32.9145318,7.67053521 L30.4663797,7.67053521 L30.4663797,7.67053521 Z M34.1044535,0.295267606 L31.825471,0.295267606 C31.1186018,0.295267606 30.5895041,0.497746479 30.2798378,1.24394366 L25.9004876,11.7321127 L28.9978258,11.7321127 C28.9978258,11.7321127 29.5031419,10.3211831 29.6178332,10.0115493 C29.9556664,10.0115493 32.9652995,10.0174648 33.3948857,10.0174648 C33.4832654,10.4168451 33.7539705,11.7321127 33.7539705,11.7321127 L36.4910433,11.7321127 L34.1044535,0.295267606 L34.1044535,0.295267606 Z" id="Fill-3" fill="#26337A"></path>
                        <path d="M10.4200369,0.293239437 L7.53369677,8.09560563 L7.22453641,6.50957746 C6.6866682,4.68219718 5.0123447,2.70152113 3.13950415,1.70907042 L5.78010138,11.7180845 L8.90105253,11.7162254 L13.5450359,0.293239437 L10.4200369,0.293239437" id="Fill-4" fill="#26337A"></path>
                        <path d="M4.85430691,0.285464789 L0.0988368664,0.285464789 L0.0597069124,0.522591549 C3.76001751,1.47059155 6.20833825,3.75887324 7.22453641,6.50957746 L6.19113456,1.25104225 C6.01285714,0.525802817 5.49472258,0.310816901 4.85430691,0.285464789" id="Fill-5" fill="#EC982D"></path>
                    </g>
                </g>
            </g>
        </g>
    </g>
</svg>