<?xml version="1.0" encoding="UTF-8"?>
<svg width="71px" height="22px" viewBox="0 0 71 22" version="1.1" xmlns="http://www.w3.org/2000/svg" xmlns:xlink="http://www.w3.org/1999/xlink">
    <!-- Generator: Sketch 45.2 (43514) - http://www.bohemiancoding.com/sketch -->
    <title>logo</title>
    <desc>Created with Sketch.</desc>
    <defs></defs>
    <g id="Mobile" stroke="none" stroke-width="1" fill="none" fill-rule="evenodd">
        <g id="Mobile-12-My-account-Settings-My-payments" transform="translate(-244.000000, -704.000000)" fill="#3D8DC9">
            <g id="Amex" transform="translate(24.000000, 674.000000)">
                <g id="logo" transform="translate(220.000000, 30.000000)">
                    <g id="express" transform="translate(15.864013, 13.809524)">
                        <path d="M46.6941557,3.83933268 C47.0768461,4.21987727 47.2822043,4.70056517 47.2822043,5.5143488 C47.2822043,7.21535449 46.1767921,8.0093479 44.1943914,8.0093479 L40.3664955,8.0093479 L40.3664955,6.31406468 L44.1792624,6.31406468 C44.5520321,6.31406468 44.8161703,6.26661583 44.9818457,6.11806991 C45.117015,5.99599045 45.2142377,5.81811685 45.2142377,5.60233185 C45.2142377,5.37200224 45.1093265,5.18912147 44.9744052,5.0794407 C44.8238588,4.95879185 44.6165165,4.90395147 44.2745009,4.90395147 C42.4361982,4.84386548 40.1343515,4.95879185 40.1343515,2.45663966 C40.1343515,1.3097603 40.8841072,0.102556511 42.9443852,0.102556511 L46.8848809,0.102556511 L46.8848809,1.78567947 L43.2794563,1.78567947 C42.9218157,1.78567947 42.6896717,1.7983166 42.491754,1.92826447 C42.2767232,2.05630485 42.1968617,2.24633871 42.1968617,2.49717386 C42.1968617,2.79569631 42.3796503,2.99836729 42.6269234,3.08635035 C42.8342657,3.15573536 43.056737,3.17576402 43.3918081,3.17576402 L44.449849,3.20318421 C45.5165706,3.22822004 46.2489651,3.4058552 46.6941557,3.83933268 L46.6941557,3.83933268 Z" id="s"></path>
                        <path d="M54.1304118,3.83933268 C54.5131022,4.21987727 54.7184603,4.70056517 54.7184603,5.5143488 C54.7184603,7.21535449 53.6130481,8.0093479 51.6306475,8.0093479 L47.8027516,8.0093479 L47.8027516,6.31406468 L51.6155184,6.31406468 C51.9882881,6.31406468 52.2524263,6.26661583 52.4181018,6.11806991 C52.5532711,5.99599045 52.6504938,5.81811685 52.6504938,5.60233185 C52.6504938,5.37200224 52.5455825,5.18912147 52.4106612,5.0794407 C52.2601149,4.95879185 52.0527726,4.90395147 51.710757,4.90395147 C49.8724543,4.84386548 47.5706076,4.95879185 47.5706076,2.45663966 C47.5706076,1.3097603 48.3203633,0.102556511 50.3806413,0.102556511 L54.3211369,0.102556511 L54.3211369,1.78567947 L50.7157124,1.78567947 C50.3580717,1.78567947 50.1259277,1.7983166 49.9280101,1.92826447 C49.7129793,2.05630485 49.6331178,2.24633871 49.6331178,2.49717386 C49.6331178,2.79569631 49.8159064,2.99836729 50.0631794,3.08635035 C50.2705217,3.15573536 50.492993,3.17576402 50.8280641,3.17576402 L51.8861051,3.20318421 C52.9528266,3.22822004 53.6852211,3.4058552 54.1304118,3.83933268 L54.1304118,3.83933268 Z" id="s"></path>
                        <polygon id="Path-4" points="32.6291061 0.102318074 39.1889103 0.102318074 39.1889103 1.73775374 34.586209 1.73775374 34.586209 3.17528715 39.0763106 3.17528715 39.0763106 4.78830979 34.586209 4.78830979 34.586209 6.36151354 39.1889103 6.36866663 39.1889103 8.0093479 32.6291061 8.0093479"></polygon>
                        <path d="M30.146207,4.33480364 C30.5834611,4.49026421 30.9413498,4.76828112 31.1087613,4.99861074 C31.3865405,5.38463937 31.4267192,5.74491686 31.4344078,6.44210506 L31.4344078,8.0093479 L29.4614318,8.0093479 L29.4614318,7.02007503 C29.4614318,6.54463274 29.508803,5.840053 29.1437218,5.47262242 C28.856518,5.18912147 28.4187679,5.12140552 27.7015024,5.12140552 L25.6012936,5.12140552 L25.6012936,8.0093479 L23.6263335,8.0093479 L23.6263335,0.102318074 L28.1640543,0.102318074 C29.1588509,0.102318074 29.8835569,0.144521327 30.5288973,0.475709568 C31.1491881,0.835748619 31.539319,1.32931209 31.539319,2.23131721 C31.539071,3.49336138 30.6635706,4.13737826 30.146207,4.33480364 Z M28.9591971,3.35077638 C29.2139107,3.20270734 29.3659452,2.9304129 29.3659452,2.59183313 C29.3659452,2.25373024 29.2139107,2.00861756 28.9591971,1.88057718 C28.7213487,1.74514527 28.3711486,1.73799218 28.0209484,1.73799218 L25.6010456,1.73799218 L25.6010456,3.51386692 L27.9884582,3.51386692 C28.3711486,3.51386692 28.696051,3.50075291 28.9591971,3.35077638 Z" id="r"></path>
                        <path d="M22.7034619,2.70723638 C22.7034619,4.90395147 20.9988404,5.35721918 19.2805779,5.35721918 L16.8281848,5.35721918 L16.8281848,8.0093479 L13.0079775,8.0093479 L10.5878266,5.3920309 L8.07293327,8.0093479 L0.287428546,8.0093479 L0.287428546,0.102318074 L8.19247751,0.102318074 L10.6106442,2.69412237 L13.1106566,0.102318074 L19.3911935,0.102318074 C20.9509731,0.102318074 22.7034619,0.517435948 22.7034619,2.70723638 Z M19.368376,3.75134963 C20.123588,3.75134963 20.5930844,3.39131058 20.5930844,2.70723638 C20.5930844,2.01600909 20.1007704,1.73799218 19.3911935,1.73799218 L16.8281848,1.73799218 L16.8281848,3.75134963 L19.368376,3.75134963 Z M14.8708339,7.29022354 L14.8708339,0.951151865 L11.8532099,4.06942386 L14.8708339,7.29022354 Z M7.07788867,6.36151354 L9.32293944,4.04200367 L7.17312723,1.73775374 L2.24552353,1.73775374 L2.24552353,3.17528715 L6.56027699,3.17528715 L6.56027699,4.78830979 L2.24552353,4.78830979 L2.24552353,6.36151354 L7.07788867,6.36151354 Z" id="exp"></path>
                    </g>
                    <g id="american">
                        <path d="M65.3604126,8.21843989 L62.5754286,8.21843989 L58.8497157,2.28518707 L58.8497157,8.21843989 L54.8472158,8.21843989 L54.0823311,6.45520228 L49.9994736,6.45520228 L49.2574065,8.21843989 L46.9572959,8.21843989 C46.0021821,8.21843989 44.7926027,8.01529203 44.1075795,7.3440934 C43.4168518,6.67289477 43.057227,5.76397499 43.057227,4.32620315 C43.057227,3.15381109 43.2722579,2.08203921 44.1170041,1.23511291 C44.7521759,0.604210038 45.7472205,0.313317559 47.1016419,0.313317559 L49.004677,0.313317559 L49.004677,2.00717016 L47.1415726,2.00717016 C46.4245552,2.00717016 46.0195433,2.10969784 45.6294124,2.4756978 C45.2940932,2.80831666 45.0641814,3.43755047 45.0641814,4.26611716 C45.0641814,5.11304346 45.2392815,5.72391767 45.6048587,6.12258343 C45.9074395,6.43541206 46.4570454,6.53030977 46.9744091,6.53030977 L47.8571019,6.53030977 L50.6274529,0.313555996 L53.5724079,0.313555996 L56.9000533,7.79068489 L56.9000533,0.313555996 L59.8923796,0.313555996 L63.3472578,5.81929225 L63.3472578,0.313555996 L65.3604126,0.313555996 L65.3604126,8.21843989 Z M53.3438455,4.80736792 L51.9988488,1.65619169 L50.6610446,4.80736792 L53.3438455,4.80736792 Z" id="can"></path>
                        <polygon id="i" points="40.0892064 0.313317559 42.0946727 0.313317559 42.0946727 8.21843989 40.0892064 8.21843989"></polygon>
                        <path d="M38.9490718,2.44231669 C38.9490718,3.70293025 38.0743155,4.35386178 37.5641444,4.54937967 C37.994206,4.70674774 38.3617673,4.98476465 38.5366194,5.21509427 C38.8139025,5.60827599 38.8617698,5.95949289 38.8617698,6.66550324 L38.8617698,8.21843989 L36.8793692,8.21843989 L36.8719286,7.22153706 C36.8719286,6.74585633 36.9192999,6.06178213 36.5616592,5.68147598 C36.2747035,5.40345907 35.8367053,5.34313464 35.1293605,5.34313464 L33.0194791,5.34313464 L33.0194791,8.21843989 L31.0539436,8.21843989 L31.0539436,0.313317559 L35.5747992,0.313317559 C36.5790204,0.313317559 37.3193515,0.339068697 37.9545233,0.691954655 C38.5763021,1.04531749 38.9490718,1.56057867 38.9490718,2.44231669 Z M36.3791187,3.55247684 C36.6338322,3.4246749 36.7841306,3.14641956 36.7841306,2.80092513 C36.7841306,2.46234536 36.6263917,2.21747111 36.3714301,2.10206787 C36.1392861,1.97450436 35.7816455,1.95948287 35.4393819,1.95948287 L33.019231,1.95948287 L33.019231,3.71532894 L35.4068916,3.71532894 C35.789582,3.71532894 36.109028,3.71008334 36.3791187,3.55247684 Z" id="r"></path>
                        <polygon id="e" points="29.6918337 8.21843989 23.125829 8.21843989 23.125829 0.313317559 29.6918337 0.313317559 29.6918337 1.95948287 25.0916125 1.95948287 25.0916125 3.38437914 29.581466 3.38437914 29.581466 5.00479331 25.0916125 5.00479331 25.0916125 6.5834811 29.6918337 6.5834811"></polygon>
                        <path d="M21.661288,8.21843989 L19.6463971,8.21843989 L19.6389566,2.02719882 L16.7887441,8.21843989 L15.0630412,8.21843989 L12.2058842,2.02171478 L12.2058842,8.21843989 L8.20834462,8.21843989 L7.45313256,6.45520228 L3.36085044,6.45520228 L2.59794985,8.21843989 L0.46301867,8.21843989 L3.98287732,0.313317559 L6.90278262,0.313317559 L10.2458051,7.79783798 L10.2458051,0.313317559 L13.4534102,0.313317559 L16.0255955,5.67599194 L18.3887024,0.313317559 L21.66104,0.313317559 L21.66104,8.21843989 L21.661288,8.21843989 Z M6.74330762,4.80736792 L5.3983109,1.65619169 L4.06050668,4.80736792 L6.74330762,4.80736792 Z" id="am"></path>
                    </g>
                </g>
            </g>
        </g>
    </g>
</svg>