<?xml version="1.0" encoding="UTF-8"?>
<svg width="40px" height="24px" viewBox="0 0 40 24" version="1.1" xmlns="http://www.w3.org/2000/svg" xmlns:xlink="http://www.w3.org/1999/xlink">
    <!-- Generator: Sketch 45.2 (43514) - http://www.bohemiancoding.com/sketch -->
    <title>Group 5</title>
    <desc>Created with Sketch.</desc>
    <defs></defs>
    <g id="Desktop" stroke="none" stroke-width="1" fill="none" fill-rule="evenodd">
        <g id="14-Checkout" transform="translate(-670.000000, -2274.000000)">
            <g id="Group-3" transform="translate(475.000000, 2268.000000)">
                <g id="MasterCard-light" transform="translate(160.000000, 6.000000)">
                    <g id="Group-5" transform="translate(35.000000, 0.000000)">
                        <path d="M23.6771725,12.2912413 C23.6771725,18.7581947 18.4351822,24 11.9684138,24 C5.50146046,24 0.2591,18.7581947 0.2591,12.2912413 C0.2591,5.82447296 5.50146046,0.582112499 11.9684138,0.582112499 C18.4351822,0.582112499 23.6771725,5.82447296 23.6771725,12.2912413" id="Fill-333" fill="#CC0000"></path>
                        <path d="M19.8276061,3.61287816 C19.4047903,3.99665055 19.0101006,4.41113954 18.6457574,4.85245928 L21.0114903,4.85245928 C21.3345696,5.24585374 21.6322985,5.65941753 21.9041219,6.09259552 L17.7529407,6.09259552 C17.5046174,6.49061597 17.2788689,6.90417976 17.0782859,7.33273176 L22.5784067,7.33273176 C22.766407,7.73408293 22.9318325,8.14746168 23.0743131,8.57231289 L16.5823794,8.57231289 C16.4473004,8.97606957 16.3333159,9.38981839 16.2422764,9.81170897 L23.4140461,9.81170897 C23.5857629,10.6110806 23.6771725,11.4404286 23.6771725,12.2912413 C23.6771725,13.5911454 23.4653021,14.842384 23.0743131,16.0109099 L16.5823794,16.0109099 C16.72486,16.435391 16.8902855,16.8493248 17.0779158,17.2512311 L22.5784067,17.2512311 C22.3774535,17.6786729 22.1528153,18.0926068 21.9030117,18.4911823 L17.7529407,18.4911823 C18.0236538,18.9230651 18.3219378,19.337184 18.6457574,19.7300233 L21.0107501,19.7300233 C20.647147,20.1717131 20.2520872,20.5862021 19.8279762,20.9699745 C21.9061573,22.8529387 24.662324,24 27.6884637,24 C34.155047,24 39.3972224,18.7581947 39.3972224,12.2912413 C39.3972224,5.82502808 34.155047,0.582112499 27.6884637,0.582112499 C24.662324,0.582112499 21.9059723,1.72991392 19.8276061,3.61287816 Z" id="Fill-334" fill="#FF9900"></path>
                        <polyline id="Fill-344" fill="#FFFFFF" points="6.46958831 15.3728929 5.19855043 15.3728929 5.92705183 10.8075928 4.30110776 15.3728929 3.43456673 15.3728929 3.32761377 10.8340535 2.56210442 15.3728929 1.37229899 15.3728929 2.36614735 9.43422793 4.1941548 9.43422793 4.24522577 13.1105972 5.47870058 9.43422793 7.45288941 9.43422793 6.46958831 15.3728929"></polyline>
                        <path d="M9.59990534,13.221436 C9.46667674,13.2058927 9.40783411,13.2016367 9.31623944,13.2016367 C8.59569475,13.2016367 8.23116649,13.4484797 8.23116649,13.9364295 C8.23116649,14.236749 8.40917471,14.4290052 8.68691934,14.4290052 C9.20466049,14.4290052 9.57788562,13.9360594 9.59990534,13.221436 L9.59990534,13.221436 Z M10.5243638,15.3728929 L9.47130273,15.3728929 L9.4953579,14.8727305 C9.17412894,15.2677903 8.74539189,15.4567159 8.16307188,15.4567159 C7.47416898,15.4567159 7.0019476,14.9182503 7.0019476,14.1370126 C7.0019476,12.96053 7.82352398,12.2755129 9.23371173,12.2755129 C9.37785767,12.2755129 9.56252732,12.2886507 9.75182296,12.313076 C9.79105138,12.1532017 9.8014136,12.0852921 9.8014136,11.9988785 C9.8014136,11.6793149 9.58010609,11.5603344 8.98631361,11.5603344 C8.36421006,11.5529328 7.85146498,11.707811 7.64051969,11.7768309 C7.65402759,11.6968937 7.81686255,10.6908327 7.81686255,10.6908327 C8.45025353,10.5050528 8.86807323,10.4349228 9.33825917,10.4349228 C10.4298085,10.4349228 11.0078726,10.9254631 11.0069474,11.8514019 C11.0089829,12.0995401 10.9680891,12.406521 10.9040653,12.8084273 C10.7935966,13.5073224 10.5567458,15.0083646 10.5243638,15.3728929 L10.5243638,15.3728929 Z" id="Fill-345" fill="#FFFFFF"></path>
                        <path d="M27.5741092,9.59410225 L27.3659395,10.8829039 C26.912037,10.65475 26.5832214,10.5624151 26.2305357,10.5624151 C25.281467,10.5624151 24.615694,11.4796571 24.615694,12.7878879 C24.615694,13.6892164 25.0631201,14.2337883 25.8021687,14.2337883 C26.115256,14.2337883 26.4610952,14.1370126 26.8816905,13.9292129 L26.6583476,15.2825935 C26.1903821,15.4100859 25.8874721,15.4567159 25.5351564,15.4567159 C24.1664176,15.4567159 23.3139396,14.4726746 23.3139396,12.8926204 C23.3139396,10.7694746 24.4924576,9.28564103 26.1770592,9.28564103 C26.7321784,9.28564103 27.3877742,9.52082652 27.5741092,9.59410225" id="Fill-346" fill="#FFFFFF"></path>
                        <path d="M29.6247194,13.221436 C29.492231,13.2058927 29.4332033,13.2016367 29.3417937,13.2016367 C28.621619,13.2016367 28.2569057,13.4484797 28.2569057,13.9364295 C28.2569057,14.236749 28.4347289,14.4290052 28.7122885,14.4290052 C29.2298446,14.4290052 29.6034398,13.9360594 29.6247194,13.221436 L29.6247194,13.221436 Z M30.549918,15.3728929 L29.4968569,15.3728929 L29.5207271,14.8727305 C29.1994981,15.2677903 28.7707611,15.4567159 28.1889962,15.4567159 C27.4993531,15.4567159 27.0276869,14.9182503 27.0276869,14.1370126 C27.0276869,12.96053 27.8485231,12.2755129 29.2590809,12.2755129 C29.4032268,12.2755129 29.5875264,12.2886507 29.776637,12.313076 C29.8160505,12.1532017 29.8264127,12.0852921 29.8264127,11.9988785 C29.8264127,11.6793149 29.6056603,11.5603344 29.0114977,11.5603344 C28.3899493,11.5529328 27.8773893,11.707811 27.6660739,11.7768309 C27.6793968,11.6968937 27.8424168,10.6908327 27.8424168,10.6908327 C28.4758077,10.5050528 28.8932574,10.4349228 29.3634433,10.4349228 C30.4549926,10.4349228 31.0336119,10.9254631 31.0321316,11.8514019 C31.0347221,12.0995401 30.9934582,12.406521 30.9294345,12.8084273 C30.8193359,13.5073224 30.582485,15.0083646 30.549918,15.3728929 L30.549918,15.3728929 Z" id="Fill-347" fill="#FFFFFF"></path>
                        <path d="M16.1736266,15.2996171 C15.825937,15.4091607 15.5544837,15.4567159 15.2606406,15.4567159 C14.6107811,15.4567159 14.2558749,15.0831207 14.2558749,14.3960682 C14.246993,14.1817922 14.3496901,13.6211218 14.4305524,13.1083767 C14.5036431,12.6566947 14.9816007,9.81226409 14.9816007,9.81226409 L16.245237,9.81226409 L16.0973903,10.543171 L16.7461395,10.543171 L16.5733124,11.7037402 L15.9225277,11.7037402 C15.7757912,12.6230175 15.5665113,13.766563 15.5639207,13.9182956 C15.5639207,14.1680992 15.6973344,14.2761624 15.9995043,14.2761624 C16.1443904,14.2761624 16.2563394,14.2619144 16.3423829,14.2304576 L16.1736266,15.2996171" id="Fill-348" fill="#FFFFFF"></path>
                        <path d="M20.0483585,15.2613139 C19.6140702,15.3943575 19.1947702,15.457086 18.751415,15.4567159 C17.3366013,15.4557907 16.5997731,14.716557 16.5997731,13.3021133 C16.5997731,11.6506338 17.5375544,10.4349228 18.8102577,10.4349228 C19.8529565,10.4349228 20.5181743,11.1154989 20.5181743,12.1837332 C20.5181743,12.5377142 20.4719144,12.8831834 20.362741,13.3711331 L17.8462007,13.3711331 C17.7608974,14.0718786 18.2096187,14.3642413 18.9444115,14.3642413 C19.3964635,14.3642413 19.8044761,14.2706112 20.2585636,14.0596659 L20.0483585,15.2613139 L20.0483585,15.2613139 Z M19.337991,12.397084 C19.3448374,12.2960523 19.4719597,11.5349839 18.7499347,11.5349839 C18.3476584,11.5349839 18.0595515,11.8423349 17.9424214,12.397084 L19.337991,12.397084 L19.337991,12.397084 Z" id="Fill-349" fill="#FFFFFF"></path>
                        <path d="M11.2867275,12.0699338 C11.2867275,12.6814901 11.5831611,13.1019003 12.2550404,13.4188734 C12.7696358,13.6609053 12.849388,13.7325157 12.849388,13.9519728 C12.849388,14.2530325 12.6223442,14.3888516 12.1192212,14.3888516 C11.7400748,14.3888516 11.3872041,14.330009 10.9801167,14.1988158 C10.9801167,14.1988158 10.8135809,15.2631643 10.8058092,15.3133101 C11.0944712,15.3765937 11.3522315,15.4343261 12.1282882,15.4567159 C13.4698262,15.4567159 14.0893392,14.9461913 14.0893392,13.8424293 C14.0893392,13.1785068 13.8299135,12.7891832 13.1931918,12.4968204 C12.6602774,12.2516428 12.5990292,12.1974261 12.5990292,11.9716777 C12.5990292,11.7105866 12.8103446,11.5762478 13.2213178,11.5762478 C13.4703813,11.5762478 13.8114095,11.6040037 14.1344889,11.6495235 L14.3154577,10.5294781 C13.986272,10.4774819 13.4874049,10.4349228 13.1967075,10.4349228 C11.7744922,10.4349228 11.2824716,11.1776722 11.2867275,12.0699338" id="Fill-350" fill="#FFFFFF"></path>
                        <path d="M37.2779624,15.3728929 L36.0755743,15.3728929 L36.1351571,14.9234314 C35.7863572,15.2959164 35.4290455,15.4567159 34.9631155,15.4567159 C34.0393972,15.4567159 33.428211,14.660675 33.428211,13.4523656 C33.428211,11.8458507 34.3757994,10.49173 35.496585,10.49173 C35.9895308,10.49173 36.362756,10.6930532 36.7104456,11.1504714 L36.9924461,9.43422793 L38.2460903,9.43422793 L37.2779624,15.3728929 L37.2779624,15.3728929 Z M35.4025848,14.2569183 C35.994897,14.2569183 36.4104962,13.5861493 36.4104962,12.6294939 C36.4104962,12.0157171 36.1738304,11.6822756 35.7369516,11.6822756 C35.1603678,11.6822756 34.75106,12.3554501 34.75106,13.305259 C34.75106,13.9373547 34.970332,14.2569183 35.4025848,14.2569183 L35.4025848,14.2569183 Z" id="Fill-351" fill="#FFFFFF"></path>
                        <path d="M31.6949438,10.543171 C31.5359947,12.0381069 31.253254,13.552102 31.0321316,15.0481482 L30.9742141,15.3728929 L32.2456221,15.3728929 C32.7004497,12.4192888 32.8098082,11.84289 33.5233214,11.9148705 C33.6367507,11.3103457 33.8482511,10.780947 34.0057199,10.5141198 C33.4733606,10.4030959 33.1760018,10.7039705 32.7863081,11.2757433 C32.8173948,11.0283452 32.8734619,10.7883486 32.8629146,10.543171 L31.6949438,10.543171" id="Fill-352" fill="#FFFFFF"></path>
                        <path d="M21.2311324,10.543171 C21.0714431,12.0381069 20.7883323,13.552102 20.56758,15.0481482 L20.5098476,15.3728929 L21.7816256,15.3728929 C22.2366383,12.4192888 22.3456267,11.84289 23.0580296,11.9148705 C23.1721991,11.3103457 23.3840696,10.780947 23.5411683,10.5141198 C23.0093642,10.4030959 22.7114502,10.7039705 22.3224967,11.2757433 C22.3532133,11.0283452 22.4096504,10.7883486 22.398548,10.543171 L21.2311324,10.543171" id="Fill-353" fill="#FFFFFF"></path>
                    </g>
                </g>
            </g>
        </g>
    </g>
</svg>