<?xml version="1.0" standalone="no"?>
<!DOCTYPE svg PUBLIC "-//W3C//DTD SVG 1.1//EN" "http://www.w3.org/Graphics/SVG/1.1/DTD/svg11.dtd" >
<svg xmlns="http://www.w3.org/2000/svg" xmlns:xlink="http://www.w3.org/1999/xlink" version="1.1">
<metadata>
Created by FontForge 20180905 at Mon Apr 24 17:09:20 2017
 By convertio
Copyright \(c\) 2015 by Luzi Type. All rights reserved.
</metadata>
<defs>
<font id="Faro-RegularLucky" horiz-adv-x="559" >
  <font-face 
    font-family="Faro Lucky"
    font-weight="400"
    font-stretch="normal"
    units-per-em="1000"
    panose-1="0 0 5 0 0 0 0 0 0 0"
    ascent="800"
    descent="-200"
    x-height="506"
    cap-height="700"
    bbox="-81 -337 1368 950"
    underline-thickness="50"
    underline-position="-100"
    stemh="72"
    stemv="77"
    unicode-range="U+000D-221E"
  />
<missing-glyph horiz-adv-x="467" 
 />
    <glyph glyph-name="T_h" unicode="Th" horiz-adv-x="1152" 
d="M895 515c116 0 185 -76 185 -177v-338h-74v338c0 61 -43 102 -116 102c-93 0 -148 -56 -148 -137v-303h-77v621h-322v-621h-79v621h-33c-64 0 -142 0 -216 15l12 79c57 -11 124 -15 204 -15h511v-249c33 47 81 64 153 64z" />
    <glyph glyph-name="f_f" unicode="ff" horiz-adv-x="690" 
d="M598 625c-51 0 -72 -32 -72 -90v-29h10c53 0 95 3 141 11l11 -70c-52 -9 -98 -13 -155 -13h-7v-434h-76v434h-261v-434h-76v434h-103v72h103v32c0 98 48 162 142 162h99v-75h-93c-51 0 -72 -32 -72 -90v-29h261v32c0 98 47 162 142 162h98v-75h-92z" />
    <glyph glyph-name="f_f_f" unicode="fff" horiz-adv-x="1027" 
d="M935 625c-51 0 -72 -32 -72 -90v-29h9c54 0 96 3 142 11l11 -70c-52 -9 -98 -13 -155 -13h-7v-434h-76v434h-261v-434h-76v434h-261v-434h-76v434h-103v72h103v32c0 98 48 162 142 162h99v-75h-93c-51 0 -72 -32 -72 -90v-29h261v32c0 98 47 162 142 162h98v-75h-92
c-51 0 -72 -32 -72 -90v-29h261v32c0 98 47 162 141 162h99v-75h-92z" />
    <glyph glyph-name="f_f_t" unicode="fft" horiz-adv-x="1043" 
d="M935 75h83v-75h-90c-94 0 -141 63 -141 161v273h-261v-434h-76v434h-261v-434h-76v434h-103v72h103v32c0 98 48 162 142 162h99v-75h-93c-51 0 -72 -32 -72 -90v-29h261v32c0 98 47 162 142 162h98v-75h-92c-51 0 -72 -32 -72 -90v-29h261v128h76v-128h2
c53 0 95 3 142 11l10 -70c-51 -9 -97 -13 -154 -13v-269c0 -59 21 -90 72 -90z" />
    <glyph glyph-name="f_t" unicode="ft" horiz-adv-x="706" 
d="M598 75h83v-75h-89c-95 0 -142 63 -142 161v273h-261v-434h-76v434h-103v72h103v32c0 98 48 162 142 162h99v-75h-93c-51 0 -72 -32 -72 -90v-29h261v128h76v-128h2c53 0 95 3 142 11l10 -70c-51 -9 -97 -13 -154 -13v-269c0 -59 21 -90 72 -90z" />
    <glyph glyph-name="t_f" unicode="tf" horiz-adv-x="690" 
d="M598 625c-51 0 -72 -32 -72 -90v-29h10c53 0 95 3 141 11l11 -70c-52 -9 -98 -13 -155 -13h-7v-434h-76v434h-261v-269c0 -59 21 -90 72 -90h83v-75h-89c-94 0 -142 63 -142 161v273h-103v72h103v128h76v-128h261v32c0 98 47 162 142 162h98v-75h-92z" />
    <glyph glyph-name="t_f_f" unicode="tff" horiz-adv-x="1027" 
d="M935 625c-51 0 -72 -32 -72 -90v-29h9c54 0 96 3 142 11l11 -70c-52 -9 -98 -13 -155 -13h-7v-434h-76v434h-261v-434h-76v434h-261v-269c0 -59 21 -90 72 -90h83v-75h-89c-94 0 -142 63 -142 161v273h-103v72h103v128h76v-128h261v32c0 98 47 162 142 162h98v-75h-92
c-51 0 -72 -32 -72 -90v-29h261v32c0 98 47 162 141 162h99v-75h-92z" />
    <glyph glyph-name="t_t" unicode="tt" horiz-adv-x="706" 
d="M598 75h83v-75h-89c-95 0 -142 63 -142 161v273h-261v-269c0 -59 21 -90 72 -90h83v-75h-89c-94 0 -142 63 -142 161v273h-103v72h103v128h76v-128h261v128h76v-128h2c53 0 95 3 142 11l10 -70c-51 -9 -97 -13 -154 -13v-269c0 -59 21 -90 72 -90z" />
    <glyph glyph-name="t_t_f" unicode="ttf" horiz-adv-x="1027" 
d="M935 625c-51 0 -72 -32 -72 -90v-29h9c54 0 96 3 142 11l11 -70c-52 -9 -98 -13 -155 -13h-7v-434h-76v434h-261v-269c0 -59 21 -90 72 -90h83v-75h-89c-95 0 -142 63 -142 161v273h-261v-269c0 -59 21 -90 72 -90h83v-75h-89c-94 0 -142 63 -142 161v273h-103v72h103
v128h76v-128h261v128h76v-128h261v32c0 98 47 162 141 162h99v-75h-92z" />
    <glyph glyph-name=".notdef" horiz-adv-x="467" 
 />
    <glyph glyph-name="space" unicode=" " horiz-adv-x="270" 
 />
    <glyph glyph-name="A" unicode="A" horiz-adv-x="716" 
d="M601 0l-75 188h-336l-75 -188h-90l289 700h88l289 -700h-90zM222 267h272l-136 342z" />
    <glyph glyph-name="B" unicode="B" horiz-adv-x="627" 
d="M473 366c60 -31 104 -85 104 -168c0 -107 -74 -198 -221 -198h-271v700h280c123 0 188 -84 188 -182c0 -69 -32 -120 -80 -152zM165 403h190c75 0 115 48 115 112c0 65 -43 106 -119 106h-186v-218zM348 78c97 0 145 58 145 129c0 68 -45 119 -135 119h-193v-248h183z
" />
    <glyph glyph-name="C" unicode="C" horiz-adv-x="731" 
d="M582 499c-31 84 -115 131 -207 131c-125 0 -242 -87 -242 -278c0 -153 73 -282 251 -282c129 0 219 68 219 193c0 13 -1 29 -4 46h81c1 -11 2 -21 2 -37c0 -173 -111 -283 -298 -283c-230 0 -334 165 -334 364c0 243 160 358 327 358c124 0 244 -64 284 -180z" />
    <glyph glyph-name="D" unicode="D" horiz-adv-x="703" 
d="M302 700c258 0 351 -164 351 -344c0 -188 -101 -356 -364 -356h-204v700h217zM297 78c203 0 273 132 273 277c0 139 -65 266 -264 266h-140v-543h131z" />
    <glyph glyph-name="E" unicode="E" horiz-adv-x="571" 
d="M166 78h358v-78h-439v700h231c79 0 146 4 203 15l12 -79c-73 -15 -152 -15 -215 -15h-150v-231h307v-78h-307v-234z" />
    <glyph glyph-name="F" unicode="F" horiz-adv-x="541" 
d="M473 312h-307v-312h-81v700h231c79 0 146 4 203 15l12 -79c-73 -15 -152 -15 -215 -15h-150v-231h307v-78z" />
    <glyph glyph-name="G" unicode="G" horiz-adv-x="750" 
d="M582 499c-30 83 -114 131 -208 131c-124 0 -241 -86 -241 -278c0 -152 76 -282 246 -282c105 0 205 62 216 199h-55c-62 0 -139 0 -211 15l12 76c56 -10 121 -15 199 -15h135v-345h-80v95c-46 -74 -133 -106 -219 -106c-224 0 -326 171 -326 362c0 246 160 360 327 360
c124 0 244 -64 284 -180z" />
    <glyph glyph-name="H" unicode="H" horiz-adv-x="710" 
d="M544 700h81v-700h-81v313h-378v-313h-81v700h81v-308h378v308z" />
    <glyph glyph-name="I" unicode="I" horiz-adv-x="251" 
d="M166 0h-81v700h81v-700z" />
    <glyph glyph-name="J" unicode="J" horiz-adv-x="516" 
d="M441 700v-514c0 -113 -68 -197 -203 -197c-118 0 -210 65 -210 188c0 11 0 21 2 36h80c-1 -10 -2 -18 -2 -28c0 -76 51 -115 129 -115c90 0 123 50 123 110v441h-68c-63 0 -142 0 -215 15l12 79c57 -11 124 -15 203 -15h149z" />
    <glyph glyph-name="K" unicode="K" horiz-adv-x="643" 
d="M348 425l280 -425h-106l-235 358l-121 -131v-227h-81v700h81v-357l322 357h110z" />
    <glyph glyph-name="L" unicode="L" horiz-adv-x="501" 
d="M476 78v-78h-391v700h81v-622h310z" />
    <glyph glyph-name="M" unicode="M" horiz-adv-x="866" 
d="M671 700h110v-700h-79v558l-224 -558h-89l-224 558v-558h-80v700h110l238 -609z" />
    <glyph glyph-name="N" unicode="N" horiz-adv-x="736" 
d="M570 700h81v-700h-88l-397 569v-569h-81v700h88l397 -568v568z" />
    <glyph glyph-name="O" unicode="O" horiz-adv-x="753" 
d="M376 711c230 0 327 -183 327 -361s-97 -361 -327 -361c-229 0 -326 183 -326 361s97 361 326 361zM376 70c149 0 244 103 244 280s-95 280 -244 280c-148 0 -243 -103 -243 -280s95 -280 243 -280z" />
    <glyph glyph-name="P" unicode="P" horiz-adv-x="602" 
d="M334 700c159 0 238 -88 238 -206s-79 -210 -238 -210h-168v-284h-81v700h249zM338 362c101 0 151 56 151 130s-50 129 -151 129h-172v-259h172z" />
    <glyph glyph-name="Q" unicode="Q" horiz-adv-x="753" 
d="M581 57c30 -37 66 -77 101 -107l-56 -62c-42 38 -77 78 -117 126c-38 -16 -82 -25 -133 -25c-229 0 -326 183 -326 361s97 361 326 361c230 0 327 -183 327 -361c0 -111 -38 -224 -122 -293zM133 350c0 -177 95 -280 243 -280c28 0 55 4 79 11l-114 140l64 52l116 -142
c3 -3 5 -7 9 -11c57 47 90 126 90 230c0 177 -95 280 -244 280c-148 0 -243 -103 -243 -280z" />
    <glyph glyph-name="R" unicode="R" horiz-adv-x="624" 
d="M512 0l-161 302h-185v-302h-81v700h248c126 0 239 -48 239 -193c0 -104 -57 -162 -136 -187l173 -320h-97zM166 621v-240h181c94 0 142 52 142 121c0 70 -51 119 -143 119h-180z" />
    <glyph glyph-name="S" unicode="S" horiz-adv-x="582" 
d="M537 196c0 -141 -109 -207 -231 -207c-131 0 -261 78 -261 223c0 9 0 27 2 41h85c-2 -15 -2 -32 -2 -38c0 -95 90 -145 179 -145c80 0 145 40 145 118c0 89 -79 107 -165 128c-99 25 -210 53 -210 194c0 124 85 201 215 201c99 0 179 -48 215 -122l-75 -41
c-27 50 -85 81 -148 80c-71 -1 -125 -43 -125 -111c0 -90 80 -108 166 -129c101 -24 210 -50 210 -192z" />
    <glyph glyph-name="T" unicode="T" horiz-adv-x="596" 
d="M569 715l12 -79c-73 -15 -152 -15 -215 -15h-33v-621h-81v621h-237v79h351c79 0 146 4 203 15z" />
    <glyph glyph-name="U" unicode="U" horiz-adv-x="680" 
d="M605 700v-441c0 -185 -104 -270 -265 -270s-265 85 -265 270v441h81v-441c0 -123 57 -189 184 -189s184 66 184 189v441h81z" />
    <glyph glyph-name="V" unicode="V" horiz-adv-x="624" 
d="M525 700h84l-252 -700h-89l-253 700h84l214 -599z" />
    <glyph glyph-name="W" unicode="W" horiz-adv-x="905" 
d="M795 700h85l-189 -700h-89l-149 560l-150 -560h-89l-189 700h85l149 -563l148 563h91l149 -563z" />
    <glyph glyph-name="X" unicode="X" horiz-adv-x="622" 
d="M597 700l-237 -350l237 -350h-100l-185 277l-187 -277h-100l237 350l-237 350h100l187 -277l185 277h100z" />
    <glyph glyph-name="Y" unicode="Y" horiz-adv-x="613" 
d="M503 700h95l-251 -428v-272h-81v272l-251 428h95l197 -346z" />
    <glyph glyph-name="Z" unicode="Z" horiz-adv-x="617" 
d="M150 78h427v-78h-527v78l414 543h-190c-64 0 -142 0 -216 15l12 79c57 -11 124 -15 204 -15h293v-79z" />
    <glyph glyph-name="a" unicode="a" horiz-adv-x="525" 
d="M65 395c23 81 97 120 194 120c127 0 196 -67 196 -174v-341h-75v58c-30 -42 -79 -64 -144 -64c-131 0 -194 92 -194 176c0 73 47 137 140 137h110c36 0 64 -6 88 -24v62c0 68 -48 97 -126 97c-52 0 -103 -13 -120 -74zM238 67c84 0 142 45 142 107c0 42 -27 61 -71 61
h-130c-41 0 -61 -24 -61 -64c0 -50 31 -104 120 -104z" />
    <glyph glyph-name="b" unicode="b" horiz-adv-x="583" 
d="M311 515c138 0 232 -103 232 -260c0 -158 -94 -261 -232 -261c-73 0 -126 28 -160 76v-70h-76v700h76v-261c34 48 87 76 160 76zM308 69c106 0 158 85 158 189c0 101 -51 182 -155 182c-105 0 -160 -85 -160 -187s53 -184 157 -184z" />
    <glyph glyph-name="c" unicode="c" horiz-adv-x="521" 
d="M406 218h73c1 -8 2 -16 2 -28c0 -114 -80 -196 -210 -196c-154 0 -231 112 -231 263c0 175 106 258 232 258c93 0 155 -36 194 -108l-65 -45c-25 50 -62 78 -132 78c-87 0 -151 -56 -151 -184c0 -122 56 -187 156 -187c85 0 133 49 133 134c0 5 0 11 -1 15z" />
    <glyph glyph-name="d" unicode="d" horiz-adv-x="584" 
d="M273 515c72 0 126 -28 159 -76v261h77v-700h-77v70c-33 -48 -87 -76 -159 -76c-138 0 -233 103 -233 261c0 157 95 260 233 260zM275 69c106 0 157 82 157 184s-54 187 -160 187c-103 0 -154 -81 -154 -182c0 -103 52 -189 157 -189z" />
    <glyph glyph-name="e" unicode="e" horiz-adv-x="515" 
d="M471 223h-211c-49 0 -101 5 -142 17c2 -104 46 -171 155 -171c79 0 119 35 120 94h73c-2 -111 -91 -169 -200 -169c-150 0 -226 110 -226 261c0 173 100 260 228 260c126 0 207 -86 207 -235c0 -16 -1 -31 -4 -57zM265 442c-81 0 -126 -52 -141 -128
c35 -13 89 -17 139 -17h135c0 99 -55 145 -133 145z" />
    <glyph glyph-name="f" unicode="f" horiz-adv-x="354" 
d="M261 625c-51 0 -72 -32 -72 -90v-29h10c53 0 95 3 142 11l10 -70c-51 -9 -98 -13 -155 -13h-7v-434h-76v434h-103v72h103v32c0 98 48 162 142 162h99v-75h-93z" />
    <glyph glyph-name="g" unicode="g" horiz-adv-x="539" 
d="M361 73c104 0 155 -49 155 -127c0 -108 -99 -168 -242 -168c-145 0 -239 62 -239 161c0 49 23 84 61 99c-29 21 -45 55 -45 88c0 40 22 81 68 100c-23 29 -36 67 -36 111c0 105 75 178 187 178c44 0 83 -11 113 -32c46 4 77 40 77 88h75c0 -68 -38 -121 -102 -141
c15 -26 23 -58 23 -93c0 -106 -74 -178 -186 -178c-38 0 -72 8 -100 24c-27 -9 -41 -34 -41 -58c0 -28 19 -52 55 -52h177zM270 443c-72 0 -113 -43 -113 -106c0 -65 41 -107 113 -107s113 42 113 107c0 63 -41 106 -113 106zM273 -149c107 0 168 32 168 96
c0 33 -19 53 -81 53h-190c-49 0 -60 -29 -60 -55c0 -62 55 -94 163 -94z" />
    <glyph glyph-name="h" unicode="h" horiz-adv-x="560" 
d="M305 515c116 0 183 -76 183 -177v-338h-76v338c0 61 -43 102 -114 102c-93 0 -147 -56 -147 -137v-303h-76v700h76v-251c33 48 82 66 154 66z" />
    <glyph glyph-name="i" unicode="i" horiz-adv-x="232" 
d="M74 607v93h84v-93h-84zM154 0h-76v506h76v-506z" />
    <glyph glyph-name="j" unicode="j" horiz-adv-x="243" 
d="M89 607v93h84v-93h-84zM-25 -213v75h55c43 0 63 24 63 76v568h77v-568c0 -92 -54 -151 -138 -151h-57z" />
    <glyph glyph-name="k" unicode="k" horiz-adv-x="533" 
d="M420 0l-172 260l-97 -92v-168h-76v700h76v-435l242 241h108l-197 -191l209 -315h-93z" />
    <glyph glyph-name="l" unicode="l" horiz-adv-x="226" 
d="M151 0h-76v700h76v-700z" />
    <glyph glyph-name="m" unicode="m" horiz-adv-x="850" 
d="M603 515c110 0 177 -74 177 -172v-343h-76v343c0 59 -37 97 -104 97c-83 0 -134 -51 -134 -121v-319h-77v343c0 59 -37 97 -104 97c-81 0 -134 -51 -134 -121v-319h-76v506h76v-53c34 42 80 62 137 62c72 0 125 -31 154 -90c29 63 92 90 161 90z" />
    <glyph glyph-name="n" unicode="n" horiz-adv-x="558" 
d="M305 515c116 0 183 -76 183 -177v-338h-76v338c0 61 -43 102 -114 102c-93 0 -147 -56 -147 -137v-303h-76v506h76v-57c33 48 82 66 154 66z" />
    <glyph glyph-name="o" unicode="o" horiz-adv-x="534" 
d="M494 255c0 161 -91 260 -227 260s-227 -99 -227 -260c0 -162 91 -261 227 -261s227 99 227 261zM416 255c0 -119 -54 -186 -149 -186s-149 67 -149 186c0 118 54 185 149 185s149 -67 149 -185z" />
    <glyph glyph-name="p" unicode="p" horiz-adv-x="583" 
d="M311 515c138 0 232 -103 232 -257c0 -155 -94 -258 -232 -258c-73 0 -126 28 -160 76v-287h-76v717h76v-70c34 50 85 79 160 79zM308 74c106 0 158 85 158 185s-51 181 -154 181c-106 0 -161 -85 -161 -185s52 -181 157 -181z" />
    <glyph glyph-name="q" unicode="q" horiz-adv-x="584" 
d="M432 506h77v-717h-77v287c-33 -48 -87 -76 -159 -76c-138 0 -233 103 -233 258c0 154 95 257 233 257c73 0 126 -27 159 -77v68zM275 74c106 0 157 81 157 181s-54 185 -160 185c-103 0 -154 -81 -154 -181s52 -185 157 -185z" />
    <glyph glyph-name="r" unicode="r" horiz-adv-x="349" 
d="M297 509h42v-74h-42c-82 0 -146 -44 -146 -137v-298h-76v506h76v-60c33 45 81 63 146 63z" />
    <glyph glyph-name="s" unicode="s" horiz-adv-x="461" 
d="M261 283c78 -17 165 -34 165 -137s-85 -152 -182 -152c-87 0 -199 39 -199 166c0 7 0 14 1 22h74c-1 -6 -1 -8 -1 -11c0 -80 62 -104 126 -104c67 0 105 28 105 72c0 49 -48 62 -109 76c-80 18 -174 39 -174 145c0 98 77 155 171 155c67 0 132 -30 165 -93l-65 -42
c-19 42 -63 62 -105 62c-57 0 -90 -31 -90 -76c0 -57 58 -70 118 -83z" />
    <glyph glyph-name="t" unicode="t" horiz-adv-x="369" 
d="M261 75h83v-75h-89c-94 0 -142 63 -142 161v273h-103v72h103v128h76v-128h2c54 0 95 3 142 11l10 -70c-51 -9 -97 -13 -154 -13v-269c0 -59 21 -90 72 -90z" />
    <glyph glyph-name="u" unicode="u" 
d="M407 506h77v-506h-77v61c-33 -48 -82 -67 -153 -67c-115 0 -184 77 -184 178v334h77v-334c0 -62 42 -103 114 -103c92 0 146 56 146 137v300z" />
    <glyph glyph-name="v" unicode="v" horiz-adv-x="508" 
d="M409 506h84l-194 -506h-90l-194 506h84l155 -419z" />
    <glyph glyph-name="w" unicode="w" horiz-adv-x="795" 
d="M697 506h83l-166 -506h-90l-126 399l-127 -399h-90l-166 506h83l128 -409l125 409h93l125 -409z" />
    <glyph glyph-name="x" unicode="x" horiz-adv-x="505" 
d="M485 506l-187 -253l187 -253h-98l-134 191l-135 -191h-98l187 253l-187 253h98l135 -192l134 192h98z" />
    <glyph glyph-name="y" unicode="y" horiz-adv-x="498" 
d="M401 506h82l-202 -556c-35 -96 -67 -142 -162 -142h-69v74h55c52 0 79 16 99 73l12 35l-201 516h88l151 -411z" />
    <glyph glyph-name="z" unicode="z" horiz-adv-x="489" 
d="M454 73v-73h-397v72l283 361h-90c-85 0 -147 2 -215 12l11 71c75 -13 175 -10 220 -10h163v-72l-279 -361h304z" />
    <glyph glyph-name="Aacute" unicode="&#xc1;" horiz-adv-x="716" 
d="M537 878c-50 -77 -132 -111 -245 -111v65c85 0 149 29 188 87zM601 0l-75 188h-336l-75 -188h-90l289 700h88l289 -700h-90zM222 267h272l-136 342z" />
    <glyph glyph-name="Abreve" unicode="&#x102;" horiz-adv-x="716" 
d="M356 776c-69 0 -105 47 -105 104c0 22 6 45 16 67l58 -24c-9 -15 -12 -30 -12 -42c0 -26 17 -44 43 -44c27 0 44 18 44 44c0 12 -3 27 -12 42l58 24c10 -22 16 -45 16 -67c0 -57 -37 -104 -106 -104zM601 0l-75 188h-336l-75 -188h-90l289 700h88l289 -700h-90zM222 267
h272l-136 342z" />
    <glyph glyph-name="Acircumflex" unicode="&#xc2;" horiz-adv-x="716" 
d="M355 860l-67 -84h-80l120 152h55l121 -152h-80zM601 0l-75 188h-336l-75 -188h-90l289 700h88l289 -700h-90zM222 267h272l-136 342z" />
    <glyph glyph-name="Adieresis" unicode="&#xc4;" horiz-adv-x="716" 
d="M309 874v-98h-87v98h87zM494 874v-98h-86v98h86zM601 0l-75 188h-336l-75 -188h-90l289 700h88l289 -700h-90zM222 267h272l-136 342z" />
    <glyph glyph-name="Agrave" unicode="&#xc0;" horiz-adv-x="716" 
d="M438 767c-113 0 -195 34 -245 111l57 41c39 -58 103 -87 188 -87v-65zM601 0l-75 188h-336l-75 -188h-90l289 700h88l289 -700h-90zM222 267h272l-136 342z" />
    <glyph glyph-name="Amacron" unicode="&#x100;" horiz-adv-x="716" 
d="M505 840v-63h-298v63h298zM601 0l-75 188h-336l-75 -188h-90l289 700h88l289 -700h-90zM222 267h272l-136 342z" />
    <glyph glyph-name="Aogonek" unicode="&#x104;" horiz-adv-x="730" 
d="M629 -47c0 -39 39 -57 76 -59v-58c-71 6 -132 50 -132 107c0 25 11 45 27 58l-74 187h-336l-75 -188h-90l289 700h88l289 -700h-40c-12 -12 -22 -26 -22 -47zM222 267h272l-136 342z" />
    <glyph glyph-name="Aring" unicode="&#xc5;" horiz-adv-x="716" 
d="M356 763c-52 0 -92 39 -92 94c0 56 40 93 92 93c55 0 96 -37 96 -93c0 -55 -41 -94 -96 -94zM357 905c-30 0 -45 -21 -45 -48c0 -28 15 -49 45 -49s47 21 47 49c0 27 -17 48 -47 48zM601 0l-75 188h-336l-75 -188h-90l289 700h88l289 -700h-90zM222 267h272l-136 342z
" />
    <glyph glyph-name="Atilde" unicode="&#xc3;" horiz-adv-x="716" 
d="M297 821c-23 0 -34 -20 -37 -47h-61c5 77 42 122 93 122c54 0 92 -53 132 -53c25 0 33 23 36 50h61c0 -85 -43 -122 -89 -122c-54 0 -99 50 -135 50zM601 0l-75 188h-336l-75 -188h-90l289 700h88l289 -700h-90zM222 267h272l-136 342z" />
    <glyph glyph-name="AE" unicode="&#xc6;" horiz-adv-x="983" 
d="M578 312v-234h358v-78h-439v213h-278l-100 -213h-94l341 700h362c79 0 146 4 203 15l12 -79c-73 -15 -152 -15 -215 -15h-150v-231h307v-78h-307zM255 290h242v336h-84z" />
    <glyph glyph-name="uni1E02" unicode="&#x1e02;" horiz-adv-x="627" 
d="M237 776v92h87v-92h-87zM473 366c60 -31 104 -85 104 -168c0 -107 -74 -198 -221 -198h-271v700h280c123 0 188 -84 188 -182c0 -69 -32 -120 -80 -152zM165 403h190c75 0 115 48 115 112c0 65 -43 106 -119 106h-186v-218zM348 78c97 0 145 58 145 129
c0 68 -45 119 -135 119h-193v-248h183z" />
    <glyph glyph-name="Cacute" unicode="&#x106;" horiz-adv-x="731" 
d="M565 878c-50 -77 -132 -111 -245 -111v65c85 0 149 29 188 87zM582 499c-31 84 -115 131 -207 131c-125 0 -242 -87 -242 -278c0 -153 73 -282 251 -282c129 0 219 68 219 193c0 13 -1 29 -4 46h81c1 -11 2 -21 2 -37c0 -173 -111 -283 -298 -283
c-230 0 -334 165 -334 364c0 243 160 358 327 358c124 0 244 -64 284 -180z" />
    <glyph glyph-name="Ccaron" unicode="&#x10c;" horiz-adv-x="731" 
d="M449 919h80l-121 -152h-55l-120 152h80l67 -84zM582 499c-31 84 -115 131 -207 131c-125 0 -242 -87 -242 -278c0 -153 73 -282 251 -282c129 0 219 68 219 193c0 13 -1 29 -4 46h81c1 -11 2 -21 2 -37c0 -173 -111 -283 -298 -283c-230 0 -334 165 -334 364
c0 243 160 358 327 358c124 0 244 -64 284 -180z" />
    <glyph glyph-name="Ccedilla" unicode="&#xc7;" horiz-adv-x="731" 
d="M682 272c0 -171 -108 -280 -291 -283v-30c60 -2 102 -31 102 -77c0 -48 -40 -85 -100 -85c-43 0 -79 14 -106 37l30 46c24 -20 46 -30 72 -30c28 0 44 14 44 34c0 22 -27 45 -91 45l10 61c-208 15 -302 174 -302 363c0 243 160 358 327 358c124 0 244 -64 284 -180
l-79 -32c-31 84 -115 131 -207 131c-125 0 -242 -87 -242 -278c0 -153 73 -282 251 -282c129 0 219 68 219 193c0 13 -1 29 -4 46h81c1 -11 2 -21 2 -37z" />
    <glyph glyph-name="Ccircumflex" unicode="&#x108;" horiz-adv-x="731" 
d="M456 776l-69 84l-67 -84h-80l120 152h55l121 -152h-80zM582 499c-31 84 -115 131 -207 131c-125 0 -242 -87 -242 -278c0 -153 73 -282 251 -282c129 0 219 68 219 193c0 13 -1 29 -4 46h81c1 -11 2 -21 2 -37c0 -173 -111 -283 -298 -283c-230 0 -334 165 -334 364
c0 243 160 358 327 358c124 0 244 -64 284 -180z" />
    <glyph glyph-name="Cdotaccent" unicode="&#x10a;" horiz-adv-x="731" 
d="M344 776v92h87v-92h-87zM582 499c-31 84 -115 131 -207 131c-125 0 -242 -87 -242 -278c0 -153 73 -282 251 -282c129 0 219 68 219 193c0 13 -1 29 -4 46h81c1 -11 2 -21 2 -37c0 -173 -111 -283 -298 -283c-230 0 -334 165 -334 364c0 243 160 358 327 358
c124 0 244 -64 284 -180z" />
    <glyph glyph-name="Eth" unicode="&#xd0;" horiz-adv-x="702" 
d="M301 700c258 0 351 -164 351 -344c0 -188 -101 -356 -364 -356h-204v321h-94v77h94v302h217zM296 78c203 0 273 132 273 277c0 139 -65 266 -264 266h-140v-223h178v-77h-178v-243h131z" />
    <glyph glyph-name="Dcaron" unicode="&#x10e;" horiz-adv-x="703" 
d="M346 919h80l-121 -152h-55l-120 152h80l67 -84zM302 700c258 0 351 -164 351 -344c0 -188 -101 -356 -364 -356h-204v700h217zM297 78c203 0 273 132 273 277c0 139 -65 266 -264 266h-140v-543h131z" />
    <glyph glyph-name="Dcroat" unicode="&#x110;" horiz-adv-x="702" 
d="M301 700c258 0 351 -164 351 -344c0 -188 -101 -356 -364 -356h-204v321h-94v77h94v302h217zM296 78c203 0 273 132 273 277c0 139 -65 266 -264 266h-140v-223h178v-77h-178v-243h131z" />
    <glyph glyph-name="uni1E0A" unicode="&#x1e0a;" horiz-adv-x="703" 
d="M209 776v92h87v-92h-87zM302 700c258 0 351 -164 351 -344c0 -188 -101 -356 -364 -356h-204v700h217zM297 78c203 0 273 132 273 277c0 139 -65 266 -264 266h-140v-543h131z" />
    <glyph glyph-name="Eacute" unicode="&#xc9;" horiz-adv-x="571" 
d="M469 878c-50 -77 -132 -111 -245 -111v65c85 0 149 29 188 87zM166 78h358v-78h-439v700h231c79 0 146 4 203 15l12 -79c-73 -15 -152 -15 -215 -15h-150v-231h307v-78h-307v-234z" />
    <glyph glyph-name="Ebreve" unicode="&#x114;" horiz-adv-x="571" 
d="M377 947c10 -22 16 -45 16 -67c0 -57 -37 -104 -106 -104s-105 47 -105 104c0 22 6 45 16 67l58 -24c-9 -15 -12 -30 -12 -42c0 -26 17 -44 43 -44c27 0 44 18 44 44c0 12 -3 27 -12 42zM166 78h358v-78h-439v700h231c79 0 146 4 203 15l12 -79
c-73 -15 -152 -15 -215 -15h-150v-231h307v-78h-307v-234z" />
    <glyph glyph-name="Ecaron" unicode="&#x11a;" horiz-adv-x="571" 
d="M374 919h80l-121 -152h-55l-120 152h80l67 -84zM166 78h358v-78h-439v700h231c79 0 146 4 203 15l12 -79c-73 -15 -152 -15 -215 -15h-150v-231h307v-78h-307v-234z" />
    <glyph glyph-name="Ecircumflex" unicode="&#xca;" horiz-adv-x="571" 
d="M361 776l-69 84l-67 -84h-80l120 152h55l121 -152h-80zM166 78h358v-78h-439v700h231c79 0 146 4 203 15l12 -79c-73 -15 -152 -15 -215 -15h-150v-231h307v-78h-307v-234z" />
    <glyph glyph-name="Edieresis" unicode="&#xcb;" horiz-adv-x="571" 
d="M238 776v98h-87v-98h87zM423 776v98h-86v-98h86zM166 78h358v-78h-439v700h231c79 0 146 4 203 15l12 -79c-73 -15 -152 -15 -215 -15h-150v-231h307v-78h-307v-234z" />
    <glyph glyph-name="Edotaccent" unicode="&#x116;" horiz-adv-x="571" 
d="M260 776v92h87v-92h-87zM166 78h358v-78h-439v700h231c79 0 146 4 203 15l12 -79c-73 -15 -152 -15 -215 -15h-150v-231h307v-78h-307v-234z" />
    <glyph glyph-name="Egrave" unicode="&#xc8;" horiz-adv-x="571" 
d="M134 878l57 41c39 -58 103 -87 188 -87v-65c-113 0 -195 34 -245 111zM166 78h358v-78h-439v700h231c79 0 146 4 203 15l12 -79c-73 -15 -152 -15 -215 -15h-150v-231h307v-78h-307v-234z" />
    <glyph glyph-name="Emacron" unicode="&#x112;" horiz-adv-x="571" 
d="M444 777h-298v63h298v-63zM166 78h358v-78h-439v700h231c79 0 146 4 203 15l12 -79c-73 -15 -152 -15 -215 -15h-150v-231h307v-78h-307v-234z" />
    <glyph glyph-name="Eogonek" unicode="&#x118;" horiz-adv-x="571" 
d="M166 312v-234h358v-78h-57c-12 -12 -22 -26 -22 -47c0 -39 39 -57 76 -59v-58c-71 6 -132 50 -132 107c0 24 11 44 26 57h-330v700h231c79 0 146 4 203 15l12 -79c-73 -15 -152 -15 -215 -15h-150v-231h307v-78h-307z" />
    <glyph glyph-name="uni1E1E" unicode="&#x1e1e;" horiz-adv-x="541" 
d="M256 776v92h87v-92h-87zM473 312h-307v-312h-81v700h231c79 0 146 4 203 15l12 -79c-73 -15 -152 -15 -215 -15h-150v-231h307v-78z" />
    <glyph glyph-name="Gbreve" unicode="&#x11e;" horiz-adv-x="750" 
d="M480 947c10 -22 16 -45 16 -67c0 -57 -37 -104 -106 -104s-105 47 -105 104c0 22 6 45 16 67l58 -24c-9 -15 -12 -30 -12 -42c0 -26 17 -44 43 -44c27 0 44 18 44 44c0 12 -3 27 -12 42zM582 499c-30 83 -114 131 -208 131c-124 0 -241 -86 -241 -278
c0 -152 76 -282 246 -282c105 0 205 62 216 199h-55c-62 0 -139 0 -211 15l12 76c56 -10 121 -15 199 -15h135v-345h-80v95c-46 -74 -133 -106 -219 -106c-224 0 -326 171 -326 362c0 246 160 360 327 360c124 0 244 -64 284 -180z" />
    <glyph glyph-name="Gcircumflex" unicode="&#x11c;" horiz-adv-x="750" 
d="M446 776l-69 84l-67 -84h-80l120 152h55l121 -152h-80zM582 499c-30 83 -114 131 -208 131c-124 0 -241 -86 -241 -278c0 -152 76 -282 246 -282c105 0 205 62 216 199h-55c-62 0 -139 0 -211 15l12 76c56 -10 121 -15 199 -15h135v-345h-80v95
c-46 -74 -133 -106 -219 -106c-224 0 -326 171 -326 362c0 246 160 360 327 360c124 0 244 -64 284 -180z" />
    <glyph glyph-name="Gcommaaccent" unicode="&#x122;" horiz-adv-x="750" 
d="M582 499c-30 83 -114 131 -208 131c-124 0 -241 -86 -241 -278c0 -152 76 -282 246 -282c105 0 205 62 216 199h-55c-62 0 -139 0 -211 15l12 76c56 -10 121 -15 199 -15h135v-345h-80v95c-46 -74 -133 -106 -219 -106c-224 0 -326 171 -326 362c0 246 160 360 327 360
c124 0 244 -64 284 -180zM342 -75h78c0 -131 -34 -213 -158 -262l-32 68c87 37 112 85 112 194z" />
    <glyph glyph-name="Gdotaccent" unicode="&#x120;" horiz-adv-x="750" 
d="M346 776v92h87v-92h-87zM582 499c-30 83 -114 131 -208 131c-124 0 -241 -86 -241 -278c0 -152 76 -282 246 -282c105 0 205 62 216 199h-55c-62 0 -139 0 -211 15l12 76c56 -10 121 -15 199 -15h135v-345h-80v95c-46 -74 -133 -106 -219 -106c-224 0 -326 171 -326 362
c0 246 160 360 327 360c124 0 244 -64 284 -180z" />
    <glyph glyph-name="Hbar" unicode="&#x126;" horiz-adv-x="757" 
d="M747 542v-50h-87v-492h-81v313h-378v-313h-81v492h-110v50h110v158h81v-158h378v158h81v-158h87zM579 392v100h-378v-100h378z" />
    <glyph glyph-name="Hcircumflex" unicode="&#x124;" horiz-adv-x="710" 
d="M418 776l-69 84l-67 -84h-80l120 152h55l121 -152h-80zM544 700h81v-700h-81v313h-378v-313h-81v700h81v-308h378v308z" />
    <glyph glyph-name="IJ" unicode="&#x132;" horiz-adv-x="767" 
d="M692 700v-514c0 -113 -68 -197 -203 -197c-118 0 -210 65 -210 188c0 11 0 21 2 36h80c-1 -10 -2 -18 -2 -28c0 -76 51 -115 129 -115c90 0 123 50 123 110v441h-68c-63 0 -142 0 -215 15l12 79c57 -11 124 -15 203 -15h149zM166 0h-81v700h81v-700z" />
    <glyph glyph-name="Iacute" unicode="&#xcd;" horiz-adv-x="257" 
d="M305 878c-50 -77 -132 -111 -245 -111v65c85 0 149 29 188 87zM175 0h-81v700h81v-700z" />
    <glyph glyph-name="Icircumflex" unicode="&#xce;" horiz-adv-x="236" 
d="M186 776l-69 84l-67 -84h-80l120 152h55l121 -152h-80zM164 0h-81v700h81v-700z" />
    <glyph glyph-name="Idieresis" unicode="&#xcf;" horiz-adv-x="212" 
d="M57 776v98h-87v-98h87zM242 776v98h-86v-98h86zM152 0h-81v700h81v-700z" />
    <glyph glyph-name="Idotaccent" unicode="&#x130;" horiz-adv-x="260" 
d="M88 776v92h87v-92h-87zM175 0h-81v700h81v-700z" />
    <glyph glyph-name="Igrave" unicode="&#xcc;" horiz-adv-x="260" 
d="M-35 878l57 41c39 -58 103 -87 188 -87v-65c-113 0 -195 34 -245 111zM185 0h-81v700h81v-700z" />
    <glyph glyph-name="Imacron" unicode="&#x12a;" horiz-adv-x="238" 
d="M268 777h-298v63h298v-63zM165 0h-81v700h81v-700z" />
    <glyph glyph-name="Iogonek" unicode="&#x12e;" horiz-adv-x="302" 
d="M141 -47c0 -39 39 -57 76 -59v-58c-71 6 -132 50 -132 107c0 29 15 51 35 64h3v693h81v-700h-41c-12 -12 -22 -26 -22 -47z" />
    <glyph glyph-name="Itilde" unicode="&#x128;" horiz-adv-x="234" 
d="M282 893c0 -85 -43 -122 -89 -122c-54 0 -99 50 -135 50c-23 0 -34 -20 -37 -47h-61c5 77 42 122 93 122c54 0 92 -53 132 -53c25 0 33 23 36 50h61zM164 0h-81v700h81v-700z" />
    <glyph glyph-name="Jcircumflex" unicode="&#x134;" horiz-adv-x="516" 
d="M343 776l-69 84l-67 -84h-80l120 152h55l121 -152h-80zM441 700v-514c0 -113 -68 -197 -203 -197c-118 0 -210 65 -210 188c0 11 0 21 2 36h80c-1 -10 -2 -18 -2 -28c0 -76 51 -115 129 -115c90 0 123 50 123 110v441h-68c-63 0 -142 0 -215 15l12 79
c57 -11 124 -15 203 -15h149z" />
    <glyph glyph-name="Kcommaaccent" unicode="&#x136;" horiz-adv-x="643" 
d="M348 425l280 -425h-106l-235 358l-121 -131v-227h-81v700h81v-357l322 357h110zM280 -75h78c0 -131 -34 -213 -158 -262l-32 68c87 37 112 85 112 194z" />
    <glyph glyph-name="Lacute" unicode="&#x139;" horiz-adv-x="501" 
d="M338 878c-50 -77 -132 -111 -245 -111v65c85 0 149 29 188 87zM476 78v-78h-391v700h81v-622h310z" />
    <glyph glyph-name="Lcaron" unicode="&#x13d;" horiz-adv-x="555" 
d="M452 711h78c0 -131 -34 -213 -158 -262l-32 68c87 37 112 85 112 194zM476 78v-78h-391v700h81v-622h310z" />
    <glyph glyph-name="Lcommaaccent" unicode="&#x13b;" horiz-adv-x="501" 
d="M476 78v-78h-391v700h81v-622h310zM223 -74h78c0 -131 -34 -213 -158 -262l-32 68c87 37 112 85 112 194z" />
    <glyph glyph-name="Ldot" unicode="&#x13f;" horiz-adv-x="501" 
d="M476 78v-78h-391v700h81v-622h310zM386 395v92h87v-92h-87z" />
    <glyph glyph-name="Lslash" unicode="&#x141;" horiz-adv-x="605" 
d="M270 78h310v-78h-391v257l-104 -55v63l104 55v380h81v-338l206 108v-62l-206 -109v-221z" />
    <glyph glyph-name="uni1E40" unicode="&#x1e40;" horiz-adv-x="866" 
d="M390 776v92h87v-92h-87zM671 700h110v-700h-79v558l-224 -558h-89l-224 558v-558h-80v700h110l238 -609z" />
    <glyph glyph-name="Nacute" unicode="&#x143;" horiz-adv-x="736" 
d="M546 878c-50 -77 -132 -111 -245 -111v65c85 0 149 29 188 87zM570 700h81v-700h-88l-397 569v-569h-81v700h88l397 -568v568z" />
    <glyph glyph-name="Ncaron" unicode="&#x147;" horiz-adv-x="736" 
d="M431 919h80l-121 -152h-55l-120 152h80l67 -84zM570 700h81v-700h-88l-397 569v-569h-81v700h88l397 -568v568z" />
    <glyph glyph-name="Ncommaaccent" unicode="&#x145;" horiz-adv-x="736" 
d="M570 700h81v-700h-88l-397 569v-569h-81v700h88l397 -568v568zM306 -75h78c0 -131 -34 -213 -158 -262l-32 68c87 37 112 85 112 194z" />
    <glyph glyph-name="Eng" unicode="&#x14a;" horiz-adv-x="736" 
d="M571 700h80v-760c0 -92 -53 -151 -138 -151h-57v75h55c43 0 63 24 63 76v44l-409 588v-572h-80v700h88l398 -571v571z" />
    <glyph glyph-name="Ntilde" unicode="&#xd1;" horiz-adv-x="736" 
d="M538 893c0 -85 -43 -122 -89 -122c-54 0 -99 50 -135 50c-23 0 -34 -20 -37 -47h-61c5 77 42 122 93 122c54 0 92 -53 132 -53c25 0 33 23 36 50h61zM570 700h81v-700h-88l-397 569v-569h-81v700h88l397 -568v568z" />
    <glyph glyph-name="Oacute" unicode="&#xd3;" horiz-adv-x="753" 
d="M579 878c-50 -77 -132 -111 -245 -111v65c85 0 149 29 188 87zM376 711c230 0 327 -183 327 -361s-97 -361 -327 -361c-229 0 -326 183 -326 361s97 361 326 361zM376 70c149 0 244 103 244 280s-95 280 -244 280c-148 0 -243 -103 -243 -280s95 -280 243 -280z" />
    <glyph glyph-name="Obreve" unicode="&#x14e;" horiz-adv-x="753" 
d="M463 947c10 -22 16 -45 16 -67c0 -57 -37 -104 -106 -104s-105 47 -105 104c0 22 6 45 16 67l58 -24c-9 -15 -12 -30 -12 -42c0 -26 17 -44 43 -44c27 0 44 18 44 44c0 12 -3 27 -12 42zM376 711c230 0 327 -183 327 -361s-97 -361 -327 -361c-229 0 -326 183 -326 361
s97 361 326 361zM376 70c149 0 244 103 244 280s-95 280 -244 280c-148 0 -243 -103 -243 -280s95 -280 243 -280z" />
    <glyph glyph-name="Ocircumflex" unicode="&#xd4;" horiz-adv-x="753" 
d="M442 776l-69 84l-67 -84h-80l120 152h55l121 -152h-80zM376 711c230 0 327 -183 327 -361s-97 -361 -327 -361c-229 0 -326 183 -326 361s97 361 326 361zM376 70c149 0 244 103 244 280s-95 280 -244 280c-148 0 -243 -103 -243 -280s95 -280 243 -280z" />
    <glyph glyph-name="Odieresis" unicode="&#xd6;" horiz-adv-x="753" 
d="M324 776v98h-87v-98h87zM509 776v98h-86v-98h86zM376 711c230 0 327 -183 327 -361s-97 -361 -327 -361c-229 0 -326 183 -326 361s97 361 326 361zM376 70c149 0 244 103 244 280s-95 280 -244 280c-148 0 -243 -103 -243 -280s95 -280 243 -280z" />
    <glyph glyph-name="Ograve" unicode="&#xd2;" horiz-adv-x="753" 
d="M212 878l57 41c39 -58 103 -87 188 -87v-65c-113 0 -195 34 -245 111zM376 711c230 0 327 -183 327 -361s-97 -361 -327 -361c-229 0 -326 183 -326 361s97 361 326 361zM376 70c149 0 244 103 244 280s-95 280 -244 280c-148 0 -243 -103 -243 -280s95 -280 243 -280z
" />
    <glyph glyph-name="Ohungarumlaut" unicode="&#x150;" horiz-adv-x="753" 
d="M372 935l48 -41l-99 -118l-47 40zM500 934l48 -40l-100 -118l-47 40zM376 711c230 0 327 -183 327 -361s-97 -361 -327 -361c-229 0 -326 183 -326 361s97 361 326 361zM376 70c149 0 244 103 244 280s-95 280 -244 280c-148 0 -243 -103 -243 -280s95 -280 243 -280z
" />
    <glyph glyph-name="Omacron" unicode="&#x14c;" horiz-adv-x="753" 
d="M523 777h-298v63h298v-63zM376 711c230 0 327 -183 327 -361s-97 -361 -327 -361c-229 0 -326 183 -326 361s97 361 326 361zM376 70c149 0 244 103 244 280s-95 280 -244 280c-148 0 -243 -103 -243 -280s95 -280 243 -280z" />
    <glyph glyph-name="Oslash" unicode="&#xd8;" horiz-adv-x="753" 
d="M519 682c128 -58 184 -197 184 -332c0 -178 -97 -361 -327 -361c-38 0 -73 5 -104 14l-34 -93h-50l40 111c-124 59 -178 196 -178 329c0 178 97 361 326 361c36 0 69 -4 98 -13l34 93h50zM133 350c0 -123 46 -210 123 -252l190 523c-21 6 -45 9 -70 9
c-148 0 -243 -103 -243 -280zM376 70c149 0 244 103 244 280c0 126 -48 214 -130 255l-190 -525c23 -7 49 -10 76 -10z" />
    <glyph glyph-name="Otilde" unicode="&#xd5;" horiz-adv-x="753" 
d="M534 893c0 -85 -43 -122 -89 -122c-54 0 -99 50 -135 50c-23 0 -34 -20 -37 -47h-61c5 77 42 122 93 122c54 0 92 -53 132 -53c25 0 33 23 36 50h61zM376 711c230 0 327 -183 327 -361s-97 -361 -327 -361c-229 0 -326 183 -326 361s97 361 326 361zM376 70
c149 0 244 103 244 280s-95 280 -244 280c-148 0 -243 -103 -243 -280s95 -280 243 -280z" />
    <glyph glyph-name="OE" unicode="&#x152;" horiz-adv-x="1083" 
d="M702 312c-7 -88 -38 -173 -98 -234h432v-78h-568c-28 -7 -59 -11 -92 -11c-229 0 -326 183 -326 361s97 361 326 361c33 0 64 -4 92 -11h360c79 0 146 4 203 15l12 -79c-74 -15 -152 -15 -215 -15h-223c59 -60 89 -145 96 -231h284v-78h-283zM133 350
c0 -177 95 -280 243 -280c149 0 244 103 244 280s-95 280 -244 280c-148 0 -243 -103 -243 -280z" />
    <glyph glyph-name="uni1E56" unicode="&#x1e56;" horiz-adv-x="602" 
d="M237 776v92h87v-92h-87zM334 700c159 0 238 -88 238 -206s-79 -210 -238 -210h-168v-284h-81v700h249zM338 362c101 0 151 56 151 130s-50 129 -151 129h-172v-259h172z" />
    <glyph glyph-name="Thorn" unicode="&#xde;" horiz-adv-x="602" 
d="M334 606c127 0 238 -55 238 -206c0 -135 -111 -210 -238 -210h-169v-190h-80v700h80v-94h169zM333 269c61 0 156 23 156 131c0 101 -95 128 -156 128h-168v-259h168z" />
    <glyph glyph-name="Racute" unicode="&#x154;" horiz-adv-x="624" 
d="M473 878c-50 -77 -132 -111 -245 -111v65c85 0 149 29 188 87zM512 0l-161 302h-185v-302h-81v700h248c126 0 239 -48 239 -193c0 -104 -57 -162 -136 -187l173 -320h-97zM166 621v-240h181c94 0 142 52 142 121c0 70 -51 119 -143 119h-180z" />
    <glyph glyph-name="Rcaron" unicode="&#x158;" horiz-adv-x="624" 
d="M362 919h80l-121 -152h-55l-120 152h80l67 -84zM512 0l-161 302h-185v-302h-81v700h248c126 0 239 -48 239 -193c0 -104 -57 -162 -136 -187l173 -320h-97zM166 621v-240h181c94 0 142 52 142 121c0 70 -51 119 -143 119h-180z" />
    <glyph glyph-name="Rcommaaccent" unicode="&#x156;" horiz-adv-x="624" 
d="M512 0l-161 302h-185v-302h-81v700h248c126 0 239 -48 239 -193c0 -104 -57 -162 -136 -187l173 -320h-97zM166 621v-240h181c94 0 142 52 142 121c0 70 -51 119 -143 119h-180zM258 -75h78c0 -131 -34 -213 -158 -262l-32 68c87 37 112 85 112 194z" />
    <glyph glyph-name="Sacute" unicode="&#x15a;" horiz-adv-x="582" 
d="M509 878c-50 -77 -132 -111 -245 -111v65c85 0 149 29 188 87zM537 196c0 -141 -109 -207 -231 -207c-131 0 -261 78 -261 223c0 9 0 27 2 41h85c-2 -15 -2 -32 -2 -38c0 -95 90 -145 179 -145c80 0 145 40 145 118c0 89 -79 107 -165 128c-99 25 -210 53 -210 194
c0 124 85 201 215 201c99 0 179 -48 215 -122l-75 -41c-27 50 -85 81 -148 80c-71 -1 -125 -43 -125 -111c0 -90 80 -108 166 -129c101 -24 210 -50 210 -192z" />
    <glyph glyph-name="Scaron" unicode="&#x160;" horiz-adv-x="582" 
d="M377 919h80l-121 -152h-55l-120 152h80l67 -84zM537 196c0 -141 -109 -207 -231 -207c-131 0 -261 78 -261 223c0 9 0 27 2 41h85c-2 -15 -2 -32 -2 -38c0 -95 90 -145 179 -145c80 0 145 40 145 118c0 89 -79 107 -165 128c-99 25 -210 53 -210 194
c0 124 85 201 215 201c99 0 179 -48 215 -122l-75 -41c-27 50 -85 81 -148 80c-71 -1 -125 -43 -125 -111c0 -90 80 -108 166 -129c101 -24 210 -50 210 -192z" />
    <glyph glyph-name="Scedilla" unicode="&#x15e;" horiz-adv-x="582" 
d="M537 196c0 -134 -98 -200 -213 -207v-30c60 -2 102 -31 102 -77c0 -48 -40 -85 -100 -85c-43 0 -79 14 -106 37l30 46c24 -20 46 -30 72 -30c28 0 44 14 44 34c0 22 -27 45 -91 45l9 61c-123 8 -239 85 -239 222c0 9 0 27 2 41h85c-2 -15 -2 -32 -2 -38
c0 -95 90 -145 179 -145c80 0 145 40 145 118c0 89 -79 107 -165 128c-99 25 -210 53 -210 194c0 124 85 201 215 201c99 0 179 -48 215 -122l-75 -41c-27 50 -85 81 -148 80c-71 -1 -125 -43 -125 -111c0 -90 80 -108 166 -129c101 -24 210 -50 210 -192z" />
    <glyph glyph-name="Scircumflex" unicode="&#x15c;" horiz-adv-x="582" 
d="M373 776l-69 84l-67 -84h-80l120 152h55l121 -152h-80zM537 196c0 -141 -109 -207 -231 -207c-131 0 -261 78 -261 223c0 9 0 27 2 41h85c-2 -15 -2 -32 -2 -38c0 -95 90 -145 179 -145c80 0 145 40 145 118c0 89 -79 107 -165 128c-99 25 -210 53 -210 194
c0 124 85 201 215 201c99 0 179 -48 215 -122l-75 -41c-27 50 -85 81 -148 80c-71 -1 -125 -43 -125 -111c0 -90 80 -108 166 -129c101 -24 210 -50 210 -192z" />
    <glyph glyph-name="Scommaaccent" unicode="&#x218;" horiz-adv-x="582" 
d="M537 196c0 -141 -109 -207 -231 -207c-131 0 -261 78 -261 223c0 9 0 27 2 41h85c-2 -15 -2 -32 -2 -38c0 -95 90 -145 179 -145c80 0 145 40 145 118c0 89 -79 107 -165 128c-99 25 -210 53 -210 194c0 124 85 201 215 201c99 0 179 -48 215 -122l-75 -41
c-27 50 -85 81 -148 80c-71 -1 -125 -43 -125 -111c0 -90 80 -108 166 -129c101 -24 210 -50 210 -192zM270 -74h78c0 -131 -34 -213 -158 -262l-32 68c87 37 112 85 112 194z" />
    <glyph glyph-name="uni1E60" unicode="&#x1e60;" horiz-adv-x="582" 
d="M262 776v92h87v-92h-87zM537 196c0 -141 -109 -207 -231 -207c-131 0 -261 78 -261 223c0 9 0 27 2 41h85c-2 -15 -2 -32 -2 -38c0 -95 90 -145 179 -145c80 0 145 40 145 118c0 89 -79 107 -165 128c-99 25 -210 53 -210 194c0 124 85 201 215 201
c99 0 179 -48 215 -122l-75 -41c-27 50 -85 81 -148 80c-71 -1 -125 -43 -125 -111c0 -90 80 -108 166 -129c101 -24 210 -50 210 -192z" />
    <glyph glyph-name="Tbar" unicode="&#x166;" horiz-adv-x="596" 
d="M333 621v-172h169v-51h-169v-398h-81v398h-180v51h180v172h-237v79h351c79 0 146 4 203 15l12 -79c-73 -15 -152 -15 -215 -15h-33z" />
    <glyph glyph-name="Tcaron" unicode="&#x164;" horiz-adv-x="596" 
d="M361 919h80l-121 -152h-55l-120 152h80l67 -84zM569 715l12 -79c-73 -15 -152 -15 -215 -15h-33v-621h-81v621h-237v79h351c79 0 146 4 203 15z" />
    <glyph glyph-name="uni0162" unicode="&#x162;" horiz-adv-x="596" 
d="M294 0c-12 -12 -22 -26 -22 -47c0 -39 39 -57 76 -59v-58c-71 6 -132 50 -132 107c0 29 15 51 35 64h1v614h-237v79h351c79 0 146 4 203 15l12 -79c-73 -15 -152 -15 -215 -15h-33v-621h-39z" />
    <glyph glyph-name="uni021A" unicode="&#x21a;" horiz-adv-x="596" 
d="M569 715l12 -79c-73 -15 -152 -15 -215 -15h-33v-621h-81v621h-237v79h351c79 0 146 4 203 15zM251 -75h78c0 -131 -34 -213 -158 -262l-32 68c87 37 112 85 112 194z" />
    <glyph glyph-name="uni1E6A" unicode="&#x1e6a;" horiz-adv-x="596" 
d="M248 776v92h87v-92h-87zM569 715l12 -79c-73 -15 -152 -15 -215 -15h-33v-621h-81v621h-237v79h351c79 0 146 4 203 15z" />
    <glyph glyph-name="Uacute" unicode="&#xda;" horiz-adv-x="680" 
d="M485 878c-50 -77 -132 -111 -245 -111v65c85 0 149 29 188 87zM605 700v-441c0 -185 -104 -270 -265 -270s-265 85 -265 270v441h81v-441c0 -123 57 -189 184 -189s184 66 184 189v441h81z" />
    <glyph glyph-name="Ubreve" unicode="&#x16c;" horiz-adv-x="680" 
d="M425 947c10 -22 16 -45 16 -67c0 -57 -37 -104 -106 -104s-105 47 -105 104c0 22 6 45 16 67l58 -24c-9 -15 -12 -30 -12 -42c0 -26 17 -44 43 -44c27 0 44 18 44 44c0 12 -3 27 -12 42zM605 700v-441c0 -185 -104 -270 -265 -270s-265 85 -265 270v441h81v-441
c0 -123 57 -189 184 -189s184 66 184 189v441h81z" />
    <glyph glyph-name="Ucircumflex" unicode="&#xdb;" horiz-adv-x="680" 
d="M404 776l-69 84l-67 -84h-80l120 152h55l121 -152h-80zM605 700v-441c0 -185 -104 -270 -265 -270s-265 85 -265 270v441h81v-441c0 -123 57 -189 184 -189s184 66 184 189v441h81z" />
    <glyph glyph-name="Udieresis" unicode="&#xdc;" horiz-adv-x="680" 
d="M291 776v98h-87v-98h87zM476 776v98h-86v-98h86zM605 700v-441c0 -185 -104 -270 -265 -270s-265 85 -265 270v441h81v-441c0 -123 57 -189 184 -189s184 66 184 189v441h81z" />
    <glyph glyph-name="Ugrave" unicode="&#xd9;" horiz-adv-x="680" 
d="M157 878l57 41c39 -58 103 -87 188 -87v-65c-113 0 -195 34 -245 111zM605 700v-441c0 -185 -104 -270 -265 -270s-265 85 -265 270v441h81v-441c0 -123 57 -189 184 -189s184 66 184 189v441h81z" />
    <glyph glyph-name="Uhungarumlaut" unicode="&#x170;" horiz-adv-x="680" 
d="M318 935l48 -41l-99 -118l-47 40zM446 934l48 -40l-100 -118l-47 40zM605 700v-441c0 -185 -104 -270 -265 -270s-265 85 -265 270v441h81v-441c0 -123 57 -189 184 -189s184 66 184 189v441h81z" />
    <glyph glyph-name="Umacron" unicode="&#x16a;" horiz-adv-x="680" 
d="M485 777h-298v63h298v-63zM605 700v-441c0 -185 -104 -270 -265 -270s-265 85 -265 270v441h81v-441c0 -123 57 -189 184 -189s184 66 184 189v441h81z" />
    <glyph glyph-name="Uogonek" unicode="&#x172;" horiz-adv-x="680" 
d="M524 700h81v-441c0 -172 -90 -258 -232 -269c-8 -9 -13 -21 -13 -37c0 -39 39 -57 76 -59v-58c-71 6 -132 50 -132 107c0 19 6 34 16 46c-150 7 -245 93 -245 270v441h81v-441c0 -123 57 -189 184 -189s184 66 184 189v441z" />
    <glyph glyph-name="Uring" unicode="&#x16e;" horiz-adv-x="680" 
d="M246 857c0 56 40 93 92 93c55 0 96 -37 96 -93c0 -55 -41 -94 -96 -94c-52 0 -92 39 -92 94zM386 857c0 27 -17 48 -47 48s-45 -21 -45 -48c0 -28 15 -49 45 -49s47 21 47 49zM605 700v-441c0 -185 -104 -270 -265 -270s-265 85 -265 270v441h81v-441
c0 -123 57 -189 184 -189s184 66 184 189v441h81z" />
    <glyph glyph-name="Utilde" unicode="&#x168;" horiz-adv-x="680" 
d="M505 893c0 -85 -43 -122 -89 -122c-54 0 -99 50 -135 50c-23 0 -34 -20 -37 -47h-61c5 77 42 122 93 122c54 0 92 -53 132 -53c25 0 33 23 36 50h61zM605 700v-441c0 -185 -104 -270 -265 -270s-265 85 -265 270v441h81v-441c0 -123 57 -189 184 -189s184 66 184 189v441
h81z" />
    <glyph glyph-name="Wacute" unicode="&#x1e82;" horiz-adv-x="905" 
d="M638 878c-50 -77 -132 -111 -245 -111v65c85 0 149 29 188 87zM795 700h85l-189 -700h-89l-149 560l-150 -560h-89l-189 700h85l149 -563l148 563h91l149 -563z" />
    <glyph glyph-name="Wcircumflex" unicode="&#x174;" horiz-adv-x="905" 
d="M519 776l-69 84l-67 -84h-80l120 152h55l121 -152h-80zM795 700h85l-189 -700h-89l-149 560l-150 -560h-89l-189 700h85l149 -563l148 563h91l149 -563z" />
    <glyph glyph-name="Wdieresis" unicode="&#x1e84;" horiz-adv-x="905" 
d="M401 776v98h-87v-98h87zM586 776v98h-86v-98h86zM795 700h85l-189 -700h-89l-149 560l-150 -560h-89l-189 700h85l149 -563l148 563h91l149 -563z" />
    <glyph glyph-name="Wgrave" unicode="&#x1e80;" horiz-adv-x="905" 
d="M279 878l57 41c39 -58 103 -87 188 -87v-65c-113 0 -195 34 -245 111zM795 700h85l-189 -700h-89l-149 560l-150 -560h-89l-189 700h85l149 -563l148 563h91l149 -563z" />
    <glyph glyph-name="Yacute" unicode="&#xdd;" horiz-adv-x="613" 
d="M483 878c-50 -77 -132 -111 -245 -111v65c85 0 149 29 188 87zM503 700h95l-251 -428v-272h-81v272l-251 428h95l197 -346z" />
    <glyph glyph-name="Ycircumflex" unicode="&#x176;" horiz-adv-x="613" 
d="M374 776l-69 84l-67 -84h-80l120 152h55l121 -152h-80zM503 700h95l-251 -428v-272h-81v272l-251 428h95l197 -346z" />
    <glyph glyph-name="Ydieresis" unicode="&#x178;" horiz-adv-x="613" 
d="M257 776v98h-87v-98h87zM442 776v98h-86v-98h86zM503 700h95l-251 -428v-272h-81v272l-251 428h95l197 -346z" />
    <glyph glyph-name="Ygrave" unicode="&#x1ef2;" horiz-adv-x="613" 
d="M146 878l57 41c39 -58 103 -87 188 -87v-65c-113 0 -195 34 -245 111zM503 700h95l-251 -428v-272h-81v272l-251 428h95l197 -346z" />
    <glyph glyph-name="Zacute" unicode="&#x179;" horiz-adv-x="617" 
d="M503 878c-50 -77 -132 -111 -245 -111v65c85 0 149 29 188 87zM150 78h427v-78h-527v78l414 543h-190c-64 0 -142 0 -216 15l12 79c57 -11 124 -15 204 -15h293v-79z" />
    <glyph glyph-name="Zcaron" unicode="&#x17d;" horiz-adv-x="617" 
d="M394 919h80l-121 -152h-55l-120 152h80l67 -84zM150 78h427v-78h-527v78l414 543h-190c-64 0 -142 0 -216 15l12 79c57 -11 124 -15 204 -15h293v-79z" />
    <glyph glyph-name="Zdotaccent" unicode="&#x17b;" horiz-adv-x="617" 
d="M283 776v92h87v-92h-87zM150 78h427v-78h-527v78l414 543h-190c-64 0 -142 0 -216 15l12 79c57 -11 124 -15 204 -15h293v-79z" />
    <glyph glyph-name="aacute" unicode="&#xe1;" horiz-adv-x="525" 
d="M429 699c-50 -77 -132 -111 -245 -111v65c85 0 149 29 188 87zM65 395c23 81 97 120 194 120c127 0 196 -67 196 -174v-341h-75v58c-30 -42 -79 -64 -144 -64c-131 0 -194 92 -194 176c0 73 47 137 140 137h110c36 0 64 -6 88 -24v62c0 68 -48 97 -126 97
c-52 0 -103 -13 -120 -74zM238 67c84 0 142 45 142 107c0 42 -27 61 -71 61h-130c-41 0 -61 -24 -61 -64c0 -50 31 -104 120 -104z" />
    <glyph glyph-name="abreve" unicode="&#x103;" horiz-adv-x="525" 
d="M358 759c10 -23 16 -45 16 -68c0 -57 -37 -103 -106 -103s-105 46 -105 103c0 23 6 45 16 68l58 -25c-9 -15 -12 -30 -12 -42c0 -26 17 -44 43 -44c27 0 44 18 44 44c0 12 -3 27 -12 42zM65 395c23 81 97 120 194 120c127 0 196 -67 196 -174v-341h-75v58
c-30 -42 -79 -64 -144 -64c-131 0 -194 92 -194 176c0 73 47 137 140 137h110c36 0 64 -6 88 -24v62c0 68 -48 97 -126 97c-52 0 -103 -13 -120 -74zM238 67c84 0 142 45 142 107c0 42 -27 61 -71 61h-130c-41 0 -61 -24 -61 -64c0 -50 31 -104 120 -104z" />
    <glyph glyph-name="acircumflex" unicode="&#xe2;" horiz-adv-x="525" 
d="M327 588l-69 84l-67 -84h-80l120 152h55l121 -152h-80zM65 395c23 81 97 120 194 120c127 0 196 -67 196 -174v-341h-75v58c-30 -42 -79 -64 -144 -64c-131 0 -194 92 -194 176c0 73 47 137 140 137h110c36 0 64 -6 88 -24v62c0 68 -48 97 -126 97
c-52 0 -103 -13 -120 -74zM238 67c84 0 142 45 142 107c0 42 -27 61 -71 61h-130c-41 0 -61 -24 -61 -64c0 -50 31 -104 120 -104z" />
    <glyph glyph-name="adieresis" unicode="&#xe4;" horiz-adv-x="525" 
d="M207 588v98h-87v-98h87zM411 588v98h-87v-98h87zM65 395c23 81 97 120 194 120c127 0 196 -67 196 -174v-341h-75v58c-30 -42 -79 -64 -144 -64c-131 0 -194 92 -194 176c0 73 47 137 140 137h110c36 0 64 -6 88 -24v62c0 68 -48 97 -126 97c-52 0 -103 -13 -120 -74z
M238 67c84 0 142 45 142 107c0 42 -27 61 -71 61h-130c-41 0 -61 -24 -61 -64c0 -50 31 -104 120 -104z" />
    <glyph glyph-name="agrave" unicode="&#xe0;" horiz-adv-x="525" 
d="M108 699l57 41c39 -58 103 -87 188 -87v-65c-113 0 -195 34 -245 111zM65 395c23 81 97 120 194 120c127 0 196 -67 196 -174v-341h-75v58c-30 -42 -79 -64 -144 -64c-131 0 -194 92 -194 176c0 73 47 137 140 137h110c36 0 64 -6 88 -24v62c0 68 -48 97 -126 97
c-52 0 -103 -13 -120 -74zM238 67c84 0 142 45 142 107c0 42 -27 61 -71 61h-130c-41 0 -61 -24 -61 -64c0 -50 31 -104 120 -104z" />
    <glyph glyph-name="amacron" unicode="&#x101;" horiz-adv-x="525" 
d="M407 588h-298v62h298v-62zM65 395c23 81 97 120 194 120c127 0 196 -67 196 -174v-341h-75v58c-30 -42 -79 -64 -144 -64c-131 0 -194 92 -194 176c0 73 47 137 140 137h110c36 0 64 -6 88 -24v62c0 68 -48 97 -126 97c-52 0 -103 -13 -120 -74zM238 67
c84 0 142 45 142 107c0 42 -27 61 -71 61h-130c-41 0 -61 -24 -61 -64c0 -50 31 -104 120 -104z" />
    <glyph glyph-name="aogonek" unicode="&#x105;" horiz-adv-x="545" 
d="M399 -47c0 -39 39 -57 76 -59v-58c-71 6 -132 50 -132 107c0 29 15 51 35 64h2v51c-30 -42 -79 -64 -144 -64c-131 0 -194 92 -194 176c0 73 47 137 140 137h110c36 0 64 -6 88 -24v62c0 68 -48 97 -126 97c-52 0 -103 -13 -120 -74l-69 27c23 81 97 120 194 120
c127 0 196 -67 196 -174v-341h-34c-12 -12 -22 -26 -22 -47zM238 67c84 0 142 45 142 107c0 42 -27 61 -71 61h-130c-41 0 -61 -24 -61 -64c0 -50 31 -104 120 -104z" />
    <glyph glyph-name="aring" unicode="&#xe5;" horiz-adv-x="525" 
d="M175 682c0 56 40 93 92 93c55 0 96 -37 96 -93c0 -55 -41 -94 -96 -94c-52 0 -92 39 -92 94zM315 682c0 27 -17 48 -47 48s-45 -21 -45 -48c0 -28 15 -49 45 -49s47 21 47 49zM65 395c23 81 97 120 194 120c127 0 196 -67 196 -174v-341h-75v58c-30 -42 -79 -64 -144 -64
c-131 0 -194 92 -194 176c0 73 47 137 140 137h110c36 0 64 -6 88 -24v62c0 68 -48 97 -126 97c-52 0 -103 -13 -120 -74zM238 67c84 0 142 45 142 107c0 42 -27 61 -71 61h-130c-41 0 -61 -24 -61 -64c0 -50 31 -104 120 -104z" />
    <glyph glyph-name="atilde" unicode="&#xe3;" horiz-adv-x="525" 
d="M431 710c0 -85 -43 -122 -89 -122c-54 0 -99 50 -135 50c-23 0 -34 -20 -37 -46h-61c5 76 42 121 93 121c54 0 92 -52 132 -52c25 0 33 22 36 49h61zM65 395c23 81 97 120 194 120c127 0 196 -67 196 -174v-341h-75v58c-30 -42 -79 -64 -144 -64c-131 0 -194 92 -194 176
c0 73 47 137 140 137h110c36 0 64 -6 88 -24v62c0 68 -48 97 -126 97c-52 0 -103 -13 -120 -74zM238 67c84 0 142 45 142 107c0 42 -27 61 -71 61h-130c-41 0 -61 -24 -61 -64c0 -50 31 -104 120 -104z" />
    <glyph glyph-name="ae" unicode="&#xe6;" horiz-adv-x="855" 
d="M811 223h-212c-48 0 -101 5 -142 17c2 -104 46 -171 155 -171c80 0 120 35 121 94h72c-1 -111 -90 -169 -199 -169c-89 0 -152 39 -188 101c-40 -78 -119 -101 -182 -101c-131 0 -194 92 -194 176c0 73 47 137 140 137h110c36 0 64 -6 88 -24v62c0 68 -48 97 -126 97
c-52 0 -103 -13 -120 -74l-69 27c23 81 97 120 194 120c84 0 143 -30 173 -81c41 54 104 81 175 81c127 0 208 -86 208 -234c0 -17 -1 -32 -4 -58zM605 442c-83 0 -127 -51 -142 -128c36 -13 90 -17 140 -17h134c0 99 -54 145 -132 145zM238 67c84 0 142 45 142 107
c0 42 -27 61 -71 61h-130c-41 0 -61 -24 -61 -64c0 -50 31 -104 120 -104z" />
    <glyph glyph-name="uni1E03" unicode="&#x1e03;" horiz-adv-x="583" 
d="M311 515c138 0 232 -103 232 -260c0 -158 -94 -261 -232 -261c-73 0 -126 28 -160 76v-70h-76v700h76v-261c34 48 87 76 160 76zM268 588v92h87v-92h-87zM308 69c106 0 158 85 158 189c0 101 -51 182 -155 182c-105 0 -160 -85 -160 -187s53 -184 157 -184z" />
    <glyph glyph-name="cacute" unicode="&#x107;" horiz-adv-x="521" 
d="M451 699c-50 -77 -132 -111 -245 -111v65c85 0 149 29 188 87zM406 218h73c1 -8 2 -16 2 -28c0 -114 -80 -196 -210 -196c-154 0 -231 112 -231 263c0 175 106 258 232 258c93 0 155 -36 194 -108l-65 -45c-25 50 -62 78 -132 78c-87 0 -151 -56 -151 -184
c0 -122 56 -187 156 -187c85 0 133 49 133 134c0 5 0 11 -1 15z" />
    <glyph glyph-name="ccaron" unicode="&#x10d;" horiz-adv-x="521" 
d="M208 740l69 -84l67 84h80l-120 -152h-55l-121 152h80zM406 218h73c1 -8 2 -16 2 -28c0 -114 -80 -196 -210 -196c-154 0 -231 112 -231 263c0 175 106 258 232 258c93 0 155 -36 194 -108l-65 -45c-25 50 -62 78 -132 78c-87 0 -151 -56 -151 -184
c0 -122 56 -187 156 -187c85 0 133 49 133 134c0 5 0 11 -1 15z" />
    <glyph glyph-name="ccedilla" unicode="&#xe7;" horiz-adv-x="521" 
d="M481 190c0 -111 -76 -192 -201 -196v-35c60 -2 102 -31 102 -77c0 -48 -40 -85 -100 -85c-43 0 -79 14 -106 37l30 46c24 -20 46 -30 72 -30c28 0 44 14 44 34c0 22 -27 45 -91 45l10 66c-134 14 -201 121 -201 262c0 175 106 258 232 258c93 0 155 -36 194 -108l-65 -45
c-25 50 -62 78 -132 78c-87 0 -151 -56 -151 -184c0 -122 56 -187 156 -187c85 0 133 49 133 134c0 5 0 11 -1 15h73c1 -8 2 -16 2 -28z" />
    <glyph glyph-name="ccircumflex" unicode="&#x109;" horiz-adv-x="521" 
d="M349 588l-69 84l-67 -84h-80l120 152h55l121 -152h-80zM406 218h73c1 -8 2 -16 2 -28c0 -114 -80 -196 -210 -196c-154 0 -231 112 -231 263c0 175 106 258 232 258c93 0 155 -36 194 -108l-65 -45c-25 50 -62 78 -132 78c-87 0 -151 -56 -151 -184
c0 -122 56 -187 156 -187c85 0 133 49 133 134c0 5 0 11 -1 15z" />
    <glyph glyph-name="cdotaccent" unicode="&#x10b;" horiz-adv-x="521" 
d="M229 588v92h87v-92h-87zM406 218h73c1 -8 2 -16 2 -28c0 -114 -80 -196 -210 -196c-154 0 -231 112 -231 263c0 175 106 258 232 258c93 0 155 -36 194 -108l-65 -45c-25 50 -62 78 -132 78c-87 0 -151 -56 -151 -184c0 -122 56 -187 156 -187c85 0 133 49 133 134
c0 5 0 11 -1 15z" />
    <glyph glyph-name="eth" unicode="&#xf0;" horiz-adv-x="595" 
d="M455 634c59 -61 90 -159 90 -286c0 -225 -106 -359 -272 -359c-141 0 -233 95 -233 239c0 156 110 231 227 231c84 0 168 -41 203 -115c3 111 -21 196 -74 242l-86 -71l-30 35l74 62c-21 8 -46 13 -73 13c-61 0 -105 -20 -129 -57l-59 47c40 53 105 85 190 85
c52 0 97 -13 134 -36l70 58v-62zM275 63c79 0 163 54 163 164c0 112 -86 159 -164 159c-93 0 -157 -67 -157 -163c0 -107 80 -160 158 -160z" />
    <glyph glyph-name="dcaron" unicode="&#x10f;" horiz-adv-x="775" 
d="M677 711h78c0 -131 -34 -213 -158 -262l-32 68c87 37 112 85 112 194zM273 515c72 0 126 -28 159 -76v261h77v-700h-77v70c-33 -48 -87 -76 -159 -76c-138 0 -233 103 -233 261c0 157 95 260 233 260zM275 69c106 0 157 82 157 184s-54 187 -160 187
c-103 0 -154 -81 -154 -182c0 -103 52 -189 157 -189z" />
    <glyph glyph-name="dcroat" unicode="&#x111;" horiz-adv-x="591" 
d="M581 618v-44h-72v-574h-77v70c-33 -48 -87 -76 -159 -76c-138 0 -233 103 -233 261c0 157 95 260 233 260c72 0 126 -28 159 -76v135h-111v44h111v82h77v-82h72zM275 69c106 0 157 82 157 184s-54 187 -160 187c-103 0 -154 -81 -154 -182c0 -103 52 -189 157 -189z" />
    <glyph glyph-name="uni1E0B" unicode="&#x1e0b;" horiz-adv-x="584" 
d="M273 515c72 0 126 -28 159 -76v261h77v-700h-77v70c-33 -48 -87 -76 -159 -76c-138 0 -233 103 -233 261c0 157 95 260 233 260zM229 588v92h87v-92h-87zM275 69c106 0 157 82 157 184s-54 187 -160 187c-103 0 -154 -81 -154 -182c0 -103 52 -189 157 -189z" />
    <glyph glyph-name="eacute" unicode="&#xe9;" horiz-adv-x="515" 
d="M431 699c-50 -77 -132 -111 -245 -111v65c85 0 149 29 188 87zM471 223h-211c-49 0 -101 5 -142 17c2 -104 46 -171 155 -171c79 0 119 35 120 94h73c-2 -111 -91 -169 -200 -169c-150 0 -226 110 -226 261c0 173 100 260 228 260c126 0 207 -86 207 -235
c0 -16 -1 -31 -4 -57zM265 442c-81 0 -126 -52 -141 -128c35 -13 89 -17 139 -17h135c0 99 -55 145 -133 145z" />
    <glyph glyph-name="ebreve" unicode="&#x115;" horiz-adv-x="515" 
d="M265 588c-69 0 -105 46 -105 103c0 23 6 45 16 68l58 -25c-9 -15 -12 -30 -12 -42c0 -26 17 -44 43 -44c27 0 44 18 44 44c0 12 -3 27 -12 42l58 25c10 -23 16 -45 16 -68c0 -57 -37 -103 -106 -103zM471 223h-211c-49 0 -101 5 -142 17c2 -104 46 -171 155 -171
c79 0 119 35 120 94h73c-2 -111 -91 -169 -200 -169c-150 0 -226 110 -226 261c0 173 100 260 228 260c126 0 207 -86 207 -235c0 -16 -1 -31 -4 -57zM265 442c-81 0 -126 -52 -141 -128c35 -13 89 -17 139 -17h135c0 99 -55 145 -133 145z" />
    <glyph glyph-name="ecaron" unicode="&#x11b;" horiz-adv-x="515" 
d="M297 588h-55l-121 152h80l69 -84l67 84h80zM471 223h-211c-49 0 -101 5 -142 17c2 -104 46 -171 155 -171c79 0 119 35 120 94h73c-2 -111 -91 -169 -200 -169c-150 0 -226 110 -226 261c0 173 100 260 228 260c126 0 207 -86 207 -235c0 -16 -1 -31 -4 -57zM265 442
c-81 0 -126 -52 -141 -128c35 -13 89 -17 139 -17h135c0 99 -55 145 -133 145z" />
    <glyph glyph-name="ecircumflex" unicode="&#xea;" horiz-adv-x="515" 
d="M266 672l-67 -84h-80l120 152h55l121 -152h-80zM471 223h-211c-49 0 -101 5 -142 17c2 -104 46 -171 155 -171c79 0 119 35 120 94h73c-2 -111 -91 -169 -200 -169c-150 0 -226 110 -226 261c0 173 100 260 228 260c126 0 207 -86 207 -235c0 -16 -1 -31 -4 -57zM265 442
c-81 0 -126 -52 -141 -128c35 -13 89 -17 139 -17h135c0 99 -55 145 -133 145z" />
    <glyph glyph-name="edieresis" unicode="&#xeb;" horiz-adv-x="515" 
d="M209 686v-98h-87v98h87zM413 686v-98h-87v98h87zM471 223h-211c-49 0 -101 5 -142 17c2 -104 46 -171 155 -171c79 0 119 35 120 94h73c-2 -111 -91 -169 -200 -169c-150 0 -226 110 -226 261c0 173 100 260 228 260c126 0 207 -86 207 -235c0 -16 -1 -31 -4 -57z
M265 442c-81 0 -126 -52 -141 -128c35 -13 89 -17 139 -17h135c0 99 -55 145 -133 145z" />
    <glyph glyph-name="edotaccent" unicode="&#x117;" horiz-adv-x="515" 
d="M306 680v-92h-87v92h87zM471 223h-211c-49 0 -101 5 -142 17c2 -104 46 -171 155 -171c79 0 119 35 120 94h73c-2 -111 -91 -169 -200 -169c-150 0 -226 110 -226 261c0 173 100 260 228 260c126 0 207 -86 207 -235c0 -16 -1 -31 -4 -57zM265 442
c-81 0 -126 -52 -141 -128c35 -13 89 -17 139 -17h135c0 99 -55 145 -133 145z" />
    <glyph glyph-name="egrave" unicode="&#xe8;" horiz-adv-x="515" 
d="M341 588c-113 0 -195 34 -245 111l57 41c39 -58 103 -87 188 -87v-65zM471 223h-211c-49 0 -101 5 -142 17c2 -104 46 -171 155 -171c79 0 119 35 120 94h73c-2 -111 -91 -169 -200 -169c-150 0 -226 110 -226 261c0 173 100 260 228 260c126 0 207 -86 207 -235
c0 -16 -1 -31 -4 -57zM265 442c-81 0 -126 -52 -141 -128c35 -13 89 -17 139 -17h135c0 99 -55 145 -133 145z" />
    <glyph glyph-name="emacron" unicode="&#x113;" horiz-adv-x="515" 
d="M412 650v-62h-298v62h298zM471 223h-211c-49 0 -101 5 -142 17c2 -104 46 -171 155 -171c79 0 119 35 120 94h73c-2 -111 -91 -169 -200 -169c-150 0 -226 110 -226 261c0 173 100 260 228 260c126 0 207 -86 207 -235c0 -16 -1 -31 -4 -57zM265 442
c-81 0 -126 -52 -141 -128c35 -13 89 -17 139 -17h135c0 99 -55 145 -133 145z" />
    <glyph glyph-name="eogonek" unicode="&#x119;" horiz-adv-x="515" 
d="M471 223h-211c-49 0 -101 5 -142 17c2 -104 46 -171 155 -171c79 0 119 35 120 94h73c-2 -103 -79 -161 -178 -168c-10 -11 -17 -24 -17 -42c0 -39 39 -57 76 -59v-58c-71 6 -132 50 -132 107c0 22 8 40 21 53c-130 13 -196 118 -196 259c0 173 100 260 228 260
c126 0 207 -86 207 -235c0 -16 -1 -31 -4 -57zM265 442c-81 0 -126 -52 -141 -128c35 -13 89 -17 139 -17h135c0 99 -55 145 -133 145z" />
    <glyph glyph-name="uni1E1F" unicode="&#x1e1f;" horiz-adv-x="354" 
d="M232 776v92h87v-92h-87zM261 625c-51 0 -72 -32 -72 -90v-29h10c53 0 95 3 142 11l10 -70c-51 -9 -98 -13 -155 -13h-7v-434h-76v434h-103v72h103v32c0 98 48 162 142 162h99v-75h-93z" />
    <glyph glyph-name="gbreve" unicode="&#x11f;" horiz-adv-x="539" 
d="M273 588c-69 0 -105 46 -105 103c0 23 6 45 16 68l58 -25c-9 -15 -12 -30 -12 -42c0 -26 17 -44 43 -44c27 0 44 18 44 44c0 12 -3 27 -12 42l58 25c10 -23 16 -45 16 -68c0 -57 -37 -103 -106 -103zM361 73c104 0 155 -49 155 -127c0 -108 -99 -168 -242 -168
c-145 0 -239 62 -239 161c0 49 23 84 61 99c-29 21 -45 55 -45 88c0 40 22 81 68 100c-23 29 -36 67 -36 111c0 105 75 178 187 178c44 0 83 -11 113 -32c46 4 77 40 77 88h75c0 -68 -38 -121 -102 -141c15 -26 23 -58 23 -93c0 -106 -74 -178 -186 -178
c-38 0 -72 8 -100 24c-27 -9 -41 -34 -41 -58c0 -28 19 -52 55 -52h177zM270 443c-72 0 -113 -43 -113 -106c0 -65 41 -107 113 -107s113 42 113 107c0 63 -41 106 -113 106zM273 -149c107 0 168 32 168 96c0 33 -19 53 -81 53h-190c-49 0 -60 -29 -60 -55
c0 -62 55 -94 163 -94z" />
    <glyph glyph-name="gcircumflex" unicode="&#x11d;" horiz-adv-x="539" 
d="M281 672l-67 -84h-80l120 152h55l121 -152h-80zM361 73c104 0 155 -49 155 -127c0 -108 -99 -168 -242 -168c-145 0 -239 62 -239 161c0 49 23 84 61 99c-29 21 -45 55 -45 88c0 40 22 81 68 100c-23 29 -36 67 -36 111c0 105 75 178 187 178c44 0 83 -11 113 -32
c46 4 77 40 77 88h75c0 -68 -38 -121 -102 -141c15 -26 23 -58 23 -93c0 -106 -74 -178 -186 -178c-38 0 -72 8 -100 24c-27 -9 -41 -34 -41 -58c0 -28 19 -52 55 -52h177zM270 443c-72 0 -113 -43 -113 -106c0 -65 41 -107 113 -107s113 42 113 107c0 63 -41 106 -113 106z
M273 -149c107 0 168 32 168 96c0 33 -19 53 -81 53h-190c-49 0 -60 -29 -60 -55c0 -62 55 -94 163 -94z" />
    <glyph glyph-name="gcommaaccent" unicode="&#x123;" horiz-adv-x="539" 
d="M411 800c-87 -37 -112 -85 -112 -194h-78c0 131 34 213 158 262zM361 73c104 0 155 -49 155 -127c0 -108 -99 -168 -242 -168c-145 0 -239 62 -239 161c0 49 23 84 61 99c-29 21 -45 55 -45 88c0 40 22 81 68 100c-23 29 -36 67 -36 111c0 105 75 178 187 178
c44 0 83 -11 113 -32c46 4 77 40 77 88h75c0 -68 -38 -121 -102 -141c15 -26 23 -58 23 -93c0 -106 -74 -178 -186 -178c-38 0 -72 8 -100 24c-27 -9 -41 -34 -41 -58c0 -28 19 -52 55 -52h177zM270 443c-72 0 -113 -43 -113 -106c0 -65 41 -107 113 -107s113 42 113 107
c0 63 -41 106 -113 106zM273 -149c107 0 168 32 168 96c0 33 -19 53 -81 53h-190c-49 0 -60 -29 -60 -55c0 -62 55 -94 163 -94z" />
    <glyph glyph-name="gdotaccent" unicode="&#x121;" horiz-adv-x="539" 
d="M313 680v-92h-87v92h87zM361 73c104 0 155 -49 155 -127c0 -108 -99 -168 -242 -168c-145 0 -239 62 -239 161c0 49 23 84 61 99c-29 21 -45 55 -45 88c0 40 22 81 68 100c-23 29 -36 67 -36 111c0 105 75 178 187 178c44 0 83 -11 113 -32c46 4 77 40 77 88h75
c0 -68 -38 -121 -102 -141c15 -26 23 -58 23 -93c0 -106 -74 -178 -186 -178c-38 0 -72 8 -100 24c-27 -9 -41 -34 -41 -58c0 -28 19 -52 55 -52h177zM270 443c-72 0 -113 -43 -113 -106c0 -65 41 -107 113 -107s113 42 113 107c0 63 -41 106 -113 106zM273 -149
c107 0 168 32 168 96c0 33 -19 53 -81 53h-190c-49 0 -60 -29 -60 -55c0 -62 55 -94 163 -94z" />
    <glyph glyph-name="hbar" unicode="&#x127;" horiz-adv-x="576" 
d="M321 515c116 0 183 -76 183 -177v-338h-76v338c0 61 -43 102 -114 102c-93 0 -147 -56 -147 -137v-303h-76v583h-71v44h71v73h76v-73h113v-44h-113v-134c33 48 82 66 154 66z" />
    <glyph glyph-name="hcircumflex" unicode="&#x125;" horiz-adv-x="560" 
d="M382 588l-69 84l-67 -84h-80l120 152h55l121 -152h-80zM305 515c116 0 183 -76 183 -177v-338h-76v338c0 61 -43 102 -114 102c-93 0 -147 -56 -147 -137v-303h-76v700h76v-251c33 48 82 66 154 66z" />
    <glyph glyph-name="dotlessi" unicode="&#x131;" horiz-adv-x="217" 
d="M147 506v-506h-77v506h77z" />
    <glyph glyph-name="iacute" unicode="&#xed;" horiz-adv-x="209" 
d="M275 699c-50 -77 -132 -111 -245 -111v65c85 0 149 29 188 87zM149 506v-506h-77v506h77z" />
    <glyph glyph-name="icircumflex" unicode="&#xee;" horiz-adv-x="196" 
d="M166 588l-69 84l-67 -84h-80l120 152h55l121 -152h-80zM141 506v-506h-77v506h77z" />
    <glyph glyph-name="idieresis" unicode="&#xef;" horiz-adv-x="231" 
d="M57 588v98h-87v-98h87zM261 588v98h-87v-98h87zM159 506v-506h-77v506h77z" />
    <glyph glyph-name="igrave" unicode="&#xec;" horiz-adv-x="202" 
d="M-81 699l57 41c39 -58 103 -87 188 -87v-65c-113 0 -195 34 -245 111zM142 506v-506h-77v506h77z" />
    <glyph glyph-name="ij" unicode="&#x133;" horiz-adv-x="475" 
d="M74 607v93h84v-93h-84zM321 607v93h84v-93h-84zM154 0h-76v506h76v-506zM207 -213v75h55c43 0 63 24 63 76v568h77v-568c0 -92 -54 -151 -138 -151h-57z" />
    <glyph glyph-name="imacron" unicode="&#x12b;" horiz-adv-x="206" 
d="M252 588h-298v62h298v-62zM147 506v-506h-77v506h77z" />
    <glyph glyph-name="iogonek" unicode="&#x12f;" horiz-adv-x="280" 
d="M190 700v-93h-84v93h84zM130 -47c0 -39 39 -57 76 -59v-58c-71 6 -132 50 -132 107c0 29 15 51 35 64h1v499h76v-506h-34c-12 -12 -22 -26 -22 -47z" />
    <glyph glyph-name="itilde" unicode="&#x129;" horiz-adv-x="207" 
d="M282 710c0 -85 -43 -122 -89 -122c-54 0 -99 50 -135 50c-23 0 -34 -20 -37 -46h-61c5 76 42 121 93 121c54 0 92 -52 132 -52c25 0 33 22 36 49h61zM151 506v-506h-77v506h77z" />
    <glyph glyph-name="jcircumflex" unicode="&#x135;" horiz-adv-x="240" 
d="M200 588l-69 84l-67 -84h-80l120 152h55l121 -152h-80zM-25 -213v75h55c43 0 63 24 63 76v568h77v-568c0 -92 -54 -151 -138 -151h-57z" />
    <glyph glyph-name="kcommaaccent" unicode="&#x137;" horiz-adv-x="533" 
d="M420 0l-172 260l-97 -92v-168h-76v700h76v-435l242 241h108l-197 -191l209 -315h-93zM218 -74h78c0 -131 -34 -213 -158 -262l-32 68c87 37 112 85 112 194z" />
    <glyph glyph-name="kgreenlandic" unicode="&#x138;" horiz-adv-x="533" 
d="M420 0l-173 261l-96 -93v-168h-76v506h76v-241l239 241h111l-197 -190l209 -316h-93z" />
    <glyph glyph-name="lacute" unicode="&#x13a;" horiz-adv-x="236" 
d="M315 878c-50 -77 -132 -111 -245 -111v65c85 0 149 29 188 87zM156 0h-76v700h76v-700z" />
    <glyph glyph-name="lcaron" unicode="&#x13e;" horiz-adv-x="457" 
d="M318 712h78c0 -131 -34 -213 -158 -262l-32 68c87 37 112 85 112 194zM151 0h-76v700h76v-700z" />
    <glyph glyph-name="lcommaaccent" unicode="&#x13c;" horiz-adv-x="223" 
d="M151 0h-76v700h76v-700zM61 -74h78c0 -131 -34 -213 -158 -262l-32 68c87 37 112 85 112 194z" />
    <glyph glyph-name="ldot" unicode="&#x140;" horiz-adv-x="337" 
d="M151 0h-76v700h76v-700zM238 395v92h87v-92h-87z" />
    <glyph glyph-name="lslash" unicode="&#x142;" horiz-adv-x="279" 
d="M259 428v-62l-72 -38v-328h-76v289l-91 -48v62l91 48v349h76v-310z" />
    <glyph glyph-name="uni1E41" unicode="&#x1e41;" horiz-adv-x="850" 
d="M383 588v92h87v-92h-87zM603 515c110 0 177 -74 177 -172v-343h-76v343c0 59 -37 97 -104 97c-83 0 -134 -51 -134 -121v-319h-77v343c0 59 -37 97 -104 97c-81 0 -134 -51 -134 -121v-319h-76v506h76v-53c34 42 80 62 137 62c72 0 125 -31 154 -90c29 63 92 90 161 90z
" />
    <glyph glyph-name="nacute" unicode="&#x144;" horiz-adv-x="558" 
d="M476 699c-50 -77 -132 -111 -245 -111v65c85 0 149 29 188 87zM305 515c116 0 183 -76 183 -177v-338h-76v338c0 61 -43 102 -114 102c-93 0 -147 -56 -147 -137v-303h-76v506h76v-57c33 48 82 66 154 66z" />
    <glyph glyph-name="napostrophe" unicode="&#x149;" horiz-adv-x="731" 
d="M101 711h78c0 -131 -34 -213 -158 -262l-32 68c87 37 112 85 112 194zM478 515c116 0 183 -76 183 -177v-338h-76v338c0 61 -43 102 -114 102c-93 0 -147 -56 -147 -137v-303h-76v506h76v-57c33 48 82 66 154 66z" />
    <glyph glyph-name="ncaron" unicode="&#x148;" horiz-adv-x="558" 
d="M222 740l69 -84l67 84h80l-120 -152h-55l-121 152h80zM305 515c116 0 183 -76 183 -177v-338h-76v338c0 61 -43 102 -114 102c-93 0 -147 -56 -147 -137v-303h-76v506h76v-57c33 48 82 66 154 66z" />
    <glyph glyph-name="ncommaaccent" unicode="&#x146;" horiz-adv-x="558" 
d="M305 515c116 0 183 -76 183 -177v-338h-76v338c0 61 -43 102 -114 102c-93 0 -147 -56 -147 -137v-303h-76v506h76v-57c33 48 82 66 154 66zM236 -74h78c0 -131 -34 -213 -158 -262l-32 68c87 37 112 85 112 194z" />
    <glyph glyph-name="eng" unicode="&#x14b;" horiz-adv-x="558" 
d="M305 515c116 0 183 -76 183 -177v-400c0 -92 -53 -151 -138 -151h-57v75h55c43 0 64 24 64 76v400c0 61 -43 102 -114 102c-93 0 -147 -56 -147 -137v-303h-76v506h76v-57c33 48 82 66 154 66z" />
    <glyph glyph-name="ntilde" unicode="&#xf1;" horiz-adv-x="558" 
d="M440 710c0 -85 -43 -122 -89 -122c-54 0 -99 50 -135 50c-23 0 -34 -20 -37 -46h-61c5 76 42 121 93 121c54 0 92 -52 132 -52c25 0 33 22 36 49h61zM305 515c116 0 183 -76 183 -177v-338h-76v338c0 61 -43 102 -114 102c-93 0 -147 -56 -147 -137v-303h-76v506h76v-57
c33 48 82 66 154 66z" />
    <glyph glyph-name="oacute" unicode="&#xf3;" horiz-adv-x="534" 
d="M435 699c-50 -77 -132 -111 -245 -111v65c85 0 149 29 188 87zM494 255c0 161 -91 260 -227 260s-227 -99 -227 -260c0 -162 91 -261 227 -261s227 99 227 261zM416 255c0 -119 -54 -186 -149 -186s-149 67 -149 186c0 118 54 185 149 185s149 -67 149 -185z" />
    <glyph glyph-name="obreve" unicode="&#x14f;" horiz-adv-x="534" 
d="M354 759c10 -23 16 -45 16 -68c0 -57 -37 -103 -106 -103s-105 46 -105 103c0 23 6 45 16 68l58 -25c-9 -15 -12 -30 -12 -42c0 -26 17 -44 43 -44c27 0 44 18 44 44c0 12 -3 27 -12 42zM494 255c0 161 -91 260 -227 260s-227 -99 -227 -260c0 -162 91 -261 227 -261
s227 99 227 261zM416 255c0 -119 -54 -186 -149 -186s-149 67 -149 186c0 118 54 185 149 185s149 -67 149 -185z" />
    <glyph glyph-name="ocircumflex" unicode="&#xf4;" horiz-adv-x="534" 
d="M333 588l-69 84l-67 -84h-80l120 152h55l121 -152h-80zM494 255c0 161 -91 260 -227 260s-227 -99 -227 -260c0 -162 91 -261 227 -261s227 99 227 261zM416 255c0 -119 -54 -186 -149 -186s-149 67 -149 186c0 118 54 185 149 185s149 -67 149 -185z" />
    <glyph glyph-name="odieresis" unicode="&#xf6;" horiz-adv-x="534" 
d="M205 588v98h-87v-98h87zM409 588v98h-87v-98h87zM494 255c0 161 -91 260 -227 260s-227 -99 -227 -260c0 -162 91 -261 227 -261s227 99 227 261zM416 255c0 -119 -54 -186 -149 -186s-149 67 -149 186c0 118 54 185 149 185s149 -67 149 -185z" />
    <glyph glyph-name="ograve" unicode="&#xf2;" horiz-adv-x="534" 
d="M122 699l57 41c39 -58 103 -87 188 -87v-65c-113 0 -195 34 -245 111zM494 255c0 161 -91 260 -227 260s-227 -99 -227 -260c0 -162 91 -261 227 -261s227 99 227 261zM416 255c0 -119 -54 -186 -149 -186s-149 67 -149 186c0 118 54 185 149 185s149 -67 149 -185z" />
    <glyph glyph-name="ohungarumlaut" unicode="&#x151;" horiz-adv-x="534" 
d="M235 754l60 -22l-54 -144l-58 21zM347 754l60 -22l-54 -144l-58 21zM494 255c0 161 -91 260 -227 260s-227 -99 -227 -260c0 -162 91 -261 227 -261s227 99 227 261zM416 255c0 -119 -54 -186 -149 -186s-149 67 -149 186c0 118 54 185 149 185s149 -67 149 -185z" />
    <glyph glyph-name="omacron" unicode="&#x14d;" horiz-adv-x="534" 
d="M414 588h-298v62h298v-62zM494 255c0 161 -91 260 -227 260s-227 -99 -227 -260c0 -162 91 -261 227 -261s227 99 227 261zM416 255c0 -119 -54 -186 -149 -186s-149 67 -149 186c0 118 54 185 149 185s149 -67 149 -185z" />
    <glyph glyph-name="oslash" unicode="&#xf8;" horiz-adv-x="534" 
d="M377 489c73 -40 117 -122 117 -234c0 -162 -91 -261 -227 -261c-24 0 -46 3 -66 9l-34 -93h-49l40 110c-73 39 -118 122 -118 235c0 161 91 260 227 260c24 0 46 -3 67 -9l27 75h50zM118 255c0 -78 23 -134 66 -163l124 343c-13 3 -26 5 -41 5c-95 0 -149 -67 -149 -185z
M267 69c95 0 149 67 149 186c0 77 -23 132 -65 161l-125 -342c13 -3 27 -5 41 -5z" />
    <glyph glyph-name="otilde" unicode="&#xf5;" horiz-adv-x="534" 
d="M432 710c0 -85 -43 -122 -89 -122c-54 0 -99 50 -135 50c-23 0 -34 -20 -37 -46h-61c5 76 42 121 93 121c54 0 92 -52 132 -52c25 0 33 22 36 49h61zM494 255c0 161 -91 260 -227 260s-227 -99 -227 -260c0 -162 91 -261 227 -261s227 99 227 261zM416 255
c0 -119 -54 -186 -149 -186s-149 67 -149 186c0 118 54 185 149 185s149 -67 149 -185z" />
    <glyph glyph-name="oe" unicode="&#x153;" horiz-adv-x="894" 
d="M850 223h-212c-48 0 -100 5 -141 17c2 -104 45 -171 154 -171c80 0 120 35 121 94h73c-2 -111 -91 -169 -200 -169c-95 0 -156 43 -190 112c-39 -76 -105 -112 -188 -112c-136 0 -227 99 -227 261c0 161 91 260 227 260c84 0 150 -36 189 -114c39 76 107 114 191 114
c126 0 207 -86 207 -234c0 -17 -1 -32 -4 -58zM644 442c-82 0 -126 -51 -141 -128c35 -13 89 -17 139 -17h134c0 99 -55 145 -132 145zM267 69c95 0 149 67 149 186c0 118 -54 185 -149 185s-149 -67 -149 -185c0 -119 54 -186 149 -186z" />
    <glyph glyph-name="uni1E57" unicode="&#x1e57;" horiz-adv-x="583" 
d="M266 588v92h87v-92h-87zM311 515c138 0 232 -103 232 -257c0 -155 -94 -258 -232 -258c-73 0 -126 28 -160 76v-287h-76v717h76v-70c34 50 85 79 160 79zM308 74c106 0 158 85 158 185s-51 181 -154 181c-106 0 -161 -85 -161 -185s52 -181 157 -181z" />
    <glyph glyph-name="thorn" unicode="&#xfe;" horiz-adv-x="583" 
d="M311 515c138 0 232 -103 232 -260c0 -158 -94 -261 -232 -261c-73 0 -126 28 -160 77v-282h-76v922h76v-273c34 49 87 77 160 77zM310 69c94 0 156 69 156 186c0 116 -62 185 -156 185c-99 0 -159 -69 -159 -185c0 -117 60 -186 159 -186z" />
    <glyph glyph-name="racute" unicode="&#x155;" horiz-adv-x="378" 
d="M368 699c-50 -77 -132 -111 -245 -111v65c85 0 149 29 188 87zM297 509h42v-74h-42c-82 0 -146 -44 -146 -137v-298h-76v506h76v-60c33 45 81 63 146 63z" />
    <glyph glyph-name="rcaron" unicode="&#x159;" horiz-adv-x="381" 
d="M155 740l69 -84l67 84h80l-120 -152h-55l-121 152h80zM297 509h42v-74h-42c-82 0 -146 -44 -146 -137v-298h-76v506h76v-60c33 45 81 63 146 63z" />
    <glyph glyph-name="rcommaaccent" unicode="&#x157;" horiz-adv-x="346" 
d="M297 509h42v-74h-42c-82 0 -146 -44 -146 -137v-298h-76v506h76v-60c33 45 81 63 146 63zM67 -74h78c0 -131 -34 -213 -158 -262l-32 68c87 37 112 85 112 194z" />
    <glyph glyph-name="sacute" unicode="&#x15b;" horiz-adv-x="461" 
d="M396 699c-50 -77 -132 -111 -245 -111v65c85 0 149 29 188 87zM261 283c78 -17 165 -34 165 -137s-85 -152 -182 -152c-87 0 -199 39 -199 166c0 7 0 14 1 22h74c-1 -6 -1 -8 -1 -11c0 -80 62 -104 126 -104c67 0 105 28 105 72c0 49 -48 62 -109 76
c-80 18 -174 39 -174 145c0 98 77 155 171 155c67 0 132 -30 165 -93l-65 -42c-19 42 -63 62 -105 62c-57 0 -90 -31 -90 -76c0 -57 58 -70 118 -83z" />
    <glyph glyph-name="scaron" unicode="&#x161;" horiz-adv-x="461" 
d="M172 740l69 -84l67 84h80l-120 -152h-55l-121 152h80zM261 283c78 -17 165 -34 165 -137s-85 -152 -182 -152c-87 0 -199 39 -199 166c0 7 0 14 1 22h74c-1 -6 -1 -8 -1 -11c0 -80 62 -104 126 -104c67 0 105 28 105 72c0 49 -48 62 -109 76c-80 18 -174 39 -174 145
c0 98 77 155 171 155c67 0 132 -30 165 -93l-65 -42c-19 42 -63 62 -105 62c-57 0 -90 -31 -90 -76c0 -57 58 -70 118 -83z" />
    <glyph glyph-name="scedilla" unicode="&#x15f;" horiz-adv-x="461" 
d="M426 146c0 -103 -84 -152 -181 -152v-35c60 -2 102 -31 102 -77c0 -48 -40 -85 -100 -85c-43 0 -79 14 -106 37l30 46c24 -20 46 -30 72 -30c28 0 44 14 44 34c0 22 -27 45 -91 45l11 67c-79 11 -162 55 -162 164c0 7 0 14 1 22h74c-1 -6 -1 -8 -1 -11
c0 -80 62 -104 126 -104c67 0 105 28 105 72c0 49 -48 62 -109 76c-80 18 -174 39 -174 145c0 98 77 155 171 155c67 0 132 -30 165 -93l-65 -42c-19 42 -63 62 -105 62c-57 0 -90 -31 -90 -76c0 -57 58 -70 118 -83c78 -17 165 -34 165 -137z" />
    <glyph glyph-name="scircumflex" unicode="&#x15d;" horiz-adv-x="461" 
d="M295 588l-69 84l-67 -84h-80l120 152h55l121 -152h-80zM261 283c78 -17 165 -34 165 -137s-85 -152 -182 -152c-87 0 -199 39 -199 166c0 7 0 14 1 22h74c-1 -6 -1 -8 -1 -11c0 -80 62 -104 126 -104c67 0 105 28 105 72c0 49 -48 62 -109 76c-80 18 -174 39 -174 145
c0 98 77 155 171 155c67 0 132 -30 165 -93l-65 -42c-19 42 -63 62 -105 62c-57 0 -90 -31 -90 -76c0 -57 58 -70 118 -83z" />
    <glyph glyph-name="scommaaccent" unicode="&#x219;" horiz-adv-x="461" 
d="M261 283c78 -17 165 -34 165 -137s-85 -152 -182 -152c-87 0 -199 39 -199 166c0 7 0 14 1 22h74c-1 -6 -1 -8 -1 -11c0 -80 62 -104 126 -104c67 0 105 28 105 72c0 49 -48 62 -109 76c-80 18 -174 39 -174 145c0 98 77 155 171 155c67 0 132 -30 165 -93l-65 -42
c-19 42 -63 62 -105 62c-57 0 -90 -31 -90 -76c0 -57 58 -70 118 -83zM194 -74h78c0 -131 -34 -213 -158 -262l-32 68c87 37 112 85 112 194z" />
    <glyph glyph-name="uni1E61" unicode="&#x1e61;" horiz-adv-x="461" 
d="M206 588v92h87v-92h-87zM261 283c78 -17 165 -34 165 -137s-85 -152 -182 -152c-87 0 -199 39 -199 166c0 7 0 14 1 22h74c-1 -6 -1 -8 -1 -11c0 -80 62 -104 126 -104c67 0 105 28 105 72c0 49 -48 62 -109 76c-80 18 -174 39 -174 145c0 98 77 155 171 155
c67 0 132 -30 165 -93l-65 -42c-19 42 -63 62 -105 62c-57 0 -90 -31 -90 -76c0 -57 58 -70 118 -83z" />
    <glyph glyph-name="germandbls" unicode="&#xdf;" horiz-adv-x="606" 
d="M402 362c107 -15 164 -93 164 -177c0 -90 -67 -185 -205 -185h-93v75h96c76 0 124 40 124 109c0 78 -63 129 -220 129v74c108 10 170 50 170 133c0 80 -59 118 -140 118c-85 0 -140 -41 -140 -133v-505h-83v505c0 141 101 206 224 206c125 0 216 -67 216 -184
c0 -92 -59 -142 -113 -165z" />
    <glyph glyph-name="longs" unicode="&#x17f;" horiz-adv-x="354" 
d="M261 625c-51 0 -72 -32 -72 -90v-535h-76v434h-103v72h103v32c0 98 48 162 142 162h99v-75h-93z" />
    <glyph glyph-name="tbar" unicode="&#x167;" horiz-adv-x="370" 
d="M262 75h83v-75h-89c-94 0 -142 63 -142 161v95h-104v71h104v107h-103v72h103v128h76v-128h2c54 0 95 3 142 11l10 -70c-51 -9 -97 -13 -154 -13v-107h148v-71h-148v-91c0 -59 21 -90 72 -90z" />
    <glyph glyph-name="tcaron" unicode="&#x165;" horiz-adv-x="581" 
d="M483 711h78c0 -131 -34 -213 -158 -262l-32 68c87 37 112 85 112 194zM261 75h83v-75h-89c-94 0 -142 63 -142 161v273h-103v72h103v128h76v-128h2c54 0 95 3 142 11l10 -70c-51 -9 -97 -13 -154 -13v-269c0 -59 21 -90 72 -90z" />
    <glyph glyph-name="uni0163" unicode="&#x163;" horiz-adv-x="377" 
d="M250 -41c60 -2 102 -31 102 -77c0 -48 -40 -85 -100 -85c-43 0 -79 14 -106 37l30 46c24 -20 46 -30 72 -30c28 0 44 14 44 34c0 22 -27 45 -91 45l12 76c-66 16 -100 74 -100 156v273h-103v72h103v128h76v-128h2c54 0 95 3 142 11l10 -70c-51 -9 -97 -13 -154 -13v-269
c0 -59 21 -90 72 -90h83v-75h-89h-5v-41z" />
    <glyph glyph-name="uni021B" unicode="&#x21b;" horiz-adv-x="369" 
d="M261 75h83v-75h-89c-94 0 -142 63 -142 161v273h-103v72h103v128h76v-128h2c54 0 95 3 142 11l10 -70c-51 -9 -97 -13 -154 -13v-269c0 -59 21 -90 72 -90zM206 -75h78c0 -131 -34 -213 -158 -262l-32 68c87 37 112 85 112 194z" />
    <glyph glyph-name="uni1E6B" unicode="&#x1e6b;" horiz-adv-x="369" 
d="M113 700v92h87v-92h-87zM261 75h83v-75h-89c-94 0 -142 63 -142 161v273h-103v72h103v128h76v-128h2c54 0 95 3 142 11l10 -70c-51 -9 -97 -13 -154 -13v-269c0 -59 21 -90 72 -90z" />
    <glyph glyph-name="uacute" unicode="&#xfa;" 
d="M424 699c-50 -77 -132 -111 -245 -111v65c85 0 149 29 188 87zM407 506h77v-506h-77v61c-33 -48 -82 -67 -153 -67c-115 0 -184 77 -184 178v334h77v-334c0 -62 42 -103 114 -103c92 0 146 56 146 137v300z" />
    <glyph glyph-name="ubreve" unicode="&#x16d;" 
d="M357 759c10 -23 16 -45 16 -68c0 -57 -37 -103 -106 -103s-105 46 -105 103c0 23 6 45 16 68l58 -25c-9 -15 -12 -30 -12 -42c0 -26 17 -44 43 -44c27 0 44 18 44 44c0 12 -3 27 -12 42zM407 506h77v-506h-77v61c-33 -48 -82 -67 -153 -67c-115 0 -184 77 -184 178v334
h77v-334c0 -62 42 -103 114 -103c92 0 146 56 146 137v300z" />
    <glyph glyph-name="ucircumflex" unicode="&#xfb;" 
d="M334 588l-69 84l-67 -84h-80l120 152h55l121 -152h-80zM407 506h77v-506h-77v61c-33 -48 -82 -67 -153 -67c-115 0 -184 77 -184 178v334h77v-334c0 -62 42 -103 114 -103c92 0 146 56 146 137v300z" />
    <glyph glyph-name="udieresis" unicode="&#xfc;" 
d="M209 588v98h-87v-98h87zM413 588v98h-87v-98h87zM407 506h77v-506h-77v61c-33 -48 -82 -67 -153 -67c-115 0 -184 77 -184 178v334h77v-334c0 -62 42 -103 114 -103c92 0 146 56 146 137v300z" />
    <glyph glyph-name="ugrave" unicode="&#xf9;" 
d="M124 699l57 41c39 -58 103 -87 188 -87v-65c-113 0 -195 34 -245 111zM407 506h77v-506h-77v61c-33 -48 -82 -67 -153 -67c-115 0 -184 77 -184 178v334h77v-334c0 -62 42 -103 114 -103c92 0 146 56 146 137v300z" />
    <glyph glyph-name="uhungarumlaut" unicode="&#x171;" 
d="M222 754l60 -22l-54 -144l-58 21zM334 754l60 -22l-54 -144l-58 21zM407 506h77v-506h-77v61c-33 -48 -82 -67 -153 -67c-115 0 -184 77 -184 178v334h77v-334c0 -62 42 -103 114 -103c92 0 146 56 146 137v300z" />
    <glyph glyph-name="umacron" unicode="&#x16b;" 
d="M416 588h-298v62h298v-62zM407 506h77v-506h-77v61c-33 -48 -82 -67 -153 -67c-115 0 -184 77 -184 178v334h77v-334c0 -62 42 -103 114 -103c92 0 146 56 146 137v300z" />
    <glyph glyph-name="uogonek" unicode="&#x173;" horiz-adv-x="577" 
d="M426 -47c0 -39 39 -57 76 -59v-58c-71 6 -132 50 -132 107c0 29 15 51 35 64h2v54c-33 -48 -82 -67 -153 -67c-115 0 -184 77 -184 178v334h77v-334c0 -62 42 -103 114 -103c92 0 146 56 146 137v300h77v-506h-36c-12 -12 -22 -26 -22 -47z" />
    <glyph glyph-name="uring" unicode="&#x16f;" 
d="M174 682c0 56 40 93 92 93c55 0 96 -37 96 -93c0 -55 -41 -94 -96 -94c-52 0 -92 39 -92 94zM314 682c0 27 -17 48 -47 48s-45 -21 -45 -48c0 -28 15 -49 45 -49s47 21 47 49zM407 506h77v-506h-77v61c-33 -48 -82 -67 -153 -67c-115 0 -184 77 -184 178v334h77v-334
c0 -62 42 -103 114 -103c92 0 146 56 146 137v300z" />
    <glyph glyph-name="utilde" unicode="&#x169;" 
d="M451 710c0 -85 -43 -122 -89 -122c-54 0 -99 50 -135 50c-23 0 -34 -20 -37 -46h-61c5 76 42 121 93 121c54 0 92 -52 132 -52c25 0 33 22 36 49h61zM407 506h77v-506h-77v61c-33 -48 -82 -67 -153 -67c-115 0 -184 77 -184 178v334h77v-334c0 -62 42 -103 114 -103
c92 0 146 56 146 137v300z" />
    <glyph glyph-name="wacute" unicode="&#x1e83;" horiz-adv-x="795" 
d="M593 699c-50 -77 -132 -111 -245 -111v65c85 0 149 29 188 87zM697 506h83l-166 -506h-90l-126 399l-127 -399h-90l-166 506h83l128 -409l125 409h93l125 -409z" />
    <glyph glyph-name="wcircumflex" unicode="&#x175;" horiz-adv-x="795" 
d="M465 588l-69 84l-67 -84h-80l120 152h55l121 -152h-80zM697 506h83l-166 -506h-90l-126 399l-127 -399h-90l-166 506h83l128 -409l125 409h93l125 -409z" />
    <glyph glyph-name="wdieresis" unicode="&#x1e85;" horiz-adv-x="795" 
d="M338 588v98h-87v-98h87zM542 588v98h-87v-98h87zM697 506h83l-166 -506h-90l-126 399l-127 -399h-90l-166 506h83l128 -409l125 409h93l125 -409z" />
    <glyph glyph-name="wgrave" unicode="&#x1e81;" horiz-adv-x="795" 
d="M230 699l57 41c39 -58 103 -87 188 -87v-65c-113 0 -195 34 -245 111zM697 506h83l-166 -506h-90l-126 399l-127 -399h-90l-166 506h83l128 -409l125 409h93l125 -409z" />
    <glyph glyph-name="yacute" unicode="&#xfd;" horiz-adv-x="498" 
d="M412 699c-50 -77 -132 -111 -245 -111v65c85 0 149 29 188 87zM401 506h82l-202 -556c-35 -96 -67 -142 -162 -142h-69v74h55c52 0 79 16 99 73l12 35l-201 516h88l151 -411z" />
    <glyph glyph-name="ycircumflex" unicode="&#x177;" horiz-adv-x="498" 
d="M244 672l-67 -84h-80l120 152h55l121 -152h-80zM401 506h82l-202 -556c-35 -96 -67 -142 -162 -142h-69v74h55c52 0 79 16 99 73l12 35l-201 516h88l151 -411z" />
    <glyph glyph-name="ydieresis" unicode="&#xff;" horiz-adv-x="498" 
d="M189 686v-98h-87v98h87zM393 686v-98h-87v98h87zM401 506h82l-202 -556c-35 -96 -67 -142 -162 -142h-69v74h55c52 0 79 16 99 73l12 35l-201 516h88l151 -411z" />
    <glyph glyph-name="ygrave" unicode="&#x1ef3;" horiz-adv-x="498" 
d="M335 588c-113 0 -195 34 -245 111l57 41c39 -58 103 -87 188 -87v-65zM401 506h82l-202 -556c-35 -96 -67 -142 -162 -142h-69v74h55c52 0 79 16 99 73l12 35l-201 516h88l151 -411z" />
    <glyph glyph-name="zacute" unicode="&#x17a;" horiz-adv-x="489" 
d="M406 699c-50 -77 -132 -111 -245 -111v65c85 0 149 29 188 87zM454 73v-73h-397v72l283 361h-90c-85 0 -147 2 -215 12l11 71c75 -13 175 -10 220 -10h163v-72l-279 -361h304z" />
    <glyph glyph-name="zcaron" unicode="&#x17e;" horiz-adv-x="489" 
d="M164 740l69 -84l67 84h80l-120 -152h-55l-121 152h80zM454 73v-73h-397v72l283 361h-90c-85 0 -147 2 -215 12l11 71c75 -13 175 -10 220 -10h163v-72l-279 -361h304z" />
    <glyph glyph-name="zdotaccent" unicode="&#x17c;" horiz-adv-x="489" 
d="M198 588v92h87v-92h-87zM454 73v-73h-397v72l283 361h-90c-85 0 -147 2 -215 12l11 71c75 -13 175 -10 220 -10h163v-72l-279 -361h304z" />
    <glyph glyph-name="uni0394" unicode="&#x394;" horiz-adv-x="687" 
d="M662 81v-81h-637v81l274 619h89zM571 81l-228 522l-229 -522h457z" />
    <glyph glyph-name="uni03A9" unicode="&#x3a9;" horiz-adv-x="758" 
d="M484 81h151v-81h-222v189c145 28 212 132 212 232c0 112 -85 220 -246 220s-246 -108 -246 -220c0 -100 67 -204 212 -232v-189h-222v81h151v55c-110 29 -224 122 -224 284c0 199 155 297 329 297s329 -98 329 -297c0 -162 -114 -255 -224 -284v-55z" />
    <glyph glyph-name="uni03BC" unicode="&#x3bc;" horiz-adv-x="563" 
d="M412 506h76v-506h-76v57c-33 -45 -81 -63 -150 -63c-44 0 -81 11 -111 31v-227h-76v708h76v-334c0 -62 42 -103 114 -103c93 0 147 56 147 137v300z" />
    <glyph glyph-name="pi" unicode="&#x3c0;" horiz-adv-x="640" 
d="M610 465c-36 -21 -95 -31 -146 -34v-294c0 -60 30 -71 73 -71h23v-66h-48c-49 0 -127 7 -127 134v296h-146v-430h-79v430h-130v76h358c99 0 183 17 222 43v-84z" />
    <glyph glyph-name="zero" unicode="0" horiz-adv-x="599" 
d="M300 700c170 0 259 -140 259 -356c0 -215 -89 -355 -259 -355s-260 140 -260 355c0 216 90 356 260 356zM300 63c126 0 182 104 182 281c0 178 -56 281 -182 281s-182 -103 -182 -281c0 -177 56 -281 182 -281z" />
    <glyph glyph-name="one" unicode="1" horiz-adv-x="364" 
d="M10 621c56 13 119 34 185 64l13 5h66v-690h-81v598c-51 -21 -108 -39 -166 -52z" />
    <glyph glyph-name="two" unicode="2" 
d="M181 78h358v-78h-478v77l173 127c150 109 204 179 204 270c0 96 -51 154 -143 154c-89 0 -150 -52 -159 -135l-73 9c12 127 108 198 232 198c133 0 222 -80 222 -219c0 -134 -94 -228 -242 -335z" />
    <glyph glyph-name="three" unicode="3" horiz-adv-x="558" 
d="M273 415c158 5 255 -80 255 -211c0 -130 -92 -215 -240 -215c-141 0 -237 74 -237 207c0 13 1 27 3 42h78c-4 -16 -5 -31 -5 -45c0 -83 65 -124 162 -124c105 0 161 50 161 131c0 110 -102 161 -276 133v82l200 197h-113c-65 0 -144 0 -221 16l13 79
c56 -11 125 -17 208 -17h222v-78z" />
    <glyph glyph-name="four" unicode="4" horiz-adv-x="586" 
d="M443 233h118v-78h-118v-155h-81v157h-347v76l303 457h125v-457zM99 233h263v390z" />
    <glyph glyph-name="five" unicode="5" horiz-adv-x="549" 
d="M288 461c124 0 221 -88 221 -235c0 -159 -109 -237 -237 -237c-125 0 -232 74 -232 217c0 9 1 17 2 25h75c-1 -9 -2 -17 -2 -26c0 -88 64 -142 156 -142c94 0 160 57 160 162c0 108 -73 163 -155 163c-43 0 -88 -15 -128 -45h-78l41 347h145c78 0 144 5 199 15l12 -72
c-73 -15 -149 -15 -211 -15h-79l-21 -188c45 21 91 31 132 31z" />
    <glyph glyph-name="six" unicode="6" horiz-adv-x="585" 
d="M433 568c-24 37 -68 57 -129 57c-133 0 -194 -108 -189 -281c35 74 119 115 203 115c117 0 227 -75 227 -231c0 -144 -92 -239 -233 -239c-166 0 -272 134 -272 359c0 217 90 352 262 352c85 0 150 -32 190 -85zM310 63c78 0 158 53 158 160c0 96 -64 163 -157 163
c-78 0 -164 -47 -164 -159c0 -110 84 -164 163 -164z" />
    <glyph glyph-name="seven" unicode="7" horiz-adv-x="529" 
d="M220 690h304v-78c-211 -138 -277 -353 -277 -612h-78c0 246 60 452 253 612h-202c-63 0 -142 0 -215 15l12 78c57 -10 124 -15 203 -15z" />
    <glyph glyph-name="eight" unicode="8" horiz-adv-x="575" 
d="M416 358c79 -26 119 -90 119 -170c0 -124 -97 -199 -247 -199c-151 0 -248 75 -248 199c0 80 40 144 119 170c-73 30 -101 91 -101 156c0 116 88 186 230 186c141 0 229 -70 229 -186c0 -65 -28 -126 -101 -156zM288 625c-93 0 -152 -47 -152 -116s60 -111 152 -111
c91 0 151 42 151 111s-59 116 -151 116zM288 63c104 0 168 54 168 134s-62 127 -168 127c-107 0 -169 -47 -169 -127s64 -134 169 -134z" />
    <glyph glyph-name="nine" unicode="9" horiz-adv-x="585" 
d="M267 230c-117 0 -227 74 -227 231c0 144 93 239 234 239c166 0 271 -135 271 -359c0 -218 -89 -352 -262 -352c-128 0 -210 71 -229 182h77c14 -67 64 -108 150 -108c133 0 194 109 189 281c-35 -73 -119 -114 -203 -114zM275 625c-78 0 -157 -52 -157 -159
c0 -97 63 -164 157 -164c78 0 164 48 164 160c0 110 -84 163 -164 163z" />
    <glyph glyph-name="zero.dnom" horiz-adv-x="396" 
d="M198 424c102 0 163 -84 163 -216c0 -131 -61 -215 -163 -215s-163 84 -163 215c0 132 61 216 163 216zM198 61c64 0 95 51 95 147s-31 148 -95 148s-95 -53 -95 -148s31 -147 95 -147z" />
    <glyph glyph-name="one.dnom" horiz-adv-x="399" 
d="M241 65h104v-65h-278v65h104v265c-30 -13 -64 -23 -101 -29l-15 66c36 6 77 20 123 41l10 4h53v-347z" />
    <glyph glyph-name="two.dnom" horiz-adv-x="399" 
d="M54 297c4 80 65 129 145 129c77 0 144 -44 144 -132c0 -68 -39 -127 -147 -199l-51 -36h200v-59h-288v59l91 65c68 49 133 106 133 166c0 46 -39 73 -83 73s-79 -27 -81 -73z" />
    <glyph glyph-name="three.dnom" horiz-adv-x="399" 
d="M201 239c88 6 147 -40 147 -109c0 -82 -58 -137 -146 -137c-83 0 -144 47 -144 121c0 7 1 14 2 21h66c-1 -7 -1 -12 -1 -17c0 -40 31 -63 78 -63c51 0 80 24 80 66c0 55 -57 75 -151 60v66l104 96h-38c-39 0 -90 0 -136 11l10 69c35 -8 76 -11 126 -11h130v-62z" />
    <glyph glyph-name="four.dnom" horiz-adv-x="396" 
d="M301 145h62v-66h-62v-79h-69v79h-200v69l174 264h95v-267zM100 145h132v198z" />
    <glyph glyph-name="five.dnom" horiz-adv-x="399" 
d="M209 275c87 0 142 -53 142 -134c0 -74 -42 -148 -149 -148c-82 0 -146 47 -146 123c0 5 0 11 1 17h68c-1 -5 -1 -10 -1 -14c0 -38 37 -60 79 -60c54 0 80 30 80 76s-33 76 -84 76c-14 0 -40 -3 -64 -26h-67l29 227h89c51 0 91 4 125 12l11 -69c-46 -11 -98 -11 -136 -11
h-32l-10 -86c21 12 43 17 65 17z" />
    <glyph glyph-name="six.dnom" horiz-adv-x="398" 
d="M215 278c84 0 140 -55 140 -138c0 -89 -56 -147 -142 -147c-104 0 -170 84 -170 212c0 138 57 219 169 219c49 0 85 -16 109 -46l-47 -45c-13 16 -32 24 -63 24c-67 0 -99 -48 -97 -126c12 28 55 47 101 47zM215 60c46 0 73 27 73 75c0 46 -30 77 -78 77
c-49 0 -83 -31 -83 -77c0 -44 36 -75 88 -75z" />
    <glyph glyph-name="seven.dnom" horiz-adv-x="396" 
d="M173 412h185v-68c-112 -78 -162 -183 -163 -344h-75c1 146 48 256 146 344h-93c-39 0 -90 0 -136 11l10 68c37 -8 78 -11 126 -11z" />
    <glyph glyph-name="eight.dnom" horiz-adv-x="398" 
d="M289 216c38 -19 59 -54 59 -97c0 -73 -61 -126 -149 -126s-149 53 -149 126c0 43 21 78 58 97c-33 26 -49 54 -49 90c0 68 58 118 140 118s140 -50 140 -118c0 -36 -16 -64 -50 -90zM199 355c-42 0 -70 -21 -70 -53c0 -31 26 -50 70 -50s70 19 70 50c0 32 -28 53 -70 53z
M199 62c49 0 81 23 81 62s-31 61 -81 61s-81 -22 -81 -61s31 -62 81 -62z" />
    <glyph glyph-name="nine.dnom" horiz-adv-x="398" 
d="M183 138c-84 0 -140 55 -140 138c0 89 56 148 142 148c103 0 170 -84 170 -213c0 -137 -58 -218 -169 -218c-75 0 -124 41 -140 109h69c8 -28 32 -42 72 -42c66 0 99 47 97 126c-12 -28 -55 -48 -101 -48zM183 356c-46 0 -72 -27 -72 -74s30 -77 77 -77c49 0 82 30 82 77
c0 44 -36 74 -87 74z" />
    <glyph glyph-name="zero.numr" horiz-adv-x="396" 
d="M198 700c102 0 163 -84 163 -216c0 -131 -61 -215 -163 -215s-163 84 -163 215c0 132 61 216 163 216zM198 337c64 0 95 51 95 147s-31 148 -95 148s-95 -53 -95 -148s31 -147 95 -147z" />
    <glyph glyph-name="one.numr" horiz-adv-x="399" 
d="M241 341h104v-65h-278v65h104v265c-30 -13 -64 -23 -101 -29l-15 66c36 6 77 20 123 41l10 4h53v-347z" />
    <glyph glyph-name="two.numr" horiz-adv-x="399" 
d="M54 571c4 80 65 129 145 129c77 0 144 -44 144 -132c0 -68 -39 -127 -147 -199l-51 -36h200v-59h-288v59l91 65c68 49 133 106 133 166c0 46 -39 73 -83 73s-79 -27 -81 -73z" />
    <glyph glyph-name="three.numr" horiz-adv-x="399" 
d="M201 515c88 6 147 -40 147 -109c0 -82 -58 -137 -146 -137c-83 0 -144 47 -144 121c0 7 1 14 2 21h66c-1 -7 -1 -12 -1 -17c0 -40 31 -63 78 -63c51 0 80 24 80 66c0 55 -57 75 -151 60v66l104 96h-38c-39 0 -90 0 -136 11l10 69c35 -8 76 -11 126 -11h130v-62z" />
    <glyph glyph-name="four.numr" horiz-adv-x="396" 
d="M301 421h62v-66h-62v-79h-69v79h-200v69l174 264h95v-267zM100 421h132v198z" />
    <glyph glyph-name="five.numr" horiz-adv-x="399" 
d="M209 551c87 0 142 -53 142 -134c0 -74 -42 -148 -149 -148c-82 0 -146 47 -146 123c0 5 0 11 1 17h68c-1 -5 -1 -10 -1 -14c0 -38 37 -60 79 -60c54 0 80 30 80 76s-33 76 -84 76c-14 0 -40 -3 -64 -26h-67l29 227h89c51 0 91 4 125 12l11 -69c-46 -11 -98 -11 -136 -11
h-32l-10 -86c21 12 43 17 65 17z" />
    <glyph glyph-name="six.numr" horiz-adv-x="398" 
d="M215 554c84 0 140 -55 140 -138c0 -89 -56 -147 -142 -147c-104 0 -170 84 -170 212c0 138 57 219 169 219c49 0 85 -16 109 -46l-47 -45c-13 16 -32 24 -63 24c-67 0 -99 -48 -97 -126c12 28 55 47 101 47zM215 336c46 0 73 27 73 75c0 46 -30 77 -78 77
c-49 0 -83 -31 -83 -77c0 -44 36 -75 88 -75z" />
    <glyph glyph-name="seven.numr" horiz-adv-x="396" 
d="M173 688h185v-68c-112 -78 -162 -183 -163 -344h-75c1 146 48 256 146 344h-93c-39 0 -90 0 -136 11l10 68c37 -8 78 -11 126 -11z" />
    <glyph glyph-name="eight.numr" horiz-adv-x="398" 
d="M289 492c38 -19 59 -54 59 -97c0 -73 -61 -126 -149 -126s-149 53 -149 126c0 43 21 78 58 97c-33 26 -49 54 -49 90c0 68 58 118 140 118s140 -50 140 -118c0 -36 -16 -64 -50 -90zM199 631c-42 0 -70 -21 -70 -53c0 -31 26 -50 70 -50s70 19 70 50c0 32 -28 53 -70 53z
M199 338c49 0 81 23 81 62s-31 61 -81 61s-81 -22 -81 -61s31 -62 81 -62z" />
    <glyph glyph-name="nine.numr" horiz-adv-x="398" 
d="M183 414c-84 0 -140 55 -140 138c0 89 56 148 142 148c103 0 170 -84 170 -213c0 -137 -58 -218 -169 -218c-75 0 -124 41 -140 109h69c8 -28 32 -42 72 -42c66 0 99 47 97 126c-12 -28 -55 -48 -101 -48zM183 632c-46 0 -72 -27 -72 -74s30 -77 77 -77c49 0 82 30 82 77
c0 44 -36 74 -87 74z" />
    <glyph glyph-name="fraction" unicode="&#x2044;" horiz-adv-x="502" 
d="M58 -11l-58 39l444 669l58 -39z" />
    <glyph glyph-name="onehalf" unicode="&#xbd;" horiz-adv-x="944" 
d="M304 -11l-58 39l444 669l58 -39zM237 340h104v-65h-278v65h104v265c-30 -13 -64 -23 -101 -29l-15 66c36 6 77 20 123 41l10 4h53v-347zM598 297c4 80 65 129 145 129c77 0 144 -44 144 -132c0 -68 -39 -127 -147 -199l-51 -36h200v-59h-288v59l91 65
c68 49 133 106 133 166c0 46 -39 73 -83 73s-79 -27 -81 -73z" />
    <glyph glyph-name="uni2153" unicode="&#x2153;" horiz-adv-x="943" 
d="M295 -11l-58 39l444 669l58 -39zM237 340h104v-65h-278v65h104v265c-30 -13 -64 -23 -101 -29l-15 66c36 6 77 20 123 41l10 4h53v-347zM753 239c88 6 147 -40 147 -109c0 -82 -58 -137 -146 -137c-83 0 -144 47 -144 121c0 7 1 14 2 21h66c-1 -7 -1 -12 -1 -17
c0 -40 31 -63 78 -63c51 0 80 24 80 66c0 55 -57 75 -151 60v66l104 96h-38c-39 0 -90 0 -136 11l10 69c35 -8 76 -11 126 -11h130v-62z" />
    <glyph glyph-name="uni2154" unicode="&#x2154;" horiz-adv-x="945" 
d="M54 571c4 80 65 129 145 129c77 0 144 -44 144 -132c0 -68 -39 -127 -147 -199l-51 -36h200v-59h-288v59l91 65c68 49 133 106 133 166c0 46 -39 73 -83 73s-79 -27 -81 -73zM287 -11l-58 39l444 669l58 -39zM736 239c88 6 147 -40 147 -109c0 -82 -58 -137 -146 -137
c-83 0 -144 47 -144 121c0 7 1 14 2 21h66c-1 -7 -1 -12 -1 -17c0 -40 31 -63 78 -63c51 0 80 24 80 66c0 55 -57 75 -151 60v66l104 96h-38c-39 0 -90 0 -136 11l10 69c35 -8 76 -11 126 -11h130v-62z" />
    <glyph glyph-name="onequarter" unicode="&#xbc;" horiz-adv-x="940" 
d="M303 -11l-58 39l444 669l58 -39zM237 340h104v-65h-278v65h104v265c-30 -13 -64 -23 -101 -29l-15 66c36 6 77 20 123 41l10 4h53v-347zM829 145h62v-66h-62v-79h-69v79h-200v69l174 264h95v-267zM628 145h132v198z" />
    <glyph glyph-name="threequarters" unicode="&#xbe;" horiz-adv-x="941" 
d="M201 515c88 6 147 -40 147 -109c0 -82 -58 -137 -146 -137c-83 0 -144 47 -144 121c0 7 1 14 2 21h66c-1 -7 -1 -12 -1 -17c0 -40 31 -63 78 -63c51 0 80 24 80 66c0 55 -57 75 -151 60v66l104 96h-38c-39 0 -90 0 -136 11l10 69c35 -8 76 -11 126 -11h130v-62zM313 -11
l-58 39l444 669l58 -39zM821 145h62v-66h-62v-79h-69v79h-200v69l174 264h95v-267zM620 145h132v198z" />
    <glyph glyph-name="uni2155" unicode="&#x2155;" horiz-adv-x="943" 
d="M293 -11l-58 39l444 669l58 -39zM227 340h104v-65h-278v65h104v265c-30 -13 -64 -23 -101 -29l-15 66c36 6 77 20 123 41l10 4h53v-347zM752 275c87 0 142 -53 142 -134c0 -74 -42 -148 -149 -148c-82 0 -146 47 -146 123c0 5 0 11 1 17h68c-1 -5 -1 -10 -1 -14
c0 -38 37 -60 79 -60c54 0 80 30 80 76s-33 76 -84 76c-14 0 -40 -3 -64 -26h-67l29 227h89c51 0 91 4 125 12l11 -69c-46 -11 -98 -11 -136 -11h-32l-10 -86c21 12 43 17 65 17z" />
    <glyph glyph-name="uni2156" unicode="&#x2156;" horiz-adv-x="943" 
d="M45 571c4 80 65 129 145 129c77 0 144 -44 144 -132c0 -68 -39 -127 -147 -199l-51 -36h200v-59h-288v59l91 65c68 49 133 106 133 166c0 46 -39 73 -83 73s-79 -27 -81 -73zM286 -11l-58 39l444 669l58 -39zM752 275c87 0 142 -53 142 -134c0 -74 -42 -148 -149 -148
c-82 0 -146 47 -146 123c0 5 0 11 1 17h68c-1 -5 -1 -10 -1 -14c0 -38 37 -60 79 -60c54 0 80 30 80 76s-33 76 -84 76c-14 0 -40 -3 -64 -26h-67l29 227h89c51 0 91 4 125 12l11 -69c-46 -11 -98 -11 -136 -11h-32l-10 -86c21 12 43 17 65 17z" />
    <glyph glyph-name="uni2157" unicode="&#x2157;" horiz-adv-x="944" 
d="M199 515c88 6 147 -40 147 -109c0 -82 -58 -137 -146 -137c-83 0 -144 47 -144 121c0 7 1 14 2 21h66c-1 -7 -1 -12 -1 -17c0 -40 31 -63 78 -63c51 0 80 24 80 66c0 55 -57 75 -151 60v66l104 96h-38c-39 0 -90 0 -136 11l10 69c35 -8 76 -11 126 -11h130v-62zM285 -11
l-58 39l444 669l58 -39zM745 275c87 0 142 -53 142 -134c0 -74 -42 -148 -149 -148c-82 0 -146 47 -146 123c0 5 0 11 1 17h68c-1 -5 -1 -10 -1 -14c0 -38 37 -60 79 -60c54 0 80 30 80 76s-33 76 -84 76c-14 0 -40 -3 -64 -26h-67l29 227h89c51 0 91 4 125 12l11 -69
c-46 -11 -98 -11 -136 -11h-32l-10 -86c21 12 43 17 65 17z" />
    <glyph glyph-name="uni2158" unicode="&#x2158;" horiz-adv-x="944" 
d="M286 -11l-58 39l444 669l58 -39zM306 421h62v-66h-62v-79h-69v79h-200v69l174 264h95v-267zM105 421h132v198zM745 275c87 0 142 -53 142 -134c0 -74 -42 -148 -149 -148c-82 0 -146 47 -146 123c0 5 0 11 1 17h68c-1 -5 -1 -10 -1 -14c0 -38 37 -60 79 -60
c54 0 80 30 80 76s-33 76 -84 76c-14 0 -40 -3 -64 -26h-67l29 227h89c51 0 91 4 125 12l11 -69c-46 -11 -98 -11 -136 -11h-32l-10 -86c21 12 43 17 65 17z" />
    <glyph glyph-name="uni2159" unicode="&#x2159;" horiz-adv-x="942" 
d="M293 -11l-58 39l444 669l58 -39zM226 340h104v-65h-278v65h104v265c-30 -13 -64 -23 -101 -29l-15 66c36 6 77 20 123 41l10 4h53v-347zM749 278c84 0 140 -55 140 -138c0 -89 -56 -147 -142 -147c-104 0 -170 84 -170 212c0 138 57 219 169 219c49 0 85 -16 109 -46
l-47 -45c-13 16 -32 24 -63 24c-67 0 -99 -48 -97 -126c12 28 55 47 101 47zM749 60c46 0 73 27 73 75c0 46 -30 77 -78 77c-49 0 -83 -31 -83 -77c0 -44 36 -75 88 -75z" />
    <glyph glyph-name="uni215A" unicode="&#x215a;" horiz-adv-x="945" 
d="M232 551c87 0 142 -53 142 -134c0 -74 -42 -148 -149 -148c-82 0 -146 47 -146 123c0 5 0 11 1 17h68c-1 -5 -1 -10 -1 -14c0 -38 37 -60 79 -60c54 0 80 30 80 76s-33 76 -84 76c-14 0 -40 -3 -64 -26h-67l29 227h89c51 0 91 4 125 12l11 -69c-46 -11 -98 -11 -136 -11
h-32l-10 -86c21 12 43 17 65 17zM287 -11l-58 39l444 669l58 -39zM742 278c84 0 140 -55 140 -138c0 -89 -56 -147 -142 -147c-104 0 -170 84 -170 212c0 138 57 219 169 219c49 0 85 -16 109 -46l-47 -45c-13 16 -32 24 -63 24c-67 0 -99 -48 -97 -126c12 28 55 47 101 47z
M742 60c46 0 73 27 73 75c0 46 -30 77 -78 77c-49 0 -83 -31 -83 -77c0 -44 36 -75 88 -75z" />
    <glyph glyph-name="oneeighth" unicode="&#x215b;" horiz-adv-x="941" 
d="M293 -11l-58 39l444 669l58 -39zM226 340h104v-65h-278v65h104v265c-30 -13 -64 -23 -101 -29l-15 66c36 6 77 20 123 41l10 4h53v-347zM836 216c38 -19 59 -54 59 -97c0 -73 -61 -126 -149 -126s-149 53 -149 126c0 43 21 78 58 97c-33 26 -49 54 -49 90
c0 68 58 118 140 118s140 -50 140 -118c0 -36 -16 -64 -50 -90zM746 355c-42 0 -70 -21 -70 -53c0 -31 26 -50 70 -50s70 19 70 50c0 32 -28 53 -70 53zM746 62c49 0 81 23 81 62s-31 61 -81 61s-81 -22 -81 -61s31 -62 81 -62z" />
    <glyph glyph-name="threeeighths" unicode="&#x215c;" horiz-adv-x="942" 
d="M201 515c88 6 147 -40 147 -109c0 -82 -58 -137 -146 -137c-83 0 -144 47 -144 121c0 7 1 14 2 21h66c-1 -7 -1 -12 -1 -17c0 -40 31 -63 78 -63c51 0 80 24 80 66c0 55 -57 75 -151 60v66l104 96h-38c-39 0 -90 0 -136 11l10 69c35 -8 76 -11 126 -11h130v-62zM285 -11
l-58 39l444 669l58 -39zM827 216c38 -19 59 -54 59 -97c0 -73 -61 -126 -149 -126s-149 53 -149 126c0 43 21 78 58 97c-33 26 -49 54 -49 90c0 68 58 118 140 118s140 -50 140 -118c0 -36 -16 -64 -50 -90zM737 355c-42 0 -70 -21 -70 -53c0 -31 26 -50 70 -50s70 19 70 50
c0 32 -28 53 -70 53zM737 62c49 0 81 23 81 62s-31 61 -81 61s-81 -22 -81 -61s31 -62 81 -62z" />
    <glyph glyph-name="fiveeighths" unicode="&#x215d;" horiz-adv-x="942" 
d="M209 551c87 0 142 -53 142 -134c0 -74 -42 -148 -149 -148c-82 0 -146 47 -146 123c0 5 0 11 1 17h68c-1 -5 -1 -10 -1 -14c0 -38 37 -60 79 -60c54 0 80 30 80 76s-33 76 -84 76c-14 0 -40 -3 -64 -26h-67l29 227h89c51 0 91 4 125 12l11 -69c-46 -11 -98 -11 -136 -11
h-32l-10 -86c21 12 43 17 65 17zM285 -11l-58 39l444 669l58 -39zM827 216c38 -19 59 -54 59 -97c0 -73 -61 -126 -149 -126s-149 53 -149 126c0 43 21 78 58 97c-33 26 -49 54 -49 90c0 68 58 118 140 118s140 -50 140 -118c0 -36 -16 -64 -50 -90zM737 355
c-42 0 -70 -21 -70 -53c0 -31 26 -50 70 -50s70 19 70 50c0 32 -28 53 -70 53zM737 62c49 0 81 23 81 62s-31 61 -81 61s-81 -22 -81 -61s31 -62 81 -62z" />
    <glyph glyph-name="seveneighths" unicode="&#x215e;" horiz-adv-x="944" 
d="M196 688h185v-68c-112 -78 -162 -183 -163 -344h-75c1 146 48 256 146 344h-93c-39 0 -90 0 -136 11l10 68c37 -8 78 -11 126 -11zM287 -11l-58 39l444 669l58 -39zM829 216c38 -19 59 -54 59 -97c0 -73 -61 -126 -149 -126s-149 53 -149 126c0 43 21 78 58 97
c-33 26 -49 54 -49 90c0 68 58 118 140 118s140 -50 140 -118c0 -36 -16 -64 -50 -90zM739 355c-42 0 -70 -21 -70 -53c0 -31 26 -50 70 -50s70 19 70 50c0 32 -28 53 -70 53zM739 62c49 0 81 23 81 62s-31 61 -81 61s-81 -22 -81 -61s31 -62 81 -62z" />
    <glyph glyph-name="asterisk" unicode="*" horiz-adv-x="407" 
d="M377 555l-112 -36l70 -95l-62 -45l-69 97l-70 -97l-62 45l70 95l-112 36l24 75l111 -39v120h77v-120l111 39z" />
    <glyph glyph-name="backslash" unicode="\" horiz-adv-x="341" 
d="M10 686l69 25l252 -697l-69 -25z" />
    <glyph glyph-name="periodcentered" unicode="&#xb7;" horiz-adv-x="182" 
d="M53 338v92h87v-92h-87z" />
    <glyph glyph-name="bullet" unicode="&#x2022;" horiz-adv-x="193" 
d="M44 310v120h113v-120h-113z" />
    <glyph glyph-name="colon" unicode=":" horiz-adv-x="202" 
d="M63 375v92h87v-92h-87zM63 0v92h87v-92h-87z" />
    <glyph glyph-name="comma" unicode="," horiz-adv-x="230" 
d="M112 113h78c0 -131 -34 -213 -158 -262l-32 68c87 37 112 85 112 194z" />
    <glyph glyph-name="ellipsis" unicode="&#x2026;" horiz-adv-x="630" 
d="M70 0v92h87v-92h-87zM277 0v92h87v-92h-87zM484 0v92h87v-92h-87z" />
    <glyph glyph-name="exclam" unicode="!" horiz-adv-x="230" 
d="M106 227l-16 473h95l-16 -473h-63zM99 0v92h87v-92h-87z" />
    <glyph glyph-name="exclamdown" unicode="&#xa1;" horiz-adv-x="215" 
d="M49 567h87v-92h-87v92zM56 340h63l16 -473h-95z" />
    <glyph glyph-name="numbersign" unicode="#" horiz-adv-x="705" 
d="M666 406h-156l-25 -171h156l-8 -64h-157l-25 -171h-69l25 171h-151l-25 -171h-69l25 171h-157l7 64h159l25 171h-157l9 63h157l24 167h70l-24 -167h151l24 167h69l-24 -167h155zM416 235l25 171h-151l-25 -171h151z" />
    <glyph glyph-name="period" unicode="." horiz-adv-x="167" 
d="M40 0v92h87v-92h-87z" />
    <glyph glyph-name="question" unicode="?" horiz-adv-x="525" 
d="M116 501c3 83 62 133 149 133s142 -51 142 -128c0 -65 -42 -93 -89 -120c-57 -32 -119 -62 -119 -161v-43h75v41c0 60 46 81 95 110c55 33 116 74 116 176c0 122 -85 202 -218 202c-132 0 -225 -81 -227 -202zM196 0v92h87v-92h-87z" />
    <glyph glyph-name="questiondown" unicode="&#xbf;" horiz-adv-x="525" 
d="M329 489v-92h-87v92h87zM409 -12c-3 -83 -62 -133 -149 -133s-142 51 -142 128c0 65 42 93 89 120c57 32 119 62 119 161v43h-75v-41c0 -60 -46 -81 -95 -110c-55 -33 -116 -74 -116 -176c0 -122 85 -202 218 -202c132 0 225 81 227 202z" />
    <glyph glyph-name="quotedbl" unicode="&#x22;" horiz-adv-x="366" 
d="M115 710l36 -235l-70 -12l-41 236zM284 710l36 -235l-70 -12l-41 236z" />
    <glyph glyph-name="quotesingle" unicode="'" horiz-adv-x="191" 
d="M115 710l36 -235l-70 -12l-41 236z" />
    <glyph glyph-name="semicolon" unicode=";" horiz-adv-x="253" 
d="M111 375v92h87v-92h-87zM112 113h78c0 -131 -34 -213 -158 -262l-32 68c87 37 112 85 112 194z" />
    <glyph glyph-name="slash" unicode="/" horiz-adv-x="341" 
d="M331 686l-252 -697l-69 25l252 697z" />
    <glyph glyph-name="underscore" unicode="_" horiz-adv-x="495" 
d="M50 -46h398v-72h-398v72z" />
    <glyph glyph-name="braceleft" unicode="{" horiz-adv-x="304" 
d="M176 420c0 -43 -21 -84 -71 -97c50 -13 71 -54 71 -97v-169c0 -78 45 -86 98 -86v-75c-116 0 -177 48 -177 158v154c0 51 -33 70 -97 70v90c64 0 97 18 97 70v154c0 110 61 158 177 158v-75c-53 0 -98 -9 -98 -86v-169z" />
    <glyph glyph-name="braceright" unicode="}" horiz-adv-x="304" 
d="M128 420v169c0 77 -45 86 -98 86v75c116 0 177 -48 177 -158v-154c0 -52 33 -70 97 -70v-90c-64 0 -97 -19 -97 -70v-154c0 -110 -61 -158 -177 -158v75c53 0 98 8 98 86v169c0 43 21 84 71 97c-50 13 -71 54 -71 97z" />
    <glyph glyph-name="bracketleft" unicode="[" horiz-adv-x="262" 
d="M222 -102h-152v820h152v-71h-75v-677h75v-72z" />
    <glyph glyph-name="bracketright" unicode="]" horiz-adv-x="287" 
d="M45 -102v72h75v677h-75v71h152v-820h-152z" />
    <glyph glyph-name="parenleft" unicode="(" horiz-adv-x="367" 
d="M357 740c-152 -104 -229 -245 -229 -425s77 -321 229 -424l-49 -59c-166 106 -258 281 -258 483c0 203 92 377 258 484z" />
    <glyph glyph-name="parenright" unicode=")" horiz-adv-x="362" 
d="M5 740l49 59c166 -107 258 -281 258 -484c0 -202 -92 -377 -258 -483l-49 59c152 103 229 244 229 424s-77 321 -229 425z" />
    <glyph glyph-name="emdash" unicode="&#x2014;" horiz-adv-x="591" 
d="M50 338h491v-72h-491v72z" />
    <glyph glyph-name="endash" unicode="&#x2013;" horiz-adv-x="498" 
d="M50 338h398v-72h-398v72z" />
    <glyph glyph-name="hyphen" unicode="-" horiz-adv-x="405" 
d="M50 338h305v-72h-305v72z" />
    <glyph glyph-name="guillemotleft" unicode="&#xab;" horiz-adv-x="503" 
d="M245 418l-138 -157l138 -157l-56 -50l-179 207l179 207zM469 418l-138 -157l138 -157l-56 -50l-179 207l179 207z" />
    <glyph glyph-name="guillemotright" unicode="&#xbb;" horiz-adv-x="484" 
d="M14 418l56 50l179 -207l-179 -207l-56 50l138 157zM238 418l56 50l179 -207l-179 -207l-56 50l138 157z" />
    <glyph glyph-name="guilsinglleft" unicode="&#x2039;" horiz-adv-x="285" 
d="M245 418l-138 -157l138 -157l-56 -50l-179 207l179 207z" />
    <glyph glyph-name="guilsinglright" unicode="&#x203a;" horiz-adv-x="280" 
d="M35 418l56 50l179 -207l-179 -207l-56 50l138 157z" />
    <glyph glyph-name="quotedblbase" unicode="&#x201e;" horiz-adv-x="454" 
d="M112 113h78c0 -131 -34 -213 -158 -262l-32 68c87 37 112 85 112 194zM336 113h78c0 -131 -34 -213 -158 -262l-32 68c87 37 112 85 112 194z" />
    <glyph glyph-name="quotedblleft" unicode="&#x201c;" horiz-adv-x="464" 
d="M108 521h-78c0 131 34 213 158 262l32 -68c-87 -37 -112 -85 -112 -194zM332 521h-78c0 131 34 213 158 262l32 -68c-87 -37 -112 -85 -112 -194z" />
    <glyph glyph-name="quotedblright" unicode="&#x201d;" horiz-adv-x="464" 
d="M132 700h78c0 -131 -34 -213 -158 -262l-32 68c87 37 112 85 112 194zM356 700h78c0 -131 -34 -213 -158 -262l-32 68c87 37 112 85 112 194z" />
    <glyph glyph-name="quoteleft" unicode="&#x2018;" horiz-adv-x="250" 
d="M118 498h-78c0 131 34 213 158 262l32 -68c-87 -37 -112 -85 -112 -194z" />
    <glyph glyph-name="quoteright" unicode="&#x2019;" horiz-adv-x="240" 
d="M132 700h78c0 -131 -34 -213 -158 -262l-32 68c87 37 112 85 112 194z" />
    <glyph glyph-name="quotesinglbase" unicode="&#x201a;" horiz-adv-x="230" 
d="M112 113h78c0 -131 -34 -213 -158 -262l-32 68c87 37 112 85 112 194z" />
    <glyph glyph-name="CR" unicode="&#xd;" horiz-adv-x="560" 
 />
    <glyph glyph-name="cent" unicode="&#xa2;" horiz-adv-x="521" 
d="M481 190c0 -110 -74 -190 -195 -196v-120h-48v122c-132 15 -198 121 -198 261c0 159 87 242 198 256v100h48v-98c85 -4 143 -40 180 -108l-65 -45c-23 46 -56 73 -115 77v-370c78 5 121 53 121 134c0 5 0 11 -1 15h73c1 -8 2 -16 2 -28zM118 256c0 -106 43 -170 120 -184
v365c-71 -12 -120 -69 -120 -181z" />
    <glyph glyph-name="currency" unicode="&#xa4;" horiz-adv-x="532" 
d="M492 294c0 -69 -29 -131 -78 -173l75 -105l-38 -27l-74 106c-33 -18 -70 -28 -111 -28s-78 10 -111 28l-74 -106l-38 27l74 106c-48 41 -77 103 -77 172c0 68 29 130 77 171l-74 105l38 27l74 -105c32 18 70 28 111 28s79 -10 111 -28l74 105l38 -27l-73 -105
c47 -42 76 -103 76 -171zM109 294c0 -88 68 -158 157 -158c90 0 157 70 157 158c0 87 -67 157 -157 157c-89 0 -157 -70 -157 -157z" />
    <glyph glyph-name="dollar" unicode="$" horiz-adv-x="574" 
d="M529 193c0 -137 -105 -203 -223 -204v-115h-48v118c-113 15 -213 90 -213 217c0 8 0 26 2 40h84c-2 -15 -2 -32 -2 -37c0 -77 59 -124 129 -138v244c-89 24 -179 58 -179 184c0 112 69 185 179 196v119h48v-117c90 -5 162 -52 196 -120l-74 -41c-23 43 -70 72 -122 78
v-231c6 -1 11 -3 17 -4c99 -24 206 -49 206 -189zM159 509c0 -65 43 -92 99 -110v217c-57 -9 -99 -48 -99 -107zM306 69c79 0 142 39 142 116c0 81 -66 102 -142 121v-237z" />
    <glyph glyph-name="Euro" unicode="&#x20ac;" horiz-adv-x="789" 
d="M738 304c1 -11 2 -21 2 -36c0 -171 -109 -279 -293 -279c-183 0 -286 107 -318 252h-99v51h91c-2 18 -3 36 -3 55c0 18 1 35 3 52h-91v52h99c39 168 173 249 311 249c122 0 240 -63 279 -177l-77 -32c-31 83 -113 129 -204 129c-97 0 -189 -54 -224 -169h275v-52h-286
c-2 -17 -3 -34 -3 -53c0 -18 1 -36 3 -54h286v-51h-275c28 -100 101 -172 233 -172c127 0 215 67 215 190c0 13 -1 28 -4 45h80z" />
    <glyph glyph-name="florin" unicode="&#x192;" horiz-adv-x="334" 
d="M242 625c-52 0 -72 -32 -72 -90v-29h9c53 0 95 3 142 11l10 -70c-51 -9 -98 -13 -155 -13h-6v-486c0 -93 -54 -151 -138 -151h-57v74h55c43 0 63 25 63 77v486h-102v72h102v32c0 98 48 162 142 162h99v-75h-92z" />
    <glyph glyph-name="sterling" unicode="&#xa3;" horiz-adv-x="565" 
d="M439 142h73c-1 -82 -57 -142 -141 -142h-341v70h22c58 0 89 38 89 113v204h-103v72h103v79c0 98 48 162 142 162h108v-75h-102c-51 0 -71 -32 -71 -90v-76h9c53 0 95 4 142 11l10 -70c-51 -9 -98 -13 -155 -13h-6v-227c0 -32 -14 -66 -33 -90h172c58 0 82 29 82 72z" />
    <glyph glyph-name="yen" unicode="&#xa5;" 
d="M319 318v-63h173v-44h-173v-78h173v-43h-173v-90h-79v90h-173v43h173v78h-173v44h173v63l-225 383h92l172 -304l173 304h92z" />
    <glyph glyph-name="plus" unicode="+" horiz-adv-x="498" 
d="M448 338v-72h-162v-163h-74v163h-162v72h162v163h74v-163h162z" />
    <glyph glyph-name="minus" unicode="&#x2212;" horiz-adv-x="498" 
d="M50 338h398v-72h-398v72z" />
    <glyph glyph-name="multiply" unicode="&#xd7;" horiz-adv-x="471" 
d="M421 406l-130 -130l130 -130l-56 -55l-129 130l-130 -130l-56 55l130 130l-130 130l56 56l130 -130l129 130z" />
    <glyph glyph-name="divide" unicode="&#xf7;" horiz-adv-x="571" 
d="M228 413v92h87v-92h-87zM70 352h398v-72h-398v72zM228 126v92h87v-92h-87z" />
    <glyph glyph-name="equal" unicode="=" horiz-adv-x="451" 
d="M50 426h351v-71h-351v71zM50 249h351v-72h-351v72z" />
    <glyph glyph-name="greater" unicode="&#x3e;" horiz-adv-x="416" 
d="M57 479l57 64l259 -252l-259 -252l-57 64l200 188z" />
    <glyph glyph-name="less" unicode="&#x3c;" horiz-adv-x="416" 
d="M356 479l-200 -188l200 -188l-57 -64l-259 252l259 252z" />
    <glyph glyph-name="plusminus" unicode="&#xb1;" horiz-adv-x="571" 
d="M286 478h162v-72h-162v-163h-74v163h-162v72h162v163h74v-163zM50 98v72h398v-72h-398z" />
    <glyph glyph-name="asciitilde" unicode="~" horiz-adv-x="535" 
d="M485 423c0 -104 -49 -174 -123 -174c-81 0 -133 83 -185 83c-30 0 -47 -27 -51 -76h-76c0 94 51 159 121 159c78 0 133 -82 185 -82c31 0 48 32 48 90h81z" />
    <glyph glyph-name="logicalnot" unicode="&#xac;" horiz-adv-x="498" 
d="M50 338h398v-249h-76v177h-322v72z" />
    <glyph glyph-name="infinity" unicode="&#x221e;" horiz-adv-x="801" 
d="M561 506c120 0 190 -88 190 -225s-70 -225 -190 -225c-65 0 -131 28 -161 101c-29 -73 -95 -101 -160 -101c-120 0 -190 88 -190 225s70 225 190 225c65 0 131 -28 160 -101c30 73 96 101 161 101zM245 134c69 0 115 60 115 147s-46 146 -115 146
c-73 0 -121 -58 -121 -146s48 -147 121 -147zM556 134c73 0 121 59 121 147s-48 146 -121 146c-69 0 -115 -59 -115 -146s46 -147 115 -147z" />
    <glyph glyph-name="percent" unicode="%" horiz-adv-x="976" 
d="M218 347c-108 0 -188 80 -188 187c0 108 80 188 188 188c107 0 187 -80 187 -188c0 -107 -80 -187 -187 -187zM288 -11l-58 39l444 669l58 -39zM218 420c65 0 112 48 112 114c0 67 -47 115 -112 115c-66 0 -113 -48 -113 -115c0 -66 47 -114 113 -114zM761 -11
c-108 0 -188 80 -188 187c0 108 80 188 188 188c107 0 187 -80 187 -188c0 -107 -80 -187 -187 -187zM761 62c65 0 112 48 112 114c0 67 -47 115 -112 115c-66 0 -113 -48 -113 -115c0 -66 47 -114 113 -114z" />
    <glyph glyph-name="perthousand" unicode="&#x2030;" horiz-adv-x="1396" 
d="M218 347c-108 0 -188 80 -188 187c0 108 80 188 188 188c107 0 187 -80 187 -188c0 -107 -80 -187 -187 -187zM288 -11l-58 39l444 669l58 -39zM218 420c65 0 112 48 112 114c0 67 -47 115 -112 115c-66 0 -113 -48 -113 -115c0 -66 47 -114 113 -114zM761 -11
c-108 0 -188 80 -188 187c0 108 80 188 188 188c107 0 187 -80 187 -188c0 -107 -80 -187 -187 -187zM1181 -11c-108 0 -188 80 -188 187c0 108 80 188 188 188c107 0 187 -80 187 -188c0 -107 -80 -187 -187 -187zM761 62c65 0 112 48 112 114c0 67 -47 115 -112 115
c-66 0 -113 -48 -113 -115c0 -66 47 -114 113 -114zM1181 62c65 0 112 48 112 114c0 67 -47 115 -112 115c-66 0 -113 -48 -113 -115c0 -66 47 -114 113 -114z" />
    <glyph glyph-name="at" unicode="@" horiz-adv-x="785" 
d="M395 656c213 0 340 -132 340 -329c0 -131 -56 -209 -144 -209c-51 0 -81 24 -92 67c-17 -45 -59 -67 -122 -67c-98 0 -164 54 -164 134c0 68 48 114 119 114h83c34 0 47 -4 65 -17v32c0 45 -32 71 -89 71s-85 -18 -101 -55l-64 34c29 61 81 93 166 93
c99 0 161 -56 161 -146v-134c0 -38 11 -56 42 -56c47 0 69 46 69 128c0 168 -94 271 -268 271s-279 -101 -279 -277c0 -174 102 -272 278 -272c45 0 98 7 129 25l23 -64c-45 -20 -91 -30 -150 -30c-220 0 -347 128 -347 340c0 215 133 347 345 347zM373 188
c62 0 107 32 107 76c0 28 -21 32 -52 32h-98c-28 0 -43 -15 -43 -43c0 -41 30 -65 86 -65z" />
    <glyph glyph-name="ampersand" unicode="&#x26;" horiz-adv-x="722" 
d="M702 0h-100l-111 155c-54 -109 -134 -166 -235 -166c-132 0 -226 96 -226 225c0 128 93 219 207 219c20 0 40 -3 60 -8l-150 209v66h207c79 0 146 4 203 15l12 -79c-73 -15 -152 -15 -215 -15h-108l228 -310l65 153h83l-96 -225zM426 190l16 37l-49 67
c-33 44 -89 62 -140 62c-83 0 -146 -54 -146 -142s62 -149 150 -149c73 0 132 46 169 125z" />
    <glyph glyph-name="paragraph" unicode="&#xb6;" horiz-adv-x="568" 
d="M518 700v-902h-51v486h-89v-486h-51v486h-39c-127 0 -238 74 -238 210c0 151 111 206 238 206h230zM289 362h38v259h-38c-61 0 -156 -27 -156 -127c0 -109 95 -132 156 -132zM378 362h89v259h-89v-259z" />
    <glyph glyph-name="section" unicode="&#xa7;" horiz-adv-x="461" 
d="M372 244c29 -19 49 -49 49 -98c0 -103 -85 -152 -182 -152c-87 0 -199 39 -199 166c0 7 0 14 1 22h74c-1 -6 -1 -8 -1 -11c0 -80 63 -104 126 -104c67 0 105 28 105 72c0 49 -47 62 -109 76c-80 18 -171 39 -171 145c0 45 15 73 41 98c-27 21 -45 50 -45 98
c0 98 76 155 169 155c67 0 131 -30 165 -93l-65 -42c-19 42 -63 62 -106 62c-54 0 -88 -32 -88 -76c0 -57 56 -70 117 -83c77 -17 164 -34 164 -138c0 -45 -17 -73 -45 -97zM298 273c28 12 44 34 44 62c0 49 -48 62 -109 76c-21 4 -42 9 -62 15c-20 -14 -31 -35 -31 -60
c0 -57 56 -70 117 -83c13 -3 27 -6 41 -10z" />
    <glyph glyph-name="copyright" unicode="&#xa9;" horiz-adv-x="708" 
d="M354 -10c-177 0 -304 126 -304 303s127 304 304 304s304 -127 304 -304s-127 -303 -304 -303zM354 50c143 0 242 99 242 243s-99 243 -242 243c-144 0 -243 -99 -243 -243s99 -243 243 -243zM419 349c-17 20 -37 31 -61 31c-48 0 -79 -34 -79 -85c0 -54 31 -86 81 -86
c39 0 66 26 69 65h61c-5 -78 -55 -127 -133 -127c-83 0 -141 62 -141 149s56 144 140 144c44 0 86 -18 114 -51z" />
    <glyph glyph-name="registered" unicode="&#xae;" horiz-adv-x="708" 
d="M354 597c177 0 304 -127 304 -304c0 -176 -128 -304 -304 -304c-177 0 -304 128 -304 304c0 177 127 304 304 304zM354 50c143 0 242 99 242 243s-99 243 -242 243c-144 0 -243 -99 -243 -243s99 -243 243 -243zM478 351c0 -42 -17 -70 -49 -85l53 -102h-71l-45 89h-8
h-55v-89h-66v286h117c83 0 124 -31 124 -99zM303 386v-73h59c35 0 53 13 53 38c0 24 -19 35 -53 35h-59z" />
    <glyph glyph-name="trademark" unicode="&#x2122;" horiz-adv-x="688" 
d="M32 710c32 -7 52 -10 85 -10h164v-67h-92v-217h-69v217h-12c-22 0 -48 0 -88 11zM545 700h103v-284h-67v183l-61 -183h-76l-60 183v-183h-67v284h102l62 -193z" />
    <glyph glyph-name="degree" unicode="&#xb0;" horiz-adv-x="435" 
d="M218 336c-108 0 -188 80 -188 187c0 108 80 188 188 188c107 0 187 -80 187 -188c0 -107 -80 -187 -187 -187zM218 409c65 0 112 48 112 114c0 67 -47 115 -112 115c-66 0 -113 -48 -113 -115c0 -66 47 -114 113 -114z" />
    <glyph glyph-name="bar" unicode="|" horiz-adv-x="236" 
d="M156 -112h-76v823h76v-823z" />
    <glyph glyph-name="brokenbar" unicode="&#xa6;" horiz-adv-x="236" 
d="M156 355h-76v356h76v-356zM156 -112h-76v356h76v-356z" />
    <glyph glyph-name="dagger" unicode="&#x2020;" horiz-adv-x="517" 
d="M467 512v-73h-170v-439h-77v439h-170v73h170v188h77v-188h170z" />
    <glyph glyph-name="daggerdbl" unicode="&#x2021;" horiz-adv-x="517" 
d="M467 432h-170v-160h170v-74h-170v-198h-77v198h-170v74h170v160h-170v74h170v194h77v-194h170v-74z" />
    <glyph glyph-name="uni2116" unicode="&#x2116;" horiz-adv-x="1144" 
d="M927 336c-108 0 -188 80 -188 187c0 108 80 188 188 188c107 0 187 -80 187 -188c0 -107 -80 -187 -187 -187zM570 700h81v-700h-88l-397 569v-569h-81v700h88l397 -568v568zM927 409c65 0 112 48 112 114c0 67 -47 115 -112 115c-66 0 -113 -48 -113 -115
c0 -66 47 -114 113 -114z" />
    <glyph glyph-name="asciicircum" unicode="^" horiz-adv-x="472" 
d="M236 731l226 -236l-55 -53l-171 178l-171 -178l-55 53z" />
    <glyph glyph-name="acute" unicode="&#xb4;" horiz-adv-x="245" 
d="M245 699c-50 -77 -132 -111 -245 -111v65c85 0 149 29 188 87z" />
    <glyph glyph-name="breve" unicode="&#x2d8;" horiz-adv-x="211" 
d="M195 759c10 -23 16 -45 16 -68c0 -57 -37 -103 -106 -103s-105 46 -105 103c0 23 6 45 16 68l58 -25c-9 -15 -12 -30 -12 -42c0 -26 17 -44 43 -44c27 0 44 18 44 44c0 12 -3 27 -12 42z" />
    <glyph glyph-name="caron" unicode="&#x2c7;" horiz-adv-x="296" 
d="M80 740l69 -84l67 84h80l-120 -152h-55l-121 152h80z" />
    <glyph glyph-name="cedilla" unicode="&#xb8;" horiz-adv-x="206" 
d="M104 -41c60 -2 102 -31 102 -77c0 -48 -40 -85 -100 -85c-43 0 -79 14 -106 37l30 46c24 -20 46 -30 72 -30c28 0 44 14 44 34c0 22 -27 45 -91 45l12 77h37v-47z" />
    <glyph glyph-name="circumflex" unicode="&#x2c6;" horiz-adv-x="296" 
d="M216 588l-69 84l-67 -84h-80l120 152h55l121 -152h-80z" />
    <glyph glyph-name="dieresis" unicode="&#xa8;" horiz-adv-x="291" 
d="M87 588v98h-87v-98h87zM291 588v98h-87v-98h87z" />
    <glyph glyph-name="dotaccent" unicode="&#x2d9;" horiz-adv-x="90" 
d="M3 588v92h87v-92h-87z" />
    <glyph glyph-name="grave" unicode="`" horiz-adv-x="245" 
d="M0 699l57 41c39 -58 103 -87 188 -87v-65c-113 0 -195 34 -245 111z" />
    <glyph glyph-name="hungarumlaut" unicode="&#x2dd;" horiz-adv-x="224" 
d="M52 754l60 -22l-54 -144l-58 21zM164 754l60 -22l-54 -144l-58 21z" />
    <glyph glyph-name="macron" unicode="&#xaf;" horiz-adv-x="298" 
d="M298 588h-298v62h298v-62z" />
    <glyph glyph-name="ogonek" unicode="&#x2db;" horiz-adv-x="132" 
d="M132 -106v-58c-71 6 -132 50 -132 107c0 29 15 51 35 64h52c-17 -13 -31 -28 -31 -54c0 -39 39 -57 76 -59z" />
    <glyph glyph-name="ring" unicode="&#x2da;" horiz-adv-x="188" 
d="M0 682c0 56 40 93 92 93c55 0 96 -37 96 -93c0 -55 -41 -94 -96 -94c-52 0 -92 39 -92 94zM140 682c0 27 -17 48 -47 48s-45 -21 -45 -48c0 -28 15 -49 45 -49s47 21 47 49z" />
    <glyph glyph-name="tilde" unicode="&#x2dc;" horiz-adv-x="322" 
d="M322 710c0 -85 -43 -122 -89 -122c-54 0 -99 50 -135 50c-23 0 -34 -20 -37 -46h-61c5 76 42 121 93 121c54 0 92 -52 132 -52c25 0 33 22 36 49h61z" />
    <glyph glyph-name="acute.cap" horiz-adv-x="245" 
d="M245 878c-50 -77 -132 -111 -245 -111v65c85 0 149 29 188 87z" />
    <glyph glyph-name="breve.cap" horiz-adv-x="211" 
d="M195 947c10 -22 16 -45 16 -67c0 -57 -37 -104 -106 -104s-105 47 -105 104c0 22 6 45 16 67l58 -24c-9 -15 -12 -30 -12 -42c0 -26 17 -44 43 -44c27 0 44 18 44 44c0 12 -3 27 -12 42z" />
    <glyph glyph-name="caron.cap" horiz-adv-x="296" 
d="M216 919h80l-121 -152h-55l-120 152h80l67 -84z" />
    <glyph glyph-name="cedilla.cap" horiz-adv-x="206" 
d="M104 -41c60 -2 102 -31 102 -77c0 -48 -40 -85 -100 -85c-43 0 -79 14 -106 37l30 46c24 -20 46 -30 72 -30c28 0 44 14 44 34c0 22 -27 45 -91 45l12 77h37v-47z" />
    <glyph glyph-name="circumflex.cap" horiz-adv-x="296" 
d="M216 776l-69 84l-67 -84h-80l120 152h55l121 -152h-80z" />
    <glyph glyph-name="dieresis.cap" horiz-adv-x="272" 
d="M87 776v98h-87v-98h87zM272 776v98h-86v-98h86z" />
    <glyph glyph-name="dotaccent.cap" horiz-adv-x="90" 
d="M3 776v92h87v-92h-87z" />
    <glyph glyph-name="grave.cap" horiz-adv-x="245" 
d="M0 878l57 41c39 -58 103 -87 188 -87v-65c-113 0 -195 34 -245 111z" />
    <glyph glyph-name="hungarumlaut.cap" horiz-adv-x="274" 
d="M98 935l48 -41l-99 -118l-47 40zM226 934l48 -40l-100 -118l-47 40z" />
    <glyph glyph-name="macron.cap" horiz-adv-x="298" 
d="M298 777h-298v63h298v-63z" />
    <glyph glyph-name="ring.cap" horiz-adv-x="188" 
d="M0 857c0 56 40 93 92 93c55 0 96 -37 96 -93c0 -55 -41 -94 -96 -94c-52 0 -92 39 -92 94zM140 857c0 27 -17 48 -47 48s-45 -21 -45 -48c0 -28 15 -49 45 -49s47 21 47 49z" />
    <glyph glyph-name="tilde.cap" horiz-adv-x="322" 
d="M322 893c0 -85 -43 -122 -89 -122c-54 0 -99 50 -135 50c-23 0 -34 -20 -37 -47h-61c5 77 42 122 93 122c54 0 92 -53 132 -53c25 0 33 23 36 50h61z" />
    </font>
</defs>
</svg>
