<?xml version="1.0" encoding="UTF-8"?>
<svg width="16px" height="16px" viewBox="0 0 16 16" version="1.1" xmlns="http://www.w3.org/2000/svg" xmlns:xlink="http://www.w3.org/1999/xlink">
    <!-- Generator: Sketch 44.1 (41455) - http://www.bohemiancoding.com/sketch -->
    <title>Shape</title>
    <desc>Created with Sketch.</desc>
    <defs></defs>
    <g id="Desktop" stroke="none" stroke-width="1" fill="none" fill-rule="evenodd">
        <g id="05-Product-Page" transform="translate(-1078.000000, -1129.000000)" fill-rule="nonzero" fill="#232323">
            <g id="Share" transform="translate(1077.000000, 1129.000000)">
                <path d="M9.29082139,8.26793804 L2.75879861,8.90014989 L1.03958221,14.3976442 C0.936955932,14.7226549 1.03786974,15.0775545 1.29614644,15.2999443 C1.55442315,15.5223341 1.92037314,15.5694288 2.22654121,15.4196784 L16.5425162,8.48783781 C16.8224306,8.35129781 17,8.06711212 17,7.75567153 C17,7.44423093 16.8224306,7.16004524 16.5425162,7.02350524 L2.23653666,0.086666969 C1.93036859,-0.0630835163 1.56441859,-0.0159887941 1.30614189,0.20640104 C1.04786519,0.428790874 0.946951377,0.783690462 1.04957766,1.10870114 L2.76879406,6.60619544 L9.28832253,7.23840729 C9.55171512,7.26445506 9.75242816,7.48599638 9.75242816,7.7506738 C9.75242816,8.01535123 9.55171512,8.23689255 9.28832253,8.26294032 L9.29082139,8.26793804 Z" id="Shape"></path>
            </g>
        </g>
    </g>
</svg>