<?xml version="1.0" encoding="UTF-8"?>
<svg width="44px" height="15px" viewBox="0 0 44 15" version="1.1" xmlns="http://www.w3.org/2000/svg" xmlns:xlink="http://www.w3.org/1999/xlink">
    <!-- Generator: Sketch 45.2 (43514) - http://www.bohemiancoding.com/sketch -->
    <title>Group 4</title>
    <desc>Created with Sketch.</desc>
    <defs></defs>
    <g id="Desktop" stroke="none" stroke-width="1" fill="none" fill-rule="evenodd">
        <g id="14-Checkout" transform="translate(-736.000000, -2279.000000)" fill="#0072CE">
            <g id="Group-3" transform="translate(475.000000, 2268.000000)">
                <g id="AmericanExpress-light" transform="translate(253.000000, 0.000000)">
                    <g id="Group-4" transform="translate(8.400000, 11.400000)">
                        <g id="express" transform="translate(9.600000, 8.400000)">
                            <path d="M28.4133434,2.52390885 C28.6462101,2.77407208 28.7711703,3.09006773 28.7711703,3.62503458 C28.7711703,4.74324539 28.0985282,5.2652025 26.8922395,5.2652025 L24.562969,5.2652025 L24.562969,4.15075354 L26.8830335,4.15075354 C27.1098635,4.15075354 27.2705913,4.11956151 27.3714046,4.02191007 C27.453655,3.94165721 27.5128149,3.82472628 27.5128149,3.68287307 C27.5128149,3.53145849 27.4489765,3.41123593 27.3668771,3.33913375 C27.2752698,3.25982135 27.1491022,3.22377026 26.9409861,3.22377026 C25.8223809,3.1842708 24.4217096,3.25982135 24.4217096,1.61495111 C24.4217096,0.861013067 24.8779352,0.0674188214 26.1316121,0.0674188214 L28.5293995,0.0674188214 L28.5293995,1.17387384 L26.3355025,1.17387384 C26.1178786,1.17387384 25.9766192,1.18218127 25.8561865,1.26760668 C25.7253405,1.35177814 25.6767449,1.47670301 25.6767449,1.64159757 C25.6767449,1.8378409 25.7879715,1.9710732 25.9384369,2.02891169 C26.0646045,2.07452416 26.199978,2.08769064 26.4038684,2.08769064 L27.0476852,2.10571619 C27.6967841,2.12217429 28.1424454,2.23894848 28.4133434,2.52390885 L28.4133434,2.52390885 Z" id="s"></path>
                            <path d="M32.9382972,2.52390885 C33.1711639,2.77407208 33.2961241,3.09006773 33.2961241,3.62503458 C33.2961241,4.74324539 32.623482,5.2652025 31.4171933,5.2652025 L29.0879228,5.2652025 L29.0879228,4.15075354 L31.4079873,4.15075354 C31.6348173,4.15075354 31.7955451,4.11956151 31.8963584,4.02191007 C31.9786088,3.94165721 32.0377687,3.82472628 32.0377687,3.68287307 C32.0377687,3.53145849 31.9739303,3.41123593 31.8918309,3.33913375 C31.8002235,3.25982135 31.674056,3.22377026 31.4659399,3.22377026 C30.3473346,3.1842708 28.9466634,3.25982135 28.9466634,1.61495111 C28.9466634,0.861013067 29.4028889,0.0674188214 30.6565659,0.0674188214 L33.0543533,0.0674188214 L33.0543533,1.17387384 L30.8604563,1.17387384 C30.6428324,1.17387384 30.501573,1.18218127 30.3811403,1.26760668 C30.2502943,1.35177814 30.2016986,1.47670301 30.2016986,1.64159757 C30.2016986,1.8378409 30.3129253,1.9710732 30.4633907,2.02891169 C30.5895583,2.07452416 30.7249318,2.08769064 30.9288222,2.08769064 L31.572639,2.10571619 C32.2217379,2.12217429 32.6673992,2.23894848 32.9382972,2.52390885 L32.9382972,2.52390885 Z" id="s"></path>
                            <polygon id="Path-4" points="19.8547759 0.0672620776 23.8464097 0.0672620776 23.8464097 1.14236832 21.0456709 1.14236832 21.0456709 2.08737715 23.7778929 2.08737715 23.7778929 3.14774948 21.0456709 3.14774948 21.0456709 4.18194557 23.8464097 4.18664789 23.8464097 5.2652025 19.8547759 5.2652025"></polygon>
                            <path d="M18.3439344,2.84962262 C18.6100031,2.95181963 18.827778,3.13458299 18.9296477,3.28599758 C19.098676,3.53976591 19.1231248,3.77660591 19.1278032,4.234925 L19.1278032,5.2652025 L17.9272495,5.2652025 L17.9272495,4.61487216 C17.9272495,4.30232487 17.9560748,3.83914672 17.7339233,3.5976044 C17.5591601,3.41123593 17.2927896,3.36672067 16.8563344,3.36672067 L15.5783596,3.36672067 L15.5783596,5.2652025 L14.3765985,5.2652025 L14.3765985,0.0672620776 L17.1377967,0.0672620776 C17.7431293,0.0672620776 18.1841121,0.0950057436 18.5768011,0.312722988 C18.9542474,0.549406241 19.1916416,0.873866065 19.1916416,1.46682815 C19.1914907,2.29647349 18.6587497,2.71983869 18.3439344,2.84962262 Z M17.6216402,2.20274065 C17.7766332,2.1054027 17.869146,1.92640119 17.869146,1.70382489 C17.869146,1.48156207 17.7766332,1.32042937 17.6216402,1.23625791 C17.4769097,1.14722738 17.2638133,1.14252507 17.0507169,1.14252507 L15.5782087,1.14252507 L15.5782087,2.30995346 L17.0309466,2.30995346 C17.2638133,2.30995346 17.4615161,2.30133255 17.6216402,2.20274065 Z" id="r"></path>
                            <path d="M13.8150321,1.77968893 C13.8150321,3.22377026 12.7777717,3.52174037 11.7322109,3.52174037 L10.2399323,3.52174037 L10.2399323,5.2652025 L7.91534027,5.2652025 L6.44268109,3.54462497 L4.91237119,5.2652025 L0.17489996,5.2652025 L0.17489996,0.0672620776 L4.98511373,0.0672620776 L6.45656556,1.77106801 L7.97782038,0.0672620776 L11.7995204,0.0672620776 C12.7486445,0.0672620776 13.8150321,0.340153166 13.8150321,1.77968893 Z M11.7856359,2.46607036 C12.2451816,2.46607036 12.5308696,2.22938711 12.5308696,1.77968893 C12.5308696,1.32528843 12.2312971,1.14252507 11.7995204,1.14252507 L10.2399323,1.14252507 L10.2399323,2.46607036 L11.7856359,2.46607036 Z M9.04888639,4.79246297 L9.04888639,0.625270277 L7.21266543,2.67516669 L9.04888639,4.79246297 Z M4.30688762,4.18194557 L5.6729986,2.65714114 L4.36484019,1.14236832 L1.36639865,1.14236832 L1.36639865,2.08737715 L3.99192147,2.08737715 L3.99192147,3.14774948 L1.36639865,3.14774948 L1.36639865,4.18194557 L4.30688762,4.18194557 Z" id="exp"></path>
                        </g>
                        <g id="american">
                            <path d="M40.1516901,5.17761713 L38.4408408,5.17761713 L36.1520905,1.43966785 L36.1520905,5.17761713 L33.6933065,5.17761713 L33.2234285,4.06677744 L30.7152799,4.06677744 L30.2594191,5.17761713 L28.8464335,5.17761713 C28.2596955,5.17761713 27.5166363,5.04963398 27.0958183,4.62677884 C26.6714959,4.20392371 26.4505741,3.63130425 26.4505741,2.72550798 C26.4505741,1.98690098 26.5826701,1.3116847 27.1016079,0.778121131 C27.4918016,0.380652324 28.1030695,0.197390062 28.9351069,0.197390062 L30.1041644,0.197390062 L30.1041644,1.2645172 L28.9596369,1.2645172 C28.5191644,1.2645172 28.2703607,1.32910964 28.0306986,1.55968961 C27.824708,1.76923949 27.6834704,2.1656568 27.6834704,2.68765381 C27.6834704,3.22121738 27.7910365,3.60606813 28.0156149,3.85722756 C28.201494,4.0543096 28.5391236,4.11409515 28.8569463,4.11409515 L29.3991952,4.11409515 L31.1010552,0.197540277 L32.9101766,0.197540277 L34.9543893,4.90813148 L34.9543893,0.197540277 L36.7926115,0.197540277 L38.9149848,3.66615412 L38.9149848,0.197540277 L40.1516901,0.197540277 L40.1516901,5.17761713 Z M32.769768,3.02864179 L31.9435202,1.04340077 L31.121691,3.02864179 L32.769768,3.02864179 Z" id="can"></path>
                            <polygon id="i" points="24.6272832 0.197390062 25.8592653 0.197390062 25.8592653 5.17761713 24.6272832 5.17761713"></polygon>
                            <path d="M23.9268848,1.53865952 C23.9268848,2.33284606 23.3895114,2.74293292 23.0761071,2.8661092 C23.3402992,2.96525107 23.5660966,3.14040173 23.6735103,3.28550939 C23.8438486,3.53321387 23.8732541,3.75448052 23.8732541,4.19926704 L23.8732541,5.17761713 L22.6554415,5.17761713 L22.6508707,4.54956835 C22.6508707,4.24988949 22.6799714,3.81892274 22.4602684,3.57932987 C22.283988,3.40417921 22.0149205,3.36617483 21.58039,3.36617483 L20.2842644,3.36617483 L20.2842644,5.17761713 L19.0768122,5.17761713 L19.0768122,0.197390062 L21.8540284,0.197390062 C22.4709336,0.197390062 22.9257279,0.213613279 23.3159216,0.435931433 C23.6978879,0.658550016 23.9268848,0.983164563 23.9268848,1.53865952 Z M22.3481315,2.23806041 C22.5046052,2.15754519 22.5969353,1.98224432 22.5969353,1.76458283 C22.5969353,1.55127757 22.5000344,1.3970068 22.3434084,1.32430276 C22.2007995,1.24393775 21.9810966,1.23447421 21.7708399,1.23447421 L20.284112,1.23447421 L20.284112,2.34065723 L21.7508808,2.34065723 C21.9859721,2.34065723 22.1822116,2.33735251 22.3481315,2.23806041 Z" id="r"></path>
                            <polygon id="e" points="18.2400517 5.17761713 14.2064758 5.17761713 14.2064758 0.197390062 18.2400517 0.197390062 18.2400517 1.23447421 15.4140803 1.23447421 15.4140803 2.13215886 18.1722515 2.13215886 18.1722515 3.15301979 15.4140803 3.15301979 15.4140803 4.14759309 18.2400517 4.14759309"></polygon>
                            <path d="M13.3067906,5.17761713 L12.0690188,5.17761713 L12.064448,1.27713526 L10.3135281,5.17761713 L9.25340794,5.17761713 L7.49822194,1.27368031 L7.49822194,5.17761713 L5.04248514,5.17761713 L4.57854926,4.06677744 L2.06461098,4.06677744 L1.59595194,5.17761713 L0.284437956,5.17761713 L2.4467296,0.197390062 L4.24046265,0.197390062 L6.29412169,4.91263793 L6.29412169,0.197390062 L8.26459222,0.197390062 L9.8447167,3.57587492 L11.2964018,0.197390062 L13.3066382,0.197390062 L13.3066382,5.17761713 L13.3067906,5.17761713 Z M4.14249524,3.02864179 L3.31624752,1.04340077 L2.49441824,3.02864179 L4.14249524,3.02864179 Z" id="am"></path>
                        </g>
                    </g>
                </g>
            </g>
        </g>
    </g>
</svg>